<?xml version="1.0" encoding="utf-8" standalone="no"?>
<!DOCTYPE svg PUBLIC "-//W3C//DTD SVG 1.1//EN"
  "http://www.w3.org/Graphics/SVG/1.1/DTD/svg11.dtd">
<!-- Created with matplotlib (http://matplotlib.org/) -->
<svg height="252pt" version="1.1" viewBox="0 0 1440 252" width="1440pt" xmlns="http://www.w3.org/2000/svg" xmlns:xlink="http://www.w3.org/1999/xlink">
 <defs>
  <style type="text/css">
*{stroke-linecap:butt;stroke-linejoin:round;}
  </style>
 </defs>
 <g id="figure_1">
  <g id="patch_1">
   <path d="M 0 252 
L 1440 252 
L 1440 0 
L 0 0 
z
" style="fill:#f0f0f0;"/>
  </g>
  <g id="axes_1">
   <g id="patch_2">
    <path d="M 115.2 234.36 
L 1368 234.36 
L 1368 30.24 
L 115.2 30.24 
z
" style="fill:#f0f0f0;"/>
   </g>
   <g id="matplotlib.axis_1"/>
   <g id="matplotlib.axis_2">
    <g id="ytick_1">
     <g id="line2d_1"/>
     <g id="text_1">
      <!-- 20 -->
      <defs>
       <path d="M 44.59375 54.09375 
Q 44.59375 48.796875 42.640625 43.25 
Q 40.703125 37.703125 37.546875 32.09375 
Q 34.40625 26.5 30.5 21.140625 
Q 26.59375 15.796875 22.703125 11 
L 17.796875 6.703125 
L 17.796875 6.296875 
L 24.203125 7.40625 
L 46 7.40625 
L 46 0 
L 6.203125 0 
L 6.203125 2.90625 
Q 8.40625 5.203125 11.5 8.59375 
Q 14.59375 12 17.9375 16.140625 
Q 21.296875 20.296875 24.546875 24.9375 
Q 27.796875 29.59375 30.4375 34.390625 
Q 33.09375 39.203125 34.6875 43.890625 
Q 36.296875 48.59375 36.296875 52.796875 
Q 36.296875 57.703125 33.5 60.953125 
Q 30.703125 64.203125 25 64.203125 
Q 21.203125 64.203125 17.59375 62.640625 
Q 14 61.09375 11.40625 59.09375 
L 8.09375 64.796875 
Q 11.59375 67.796875 16.390625 69.5 
Q 21.203125 71.203125 26.703125 71.203125 
Q 31 71.203125 34.296875 69.953125 
Q 37.59375 68.703125 39.890625 66.390625 
Q 42.203125 64.09375 43.390625 60.9375 
Q 44.59375 57.796875 44.59375 54.09375 
z
" id="PTSans-Regular-32"/>
       <path d="M 4.296875 35 
Q 4.296875 53 10.140625 62.09375 
Q 16 71.203125 27.203125 71.203125 
Q 39.296875 71.203125 44.75 62.25 
Q 50.203125 53.296875 50.203125 35 
Q 50.203125 17 44.34375 7.890625 
Q 38.5 -1.203125 27.203125 -1.203125 
Q 15.296875 -1.203125 9.796875 8.296875 
Q 4.296875 17.796875 4.296875 35 
z
M 12.59375 35 
Q 12.59375 28.5 13.4375 23.140625 
Q 14.296875 17.796875 16.09375 13.9375 
Q 17.90625 10.09375 20.65625 7.9375 
Q 23.40625 5.796875 27.203125 5.796875 
Q 34.796875 5.796875 38.34375 12.84375 
Q 41.90625 19.90625 41.90625 35 
Q 41.90625 41.40625 41.15625 46.796875 
Q 40.40625 52.203125 38.65625 56.09375 
Q 36.90625 60 34.09375 62.09375 
Q 31.296875 64.203125 27.203125 64.203125 
Q 19.703125 64.203125 16.140625 57.09375 
Q 12.59375 50 12.59375 35 
z
" id="PTSans-Regular-30"/>
      </defs>
      <g transform="translate(96.44 44.418182)scale(0.14 -0.14)">
       <use xlink:href="#PTSans-Regular-32"/>
       <use x="54.499985" xlink:href="#PTSans-Regular-30"/>
      </g>
     </g>
    </g>
    <g id="ytick_2">
     <g id="line2d_2"/>
     <g id="text_2">
      <!-- 22 -->
      <g transform="translate(96.44 79.003991)scale(0.14 -0.14)">
       <use xlink:href="#PTSans-Regular-32"/>
       <use x="54.499985" xlink:href="#PTSans-Regular-32"/>
      </g>
     </g>
    </g>
    <g id="ytick_3">
     <g id="line2d_3"/>
     <g id="text_3">
      <!-- 24 -->
      <defs>
       <path d="M 52.40625 21.5 
L 40.59375 21.5 
L 40.59375 0 
L 32.796875 0 
L 32.796875 21.5 
L 2 21.5 
L 2 24.796875 
L 35.203125 71.09375 
L 40.59375 71.09375 
L 40.59375 28.5 
L 52.40625 28.5 
z
M 32.796875 50.296875 
L 33.796875 58.5 
L 33.5 58.5 
L 30 51.703125 
L 15.90625 32.59375 
L 11.09375 27.703125 
L 18.09375 28.5 
L 32.796875 28.5 
z
" id="PTSans-Regular-34"/>
      </defs>
      <g transform="translate(96.44 113.5898)scale(0.14 -0.14)">
       <use xlink:href="#PTSans-Regular-32"/>
       <use x="54.499985" xlink:href="#PTSans-Regular-34"/>
      </g>
     </g>
    </g>
    <g id="ytick_4">
     <g id="line2d_4"/>
     <g id="text_4">
      <!-- 26 -->
      <defs>
       <path d="M 49.203125 21.09375 
Q 49.203125 16.5 47.796875 12.453125 
Q 46.40625 8.40625 43.703125 5.34375 
Q 41 2.296875 37 0.546875 
Q 33 -1.203125 27.90625 -1.203125 
Q 22.90625 -1.203125 18.90625 0.390625 
Q 14.90625 2 12 5.140625 
Q 9.09375 8.296875 7.546875 12.890625 
Q 6 17.5 6 23.5 
Q 6 33.40625 8.546875 41.75 
Q 11.09375 50.09375 15.59375 56.296875 
Q 20.09375 62.5 26.25 66.34375 
Q 32.40625 70.203125 39.59375 71.203125 
L 41.296875 64.796875 
Q 35.703125 63.796875 31.09375 61 
Q 26.5 58.203125 23.046875 54.09375 
Q 19.59375 50 17.390625 44.890625 
Q 15.203125 39.796875 14.40625 34.40625 
Q 16 37.09375 19.796875 39.34375 
Q 23.59375 41.59375 29.09375 41.59375 
Q 38.5 41.59375 43.84375 36.1875 
Q 49.203125 30.796875 49.203125 21.09375 
z
M 40.90625 20.296875 
Q 40.90625 27.40625 37.59375 31 
Q 34.296875 34.59375 27.40625 34.59375 
Q 22.5 34.59375 18.953125 32.1875 
Q 15.40625 29.796875 14 26.796875 
Q 13.796875 25.40625 13.796875 24.5 
Q 13.796875 23.59375 13.796875 22.5 
Q 13.796875 19.40625 14.640625 16.40625 
Q 15.5 13.40625 17.296875 11.046875 
Q 19.09375 8.703125 21.75 7.25 
Q 24.40625 5.796875 28 5.796875 
Q 30.90625 5.796875 33.25 6.890625 
Q 35.59375 8 37.296875 9.890625 
Q 39 11.796875 39.953125 14.5 
Q 40.90625 17.203125 40.90625 20.296875 
z
" id="PTSans-Regular-36"/>
      </defs>
      <g transform="translate(96.44 148.175609)scale(0.14 -0.14)">
       <use xlink:href="#PTSans-Regular-32"/>
       <use x="54.499985" xlink:href="#PTSans-Regular-36"/>
      </g>
     </g>
    </g>
    <g id="ytick_5">
     <g id="line2d_5"/>
     <g id="text_5">
      <!-- 28 -->
      <defs>
       <path d="M 6.796875 16.703125 
Q 6.796875 23 10.09375 27.640625 
Q 13.40625 32.296875 20.40625 36.09375 
Q 17.90625 37.59375 15.75 39.25 
Q 13.59375 40.90625 11.9375 43 
Q 10.296875 45.09375 9.34375 47.6875 
Q 8.40625 50.296875 8.40625 53.703125 
Q 8.40625 57.59375 9.75 60.796875 
Q 11.09375 64 13.640625 66.296875 
Q 16.203125 68.59375 19.75 69.890625 
Q 23.296875 71.203125 27.796875 71.203125 
Q 32 71.203125 35.390625 70 
Q 38.796875 68.796875 41.140625 66.6875 
Q 43.5 64.59375 44.796875 61.6875 
Q 46.09375 58.796875 46.09375 55.296875 
Q 46.09375 49.59375 43.5 45.25 
Q 40.90625 40.90625 34.90625 36.703125 
Q 37.5 35.203125 39.84375 33.390625 
Q 42.203125 31.59375 43.953125 29.390625 
Q 45.703125 27.203125 46.703125 24.453125 
Q 47.703125 21.703125 47.703125 18.203125 
Q 47.703125 13.90625 46.296875 10.34375 
Q 44.90625 6.796875 42.203125 4.25 
Q 39.5 1.703125 35.59375 0.25 
Q 31.703125 -1.203125 26.703125 -1.203125 
Q 21.90625 -1.203125 18.203125 0.1875 
Q 14.5 1.59375 11.953125 4 
Q 9.40625 6.40625 8.09375 9.65625 
Q 6.796875 12.90625 6.796875 16.703125 
z
M 39.90625 17.703125 
Q 39.90625 20.703125 38.703125 22.953125 
Q 37.5 25.203125 35.546875 27.046875 
Q 33.59375 28.90625 31.09375 30.40625 
Q 28.59375 31.90625 25.90625 33.296875 
Q 19.796875 29.90625 17.1875 25.703125 
Q 14.59375 21.5 14.59375 17.703125 
Q 14.59375 15.296875 15.390625 13.09375 
Q 16.203125 10.90625 17.796875 9.296875 
Q 19.40625 7.703125 21.75 6.75 
Q 24.09375 5.796875 27.203125 5.796875 
Q 29.703125 5.796875 32 6.546875 
Q 34.296875 7.296875 36.046875 8.75 
Q 37.796875 10.203125 38.84375 12.453125 
Q 39.90625 14.703125 39.90625 17.703125 
z
M 16.203125 53.90625 
Q 16.203125 51.09375 17.296875 48.9375 
Q 18.40625 46.796875 20.25 45.09375 
Q 22.09375 43.40625 24.5 41.953125 
Q 26.90625 40.5 29.5 39.203125 
Q 34 42.703125 36.140625 46.09375 
Q 38.296875 49.5 38.296875 53.59375 
Q 38.296875 58.703125 35.140625 61.453125 
Q 32 64.203125 27.59375 64.203125 
Q 24.90625 64.203125 22.796875 63.296875 
Q 20.703125 62.40625 19.203125 61 
Q 17.703125 59.59375 16.953125 57.75 
Q 16.203125 55.90625 16.203125 53.90625 
z
" id="PTSans-Regular-38"/>
      </defs>
      <g transform="translate(96.44 182.761419)scale(0.14 -0.14)">
       <use xlink:href="#PTSans-Regular-32"/>
       <use x="54.499985" xlink:href="#PTSans-Regular-38"/>
      </g>
     </g>
    </g>
    <g id="ytick_6">
     <g id="line2d_6"/>
     <g id="text_6">
      <!-- 30 -->
      <defs>
       <path d="M 23.40625 5.796875 
Q 26.796875 5.796875 29.6875 6.796875 
Q 32.59375 7.796875 34.6875 9.75 
Q 36.796875 11.703125 38 14.390625 
Q 39.203125 17.09375 39.203125 20.296875 
Q 39.203125 27.296875 35.046875 30.6875 
Q 30.90625 34.09375 23.59375 34.09375 
L 16.203125 34.09375 
L 16.203125 37 
L 30.59375 59.203125 
L 35.203125 63.59375 
L 28.703125 62.59375 
L 8.90625 62.59375 
L 8.90625 70 
L 44.59375 70 
L 44.59375 67.09375 
L 28.703125 43.203125 
L 25.203125 40.296875 
L 25.203125 40.09375 
L 28.59375 40.796875 
Q 32.59375 40.703125 36 39.34375 
Q 39.40625 38 41.90625 35.453125 
Q 44.40625 32.90625 45.796875 29.34375 
Q 47.203125 25.796875 47.203125 21.296875 
Q 47.203125 15.90625 45.296875 11.703125 
Q 43.40625 7.5 40.15625 4.640625 
Q 36.90625 1.796875 32.5 0.296875 
Q 28.09375 -1.203125 23.203125 -1.203125 
Q 18.703125 -1.203125 15.09375 -0.5 
Q 11.5 0.203125 8.796875 1.296875 
L 10.90625 8.40625 
Q 13.203125 7.296875 16.34375 6.546875 
Q 19.5 5.796875 23.40625 5.796875 
z
" id="PTSans-Regular-33"/>
      </defs>
      <g transform="translate(96.44 217.347228)scale(0.14 -0.14)">
       <use xlink:href="#PTSans-Regular-33"/>
       <use x="54.499985" xlink:href="#PTSans-Regular-30"/>
      </g>
     </g>
    </g>
   </g>
   <g id="PolyCollection_1">
    <defs>
     <path d="M 172.145455 -127.746586 
L 172.145455 -212.481818 
L 1311.054545 -212.481818 
L 1311.054545 -127.746586 
L 1311.054545 -127.746586 
L 172.145455 -127.746586 
z
" id="m349d1b052a" style="stroke:#ffffff;stroke-width:0.5;"/>
    </defs>
    <g clip-path="url(#p90e1f22910)">
     <use style="fill:#ffffff;stroke:#ffffff;stroke-width:0.5;" x="0" xlink:href="#m349d1b052a" y="252"/>
    </g>
   </g>
   <g id="PathCollection_1">
    <defs>
     <path d="M 0 3.461033 
C 0.917877 3.461033 1.798283 3.096357 2.44732 2.44732 
C 3.096357 1.798283 3.461033 0.917877 3.461033 0 
C 3.461033 -0.917877 3.096357 -1.798283 2.44732 -2.44732 
C 1.798283 -3.096357 0.917877 -3.461033 0 -3.461033 
C -0.917877 -3.461033 -1.798283 -3.096357 -2.44732 -2.44732 
C -3.096357 -1.798283 -3.461033 -0.917877 -3.461033 0 
C -3.461033 0.917877 -3.096357 1.798283 -2.44732 2.44732 
C -1.798283 3.096357 -0.917877 3.461033 0 3.461033 
z
" id="m6fb210817b" style="stroke:#ff2445;stroke-width:0.5;"/>
    </defs>
    <g clip-path="url(#p90e1f22910)">
     <use style="fill:#ff2445;stroke:#ff2445;stroke-width:0.5;" x="302.129644" xlink:href="#m6fb210817b" y="141.546319"/>
    </g>
   </g>
   <g id="PathCollection_2">
    <defs>
     <path d="M 0 3.674842 
C 0.97458 3.674842 1.909374 3.287638 2.598506 2.598506 
C 3.287638 1.909374 3.674842 0.97458 3.674842 0 
C 3.674842 -0.97458 3.287638 -1.909374 2.598506 -2.598506 
C 1.909374 -3.287638 0.97458 -3.674842 0 -3.674842 
C -0.97458 -3.674842 -1.909374 -3.287638 -2.598506 -2.598506 
C -3.287638 -1.909374 -3.674842 -0.97458 -3.674842 0 
C -3.674842 0.97458 -3.287638 1.909374 -2.598506 2.598506 
C -1.909374 3.287638 -0.97458 3.674842 0 3.674842 
z
" id="ma8eb34df20" style="stroke:#0064a4;stroke-width:0.5;"/>
    </defs>
    <g clip-path="url(#p90e1f22910)">
     <use style="fill:#0064a4;stroke:#0064a4;stroke-width:0.5;" x="784.928063" xlink:href="#ma8eb34df20" y="169.214966"/>
    </g>
   </g>
   <g id="PathCollection_3">
    <g clip-path="url(#p90e1f22910)">
     <use style="fill:#0064a4;stroke:#0064a4;stroke-width:0.5;" x="1205.829249" xlink:href="#ma8eb34df20" y="169.214966"/>
    </g>
   </g>
   <g id="PathCollection_4">
    <defs>
     <path d="M 0 3.554575 
C 0.942684 3.554575 1.846885 3.180042 2.513464 2.513464 
C 3.180042 1.846885 3.554575 0.942684 3.554575 0 
C 3.554575 -0.942684 3.180042 -1.846885 2.513464 -2.513464 
C 1.846885 -3.180042 0.942684 -3.554575 0 -3.554575 
C -0.942684 -3.554575 -1.846885 -3.180042 -2.513464 -2.513464 
C -3.180042 -1.846885 -3.554575 -0.942684 -3.554575 0 
C -3.554575 0.942684 -3.180042 1.846885 -2.513464 2.513464 
C -1.846885 3.180042 -0.942684 3.554575 0 3.554575 
z
" id="mff54d95dcb" style="stroke:#0064a4;stroke-width:0.5;"/>
    </defs>
    <g clip-path="url(#p90e1f22910)">
     <use style="fill:#0064a4;stroke:#0064a4;stroke-width:0.5;" x="1156.311462" xlink:href="#mff54d95dcb" y="153.651352"/>
    </g>
   </g>
   <g id="PathCollection_5">
    <defs>
     <path d="M 0 3.714931 
C 0.985211 3.714931 1.930204 3.323503 2.626853 2.626853 
C 3.323503 1.930204 3.714931 0.985211 3.714931 0 
C 3.714931 -0.985211 3.323503 -1.930204 2.626853 -2.626853 
C 1.930204 -3.323503 0.985211 -3.714931 0 -3.714931 
C -0.985211 -3.714931 -1.930204 -3.323503 -2.626853 -2.626853 
C -3.323503 -1.930204 -3.714931 -0.985211 -3.714931 0 
C -3.714931 0.985211 -3.323503 1.930204 -2.626853 2.626853 
C -1.930204 3.323503 -0.985211 3.714931 0 3.714931 
z
" id="m4fed7e3c73" style="stroke:#ff2445;stroke-width:0.5;"/>
    </defs>
    <g clip-path="url(#p90e1f22910)">
     <use style="fill:#ff2445;stroke:#ff2445;stroke-width:0.5;" x="463.062451" xlink:href="#m4fed7e3c73" y="174.402838"/>
    </g>
   </g>
   <g id="PathCollection_6">
    <defs>
     <path d="M 0 3.367492 
C 0.893069 3.367492 1.749681 3.012671 2.381176 2.381176 
C 3.012671 1.749681 3.367492 0.893069 3.367492 0 
C 3.367492 -0.893069 3.012671 -1.749681 2.381176 -2.381176 
C 1.749681 -3.012671 0.893069 -3.367492 0 -3.367492 
C -0.893069 -3.367492 -1.749681 -3.012671 -2.381176 -2.381176 
C -3.012671 -1.749681 -3.367492 -0.893069 -3.367492 0 
C -3.367492 0.893069 -3.012671 1.749681 -2.381176 2.381176 
C -1.749681 3.012671 -0.893069 3.367492 0 3.367492 
z
" id="m570575a337" style="stroke:#ff2445;stroke-width:0.5;"/>
    </defs>
    <g clip-path="url(#p90e1f22910)">
     <use style="fill:#ff2445;stroke:#ff2445;stroke-width:0.5;" x="896.343083" xlink:href="#m570575a337" y="129.441286"/>
    </g>
   </g>
   <g id="PathCollection_7">
    <defs>
     <path d="M 0 3.567938 
C 0.946228 3.567938 1.853829 3.191997 2.522913 2.522913 
C 3.191997 1.853829 3.567938 0.946228 3.567938 0 
C 3.567938 -0.946228 3.191997 -1.853829 2.522913 -2.522913 
C 1.853829 -3.191997 0.946228 -3.567938 0 -3.567938 
C -0.946228 -3.567938 -1.853829 -3.191997 -2.522913 -2.522913 
C -3.191997 -1.853829 -3.567938 -0.946228 -3.567938 0 
C -3.567938 0.946228 -3.191997 1.853829 -2.522913 2.522913 
C -1.853829 3.191997 -0.946228 3.567938 0 3.567938 
z
" id="ma6106f385d" style="stroke:#0064a4;stroke-width:0.5;"/>
    </defs>
    <g clip-path="url(#p90e1f22910)">
     <use style="fill:#0064a4;stroke:#0064a4;stroke-width:0.5;" x="463.062451" xlink:href="#ma6106f385d" y="155.380643"/>
    </g>
   </g>
   <g id="PathCollection_8">
    <defs>
     <path d="M 0 3.581301 
C 0.949772 3.581301 1.860772 3.203952 2.532362 2.532362 
C 3.203952 1.860772 3.581301 0.949772 3.581301 0 
C 3.581301 -0.949772 3.203952 -1.860772 2.532362 -2.532362 
C 1.860772 -3.203952 0.949772 -3.581301 0 -3.581301 
C -0.949772 -3.581301 -1.860772 -3.203952 -2.532362 -2.532362 
C -3.203952 -1.860772 -3.581301 -0.949772 -3.581301 0 
C -3.581301 0.949772 -3.203952 1.860772 -2.532362 2.532362 
C -1.860772 3.203952 -0.949772 3.581301 0 3.581301 
z
" id="m2bf4ab3d65" style="stroke:#0064a4;stroke-width:0.5;"/>
    </defs>
    <g clip-path="url(#p90e1f22910)">
     <use style="fill:#0064a4;stroke:#0064a4;stroke-width:0.5;" x="1057.275889" xlink:href="#m2bf4ab3d65" y="157.109933"/>
    </g>
   </g>
   <g id="PathCollection_9">
    <defs>
     <path d="M 0 3.648116 
C 0.967492 3.648116 1.895488 3.263727 2.579608 2.579608 
C 3.263727 1.895488 3.648116 0.967492 3.648116 0 
C 3.648116 -0.967492 3.263727 -1.895488 2.579608 -2.579608 
C 1.895488 -3.263727 0.967492 -3.648116 0 -3.648116 
C -0.967492 -3.648116 -1.895488 -3.263727 -2.579608 -2.579608 
C -3.263727 -1.895488 -3.648116 -0.967492 -3.648116 0 
C -3.648116 0.967492 -3.263727 1.895488 -2.579608 2.579608 
C -1.895488 3.263727 -0.967492 3.648116 0 3.648116 
z
" id="m6255b61d13" style="stroke:#ff2445;stroke-width:0.5;"/>
    </defs>
    <g clip-path="url(#p90e1f22910)">
     <use style="fill:#ff2445;stroke:#ff2445;stroke-width:0.5;" x="289.750198" xlink:href="#m6255b61d13" y="165.756385"/>
    </g>
   </g>
   <g id="PathCollection_10">
    <defs>
     <path d="M 0 3.44767 
C 0.914333 3.44767 1.79134 3.084402 2.437871 2.437871 
C 3.084402 1.79134 3.44767 0.914333 3.44767 0 
C 3.44767 -0.914333 3.084402 -1.79134 2.437871 -2.437871 
C 1.79134 -3.084402 0.914333 -3.44767 0 -3.44767 
C -0.914333 -3.44767 -1.79134 -3.084402 -2.437871 -2.437871 
C -3.084402 -1.79134 -3.44767 -0.914333 -3.44767 0 
C -3.44767 0.914333 -3.084402 1.79134 -2.437871 2.437871 
C -1.79134 3.084402 -0.914333 3.44767 0 3.44767 
z
" id="m50b3bfc59e" style="stroke:#0064a4;stroke-width:0.5;"/>
    </defs>
    <g clip-path="url(#p90e1f22910)">
     <use style="fill:#0064a4;stroke:#0064a4;stroke-width:0.5;" x="487.821344" xlink:href="#m50b3bfc59e" y="139.817028"/>
    </g>
   </g>
   <g id="PathCollection_11">
    <defs>
     <path d="M 0 3.474396 
C 0.921421 3.474396 1.805226 3.108312 2.456769 2.456769 
C 3.108312 1.805226 3.474396 0.921421 3.474396 0 
C 3.474396 -0.921421 3.108312 -1.805226 2.456769 -2.456769 
C 1.805226 -3.108312 0.921421 -3.474396 0 -3.474396 
C -0.921421 -3.474396 -1.805226 -3.108312 -2.456769 -2.456769 
C -3.108312 -1.805226 -3.474396 -0.921421 -3.474396 0 
C -3.474396 0.921421 -3.108312 1.805226 -2.456769 2.456769 
C -1.805226 3.108312 -0.921421 3.474396 0 3.474396 
z
" id="m40d316db89" style="stroke:#ff2445;stroke-width:0.5;"/>
    </defs>
    <g clip-path="url(#p90e1f22910)">
     <use style="fill:#ff2445;stroke:#ff2445;stroke-width:0.5;" x="710.651383" xlink:href="#m40d316db89" y="143.275609"/>
    </g>
   </g>
   <g id="PathCollection_12">
    <g clip-path="url(#p90e1f22910)">
     <use style="fill:#0064a4;stroke:#0064a4;stroke-width:0.5;" x="574.47747" xlink:href="#mff54d95dcb" y="153.651352"/>
    </g>
   </g>
   <g id="PathCollection_13">
    <defs>
     <path d="M 0 3.327402 
C 0.882437 3.327402 1.728851 2.976806 2.352829 2.352829 
C 2.976806 1.728851 3.327402 0.882437 3.327402 0 
C 3.327402 -0.882437 2.976806 -1.728851 2.352829 -2.352829 
C 1.728851 -2.976806 0.882437 -3.327402 0 -3.327402 
C -0.882437 -3.327402 -1.728851 -2.976806 -2.352829 -2.352829 
C -2.976806 -1.728851 -3.327402 -0.882437 -3.327402 0 
C -3.327402 0.882437 -2.976806 1.728851 -2.352829 2.352829 
C -1.728851 2.976806 -0.882437 3.327402 0 3.327402 
z
" id="m5441ab822c" style="stroke:#ff2445;stroke-width:0.5;"/>
    </defs>
    <g clip-path="url(#p90e1f22910)">
     <use style="fill:#ff2445;stroke:#ff2445;stroke-width:0.5;" x="240.232411" xlink:href="#m5441ab822c" y="124.253414"/>
    </g>
   </g>
   <g id="PathCollection_14">
    <defs>
     <path d="M 0 3.661479 
C 0.971036 3.661479 1.902431 3.275682 2.589057 2.589057 
C 3.275682 1.902431 3.661479 0.971036 3.661479 0 
C 3.661479 -0.971036 3.275682 -1.902431 2.589057 -2.589057 
C 1.902431 -3.275682 0.971036 -3.661479 0 -3.661479 
C -0.971036 -3.661479 -1.902431 -3.275682 -2.589057 -2.589057 
C -3.275682 -1.902431 -3.661479 -0.971036 -3.661479 0 
C -3.661479 0.971036 -3.275682 1.902431 -2.589057 2.589057 
C -1.902431 3.275682 -0.971036 3.661479 0 3.661479 
z
" id="mfbedb94433" style="stroke:#0064a4;stroke-width:0.5;"/>
    </defs>
    <g clip-path="url(#p90e1f22910)">
     <use style="fill:#0064a4;stroke:#0064a4;stroke-width:0.5;" x="1168.690909" xlink:href="#mfbedb94433" y="167.485676"/>
    </g>
   </g>
   <g id="PathCollection_15">
    <defs>
     <path d="M 0 3.728294 
C 0.988755 3.728294 1.937147 3.335458 2.636302 2.636302 
C 3.335458 1.937147 3.728294 0.988755 3.728294 0 
C 3.728294 -0.988755 3.335458 -1.937147 2.636302 -2.636302 
C 1.937147 -3.335458 0.988755 -3.728294 0 -3.728294 
C -0.988755 -3.728294 -1.937147 -3.335458 -2.636302 -2.636302 
C -3.335458 -1.937147 -3.728294 -0.988755 -3.728294 0 
C -3.728294 0.988755 -3.335458 1.937147 -2.636302 2.636302 
C -1.937147 3.335458 -0.988755 3.728294 0 3.728294 
z
" id="m9c8552e8c8" style="stroke:#ff2445;stroke-width:0.5;"/>
    </defs>
    <g clip-path="url(#p90e1f22910)">
     <use style="fill:#ff2445;stroke:#ff2445;stroke-width:0.5;" x="846.825296" xlink:href="#m9c8552e8c8" y="176.132128"/>
    </g>
   </g>
   <g id="PathCollection_16">
    <defs>
     <path d="M 0 3.220498 
C 0.854086 3.220498 1.673306 2.881166 2.277236 2.277236 
C 2.881166 1.673306 3.220498 0.854086 3.220498 0 
C 3.220498 -0.854086 2.881166 -1.673306 2.277236 -2.277236 
C 1.673306 -2.881166 0.854086 -3.220498 0 -3.220498 
C -0.854086 -3.220498 -1.673306 -2.881166 -2.277236 -2.277236 
C -2.881166 -1.673306 -3.220498 -0.854086 -3.220498 0 
C -3.220498 0.854086 -2.881166 1.673306 -2.277236 2.277236 
C -1.673306 2.881166 -0.854086 3.220498 0 3.220498 
z
" id="m6f2ff98c77" style="stroke:#0064a4;stroke-width:0.5;"/>
    </defs>
    <g clip-path="url(#p90e1f22910)">
     <use style="fill:#0064a4;stroke:#0064a4;stroke-width:0.5;" x="339.267984" xlink:href="#m6f2ff98c77" y="110.419091"/>
    </g>
   </g>
   <g id="PathCollection_17">
    <defs>
     <path d="M 0 3.514485 
C 0.932052 3.514485 1.826056 3.144177 2.485116 2.485116 
C 3.144177 1.826056 3.514485 0.932052 3.514485 0 
C 3.514485 -0.932052 3.144177 -1.826056 2.485116 -2.485116 
C 1.826056 -3.144177 0.932052 -3.514485 0 -3.514485 
C -0.932052 -3.514485 -1.826056 -3.144177 -2.485116 -2.485116 
C -3.144177 -1.826056 -3.514485 -0.932052 -3.514485 0 
C -3.514485 0.932052 -3.144177 1.826056 -2.485116 2.485116 
C -1.826056 3.144177 -0.932052 3.514485 0 3.514485 
z
" id="m357c8ca101" style="stroke:#ff2445;stroke-width:0.5;"/>
    </defs>
    <g clip-path="url(#p90e1f22910)">
     <use style="fill:#ff2445;stroke:#ff2445;stroke-width:0.5;" x="586.856917" xlink:href="#m357c8ca101" y="148.463481"/>
    </g>
   </g>
   <g id="PathCollection_18">
    <defs>
     <path d="M 0 3.594664 
C 0.953316 3.594664 1.867715 3.215907 2.541811 2.541811 
C 3.215907 1.867715 3.594664 0.953316 3.594664 0 
C 3.594664 -0.953316 3.215907 -1.867715 2.541811 -2.541811 
C 1.867715 -3.215907 0.953316 -3.594664 0 -3.594664 
C -0.953316 -3.594664 -1.867715 -3.215907 -2.541811 -2.541811 
C -3.215907 -1.867715 -3.594664 -0.953316 -3.594664 0 
C -3.594664 0.953316 -3.215907 1.867715 -2.541811 2.541811 
C -1.867715 3.215907 -0.953316 3.594664 0 3.594664 
z
" id="mdced528c1f" style="stroke:#ff2445;stroke-width:0.5;"/>
    </defs>
    <g clip-path="url(#p90e1f22910)">
     <use style="fill:#ff2445;stroke:#ff2445;stroke-width:0.5;" x="723.03083" xlink:href="#mdced528c1f" y="158.839223"/>
    </g>
   </g>
   <g id="PathCollection_19">
    <defs>
     <path d="M 0 3.594664 
C 0.953316 3.594664 1.867715 3.215907 2.541811 2.541811 
C 3.215907 1.867715 3.594664 0.953316 3.594664 0 
C 3.594664 -0.953316 3.215907 -1.867715 2.541811 -2.541811 
C 1.867715 -3.215907 0.953316 -3.594664 0 -3.594664 
C -0.953316 -3.594664 -1.867715 -3.215907 -2.541811 -2.541811 
C -3.215907 -1.867715 -3.594664 -0.953316 -3.594664 0 
C -3.594664 0.953316 -3.215907 1.867715 -2.541811 2.541811 
C -1.867715 3.215907 -0.953316 3.594664 0 3.594664 
z
" id="me4d80477d9" style="stroke:#0064a4;stroke-width:0.5;"/>
    </defs>
    <g clip-path="url(#p90e1f22910)">
     <use style="fill:#0064a4;stroke:#0064a4;stroke-width:0.5;" x="772.548617" xlink:href="#me4d80477d9" y="158.839223"/>
    </g>
   </g>
   <g id="PathCollection_20">
    <g clip-path="url(#p90e1f22910)">
     <use style="fill:#0064a4;stroke:#0064a4;stroke-width:0.5;" x="834.44585" xlink:href="#ma8eb34df20" y="169.214966"/>
    </g>
   </g>
   <g id="PathCollection_21">
    <defs>
     <path d="M 0 3.461033 
C 0.917877 3.461033 1.798283 3.096357 2.44732 2.44732 
C 3.096357 1.798283 3.461033 0.917877 3.461033 0 
C 3.461033 -0.917877 3.096357 -1.798283 2.44732 -2.44732 
C 1.798283 -3.096357 0.917877 -3.461033 0 -3.461033 
C -0.917877 -3.461033 -1.798283 -3.096357 -2.44732 -2.44732 
C -3.096357 -1.798283 -3.461033 -0.917877 -3.461033 0 
C -3.461033 0.917877 -3.096357 1.798283 -2.44732 2.44732 
C -1.798283 3.096357 -0.917877 3.461033 0 3.461033 
z
" id="m00f5798380" style="stroke:#0064a4;stroke-width:0.5;"/>
    </defs>
    <g clip-path="url(#p90e1f22910)">
     <use style="fill:#0064a4;stroke:#0064a4;stroke-width:0.5;" x="1181.070356" xlink:href="#m00f5798380" y="141.546319"/>
    </g>
   </g>
   <g id="PathCollection_22">
    <defs>
     <path d="M 0 3.62139 
C 0.960404 3.62139 1.881601 3.239817 2.560709 2.560709 
C 3.239817 1.881601 3.62139 0.960404 3.62139 0 
C 3.62139 -0.960404 3.239817 -1.881601 2.560709 -2.560709 
C 1.881601 -3.239817 0.960404 -3.62139 0 -3.62139 
C -0.960404 -3.62139 -1.881601 -3.239817 -2.560709 -2.560709 
C -3.239817 -1.881601 -3.62139 -0.960404 -3.62139 0 
C -3.62139 0.960404 -3.239817 1.881601 -2.560709 2.560709 
C -1.881601 3.239817 -0.960404 3.62139 0 3.62139 
z
" id="m1bd45abb10" style="stroke:#ff2445;stroke-width:0.5;"/>
    </defs>
    <g clip-path="url(#p90e1f22910)">
     <use style="fill:#ff2445;stroke:#ff2445;stroke-width:0.5;" x="599.236364" xlink:href="#m1bd45abb10" y="162.297804"/>
    </g>
   </g>
   <g id="PathCollection_23">
    <defs>
     <path d="M 0 3.661479 
C 0.971036 3.661479 1.902431 3.275682 2.589057 2.589057 
C 3.275682 1.902431 3.661479 0.971036 3.661479 0 
C 3.661479 -0.971036 3.275682 -1.902431 2.589057 -2.589057 
C 1.902431 -3.275682 0.971036 -3.661479 0 -3.661479 
C -0.971036 -3.661479 -1.902431 -3.275682 -2.589057 -2.589057 
C -3.275682 -1.902431 -3.661479 -0.971036 -3.661479 0 
C -3.661479 0.971036 -3.275682 1.902431 -2.589057 2.589057 
C -1.902431 3.275682 -0.971036 3.661479 0 3.661479 
z
" id="m251b49f3c7" style="stroke:#ff2445;stroke-width:0.5;"/>
    </defs>
    <g clip-path="url(#p90e1f22910)">
     <use style="fill:#ff2445;stroke:#ff2445;stroke-width:0.5;" x="475.441897" xlink:href="#m251b49f3c7" y="167.485676"/>
    </g>
   </g>
   <g id="PathCollection_24">
    <defs>
     <path d="M 0 4.075734 
C 1.080897 4.075734 2.117669 3.646289 2.881979 2.881979 
C 3.646289 2.117669 4.075734 1.080897 4.075734 0 
C 4.075734 -1.080897 3.646289 -2.117669 2.881979 -2.881979 
C 2.117669 -3.646289 1.080897 -4.075734 0 -4.075734 
C -1.080897 -4.075734 -2.117669 -3.646289 -2.881979 -2.881979 
C -3.646289 -2.117669 -4.075734 -1.080897 -4.075734 0 
C -4.075734 1.080897 -3.646289 2.117669 -2.881979 2.881979 
C -2.117669 3.646289 -1.080897 4.075734 0 4.075734 
z
" id="m652ca3df51" style="stroke:#ff2445;stroke-width:0.5;"/>
    </defs>
    <g clip-path="url(#p90e1f22910)">
     <use style="fill:#ff2445;stroke:#ff2445;stroke-width:0.5;" x="388.785771" xlink:href="#m652ca3df51" y="221.09368"/>
    </g>
   </g>
   <g id="PathCollection_25">
    <g clip-path="url(#p90e1f22910)">
     <use style="fill:#0064a4;stroke:#0064a4;stroke-width:0.5;" x="846.825296" xlink:href="#ma6106f385d" y="155.380643"/>
    </g>
   </g>
   <g id="PathCollection_26">
    <defs>
     <path d="M 0 3.527848 
C 0.935596 3.527848 1.832999 3.156132 2.494566 2.494566 
C 3.156132 1.832999 3.527848 0.935596 3.527848 0 
C 3.527848 -0.935596 3.156132 -1.832999 2.494566 -2.494566 
C 1.832999 -3.156132 0.935596 -3.527848 0 -3.527848 
C -0.935596 -3.527848 -1.832999 -3.156132 -2.494566 -2.494566 
C -3.156132 -1.832999 -3.527848 -0.935596 -3.527848 0 
C -3.527848 0.935596 -3.156132 1.832999 -2.494566 2.494566 
C -1.832999 3.156132 -0.935596 3.527848 0 3.527848 
z
" id="m327aea43c3" style="stroke:#0064a4;stroke-width:0.5;"/>
    </defs>
    <g clip-path="url(#p90e1f22910)">
     <use style="fill:#0064a4;stroke:#0064a4;stroke-width:0.5;" x="1106.793676" xlink:href="#m327aea43c3" y="150.192771"/>
    </g>
   </g>
   <g id="PathCollection_27">
    <defs>
     <path d="M 0 3.474396 
C 0.921421 3.474396 1.805226 3.108312 2.456769 2.456769 
C 3.108312 1.805226 3.474396 0.921421 3.474396 0 
C 3.474396 -0.921421 3.108312 -1.805226 2.456769 -2.456769 
C 1.805226 -3.108312 0.921421 -3.474396 0 -3.474396 
C -0.921421 -3.474396 -1.805226 -3.108312 -2.456769 -2.456769 
C -3.108312 -1.805226 -3.474396 -0.921421 -3.474396 0 
C -3.474396 0.921421 -3.108312 1.805226 -2.456769 2.456769 
C -1.805226 3.108312 -0.921421 3.474396 0 3.474396 
z
" id="m353e4ad0c7" style="stroke:#0064a4;stroke-width:0.5;"/>
    </defs>
    <g clip-path="url(#p90e1f22910)">
     <use style="fill:#0064a4;stroke:#0064a4;stroke-width:0.5;" x="1069.655336" xlink:href="#m353e4ad0c7" y="143.275609"/>
    </g>
   </g>
   <g id="PathCollection_28">
    <g clip-path="url(#p90e1f22910)">
     <use style="fill:#ff2445;stroke:#ff2445;stroke-width:0.5;" x="438.303557" xlink:href="#m1bd45abb10" y="162.297804"/>
    </g>
   </g>
   <g id="PathCollection_29">
    <defs>
     <path d="M 0 3.608027 
C 0.95686 3.608027 1.874658 3.227862 2.55126 2.55126 
C 3.227862 1.874658 3.608027 0.95686 3.608027 0 
C 3.608027 -0.95686 3.227862 -1.874658 2.55126 -2.55126 
C 1.874658 -3.227862 0.95686 -3.608027 0 -3.608027 
C -0.95686 -3.608027 -1.874658 -3.227862 -2.55126 -2.55126 
C -3.227862 -1.874658 -3.608027 -0.95686 -3.608027 0 
C -3.608027 0.95686 -3.227862 1.874658 -2.55126 2.55126 
C -1.874658 3.227862 -0.95686 3.608027 0 3.608027 
z
" id="m44c1b83ccc" style="stroke:#0064a4;stroke-width:0.5;"/>
    </defs>
    <g clip-path="url(#p90e1f22910)">
     <use style="fill:#0064a4;stroke:#0064a4;stroke-width:0.5;" x="1094.414229" xlink:href="#m44c1b83ccc" y="160.568514"/>
    </g>
   </g>
   <g id="PathCollection_30">
    <g clip-path="url(#p90e1f22910)">
     <use style="fill:#0064a4;stroke:#0064a4;stroke-width:0.5;" x="945.86087" xlink:href="#mfbedb94433" y="167.485676"/>
    </g>
   </g>
   <g id="PathCollection_31">
    <defs>
     <path d="M 0 3.634753 
C 0.963948 3.634753 1.888544 3.251772 2.570158 2.570158 
C 3.251772 1.888544 3.634753 0.963948 3.634753 0 
C 3.634753 -0.963948 3.251772 -1.888544 2.570158 -2.570158 
C 1.888544 -3.251772 0.963948 -3.634753 0 -3.634753 
C -0.963948 -3.634753 -1.888544 -3.251772 -2.570158 -2.570158 
C -3.251772 -1.888544 -3.634753 -0.963948 -3.634753 0 
C -3.634753 0.963948 -3.251772 1.888544 -2.570158 2.570158 
C -1.888544 3.251772 -0.963948 3.634753 0 3.634753 
z
" id="m27dc96894e" style="stroke:#ff2445;stroke-width:0.5;"/>
    </defs>
    <g clip-path="url(#p90e1f22910)">
     <use style="fill:#ff2445;stroke:#ff2445;stroke-width:0.5;" x="413.544664" xlink:href="#m27dc96894e" y="164.027095"/>
    </g>
   </g>
   <g id="PathCollection_32">
    <g clip-path="url(#p90e1f22910)">
     <use style="fill:#0064a4;stroke:#0064a4;stroke-width:0.5;" x="661.133597" xlink:href="#mfbedb94433" y="167.485676"/>
    </g>
   </g>
   <g id="PathCollection_33">
    <defs>
     <path d="M 0 2.873058 
C 0.761944 2.873058 1.492783 2.570335 2.031559 2.031559 
C 2.570335 1.492783 2.873058 0.761944 2.873058 0 
C 2.873058 -0.761944 2.570335 -1.492783 2.031559 -2.031559 
C 1.492783 -2.570335 0.761944 -2.873058 0 -2.873058 
C -0.761944 -2.873058 -1.492783 -2.570335 -2.031559 -2.031559 
C -2.570335 -1.492783 -2.873058 -0.761944 -2.873058 0 
C -2.873058 0.761944 -2.570335 1.492783 -2.031559 2.031559 
C -1.492783 2.570335 -0.761944 2.873058 0 2.873058 
z
" id="mb3d3af1a3d" style="stroke:#ff2445;stroke-width:0.5;"/>
    </defs>
    <g clip-path="url(#p90e1f22910)">
     <use style="fill:#ff2445;stroke:#ff2445;stroke-width:0.5;" x="215.473518" xlink:href="#mb3d3af1a3d" y="65.457539"/>
    </g>
   </g>
   <g id="PathCollection_34">
    <defs>
     <path d="M 0 3.113593 
C 0.825735 3.113593 1.61776 2.785526 2.201643 2.201643 
C 2.785526 1.61776 3.113593 0.825735 3.113593 0 
C 3.113593 -0.825735 2.785526 -1.61776 2.201643 -2.201643 
C 1.61776 -2.785526 0.825735 -3.113593 0 -3.113593 
C -0.825735 -3.113593 -1.61776 -2.785526 -2.201643 -2.201643 
C -2.785526 -1.61776 -3.113593 -0.825735 -3.113593 0 
C -3.113593 0.825735 -2.785526 1.61776 -2.201643 2.201643 
C -1.61776 2.785526 -0.825735 3.113593 0 3.113593 
z
" id="m947f962c3a" style="stroke:#ff2445;stroke-width:0.5;"/>
    </defs>
    <g clip-path="url(#p90e1f22910)">
     <use style="fill:#ff2445;stroke:#ff2445;stroke-width:0.5;" x="326.888538" xlink:href="#m947f962c3a" y="96.584767"/>
    </g>
   </g>
   <g id="PathCollection_35">
    <defs>
     <path d="M 0 3.608027 
C 0.95686 3.608027 1.874658 3.227862 2.55126 2.55126 
C 3.227862 1.874658 3.608027 0.95686 3.608027 0 
C 3.608027 -0.95686 3.227862 -1.874658 2.55126 -2.55126 
C 1.874658 -3.227862 0.95686 -3.608027 0 -3.608027 
C -0.95686 -3.608027 -1.874658 -3.227862 -2.55126 -2.55126 
C -3.227862 -1.874658 -3.608027 -0.95686 -3.608027 0 
C -3.608027 0.95686 -3.227862 1.874658 -2.55126 2.55126 
C -1.874658 3.227862 -0.95686 3.608027 0 3.608027 
z
" id="mf941d09fba" style="stroke:#ff2445;stroke-width:0.5;"/>
    </defs>
    <g clip-path="url(#p90e1f22910)">
     <use style="fill:#ff2445;stroke:#ff2445;stroke-width:0.5;" x="364.026877" xlink:href="#mf941d09fba" y="160.568514"/>
    </g>
   </g>
   <g id="PathCollection_36">
    <defs>
     <path d="M 0 3.714931 
C 0.985211 3.714931 1.930204 3.323503 2.626853 2.626853 
C 3.323503 1.930204 3.714931 0.985211 3.714931 0 
C 3.714931 -0.985211 3.323503 -1.930204 2.626853 -2.626853 
C 1.930204 -3.323503 0.985211 -3.714931 0 -3.714931 
C -0.985211 -3.714931 -1.930204 -3.323503 -2.626853 -2.626853 
C -3.323503 -1.930204 -3.714931 -0.985211 -3.714931 0 
C -3.714931 0.985211 -3.323503 1.930204 -2.626853 2.626853 
C -1.930204 3.323503 -0.985211 3.714931 0 3.714931 
z
" id="m81e3cad3be" style="stroke:#0064a4;stroke-width:0.5;"/>
    </defs>
    <g clip-path="url(#p90e1f22910)">
     <use style="fill:#0064a4;stroke:#0064a4;stroke-width:0.5;" x="1020.137549" xlink:href="#m81e3cad3be" y="174.402838"/>
    </g>
   </g>
   <g id="PathCollection_37">
    <g clip-path="url(#p90e1f22910)">
     <use style="fill:#0064a4;stroke:#0064a4;stroke-width:0.5;" x="982.999209" xlink:href="#m44c1b83ccc" y="160.568514"/>
    </g>
   </g>
   <g id="PathCollection_38">
    <g clip-path="url(#p90e1f22910)">
     <use style="fill:#0064a4;stroke:#0064a4;stroke-width:0.5;" x="1007.758103" xlink:href="#me4d80477d9" y="158.839223"/>
    </g>
   </g>
   <g id="PathCollection_39">
    <defs>
     <path d="M 0 3.14032 
C 0.832822 3.14032 1.631647 2.809436 2.220541 2.220541 
C 2.809436 1.631647 3.14032 0.832822 3.14032 0 
C 3.14032 -0.832822 2.809436 -1.631647 2.220541 -2.220541 
C 1.631647 -2.809436 0.832822 -3.14032 0 -3.14032 
C -0.832822 -3.14032 -1.631647 -2.809436 -2.220541 -2.220541 
C -2.809436 -1.631647 -3.14032 -0.832822 -3.14032 0 
C -3.14032 0.832822 -2.809436 1.631647 -2.220541 2.220541 
C -1.631647 2.809436 -0.832822 3.14032 0 3.14032 
z
" id="m5d18311cdf" style="stroke:#0064a4;stroke-width:0.5;"/>
    </defs>
    <g clip-path="url(#p90e1f22910)">
     <use style="fill:#0064a4;stroke:#0064a4;stroke-width:0.5;" x="1044.896443" xlink:href="#m5d18311cdf" y="100.043348"/>
    </g>
   </g>
   <g id="PathCollection_40">
    <defs>
     <path d="M 0 3.955466 
C 1.049002 3.955466 2.055181 3.538693 2.796937 2.796937 
C 3.538693 2.055181 3.955466 1.049002 3.955466 0 
C 3.955466 -1.049002 3.538693 -2.055181 2.796937 -2.796937 
C 2.055181 -3.538693 1.049002 -3.955466 0 -3.955466 
C -1.049002 -3.955466 -2.055181 -3.538693 -2.796937 -2.796937 
C -3.538693 -2.055181 -3.955466 -1.049002 -3.955466 0 
C -3.955466 1.049002 -3.538693 2.055181 -2.796937 2.796937 
C -2.055181 3.538693 -1.049002 3.955466 0 3.955466 
z
" id="m925d33db53" style="stroke:#ff2445;stroke-width:0.5;"/>
    </defs>
    <g clip-path="url(#p90e1f22910)">
     <use style="fill:#ff2445;stroke:#ff2445;stroke-width:0.5;" x="562.098024" xlink:href="#m925d33db53" y="205.530066"/>
    </g>
   </g>
   <g id="PathCollection_41">
    <g clip-path="url(#p90e1f22910)">
     <use style="fill:#ff2445;stroke:#ff2445;stroke-width:0.5;" x="648.75415" xlink:href="#m27dc96894e" y="164.027095"/>
    </g>
   </g>
   <g id="PathCollection_42">
    <defs>
     <path d="M 0 3.193772 
C 0.846998 3.193772 1.65942 2.857256 2.258338 2.258338 
C 2.857256 1.65942 3.193772 0.846998 3.193772 0 
C 3.193772 -0.846998 2.857256 -1.65942 2.258338 -2.258338 
C 1.65942 -2.857256 0.846998 -3.193772 0 -3.193772 
C -0.846998 -3.193772 -1.65942 -2.857256 -2.258338 -2.258338 
C -2.857256 -1.65942 -3.193772 -0.846998 -3.193772 0 
C -3.193772 0.846998 -2.857256 1.65942 -2.258338 2.258338 
C -1.65942 2.857256 -0.846998 3.193772 0 3.193772 
z
" id="m8165a3dbd4" style="stroke:#ff2445;stroke-width:0.5;"/>
    </defs>
    <g clip-path="url(#p90e1f22910)">
     <use style="fill:#ff2445;stroke:#ff2445;stroke-width:0.5;" x="264.991304" xlink:href="#m8165a3dbd4" y="106.96051"/>
    </g>
   </g>
   <g id="PathCollection_43">
    <defs>
     <path d="M 0 4.035645 
C 1.070265 4.035645 2.09684 3.610424 2.853632 2.853632 
C 3.610424 2.09684 4.035645 1.070265 4.035645 0 
C 4.035645 -1.070265 3.610424 -2.09684 2.853632 -2.853632 
C 2.09684 -3.610424 1.070265 -4.035645 0 -4.035645 
C -1.070265 -4.035645 -2.09684 -3.610424 -2.853632 -2.853632 
C -3.610424 -2.09684 -4.035645 -1.070265 -4.035645 0 
C -4.035645 1.070265 -3.610424 2.09684 -2.853632 2.853632 
C -2.09684 3.610424 -1.070265 4.035645 0 4.035645 
z
" id="m226ed138ae" style="stroke:#ff2445;stroke-width:0.5;"/>
    </defs>
    <g clip-path="url(#p90e1f22910)">
     <use style="fill:#ff2445;stroke:#ff2445;stroke-width:0.5;" x="784.928063" xlink:href="#m226ed138ae" y="215.905809"/>
    </g>
   </g>
   <g id="PathCollection_44">
    <g clip-path="url(#p90e1f22910)">
     <use style="fill:#0064a4;stroke:#0064a4;stroke-width:0.5;" x="760.16917" xlink:href="#ma6106f385d" y="155.380643"/>
    </g>
   </g>
   <g id="PathCollection_45">
    <defs>
     <path d="M 0 3.648116 
C 0.967492 3.648116 1.895488 3.263727 2.579608 2.579608 
C 3.263727 1.895488 3.648116 0.967492 3.648116 0 
C 3.648116 -0.967492 3.263727 -1.895488 2.579608 -2.579608 
C 1.895488 -3.263727 0.967492 -3.648116 0 -3.648116 
C -0.967492 -3.648116 -1.895488 -3.263727 -2.579608 -2.579608 
C -3.263727 -1.895488 -3.648116 -0.967492 -3.648116 0 
C -3.648116 0.967492 -3.263727 1.895488 -2.579608 2.579608 
C -1.895488 3.263727 -0.967492 3.648116 0 3.648116 
z
" id="mc45b90dfe6" style="stroke:#0064a4;stroke-width:0.5;"/>
    </defs>
    <g clip-path="url(#p90e1f22910)">
     <use style="fill:#0064a4;stroke:#0064a4;stroke-width:0.5;" x="797.30751" xlink:href="#mc45b90dfe6" y="165.756385"/>
    </g>
   </g>
   <g id="PathCollection_46">
    <defs>
     <path d="M 0 3.434307 
C 0.910789 3.434307 1.784397 3.072447 2.428422 2.428422 
C 3.072447 1.784397 3.434307 0.910789 3.434307 0 
C 3.434307 -0.910789 3.072447 -1.784397 2.428422 -2.428422 
C 1.784397 -3.072447 0.910789 -3.434307 0 -3.434307 
C -0.910789 -3.434307 -1.784397 -3.072447 -2.428422 -2.428422 
C -3.072447 -1.784397 -3.434307 -0.910789 -3.434307 0 
C -3.434307 0.910789 -3.072447 1.784397 -2.428422 2.428422 
C -1.784397 3.072447 -0.910789 3.434307 0 3.434307 
z
" id="med7d31a2be" style="stroke:#ff2445;stroke-width:0.5;"/>
    </defs>
    <g clip-path="url(#p90e1f22910)">
     <use style="fill:#ff2445;stroke:#ff2445;stroke-width:0.5;" x="636.374704" xlink:href="#med7d31a2be" y="138.087738"/>
    </g>
   </g>
   <g id="PathCollection_47">
    <defs>
     <path d="M 0 3.808473 
C 1.010019 3.808473 1.978806 3.407188 2.692997 2.692997 
C 3.407188 1.978806 3.808473 1.010019 3.808473 0 
C 3.808473 -1.010019 3.407188 -1.978806 2.692997 -2.692997 
C 1.978806 -3.407188 1.010019 -3.808473 0 -3.808473 
C -1.010019 -3.808473 -1.978806 -3.407188 -2.692997 -2.692997 
C -3.407188 -1.978806 -3.808473 -1.010019 -3.808473 0 
C -3.808473 1.010019 -3.407188 1.978806 -2.692997 2.692997 
C -1.978806 3.407188 -1.010019 3.808473 0 3.808473 
z
" id="m122aa4fcd8" style="stroke:#ff2445;stroke-width:0.5;"/>
    </defs>
    <g clip-path="url(#p90e1f22910)">
     <use style="fill:#ff2445;stroke:#ff2445;stroke-width:0.5;" x="661.133597" xlink:href="#m122aa4fcd8" y="186.507871"/>
    </g>
   </g>
   <g id="PathCollection_48">
    <g clip-path="url(#p90e1f22910)">
     <use style="fill:#0064a4;stroke:#0064a4;stroke-width:0.5;" x="648.75415" xlink:href="#mff54d95dcb" y="153.651352"/>
    </g>
   </g>
   <g id="PathCollection_49">
    <defs>
     <path d="M 0 3.487759 
C 0.924965 3.487759 1.812169 3.120267 2.466218 2.466218 
C 3.120267 1.812169 3.487759 0.924965 3.487759 0 
C 3.487759 -0.924965 3.120267 -1.812169 2.466218 -2.466218 
C 1.812169 -3.120267 0.924965 -3.487759 0 -3.487759 
C -0.924965 -3.487759 -1.812169 -3.120267 -2.466218 -2.466218 
C -3.120267 -1.812169 -3.487759 -0.924965 -3.487759 0 
C -3.487759 0.924965 -3.120267 1.812169 -2.466218 2.466218 
C -1.812169 3.120267 -0.924965 3.487759 0 3.487759 
z
" id="mce26c76bd3" style="stroke:#ff2445;stroke-width:0.5;"/>
    </defs>
    <g clip-path="url(#p90e1f22910)">
     <use style="fill:#ff2445;stroke:#ff2445;stroke-width:0.5;" x="351.647431" xlink:href="#mce26c76bd3" y="145.0049"/>
    </g>
   </g>
   <g id="PathCollection_50">
    <g clip-path="url(#p90e1f22910)">
     <use style="fill:#0064a4;stroke:#0064a4;stroke-width:0.5;" x="1032.516996" xlink:href="#m50b3bfc59e" y="139.817028"/>
    </g>
   </g>
   <g id="PathCollection_51">
    <defs>
     <path d="M 0 3.728294 
C 0.988755 3.728294 1.937147 3.335458 2.636302 2.636302 
C 3.335458 1.937147 3.728294 0.988755 3.728294 0 
C 3.728294 -0.988755 3.335458 -1.937147 2.636302 -2.636302 
C 1.937147 -3.335458 0.988755 -3.728294 0 -3.728294 
C -0.988755 -3.728294 -1.937147 -3.335458 -2.636302 -2.636302 
C -3.335458 -1.937147 -3.728294 -0.988755 -3.728294 0 
C -3.728294 0.988755 -3.335458 1.937147 -2.636302 2.636302 
C -1.937147 3.335458 -0.988755 3.728294 0 3.728294 
z
" id="m1d804fcfdf" style="stroke:#0064a4;stroke-width:0.5;"/>
    </defs>
    <g clip-path="url(#p90e1f22910)">
     <use style="fill:#0064a4;stroke:#0064a4;stroke-width:0.5;" x="1082.034783" xlink:href="#m1d804fcfdf" y="176.132128"/>
    </g>
   </g>
   <g id="PathCollection_52">
    <g clip-path="url(#p90e1f22910)">
     <use style="fill:#ff2445;stroke:#ff2445;stroke-width:0.5;" x="339.267984" xlink:href="#m8165a3dbd4" y="106.96051"/>
    </g>
   </g>
   <g id="PathCollection_53">
    <g clip-path="url(#p90e1f22910)">
     <use style="fill:#0064a4;stroke:#0064a4;stroke-width:0.5;" x="1218.208696" xlink:href="#m44c1b83ccc" y="160.568514"/>
    </g>
   </g>
   <g id="PathCollection_54">
    <defs>
     <path d="M 0 3.247224 
C 0.861174 3.247224 1.687192 2.905076 2.296134 2.296134 
C 2.905076 1.687192 3.247224 0.861174 3.247224 0 
C 3.247224 -0.861174 2.905076 -1.687192 2.296134 -2.296134 
C 1.687192 -2.905076 0.861174 -3.247224 0 -3.247224 
C -0.861174 -3.247224 -1.687192 -2.905076 -2.296134 -2.296134 
C -2.905076 -1.687192 -3.247224 -0.861174 -3.247224 0 
C -3.247224 0.861174 -2.905076 1.687192 -2.296134 2.296134 
C -1.687192 2.905076 -0.861174 3.247224 0 3.247224 
z
" id="mfaec75cdca" style="stroke:#ff2445;stroke-width:0.5;"/>
    </defs>
    <g clip-path="url(#p90e1f22910)">
     <use style="fill:#ff2445;stroke:#ff2445;stroke-width:0.5;" x="227.852964" xlink:href="#mfaec75cdca" y="113.877672"/>
    </g>
   </g>
   <g id="PathCollection_55">
    <g clip-path="url(#p90e1f22910)">
     <use style="fill:#ff2445;stroke:#ff2445;stroke-width:0.5;" x="537.33913" xlink:href="#mdced528c1f" y="158.839223"/>
    </g>
   </g>
   <g id="PathCollection_56">
    <g clip-path="url(#p90e1f22910)">
     <use style="fill:#ff2445;stroke:#ff2445;stroke-width:0.5;" x="314.509091" xlink:href="#m947f962c3a" y="96.584767"/>
    </g>
   </g>
   <g id="PathCollection_57">
    <g clip-path="url(#p90e1f22910)">
     <use style="fill:#0064a4;stroke:#0064a4;stroke-width:0.5;" x="735.410277" xlink:href="#me4d80477d9" y="158.839223"/>
    </g>
   </g>
   <g id="PathCollection_58">
    <g clip-path="url(#p90e1f22910)">
     <use style="fill:#0064a4;stroke:#0064a4;stroke-width:0.5;" x="933.481423" xlink:href="#m2bf4ab3d65" y="157.109933"/>
    </g>
   </g>
   <g id="PathCollection_59">
    <defs>
     <path d="M 0 3.982193 
C 1.05609 3.982193 2.069067 3.562604 2.815835 2.815835 
C 3.562604 2.069067 3.982193 1.05609 3.982193 0 
C 3.982193 -1.05609 3.562604 -2.069067 2.815835 -2.815835 
C 2.069067 -3.562604 1.05609 -3.982193 0 -3.982193 
C -1.05609 -3.982193 -2.069067 -3.562604 -2.815835 -2.815835 
C -3.562604 -2.069067 -3.982193 -1.05609 -3.982193 0 
C -3.982193 1.05609 -3.562604 2.069067 -2.815835 2.815835 
C -2.069067 3.562604 -1.05609 3.982193 0 3.982193 
z
" id="m3f362877dd" style="stroke:#ff2445;stroke-width:0.5;"/>
    </defs>
    <g clip-path="url(#p90e1f22910)">
     <use style="fill:#ff2445;stroke:#ff2445;stroke-width:0.5;" x="945.86087" xlink:href="#m3f362877dd" y="208.988647"/>
    </g>
   </g>
   <g id="PathCollection_60">
    <g clip-path="url(#p90e1f22910)">
     <use style="fill:#0064a4;stroke:#0064a4;stroke-width:0.5;" x="896.343083" xlink:href="#m6f2ff98c77" y="110.419091"/>
    </g>
   </g>
   <g id="PathCollection_61">
    <defs>
     <path d="M 0 3.487759 
C 0.924965 3.487759 1.812169 3.120267 2.466218 2.466218 
C 3.120267 1.812169 3.487759 0.924965 3.487759 0 
C 3.487759 -0.924965 3.120267 -1.812169 2.466218 -2.466218 
C 1.812169 -3.120267 0.924965 -3.487759 0 -3.487759 
C -0.924965 -3.487759 -1.812169 -3.120267 -2.466218 -2.466218 
C -3.120267 -1.812169 -3.487759 -0.924965 -3.487759 0 
C -3.487759 0.924965 -3.120267 1.812169 -2.466218 2.466218 
C -1.812169 3.120267 -0.924965 3.487759 0 3.487759 
z
" id="m355403c63a" style="stroke:#0064a4;stroke-width:0.5;"/>
    </defs>
    <g clip-path="url(#p90e1f22910)">
     <use style="fill:#0064a4;stroke:#0064a4;stroke-width:0.5;" x="586.856917" xlink:href="#m355403c63a" y="145.0049"/>
    </g>
   </g>
   <g id="PathCollection_62">
    <g clip-path="url(#p90e1f22910)">
     <use style="fill:#ff2445;stroke:#ff2445;stroke-width:0.5;" x="747.789723" xlink:href="#mdced528c1f" y="158.839223"/>
    </g>
   </g>
   <g id="PathCollection_63">
    <defs>
     <path d="M 0 3.861925 
C 1.024194 3.861925 2.006578 3.455008 2.730793 2.730793 
C 3.455008 2.006578 3.861925 1.024194 3.861925 0 
C 3.861925 -1.024194 3.455008 -2.006578 2.730793 -2.730793 
C 2.006578 -3.455008 1.024194 -3.861925 0 -3.861925 
C -1.024194 -3.861925 -2.006578 -3.455008 -2.730793 -2.730793 
C -3.455008 -2.006578 -3.861925 -1.024194 -3.861925 0 
C -3.861925 1.024194 -3.455008 2.006578 -2.730793 2.730793 
C -2.006578 3.455008 -1.024194 3.861925 0 3.861925 
z
" id="mcde9492d1a" style="stroke:#ff2445;stroke-width:0.5;"/>
    </defs>
    <g clip-path="url(#p90e1f22910)">
     <use style="fill:#ff2445;stroke:#ff2445;stroke-width:0.5;" x="673.513043" xlink:href="#mcde9492d1a" y="193.425033"/>
    </g>
   </g>
   <g id="PathCollection_64">
    <defs>
     <path d="M 0 3.514485 
C 0.932052 3.514485 1.826056 3.144177 2.485116 2.485116 
C 3.144177 1.826056 3.514485 0.932052 3.514485 0 
C 3.514485 -0.932052 3.144177 -1.826056 2.485116 -2.485116 
C 1.826056 -3.144177 0.932052 -3.514485 0 -3.514485 
C -0.932052 -3.514485 -1.826056 -3.144177 -2.485116 -2.485116 
C -3.144177 -1.826056 -3.514485 -0.932052 -3.514485 0 
C -3.514485 0.932052 -3.144177 1.826056 -2.485116 2.485116 
C -1.826056 3.144177 -0.932052 3.514485 0 3.514485 
z
" id="m6848ea6334" style="stroke:#0064a4;stroke-width:0.5;"/>
    </defs>
    <g clip-path="url(#p90e1f22910)">
     <use style="fill:#0064a4;stroke:#0064a4;stroke-width:0.5;" x="537.33913" xlink:href="#m6848ea6334" y="148.463481"/>
    </g>
   </g>
   <g id="PathCollection_65">
    <defs>
     <path d="M 0 3.233861 
C 0.85763 3.233861 1.680249 2.893121 2.286685 2.286685 
C 2.893121 1.680249 3.233861 0.85763 3.233861 0 
C 3.233861 -0.85763 2.893121 -1.680249 2.286685 -2.286685 
C 1.680249 -2.893121 0.85763 -3.233861 0 -3.233861 
C -0.85763 -3.233861 -1.680249 -2.893121 -2.286685 -2.286685 
C -2.893121 -1.680249 -3.233861 -0.85763 -3.233861 0 
C -3.233861 0.85763 -2.893121 1.680249 -2.286685 2.286685 
C -1.680249 2.893121 -0.85763 3.233861 0 3.233861 
z
" id="m0cf4fbed04" style="stroke:#0064a4;stroke-width:0.5;"/>
    </defs>
    <g clip-path="url(#p90e1f22910)">
     <use style="fill:#0064a4;stroke:#0064a4;stroke-width:0.5;" x="995.378656" xlink:href="#m0cf4fbed04" y="112.148381"/>
    </g>
   </g>
   <g id="PathCollection_66">
    <defs>
     <path d="M 0 3.62139 
C 0.960404 3.62139 1.881601 3.239817 2.560709 2.560709 
C 3.239817 1.881601 3.62139 0.960404 3.62139 0 
C 3.62139 -0.960404 3.239817 -1.881601 2.560709 -2.560709 
C 1.881601 -3.239817 0.960404 -3.62139 0 -3.62139 
C -0.960404 -3.62139 -1.881601 -3.239817 -2.560709 -2.560709 
C -3.239817 -1.881601 -3.62139 -0.960404 -3.62139 0 
C -3.62139 0.960404 -3.239817 1.881601 -2.560709 2.560709 
C -1.881601 3.239817 -0.960404 3.62139 0 3.62139 
z
" id="mf85049fd53" style="stroke:#0064a4;stroke-width:0.5;"/>
    </defs>
    <g clip-path="url(#p90e1f22910)">
     <use style="fill:#0064a4;stroke:#0064a4;stroke-width:0.5;" x="822.066403" xlink:href="#mf85049fd53" y="162.297804"/>
    </g>
   </g>
   <g id="PathCollection_67">
    <g clip-path="url(#p90e1f22910)">
     <use style="fill:#0064a4;stroke:#0064a4;stroke-width:0.5;" x="921.101976" xlink:href="#mff54d95dcb" y="153.651352"/>
    </g>
   </g>
   <g id="PathCollection_68">
    <defs>
     <path d="M 0 3.902014 
C 1.034826 3.902014 2.027408 3.490873 2.759141 2.759141 
C 3.490873 2.027408 3.902014 1.034826 3.902014 0 
C 3.902014 -1.034826 3.490873 -2.027408 2.759141 -2.759141 
C 2.027408 -3.490873 1.034826 -3.902014 0 -3.902014 
C -1.034826 -3.902014 -2.027408 -3.490873 -2.759141 -2.759141 
C -3.490873 -2.027408 -3.902014 -1.034826 -3.902014 0 
C -3.902014 1.034826 -3.490873 2.027408 -2.759141 2.759141 
C -2.027408 3.490873 -1.034826 3.902014 0 3.902014 
z
" id="m7ff6739bcc" style="stroke:#ff2445;stroke-width:0.5;"/>
    </defs>
    <g clip-path="url(#p90e1f22910)">
     <use style="fill:#ff2445;stroke:#ff2445;stroke-width:0.5;" x="549.718577" xlink:href="#m7ff6739bcc" y="198.612904"/>
    </g>
   </g>
   <g id="PathCollection_69">
    <g clip-path="url(#p90e1f22910)">
     <use style="fill:#0064a4;stroke:#0064a4;stroke-width:0.5;" x="958.240316" xlink:href="#mfbedb94433" y="167.485676"/>
    </g>
   </g>
   <g id="PathCollection_70">
    <g clip-path="url(#p90e1f22910)">
     <use style="fill:#0064a4;stroke:#0064a4;stroke-width:0.5;" x="1131.552569" xlink:href="#mff54d95dcb" y="153.651352"/>
    </g>
   </g>
   <g id="PathCollection_71">
    <g clip-path="url(#p90e1f22910)">
     <use style="fill:#0064a4;stroke:#0064a4;stroke-width:0.5;" x="1230.588142" xlink:href="#m327aea43c3" y="150.192771"/>
    </g>
   </g>
   <g id="PathCollection_72">
    <defs>
     <path d="M 0 3.260587 
C 0.864718 3.260587 1.694135 2.917031 2.305583 2.305583 
C 2.917031 1.694135 3.260587 0.864718 3.260587 0 
C 3.260587 -0.864718 2.917031 -1.694135 2.305583 -2.305583 
C 1.694135 -2.917031 0.864718 -3.260587 0 -3.260587 
C -0.864718 -3.260587 -1.694135 -2.917031 -2.305583 -2.305583 
C -2.917031 -1.694135 -3.260587 -0.864718 -3.260587 0 
C -3.260587 0.864718 -2.917031 1.694135 -2.305583 2.305583 
C -1.694135 2.917031 -0.864718 3.260587 0 3.260587 
z
" id="m3f898a41ba" style="stroke:#ff2445;stroke-width:0.5;"/>
    </defs>
    <g clip-path="url(#p90e1f22910)">
     <use style="fill:#ff2445;stroke:#ff2445;stroke-width:0.5;" x="487.821344" xlink:href="#m3f898a41ba" y="115.606962"/>
    </g>
   </g>
   <g id="PathCollection_73">
    <g clip-path="url(#p90e1f22910)">
     <use style="fill:#ff2445;stroke:#ff2445;stroke-width:0.5;" x="425.924111" xlink:href="#mdced528c1f" y="158.839223"/>
    </g>
   </g>
   <g id="PathCollection_74">
    <g clip-path="url(#p90e1f22910)">
     <use style="fill:#ff2445;stroke:#ff2445;stroke-width:0.5;" x="760.16917" xlink:href="#m122aa4fcd8" y="186.507871"/>
    </g>
   </g>
   <g id="PathCollection_75">
    <g clip-path="url(#p90e1f22910)">
     <use style="fill:#ff2445;stroke:#ff2445;stroke-width:0.5;" x="450.683004" xlink:href="#m357c8ca101" y="148.463481"/>
    </g>
   </g>
   <g id="PathCollection_76">
    <defs>
     <path d="M 0 3.501122 
C 0.928508 3.501122 1.819113 3.132222 2.475667 2.475667 
C 3.132222 1.819113 3.501122 0.928508 3.501122 0 
C 3.501122 -0.928508 3.132222 -1.819113 2.475667 -2.475667 
C 1.819113 -3.132222 0.928508 -3.501122 0 -3.501122 
C -0.928508 -3.501122 -1.819113 -3.132222 -2.475667 -2.475667 
C -3.132222 -1.819113 -3.501122 -0.928508 -3.501122 0 
C -3.501122 0.928508 -3.132222 1.819113 -2.475667 2.475667 
C -1.819113 3.132222 -0.928508 3.501122 0 3.501122 
z
" id="mc4164e1b66" style="stroke:#0064a4;stroke-width:0.5;"/>
    </defs>
    <g clip-path="url(#p90e1f22910)">
     <use style="fill:#0064a4;stroke:#0064a4;stroke-width:0.5;" x="364.026877" xlink:href="#mc4164e1b66" y="146.73419"/>
    </g>
   </g>
   <g id="PathCollection_77">
    <g clip-path="url(#p90e1f22910)">
     <use style="fill:#ff2445;stroke:#ff2445;stroke-width:0.5;" x="1007.758103" xlink:href="#mcde9492d1a" y="193.425033"/>
    </g>
   </g>
   <g id="PathCollection_78">
    <g clip-path="url(#p90e1f22910)">
     <use style="fill:#0064a4;stroke:#0064a4;stroke-width:0.5;" x="1119.173123" xlink:href="#mc45b90dfe6" y="165.756385"/>
    </g>
   </g>
   <g id="PathCollection_79">
    <defs>
     <path d="M 0 3.861925 
C 1.024194 3.861925 2.006578 3.455008 2.730793 2.730793 
C 3.455008 2.006578 3.861925 1.024194 3.861925 0 
C 3.861925 -1.024194 3.455008 -2.006578 2.730793 -2.730793 
C 2.006578 -3.455008 1.024194 -3.861925 0 -3.861925 
C -1.024194 -3.861925 -2.006578 -3.455008 -2.730793 -2.730793 
C -3.455008 -2.006578 -3.861925 -1.024194 -3.861925 0 
C -3.861925 1.024194 -3.455008 2.006578 -2.730793 2.730793 
C -2.006578 3.455008 -1.024194 3.861925 0 3.861925 
z
" id="mb1fa88311a" style="stroke:#0064a4;stroke-width:0.5;"/>
    </defs>
    <g clip-path="url(#p90e1f22910)">
     <use style="fill:#0064a4;stroke:#0064a4;stroke-width:0.5;" x="1193.449802" xlink:href="#mb1fa88311a" y="193.425033"/>
    </g>
   </g>
   <g id="PathCollection_80">
    <g clip-path="url(#p90e1f22910)">
     <use style="fill:#ff2445;stroke:#ff2445;stroke-width:0.5;" x="908.72253" xlink:href="#mdced528c1f" y="158.839223"/>
    </g>
   </g>
   <g id="PathCollection_81">
    <defs>
     <path d="M 0 3.501122 
C 0.928508 3.501122 1.819113 3.132222 2.475667 2.475667 
C 3.132222 1.819113 3.501122 0.928508 3.501122 0 
C 3.501122 -0.928508 3.132222 -1.819113 2.475667 -2.475667 
C 1.819113 -3.132222 0.928508 -3.501122 0 -3.501122 
C -0.928508 -3.501122 -1.819113 -3.132222 -2.475667 -2.475667 
C -3.132222 -1.819113 -3.501122 -0.928508 -3.501122 0 
C -3.501122 0.928508 -3.132222 1.819113 -2.475667 2.475667 
C -1.819113 3.132222 -0.928508 3.501122 0 3.501122 
z
" id="m1d3cbc4ed4" style="stroke:#ff2445;stroke-width:0.5;"/>
    </defs>
    <g clip-path="url(#p90e1f22910)">
     <use style="fill:#ff2445;stroke:#ff2445;stroke-width:0.5;" x="252.611858" xlink:href="#m1d3cbc4ed4" y="146.73419"/>
    </g>
   </g>
   <g id="PathCollection_82">
    <defs>
     <path d="M 0 3.634753 
C 0.963948 3.634753 1.888544 3.251772 2.570158 2.570158 
C 3.251772 1.888544 3.634753 0.963948 3.634753 0 
C 3.634753 -0.963948 3.251772 -1.888544 2.570158 -2.570158 
C 1.888544 -3.251772 0.963948 -3.634753 0 -3.634753 
C -0.963948 -3.634753 -1.888544 -3.251772 -2.570158 -2.570158 
C -3.251772 -1.888544 -3.634753 -0.963948 -3.634753 0 
C -3.634753 0.963948 -3.251772 1.888544 -2.570158 2.570158 
C -1.888544 3.251772 -0.963948 3.634753 0 3.634753 
z
" id="m1884045f70" style="stroke:#0064a4;stroke-width:0.5;"/>
    </defs>
    <g clip-path="url(#p90e1f22910)">
     <use style="fill:#0064a4;stroke:#0064a4;stroke-width:0.5;" x="698.271937" xlink:href="#m1884045f70" y="164.027095"/>
    </g>
   </g>
   <g id="line2d_7">
    <path clip-path="url(#p90e1f22910)" d="M 264.991304 112.148381 
L 283.560474 126.84735 
" style="fill:none;stroke:#0064a4;stroke-width:1.952133;"/>
   </g>
   <g id="line2d_8">
    <path clip-path="url(#p90e1f22910)" d="M 283.560474 126.84735 
L 302.129644 141.546319 
" style="fill:none;stroke:#ff2445;stroke-width:2.236033;"/>
   </g>
   <g id="line2d_9">
    <path clip-path="url(#p90e1f22910)" d="M 784.928063 169.214966 
L 803.497233 165.756385 
" style="fill:none;stroke:#0064a4;stroke-width:2.520833;"/>
   </g>
   <g id="line2d_10">
    <path clip-path="url(#p90e1f22910)" d="M 803.497233 165.756385 
L 822.066403 162.297804 
" style="fill:none;stroke:#ff2445;stroke-width:2.448033;"/>
   </g>
   <g id="line2d_11">
    <path clip-path="url(#p90e1f22910)" d="M 1205.829249 169.214966 
L 1224.398419 162.297804 
" style="fill:none;stroke:#0064a4;stroke-width:2.520833;"/>
   </g>
   <g id="line2d_12">
    <path clip-path="url(#p90e1f22910)" d="M 1224.398419 162.297804 
L 1242.967589 155.380643 
" style="fill:none;stroke:#ff2445;stroke-width:2.3763;"/>
   </g>
   <g id="line2d_13">
    <path clip-path="url(#p90e1f22910)" d="M 1156.311462 153.651352 
L 1174.880632 135.493802 
" style="fill:none;stroke:#0064a4;stroke-width:2.358533;"/>
   </g>
   <g id="line2d_14">
    <path clip-path="url(#p90e1f22910)" d="M 1174.880632 135.493802 
L 1193.449802 117.336252 
" style="fill:none;stroke:#ff2445;stroke-width:2.000833;"/>
   </g>
   <g id="line2d_15">
    <path clip-path="url(#p90e1f22910)" d="M 425.924111 148.463481 
L 444.493281 161.433159 
" style="fill:none;stroke:#0064a4;stroke-width:2.305633;"/>
   </g>
   <g id="line2d_16">
    <path clip-path="url(#p90e1f22910)" d="M 444.493281 161.433159 
L 463.062451 174.402838 
" style="fill:none;stroke:#ff2445;stroke-width:2.576133;"/>
   </g>
   <g id="line2d_17">
    <path clip-path="url(#p90e1f22910)" d="M 859.204743 125.982705 
L 877.773913 127.711995 
" style="fill:none;stroke:#0064a4;stroke-width:2.083333;"/>
   </g>
   <g id="line2d_18">
    <path clip-path="url(#p90e1f22910)" d="M 877.773913 127.711995 
L 896.343083 129.441286 
" style="fill:none;stroke:#ff2445;stroke-width:2.1168;"/>
   </g>
   <g id="line2d_19">
    <path clip-path="url(#p90e1f22910)" d="M 463.062451 155.380643 
L 481.631621 154.515997 
" style="fill:none;stroke:#0064a4;stroke-width:2.3763;"/>
   </g>
   <g id="line2d_20">
    <path clip-path="url(#p90e1f22910)" d="M 481.631621 154.515997 
L 500.200791 153.651352 
" style="fill:none;stroke:#ff2445;stroke-width:2.358533;"/>
   </g>
   <g id="line2d_21">
    <path clip-path="url(#p90e1f22910)" d="M 1057.275889 157.109933 
L 1075.845059 143.275609 
" style="fill:none;stroke:#0064a4;stroke-width:2.394133;"/>
   </g>
   <g id="line2d_22">
    <path clip-path="url(#p90e1f22910)" d="M 1075.845059 143.275609 
L 1094.414229 129.441286 
" style="fill:none;stroke:#ff2445;stroke-width:2.1168;"/>
   </g>
   <g id="line2d_23">
    <path clip-path="url(#p90e1f22910)" d="M 252.611858 124.253414 
L 271.181028 145.0049 
" style="fill:none;stroke:#0064a4;stroke-width:2.0667;"/>
   </g>
   <g id="line2d_24">
    <path clip-path="url(#p90e1f22910)" d="M 271.181028 145.0049 
L 289.750198 165.756385 
" style="fill:none;stroke:#ff2445;stroke-width:2.4843;"/>
   </g>
   <g id="line2d_25">
    <path clip-path="url(#p90e1f22910)" d="M 487.821344 139.817028 
L 506.390514 129.441286 
" style="fill:none;stroke:#0064a4;stroke-width:2.2188;"/>
   </g>
   <g id="line2d_26">
    <path clip-path="url(#p90e1f22910)" d="M 506.390514 129.441286 
L 524.959684 119.065543 
" style="fill:none;stroke:#ff2445;stroke-width:2.0172;"/>
   </g>
   <g id="line2d_27">
    <path clip-path="url(#p90e1f22910)" d="M 673.513043 136.358448 
L 692.082213 139.817028 
" style="fill:none;stroke:#0064a4;stroke-width:2.184533;"/>
   </g>
   <g id="line2d_28">
    <path clip-path="url(#p90e1f22910)" d="M 692.082213 139.817028 
L 710.651383 143.275609 
" style="fill:none;stroke:#ff2445;stroke-width:2.253333;"/>
   </g>
   <g id="line2d_29">
    <path clip-path="url(#p90e1f22910)" d="M 574.47747 153.651352 
L 593.04664 141.546319 
" style="fill:none;stroke:#0064a4;stroke-width:2.358533;"/>
   </g>
   <g id="line2d_30">
    <path clip-path="url(#p90e1f22910)" d="M 593.04664 141.546319 
L 611.61581 129.441286 
" style="fill:none;stroke:#ff2445;stroke-width:2.1168;"/>
   </g>
   <g id="line2d_31">
    <path clip-path="url(#p90e1f22910)" d="M 203.094071 98.314057 
L 221.663241 111.283736 
" style="fill:none;stroke:#0064a4;stroke-width:1.8252;"/>
   </g>
   <g id="line2d_32">
    <path clip-path="url(#p90e1f22910)" d="M 221.663241 111.283736 
L 240.232411 124.253414 
" style="fill:none;stroke:#ff2445;stroke-width:2.0667;"/>
   </g>
   <g id="line2d_33">
    <path clip-path="url(#p90e1f22910)" d="M 1168.690909 167.485676 
L 1187.260079 161.433159 
" style="fill:none;stroke:#0064a4;stroke-width:2.502533;"/>
   </g>
   <g id="line2d_34">
    <path clip-path="url(#p90e1f22910)" d="M 1187.260079 161.433159 
L 1205.829249 155.380643 
" style="fill:none;stroke:#ff2445;stroke-width:2.3763;"/>
   </g>
   <g id="line2d_35">
    <path clip-path="url(#p90e1f22910)" d="M 809.686957 170.944257 
L 828.256126 173.538192 
" style="fill:none;stroke:#0064a4;stroke-width:2.5392;"/>
   </g>
   <g id="line2d_36">
    <path clip-path="url(#p90e1f22910)" d="M 828.256126 173.538192 
L 846.825296 176.132128 
" style="fill:none;stroke:#ff2445;stroke-width:2.5947;"/>
   </g>
   <g id="line2d_37">
    <path clip-path="url(#p90e1f22910)" d="M 339.267984 110.419091 
L 357.837154 103.501929 
" style="fill:none;stroke:#0064a4;stroke-width:1.936033;"/>
   </g>
   <g id="line2d_38">
    <path clip-path="url(#p90e1f22910)" d="M 357.837154 103.501929 
L 376.406324 96.584767 
" style="fill:none;stroke:#ff2445;stroke-width:1.809633;"/>
   </g>
   <g id="line2d_39">
    <path clip-path="url(#p90e1f22910)" d="M 549.718577 132.899867 
L 568.287747 140.681674 
" style="fill:none;stroke:#0064a4;stroke-width:2.150533;"/>
   </g>
   <g id="line2d_40">
    <path clip-path="url(#p90e1f22910)" d="M 568.287747 140.681674 
L 586.856917 148.463481 
" style="fill:none;stroke:#ff2445;stroke-width:2.305633;"/>
   </g>
   <g id="line2d_41">
    <path clip-path="url(#p90e1f22910)" d="M 685.89249 151.922062 
L 704.46166 155.380643 
" style="fill:none;stroke:#0064a4;stroke-width:2.340833;"/>
   </g>
   <g id="line2d_42">
    <path clip-path="url(#p90e1f22910)" d="M 704.46166 155.380643 
L 723.03083 158.839223 
" style="fill:none;stroke:#ff2445;stroke-width:2.412033;"/>
   </g>
   <g id="line2d_43">
    <path clip-path="url(#p90e1f22910)" d="M 772.548617 158.839223 
L 791.117787 143.275609 
" style="fill:none;stroke:#0064a4;stroke-width:2.412033;"/>
   </g>
   <g id="line2d_44">
    <path clip-path="url(#p90e1f22910)" d="M 791.117787 143.275609 
L 809.686957 127.711995 
" style="fill:none;stroke:#ff2445;stroke-width:2.100033;"/>
   </g>
   <g id="line2d_45">
    <path clip-path="url(#p90e1f22910)" d="M 834.44585 169.214966 
L 853.01502 154.515997 
" style="fill:none;stroke:#0064a4;stroke-width:2.520833;"/>
   </g>
   <g id="line2d_46">
    <path clip-path="url(#p90e1f22910)" d="M 853.01502 154.515997 
L 871.58419 139.817028 
" style="fill:none;stroke:#ff2445;stroke-width:2.2188;"/>
   </g>
   <g id="line2d_47">
    <path clip-path="url(#p90e1f22910)" d="M 1181.070356 141.546319 
L 1199.639526 129.441286 
" style="fill:none;stroke:#0064a4;stroke-width:2.236033;"/>
   </g>
   <g id="line2d_48">
    <path clip-path="url(#p90e1f22910)" d="M 1199.639526 129.441286 
L 1218.208696 117.336252 
" style="fill:none;stroke:#ff2445;stroke-width:2.000833;"/>
   </g>
   <g id="line2d_49">
    <path clip-path="url(#p90e1f22910)" d="M 562.098024 131.170576 
L 580.667194 146.73419 
" style="fill:none;stroke:#0064a4;stroke-width:2.133633;"/>
   </g>
   <g id="line2d_50">
    <path clip-path="url(#p90e1f22910)" d="M 580.667194 146.73419 
L 599.236364 162.297804 
" style="fill:none;stroke:#ff2445;stroke-width:2.448033;"/>
   </g>
   <g id="line2d_51">
    <path clip-path="url(#p90e1f22910)" d="M 438.303557 146.73419 
L 456.872727 157.109933 
" style="fill:none;stroke:#0064a4;stroke-width:2.288133;"/>
   </g>
   <g id="line2d_52">
    <path clip-path="url(#p90e1f22910)" d="M 456.872727 157.109933 
L 475.441897 167.485676 
" style="fill:none;stroke:#ff2445;stroke-width:2.502533;"/>
   </g>
   <g id="line2d_53">
    <path clip-path="url(#p90e1f22910)" d="M 351.647431 164.027095 
L 370.216601 192.560387 
" style="fill:none;stroke:#0064a4;stroke-width:2.466133;"/>
   </g>
   <g id="line2d_54">
    <path clip-path="url(#p90e1f22910)" d="M 370.216601 192.560387 
L 388.785771 221.09368 
" style="fill:none;stroke:#ff2445;stroke-width:3.100833;"/>
   </g>
   <g id="line2d_55">
    <path clip-path="url(#p90e1f22910)" d="M 846.825296 155.380643 
L 865.394466 147.598836 
" style="fill:none;stroke:#0064a4;stroke-width:2.3763;"/>
   </g>
   <g id="line2d_56">
    <path clip-path="url(#p90e1f22910)" d="M 865.394466 147.598836 
L 883.963636 139.817028 
" style="fill:none;stroke:#ff2445;stroke-width:2.2188;"/>
   </g>
   <g id="line2d_57">
    <path clip-path="url(#p90e1f22910)" d="M 1106.793676 150.192771 
L 1125.362846 141.546319 
" style="fill:none;stroke:#0064a4;stroke-width:2.3232;"/>
   </g>
   <g id="line2d_58">
    <path clip-path="url(#p90e1f22910)" d="M 1125.362846 141.546319 
L 1143.932016 132.899867 
" style="fill:none;stroke:#ff2445;stroke-width:2.150533;"/>
   </g>
   <g id="line2d_59">
    <path clip-path="url(#p90e1f22910)" d="M 1069.655336 143.275609 
L 1088.224506 129.441286 
" style="fill:none;stroke:#0064a4;stroke-width:2.253333;"/>
   </g>
   <g id="line2d_60">
    <path clip-path="url(#p90e1f22910)" d="M 1088.224506 129.441286 
L 1106.793676 115.606962 
" style="fill:none;stroke:#ff2445;stroke-width:1.984533;"/>
   </g>
   <g id="line2d_61">
    <path clip-path="url(#p90e1f22910)" d="M 401.165217 158.839223 
L 419.734387 160.568514 
" style="fill:none;stroke:#0064a4;stroke-width:2.412033;"/>
   </g>
   <g id="line2d_62">
    <path clip-path="url(#p90e1f22910)" d="M 419.734387 160.568514 
L 438.303557 162.297804 
" style="fill:none;stroke:#ff2445;stroke-width:2.448033;"/>
   </g>
   <g id="line2d_63">
    <path clip-path="url(#p90e1f22910)" d="M 1094.414229 160.568514 
L 1112.983399 148.463481 
" style="fill:none;stroke:#0064a4;stroke-width:2.43;"/>
   </g>
   <g id="line2d_64">
    <path clip-path="url(#p90e1f22910)" d="M 1112.983399 148.463481 
L 1131.552569 136.358448 
" style="fill:none;stroke:#ff2445;stroke-width:2.184533;"/>
   </g>
   <g id="line2d_65">
    <path clip-path="url(#p90e1f22910)" d="M 945.86087 167.485676 
L 964.43004 164.89174 
" style="fill:none;stroke:#0064a4;stroke-width:2.502533;"/>
   </g>
   <g id="line2d_66">
    <path clip-path="url(#p90e1f22910)" d="M 964.43004 164.89174 
L 982.999209 162.297804 
" style="fill:none;stroke:#ff2445;stroke-width:2.448033;"/>
   </g>
   <g id="line2d_67">
    <path clip-path="url(#p90e1f22910)" d="M 376.406324 132.899867 
L 394.975494 148.463481 
" style="fill:none;stroke:#0064a4;stroke-width:2.150533;"/>
   </g>
   <g id="line2d_68">
    <path clip-path="url(#p90e1f22910)" d="M 394.975494 148.463481 
L 413.544664 164.027095 
" style="fill:none;stroke:#ff2445;stroke-width:2.466133;"/>
   </g>
   <g id="line2d_69">
    <path clip-path="url(#p90e1f22910)" d="M 661.133597 167.485676 
L 679.702767 151.057416 
" style="fill:none;stroke:#0064a4;stroke-width:2.502533;"/>
   </g>
   <g id="line2d_70">
    <path clip-path="url(#p90e1f22910)" d="M 679.702767 151.057416 
L 698.271937 134.629157 
" style="fill:none;stroke:#ff2445;stroke-width:2.1675;"/>
   </g>
   <g id="line2d_71">
    <path clip-path="url(#p90e1f22910)" d="M 178.335178 60.269667 
L 196.904348 62.863603 
" style="fill:none;stroke:#0064a4;stroke-width:1.498133;"/>
   </g>
   <g id="line2d_72">
    <path clip-path="url(#p90e1f22910)" d="M 196.904348 62.863603 
L 215.473518 65.457539 
" style="fill:none;stroke:#ff2445;stroke-width:1.540833;"/>
   </g>
   <g id="line2d_73">
    <path clip-path="url(#p90e1f22910)" d="M 289.750198 77.562572 
L 308.319368 87.073669 
" style="fill:none;stroke:#0064a4;stroke-width:1.6428;"/>
   </g>
   <g id="line2d_74">
    <path clip-path="url(#p90e1f22910)" d="M 308.319368 87.073669 
L 326.888538 96.584767 
" style="fill:none;stroke:#ff2445;stroke-width:1.809633;"/>
   </g>
   <g id="line2d_75">
    <path clip-path="url(#p90e1f22910)" d="M 326.888538 129.441286 
L 345.457708 145.0049 
" style="fill:none;stroke:#0064a4;stroke-width:2.1168;"/>
   </g>
   <g id="line2d_76">
    <path clip-path="url(#p90e1f22910)" d="M 345.457708 145.0049 
L 364.026877 160.568514 
" style="fill:none;stroke:#ff2445;stroke-width:2.43;"/>
   </g>
   <g id="line2d_77">
    <path clip-path="url(#p90e1f22910)" d="M 1020.137549 174.402838 
L 1038.706719 166.621031 
" style="fill:none;stroke:#0064a4;stroke-width:2.576133;"/>
   </g>
   <g id="line2d_78">
    <path clip-path="url(#p90e1f22910)" d="M 1038.706719 166.621031 
L 1057.275889 158.839223 
" style="fill:none;stroke:#ff2445;stroke-width:2.412033;"/>
   </g>
   <g id="line2d_79">
    <path clip-path="url(#p90e1f22910)" d="M 982.999209 160.568514 
L 1001.568379 157.974578 
" style="fill:none;stroke:#0064a4;stroke-width:2.43;"/>
   </g>
   <g id="line2d_80">
    <path clip-path="url(#p90e1f22910)" d="M 1001.568379 157.974578 
L 1020.137549 155.380643 
" style="fill:none;stroke:#ff2445;stroke-width:2.3763;"/>
   </g>
   <g id="line2d_81">
    <path clip-path="url(#p90e1f22910)" d="M 1007.758103 158.839223 
L 1026.327273 143.275609 
" style="fill:none;stroke:#0064a4;stroke-width:2.412033;"/>
   </g>
   <g id="line2d_82">
    <path clip-path="url(#p90e1f22910)" d="M 1026.327273 143.275609 
L 1044.896443 127.711995 
" style="fill:none;stroke:#ff2445;stroke-width:2.100033;"/>
   </g>
   <g id="line2d_83">
    <path clip-path="url(#p90e1f22910)" d="M 1044.896443 100.043348 
L 1063.465613 85.344379 
" style="fill:none;stroke:#0064a4;stroke-width:1.840833;"/>
   </g>
   <g id="line2d_84">
    <path clip-path="url(#p90e1f22910)" d="M 1063.465613 85.344379 
L 1082.034783 70.64541 
" style="fill:none;stroke:#ff2445;stroke-width:1.584133;"/>
   </g>
   <g id="line2d_85">
    <path clip-path="url(#p90e1f22910)" d="M 524.959684 174.402838 
L 543.528854 189.966452 
" style="fill:none;stroke:#0064a4;stroke-width:2.576133;"/>
   </g>
   <g id="line2d_86">
    <path clip-path="url(#p90e1f22910)" d="M 543.528854 189.966452 
L 562.098024 205.530066 
" style="fill:none;stroke:#ff2445;stroke-width:2.920533;"/>
   </g>
   <g id="line2d_87">
    <path clip-path="url(#p90e1f22910)" d="M 611.61581 160.568514 
L 630.18498 162.297804 
" style="fill:none;stroke:#0064a4;stroke-width:2.43;"/>
   </g>
   <g id="line2d_88">
    <path clip-path="url(#p90e1f22910)" d="M 630.18498 162.297804 
L 648.75415 164.027095 
" style="fill:none;stroke:#ff2445;stroke-width:2.466133;"/>
   </g>
   <g id="line2d_89">
    <path clip-path="url(#p90e1f22910)" d="M 227.852964 77.562572 
L 246.422134 92.261541 
" style="fill:none;stroke:#0064a4;stroke-width:1.6428;"/>
   </g>
   <g id="line2d_90">
    <path clip-path="url(#p90e1f22910)" d="M 246.422134 92.261541 
L 264.991304 106.96051 
" style="fill:none;stroke:#ff2445;stroke-width:1.904033;"/>
   </g>
   <g id="line2d_91">
    <path clip-path="url(#p90e1f22910)" d="M 747.789723 181.319999 
L 766.358893 198.612904 
" style="fill:none;stroke:#0064a4;stroke-width:2.6508;"/>
   </g>
   <g id="line2d_92">
    <path clip-path="url(#p90e1f22910)" d="M 766.358893 198.612904 
L 784.928063 215.905809 
" style="fill:none;stroke:#ff2445;stroke-width:3.040133;"/>
   </g>
   <g id="line2d_93">
    <path clip-path="url(#p90e1f22910)" d="M 760.16917 155.380643 
L 778.73834 149.328126 
" style="fill:none;stroke:#0064a4;stroke-width:2.3763;"/>
   </g>
   <g id="line2d_94">
    <path clip-path="url(#p90e1f22910)" d="M 778.73834 149.328126 
L 797.30751 143.275609 
" style="fill:none;stroke:#ff2445;stroke-width:2.253333;"/>
   </g>
   <g id="line2d_95">
    <path clip-path="url(#p90e1f22910)" d="M 797.30751 165.756385 
L 815.87668 155.380643 
" style="fill:none;stroke:#0064a4;stroke-width:2.4843;"/>
   </g>
   <g id="line2d_96">
    <path clip-path="url(#p90e1f22910)" d="M 815.87668 155.380643 
L 834.44585 145.0049 
" style="fill:none;stroke:#ff2445;stroke-width:2.2707;"/>
   </g>
   <g id="line2d_97">
    <path clip-path="url(#p90e1f22910)" d="M 599.236364 125.982705 
L 617.805534 132.035221 
" style="fill:none;stroke:#0064a4;stroke-width:2.083333;"/>
   </g>
   <g id="line2d_98">
    <path clip-path="url(#p90e1f22910)" d="M 617.805534 132.035221 
L 636.374704 138.087738 
" style="fill:none;stroke:#ff2445;stroke-width:2.201633;"/>
   </g>
   <g id="line2d_99">
    <path clip-path="url(#p90e1f22910)" d="M 623.995257 167.485676 
L 642.564427 176.996773 
" style="fill:none;stroke:#0064a4;stroke-width:2.502533;"/>
   </g>
   <g id="line2d_100">
    <path clip-path="url(#p90e1f22910)" d="M 642.564427 176.996773 
L 661.133597 186.507871 
" style="fill:none;stroke:#ff2445;stroke-width:2.7075;"/>
   </g>
   <g id="line2d_101">
    <path clip-path="url(#p90e1f22910)" d="M 648.75415 153.651352 
L 667.32332 145.0049 
" style="fill:none;stroke:#0064a4;stroke-width:2.358533;"/>
   </g>
   <g id="line2d_102">
    <path clip-path="url(#p90e1f22910)" d="M 667.32332 145.0049 
L 685.89249 136.358448 
" style="fill:none;stroke:#ff2445;stroke-width:2.184533;"/>
   </g>
   <g id="line2d_103">
    <path clip-path="url(#p90e1f22910)" d="M 314.509091 122.524124 
L 333.078261 133.764512 
" style="fill:none;stroke:#0064a4;stroke-width:2.050133;"/>
   </g>
   <g id="line2d_104">
    <path clip-path="url(#p90e1f22910)" d="M 333.078261 133.764512 
L 351.647431 145.0049 
" style="fill:none;stroke:#ff2445;stroke-width:2.2707;"/>
   </g>
   <g id="line2d_105">
    <path clip-path="url(#p90e1f22910)" d="M 1032.516996 139.817028 
L 1051.086166 132.899867 
" style="fill:none;stroke:#0064a4;stroke-width:2.2188;"/>
   </g>
   <g id="line2d_106">
    <path clip-path="url(#p90e1f22910)" d="M 1051.086166 132.899867 
L 1069.655336 125.982705 
" style="fill:none;stroke:#ff2445;stroke-width:2.083333;"/>
   </g>
   <g id="line2d_107">
    <path clip-path="url(#p90e1f22910)" d="M 1082.034783 176.132128 
L 1100.603953 173.538192 
" style="fill:none;stroke:#0064a4;stroke-width:2.5947;"/>
   </g>
   <g id="line2d_108">
    <path clip-path="url(#p90e1f22910)" d="M 1100.603953 173.538192 
L 1119.173123 170.944257 
" style="fill:none;stroke:#ff2445;stroke-width:2.5392;"/>
   </g>
   <g id="line2d_109">
    <path clip-path="url(#p90e1f22910)" d="M 302.129644 86.209024 
L 320.698814 96.584767 
" style="fill:none;stroke:#0064a4;stroke-width:1.717633;"/>
   </g>
   <g id="line2d_110">
    <path clip-path="url(#p90e1f22910)" d="M 320.698814 96.584767 
L 339.267984 106.96051 
" style="fill:none;stroke:#ff2445;stroke-width:1.904033;"/>
   </g>
   <g id="line2d_111">
    <path clip-path="url(#p90e1f22910)" d="M 1218.208696 160.568514 
L 1236.777866 146.73419 
" style="fill:none;stroke:#0064a4;stroke-width:2.43;"/>
   </g>
   <g id="line2d_112">
    <path clip-path="url(#p90e1f22910)" d="M 1236.777866 146.73419 
L 1255.347036 132.899867 
" style="fill:none;stroke:#ff2445;stroke-width:2.150533;"/>
   </g>
   <g id="line2d_113">
    <path clip-path="url(#p90e1f22910)" d="M 190.714625 96.584767 
L 209.283794 105.231219 
" style="fill:none;stroke:#0064a4;stroke-width:1.809633;"/>
   </g>
   <g id="line2d_114">
    <path clip-path="url(#p90e1f22910)" d="M 209.283794 105.231219 
L 227.852964 113.877672 
" style="fill:none;stroke:#ff2445;stroke-width:1.9683;"/>
   </g>
   <g id="line2d_115">
    <path clip-path="url(#p90e1f22910)" d="M 500.200791 139.817028 
L 518.76996 149.328126 
" style="fill:none;stroke:#0064a4;stroke-width:2.2188;"/>
   </g>
   <g id="line2d_116">
    <path clip-path="url(#p90e1f22910)" d="M 518.76996 149.328126 
L 537.33913 158.839223 
" style="fill:none;stroke:#ff2445;stroke-width:2.412033;"/>
   </g>
   <g id="line2d_117">
    <path clip-path="url(#p90e1f22910)" d="M 277.370751 91.396896 
L 295.939921 93.990831 
" style="fill:none;stroke:#0064a4;stroke-width:1.763333;"/>
   </g>
   <g id="line2d_118">
    <path clip-path="url(#p90e1f22910)" d="M 295.939921 93.990831 
L 314.509091 96.584767 
" style="fill:none;stroke:#ff2445;stroke-width:1.809633;"/>
   </g>
   <g id="line2d_119">
    <path clip-path="url(#p90e1f22910)" d="M 735.410277 158.839223 
L 753.979447 149.328126 
" style="fill:none;stroke:#0064a4;stroke-width:2.412033;"/>
   </g>
   <g id="line2d_120">
    <path clip-path="url(#p90e1f22910)" d="M 753.979447 149.328126 
L 772.548617 139.817028 
" style="fill:none;stroke:#ff2445;stroke-width:2.2188;"/>
   </g>
   <g id="line2d_121">
    <path clip-path="url(#p90e1f22910)" d="M 933.481423 157.109933 
L 952.050593 145.0049 
" style="fill:none;stroke:#0064a4;stroke-width:2.394133;"/>
   </g>
   <g id="line2d_122">
    <path clip-path="url(#p90e1f22910)" d="M 952.050593 145.0049 
L 970.619763 132.899867 
" style="fill:none;stroke:#ff2445;stroke-width:2.150533;"/>
   </g>
   <g id="line2d_123">
    <path clip-path="url(#p90e1f22910)" d="M 908.72253 186.507871 
L 927.2917 197.748259 
" style="fill:none;stroke:#0064a4;stroke-width:2.7075;"/>
   </g>
   <g id="line2d_124">
    <path clip-path="url(#p90e1f22910)" d="M 927.2917 197.748259 
L 945.86087 208.988647 
" style="fill:none;stroke:#ff2445;stroke-width:2.960133;"/>
   </g>
   <g id="line2d_125">
    <path clip-path="url(#p90e1f22910)" d="M 896.343083 110.419091 
L 914.912253 102.637284 
" style="fill:none;stroke:#0064a4;stroke-width:1.936033;"/>
   </g>
   <g id="line2d_126">
    <path clip-path="url(#p90e1f22910)" d="M 914.912253 102.637284 
L 933.481423 94.855477 
" style="fill:none;stroke:#ff2445;stroke-width:1.794133;"/>
   </g>
   <g id="line2d_127">
    <path clip-path="url(#p90e1f22910)" d="M 586.856917 145.0049 
L 605.426087 136.358448 
" style="fill:none;stroke:#0064a4;stroke-width:2.2707;"/>
   </g>
   <g id="line2d_128">
    <path clip-path="url(#p90e1f22910)" d="M 605.426087 136.358448 
L 623.995257 127.711995 
" style="fill:none;stroke:#ff2445;stroke-width:2.100033;"/>
   </g>
   <g id="line2d_129">
    <path clip-path="url(#p90e1f22910)" d="M 710.651383 145.0049 
L 729.220553 151.922062 
" style="fill:none;stroke:#0064a4;stroke-width:2.2707;"/>
   </g>
   <g id="line2d_130">
    <path clip-path="url(#p90e1f22910)" d="M 729.220553 151.922062 
L 747.789723 158.839223 
" style="fill:none;stroke:#ff2445;stroke-width:2.412033;"/>
   </g>
   <g id="line2d_131">
    <path clip-path="url(#p90e1f22910)" d="M 636.374704 169.214966 
L 654.943874 181.319999 
" style="fill:none;stroke:#0064a4;stroke-width:2.520833;"/>
   </g>
   <g id="line2d_132">
    <path clip-path="url(#p90e1f22910)" d="M 654.943874 181.319999 
L 673.513043 193.425033 
" style="fill:none;stroke:#ff2445;stroke-width:2.784033;"/>
   </g>
   <g id="line2d_133">
    <path clip-path="url(#p90e1f22910)" d="M 537.33913 148.463481 
L 555.9083 139.817028 
" style="fill:none;stroke:#0064a4;stroke-width:2.305633;"/>
   </g>
   <g id="line2d_134">
    <path clip-path="url(#p90e1f22910)" d="M 555.9083 139.817028 
L 574.47747 131.170576 
" style="fill:none;stroke:#ff2445;stroke-width:2.133633;"/>
   </g>
   <g id="line2d_135">
    <path clip-path="url(#p90e1f22910)" d="M 995.378656 112.148381 
L 1013.947826 102.637284 
" style="fill:none;stroke:#0064a4;stroke-width:1.952133;"/>
   </g>
   <g id="line2d_136">
    <path clip-path="url(#p90e1f22910)" d="M 1013.947826 102.637284 
L 1032.516996 93.126186 
" style="fill:none;stroke:#ff2445;stroke-width:1.7787;"/>
   </g>
   <g id="line2d_137">
    <path clip-path="url(#p90e1f22910)" d="M 822.066403 162.297804 
L 840.635573 146.73419 
" style="fill:none;stroke:#0064a4;stroke-width:2.448033;"/>
   </g>
   <g id="line2d_138">
    <path clip-path="url(#p90e1f22910)" d="M 840.635573 146.73419 
L 859.204743 131.170576 
" style="fill:none;stroke:#ff2445;stroke-width:2.133633;"/>
   </g>
   <g id="line2d_139">
    <path clip-path="url(#p90e1f22910)" d="M 921.101976 153.651352 
L 939.671146 150.192771 
" style="fill:none;stroke:#0064a4;stroke-width:2.358533;"/>
   </g>
   <g id="line2d_140">
    <path clip-path="url(#p90e1f22910)" d="M 939.671146 150.192771 
L 958.240316 146.73419 
" style="fill:none;stroke:#ff2445;stroke-width:2.288133;"/>
   </g>
   <g id="line2d_141">
    <path clip-path="url(#p90e1f22910)" d="M 512.580237 122.524124 
L 531.149407 160.568514 
" style="fill:none;stroke:#0064a4;stroke-width:2.050133;"/>
   </g>
   <g id="line2d_142">
    <path clip-path="url(#p90e1f22910)" d="M 531.149407 160.568514 
L 549.718577 198.612904 
" style="fill:none;stroke:#ff2445;stroke-width:2.842133;"/>
   </g>
   <g id="line2d_143">
    <path clip-path="url(#p90e1f22910)" d="M 958.240316 167.485676 
L 976.809486 153.651352 
" style="fill:none;stroke:#0064a4;stroke-width:2.502533;"/>
   </g>
   <g id="line2d_144">
    <path clip-path="url(#p90e1f22910)" d="M 976.809486 153.651352 
L 995.378656 139.817028 
" style="fill:none;stroke:#ff2445;stroke-width:2.2188;"/>
   </g>
   <g id="line2d_145">
    <path clip-path="url(#p90e1f22910)" d="M 1131.552569 153.651352 
L 1150.121739 142.410964 
" style="fill:none;stroke:#0064a4;stroke-width:2.358533;"/>
   </g>
   <g id="line2d_146">
    <path clip-path="url(#p90e1f22910)" d="M 1150.121739 142.410964 
L 1168.690909 131.170576 
" style="fill:none;stroke:#ff2445;stroke-width:2.133633;"/>
   </g>
   <g id="line2d_147">
    <path clip-path="url(#p90e1f22910)" d="M 1230.588142 150.192771 
L 1249.157312 126.84735 
" style="fill:none;stroke:#0064a4;stroke-width:2.3232;"/>
   </g>
   <g id="line2d_148">
    <path clip-path="url(#p90e1f22910)" d="M 1249.157312 126.84735 
L 1267.726482 103.501929 
" style="fill:none;stroke:#ff2445;stroke-width:1.8723;"/>
   </g>
   <g id="line2d_149">
    <path clip-path="url(#p90e1f22910)" d="M 450.683004 98.314057 
L 469.252174 106.96051 
" style="fill:none;stroke:#0064a4;stroke-width:1.8252;"/>
   </g>
   <g id="line2d_150">
    <path clip-path="url(#p90e1f22910)" d="M 469.252174 106.96051 
L 487.821344 115.606962 
" style="fill:none;stroke:#ff2445;stroke-width:1.984533;"/>
   </g>
   <g id="line2d_151">
    <path clip-path="url(#p90e1f22910)" d="M 388.785771 127.711995 
L 407.354941 143.275609 
" style="fill:none;stroke:#0064a4;stroke-width:2.100033;"/>
   </g>
   <g id="line2d_152">
    <path clip-path="url(#p90e1f22910)" d="M 407.354941 143.275609 
L 425.924111 158.839223 
" style="fill:none;stroke:#ff2445;stroke-width:2.412033;"/>
   </g>
   <g id="line2d_153">
    <path clip-path="url(#p90e1f22910)" d="M 723.03083 157.109933 
L 741.6 171.808902 
" style="fill:none;stroke:#0064a4;stroke-width:2.394133;"/>
   </g>
   <g id="line2d_154">
    <path clip-path="url(#p90e1f22910)" d="M 741.6 171.808902 
L 760.16917 186.507871 
" style="fill:none;stroke:#ff2445;stroke-width:2.7075;"/>
   </g>
   <g id="line2d_155">
    <path clip-path="url(#p90e1f22910)" d="M 413.544664 146.73419 
L 432.113834 147.598836 
" style="fill:none;stroke:#0064a4;stroke-width:2.288133;"/>
   </g>
   <g id="line2d_156">
    <path clip-path="url(#p90e1f22910)" d="M 432.113834 147.598836 
L 450.683004 148.463481 
" style="fill:none;stroke:#ff2445;stroke-width:2.305633;"/>
   </g>
   <g id="line2d_157">
    <path clip-path="url(#p90e1f22910)" d="M 364.026877 146.73419 
L 382.596047 145.869545 
" style="fill:none;stroke:#0064a4;stroke-width:2.288133;"/>
   </g>
   <g id="line2d_158">
    <path clip-path="url(#p90e1f22910)" d="M 382.596047 145.869545 
L 401.165217 145.0049 
" style="fill:none;stroke:#ff2445;stroke-width:2.2707;"/>
   </g>
   <g id="line2d_159">
    <path clip-path="url(#p90e1f22910)" d="M 970.619763 167.485676 
L 989.188933 180.455354 
" style="fill:none;stroke:#0064a4;stroke-width:2.502533;"/>
   </g>
   <g id="line2d_160">
    <path clip-path="url(#p90e1f22910)" d="M 989.188933 180.455354 
L 1007.758103 193.425033 
" style="fill:none;stroke:#ff2445;stroke-width:2.784033;"/>
   </g>
   <g id="line2d_161">
    <path clip-path="url(#p90e1f22910)" d="M 1119.173123 165.756385 
L 1137.742292 163.16245 
" style="fill:none;stroke:#0064a4;stroke-width:2.4843;"/>
   </g>
   <g id="line2d_162">
    <path clip-path="url(#p90e1f22910)" d="M 1137.742292 163.16245 
L 1156.311462 160.568514 
" style="fill:none;stroke:#ff2445;stroke-width:2.43;"/>
   </g>
   <g id="line2d_163">
    <path clip-path="url(#p90e1f22910)" d="M 1193.449802 193.425033 
L 1212.018972 190.831097 
" style="fill:none;stroke:#0064a4;stroke-width:2.784033;"/>
   </g>
   <g id="line2d_164">
    <path clip-path="url(#p90e1f22910)" d="M 1212.018972 190.831097 
L 1230.588142 188.237161 
" style="fill:none;stroke:#ff2445;stroke-width:2.726533;"/>
   </g>
   <g id="line2d_165">
    <path clip-path="url(#p90e1f22910)" d="M 871.58419 155.380643 
L 890.15336 157.109933 
" style="fill:none;stroke:#0064a4;stroke-width:2.3763;"/>
   </g>
   <g id="line2d_166">
    <path clip-path="url(#p90e1f22910)" d="M 890.15336 157.109933 
L 908.72253 158.839223 
" style="fill:none;stroke:#ff2445;stroke-width:2.412033;"/>
   </g>
   <g id="line2d_167">
    <path clip-path="url(#p90e1f22910)" d="M 215.473518 136.358448 
L 234.042688 141.546319 
" style="fill:none;stroke:#0064a4;stroke-width:2.184533;"/>
   </g>
   <g id="line2d_168">
    <path clip-path="url(#p90e1f22910)" d="M 234.042688 141.546319 
L 252.611858 146.73419 
" style="fill:none;stroke:#ff2445;stroke-width:2.288133;"/>
   </g>
   <g id="line2d_169">
    <path clip-path="url(#p90e1f22910)" d="M 698.271937 164.027095 
L 716.841107 162.297804 
" style="fill:none;stroke:#0064a4;stroke-width:2.466133;"/>
   </g>
   <g id="line2d_170">
    <path clip-path="url(#p90e1f22910)" d="M 716.841107 162.297804 
L 735.410277 160.568514 
" style="fill:none;stroke:#ff2445;stroke-width:2.43;"/>
   </g>
   <g id="patch_3">
    <path d="M 115.2 234.36 
L 115.2 30.24 
" style="fill:none;stroke:#f0f0f0;stroke-linecap:square;stroke-linejoin:miter;stroke-width:3;"/>
   </g>
   <g id="patch_4">
    <path d="M 1368 234.36 
L 1368 30.24 
" style="fill:none;stroke:#f0f0f0;stroke-linecap:square;stroke-linejoin:miter;stroke-width:3;"/>
   </g>
   <g id="patch_5">
    <path d="M 115.2 234.36 
L 1368 234.36 
" style="fill:none;stroke:#f0f0f0;stroke-linecap:square;stroke-linejoin:miter;stroke-width:3;"/>
   </g>
   <g id="patch_6">
    <path d="M 115.2 30.24 
L 1368 30.24 
" style="fill:none;stroke:#f0f0f0;stroke-linecap:square;stroke-linejoin:miter;stroke-width:3;"/>
   </g>
   <g id="text_7">
    <!--  -->
    <defs>
     <path d="M 28.203125 33.09375 
L 30.796875 24.203125 
L 31.296875 24.203125 
L 33.296875 33.40625 
L 46.703125 70 
L 55.203125 70 
L 37.5 24.5 
Q 34.796875 17.40625 32.75 12.65625 
Q 30.703125 7.90625 28.59375 4.953125 
Q 26.5 2 24.09375 0.75 
Q 21.703125 -0.5 18.203125 -0.5 
Q 14.90625 -0.5 12.953125 0.046875 
Q 11 0.59375 9.296875 1.703125 
L 11.796875 8.59375 
Q 13.796875 7.5 15.5 7.203125 
Q 17.203125 6.90625 18.59375 6.90625 
Q 21.40625 6.90625 23.296875 9.75 
Q 25.203125 12.59375 26.59375 18.203125 
L 0.703125 70 
L 10.296875 70 
z
" id="PTSans-Regular-423"/>
     <path d="M 20.296875 22.5 
L 15.703125 22.5 
L 15.703125 0 
L 7.703125 0 
L 7.703125 50 
L 15.703125 50 
L 15.703125 27.40625 
L 20 28.796875 
L 36 50 
L 44.703125 50 
L 29.203125 29.90625 
L 25 26.59375 
L 30.203125 22.59375 
L 46.90625 0 
L 37 0 
z
" id="PTSans-Regular-43a"/>
     <path d="M 7.703125 50 
L 13.203125 50 
L 14.703125 44 
L 15.09375 44 
Q 17.40625 47.5 21.046875 49.34375 
Q 24.703125 51.203125 29.40625 51.203125 
Q 39.40625 51.203125 44.296875 45.296875 
Q 49.203125 39.40625 49.203125 26 
Q 49.203125 19.703125 47.546875 14.640625 
Q 45.90625 9.59375 42.90625 6.09375 
Q 39.90625 2.59375 35.65625 0.6875 
Q 31.40625 -1.203125 26.203125 -1.203125 
Q 22.5 -1.203125 20.34375 -0.75 
Q 18.203125 -0.296875 15.703125 0.796875 
L 15.703125 -20 
L 7.703125 -20 
z
M 27.90625 44.203125 
Q 22.796875 44.203125 19.84375 41.546875 
Q 16.90625 38.90625 15.703125 33.5 
L 15.703125 8.703125 
Q 17.5 7.296875 19.796875 6.546875 
Q 22.09375 5.796875 25.90625 5.796875 
Q 32.796875 5.796875 36.84375 10.9375 
Q 40.90625 16.09375 40.90625 26.09375 
Q 40.90625 30.203125 40.203125 33.546875 
Q 39.5 36.90625 37.953125 39.25 
Q 36.40625 41.59375 33.953125 42.890625 
Q 31.5 44.203125 27.90625 44.203125 
z
" id="PTSans-Regular-440"/>
     <path d="M 6.90625 46.296875 
Q 10.703125 48.59375 15.75 49.6875 
Q 20.796875 50.796875 26.296875 50.796875 
Q 31.5 50.796875 34.640625 49.390625 
Q 37.796875 48 39.4375 45.75 
Q 41.09375 43.5 41.640625 40.796875 
Q 42.203125 38.09375 42.203125 35.40625 
Q 42.203125 29.40625 41.890625 23.703125 
Q 41.59375 18 41.59375 12.90625 
Q 41.59375 9.203125 41.890625 5.890625 
Q 42.203125 2.59375 43 -0.203125 
L 37.09375 -0.203125 
L 35 6.796875 
L 34.5 6.796875 
Q 33.59375 5.40625 32.25 4.046875 
Q 30.90625 2.703125 29 1.640625 
Q 27.09375 0.59375 24.59375 -0.09375 
Q 22.09375 -0.796875 18.90625 -0.796875 
Q 15.703125 -0.796875 12.953125 0.203125 
Q 10.203125 1.203125 8.203125 3.046875 
Q 6.203125 4.90625 5.046875 7.5 
Q 3.90625 10.09375 3.90625 13.40625 
Q 3.90625 17.796875 5.703125 20.75 
Q 7.5 23.703125 10.75 25.453125 
Q 14 27.203125 18.546875 27.953125 
Q 23.09375 28.703125 28.59375 28.703125 
Q 30 28.703125 31.34375 28.703125 
Q 32.703125 28.703125 34.09375 28.5 
Q 34.40625 31.5 34.40625 33.90625 
Q 34.40625 39.40625 32.203125 41.59375 
Q 30 43.796875 24.203125 43.796875 
Q 22.5 43.796875 20.546875 43.546875 
Q 18.59375 43.296875 16.546875 42.84375 
Q 14.5 42.40625 12.640625 41.75 
Q 10.796875 41.09375 9.40625 40.296875 
z
M 21.09375 6.203125 
Q 23.90625 6.203125 26.09375 6.953125 
Q 28.296875 7.703125 29.890625 8.84375 
Q 31.5 10 32.546875 11.390625 
Q 33.59375 12.796875 34.09375 14.09375 
L 34.09375 22.40625 
Q 32.703125 22.5 31.25 22.546875 
Q 29.796875 22.59375 28.40625 22.59375 
Q 25.296875 22.59375 22.34375 22.25 
Q 19.40625 21.90625 17.15625 20.953125 
Q 14.90625 20 13.546875 18.34375 
Q 12.203125 16.703125 12.203125 14.203125 
Q 12.203125 10.703125 14.703125 8.453125 
Q 17.203125 6.203125 21.09375 6.203125 
z
" id="PTSans-Regular-430"/>
     <path d="M 2.90625 65.296875 
Q 2.90625 67.59375 4.15625 68.9375 
Q 5.40625 70.296875 7.703125 70.296875 
Q 9.90625 70.296875 11.203125 68.9375 
Q 12.5 67.59375 12.5 65.296875 
Q 12.5 63.203125 11.203125 61.796875 
Q 9.90625 60.40625 7.703125 60.40625 
Q 5.40625 60.40625 4.15625 61.796875 
Q 2.90625 63.203125 2.90625 65.296875 
z
M 15.40625 65.296875 
Q 15.40625 67.59375 16.65625 68.9375 
Q 17.90625 70.296875 20.09375 70.296875 
Q 22.40625 70.296875 23.703125 68.9375 
Q 25 67.59375 25 65.296875 
Q 25 63.203125 23.703125 61.796875 
Q 22.40625 60.40625 20.09375 60.40625 
Q 17.90625 60.40625 16.65625 61.796875 
Q 15.40625 63.203125 15.40625 65.296875 
z
M 9.796875 50 
L 17.796875 50 
L 17.796875 0 
L 9.796875 0 
z
" id="PTSans-Regular-457"/>
     <path d="M 38.296875 22.09375 
L 15.703125 22.09375 
L 15.703125 0 
L 7.703125 0 
L 7.703125 50 
L 15.703125 50 
L 15.703125 29.09375 
L 38.296875 29.09375 
L 38.296875 50 
L 46.296875 50 
L 46.296875 0 
L 38.296875 0 
z
" id="PTSans-Regular-43d"/>
    </defs>
    <g transform="translate(382.596047 145.0049)scale(0.14 -0.14)">
     <use xlink:href="#PTSans-Regular-423"/>
     <use x="55.299988" xlink:href="#PTSans-Regular-43a"/>
     <use x="103.099976" xlink:href="#PTSans-Regular-440"/>
     <use x="157.199966" xlink:href="#PTSans-Regular-430"/>
     <use x="206.799957" xlink:href="#PTSans-Regular-457"/>
     <use x="234.599945" xlink:href="#PTSans-Regular-43d"/>
     <use x="288.59993" xlink:href="#PTSans-Regular-430"/>
    </g>
   </g>
   <g id="text_8">
    <!--  -->
    <defs>
     <path d="M 50.40625 32.09375 
L 16.796875 32.09375 
L 16.796875 0 
L 8.5 0 
L 8.5 70 
L 16.796875 70 
L 16.796875 39.5 
L 50.40625 39.5 
L 50.40625 70 
L 58.703125 70 
L 58.703125 0 
L 50.40625 0 
z
" id="PTSans-Regular-41d"/>
     <path d="M 9.40625 50 
L 17.40625 50 
L 17.40625 0 
L 9.40625 0 
z
M 7.703125 65.203125 
Q 7.703125 67.5 9.25 69.140625 
Q 10.796875 70.796875 13.203125 70.796875 
Q 15.59375 70.796875 17.296875 69.140625 
Q 19 67.5 19 65.203125 
Q 19 62.90625 17.296875 61.40625 
Q 15.59375 59.90625 13.203125 59.90625 
Q 10.796875 59.90625 9.25 61.40625 
Q 7.703125 62.90625 7.703125 65.203125 
z
" id="PTSans-Regular-456"/>
     <path d="M 49 29.703125 
L 49.59375 39.203125 
L 49.09375 39.203125 
L 45.5 31.5 
L 33.40625 11.90625 
L 30.59375 11.90625 
L 18 31.5 
L 14.703125 39.203125 
L 14.296875 39.203125 
L 15.09375 29.796875 
L 15.09375 0 
L 7.703125 0 
L 7.703125 50 
L 15.59375 50 
L 29.59375 27.59375 
L 32.5 21.796875 
L 32.703125 21.796875 
L 35.703125 27.796875 
L 48.796875 50 
L 56.796875 50 
L 56.796875 0 
L 49 0 
z
" id="PTSans-Regular-43c"/>
     <path d="M 44.203125 4 
Q 41.203125 1.59375 36.640625 0.1875 
Q 32.09375 -1.203125 27 -1.203125 
Q 21.296875 -1.203125 17.09375 0.640625 
Q 12.90625 2.5 10.203125 5.953125 
Q 7.5 9.40625 6.203125 14.203125 
Q 4.90625 19 4.90625 25 
Q 4.90625 37.796875 10.59375 44.5 
Q 16.296875 51.203125 26.90625 51.203125 
Q 30.296875 51.203125 33.6875 50.453125 
Q 37.09375 49.703125 39.796875 47.59375 
Q 42.5 45.5 44.203125 41.640625 
Q 45.90625 37.796875 45.90625 31.5 
Q 45.90625 28.203125 45.296875 24.203125 
L 13.203125 24.203125 
Q 13.203125 19.796875 14.09375 16.390625 
Q 15 13 16.890625 10.640625 
Q 18.796875 8.296875 21.84375 7.046875 
Q 24.90625 5.796875 29.296875 5.796875 
Q 32.703125 5.796875 36.09375 7 
Q 39.5 8.203125 41.203125 9.796875 
z
M 27 44.203125 
Q 21.09375 44.203125 17.546875 41.09375 
Q 14 38 13.296875 30.5 
L 38.09375 30.5 
Q 38.09375 38.09375 35.1875 41.140625 
Q 32.296875 44.203125 27 44.203125 
z
" id="PTSans-Regular-435"/>
     <path d="M 12.90625 50 
L 12.90625 36.40625 
Q 12.90625 33.703125 13.203125 31.546875 
Q 13.5 29.40625 14.390625 27.84375 
Q 15.296875 26.296875 17 25.4375 
Q 18.703125 24.59375 21.5 24.59375 
Q 26 24.59375 28.890625 25.59375 
Q 31.796875 26.59375 33.296875 27.796875 
L 33.296875 50 
L 41.296875 50 
L 41.296875 0 
L 33.296875 0 
L 33.296875 21 
Q 31.703125 20 28.546875 18.796875 
Q 25.40625 17.59375 19.90625 17.59375 
Q 16.203125 17.59375 13.390625 18.390625 
Q 10.59375 19.203125 8.6875 21.203125 
Q 6.796875 23.203125 5.84375 26.5 
Q 4.90625 29.796875 4.90625 34.796875 
L 4.90625 50 
z
" id="PTSans-Regular-447"/>
     <path d="M 38.90625 29.59375 
L 39.203125 35.796875 
L 38.90625 35.796875 
L 34.796875 29.40625 
L 12.296875 0 
L 7.703125 0 
L 7.703125 50 
L 15.703125 50 
L 15.703125 19.5 
L 15.40625 13.59375 
L 15.796875 13.59375 
L 19.703125 19.796875 
L 42.203125 50 
L 46.90625 50 
L 46.90625 0 
L 38.90625 0 
z
" id="PTSans-Regular-438"/>
    </defs>
    <g transform="translate(1112.983399 136.358448)scale(0.14 -0.14)">
     <use xlink:href="#PTSans-Regular-41d"/>
     <use x="67.199997" xlink:href="#PTSans-Regular-456"/>
     <use x="93.999985" xlink:href="#PTSans-Regular-43c"/>
     <use x="158.499969" xlink:href="#PTSans-Regular-435"/>
     <use x="209.299957" xlink:href="#PTSans-Regular-447"/>
     <use x="258.299942" xlink:href="#PTSans-Regular-447"/>
     <use x="307.299927" xlink:href="#PTSans-Regular-438"/>
     <use x="361.899918" xlink:href="#PTSans-Regular-43d"/>
     <use x="415.899902" xlink:href="#PTSans-Regular-430"/>
    </g>
   </g>
   <g id="text_9">
    <!--  -->
    <defs>
     <path d="M 53.296875 2.90625 
Q 50.296875 0.59375 45.6875 -0.296875 
Q 41.09375 -1.203125 35.90625 -1.203125 
Q 29.59375 -1.203125 24.09375 0.9375 
Q 18.59375 3.09375 14.5 7.5 
Q 10.40625 11.90625 8 18.75 
Q 5.59375 25.59375 5.59375 35 
Q 5.59375 44.796875 8.25 51.640625 
Q 10.90625 58.5 15.25 62.84375 
Q 19.59375 67.203125 25 69.203125 
Q 30.40625 71.203125 36 71.203125 
Q 42 71.203125 45.796875 70.546875 
Q 49.59375 69.90625 52.296875 68.796875 
L 50.296875 61.5 
Q 45.5 63.796875 36.59375 63.796875 
Q 32.5 63.796875 28.5 62.296875 
Q 24.5 60.796875 21.34375 57.390625 
Q 18.203125 54 16.296875 48.5 
Q 14.40625 43 14.40625 35 
Q 14.40625 27.796875 16.203125 22.390625 
Q 18 17 21.140625 13.390625 
Q 24.296875 9.796875 28.546875 8 
Q 32.796875 6.203125 37.796875 6.203125 
Q 42.296875 6.203125 45.640625 7.09375 
Q 49 8 51.296875 9.40625 
z
" id="PTSans-Regular-421"/>
     <path d="M 8.5 0 
L 8.5 70 
L 16.796875 70 
L 16.796875 7.40625 
L 39.703125 7.40625 
L 39.703125 70 
L 48 70 
L 48 7.40625 
L 70.90625 7.40625 
L 70.90625 70 
L 79.203125 70 
L 79.203125 0 
z
" id="PTSans-Regular-428"/>
     <path d="M 41.796875 19.40625 
L 16 19.40625 
L 9 0 
L 0.796875 0 
L 27.296875 71.09375 
L 31.09375 71.09375 
L 57.703125 0 
L 49 0 
z
M 18.703125 26.59375 
L 39.296875 26.59375 
L 31.5 47.90625 
L 29 58.5 
L 28.90625 58.5 
L 26.40625 47.703125 
z
" id="PTSans-Regular-410"/>
    </defs>
    <g transform="translate(1212.018972 188.237161)scale(0.14 -0.14)">
     <use xlink:href="#PTSans-Regular-421"/>
     <use x="57.099991" xlink:href="#PTSans-Regular-428"/>
     <use x="144.799973" xlink:href="#PTSans-Regular-410"/>
    </g>
   </g>
  </g>
 </g>
 <defs>
  <clipPath id="p90e1f22910">
   <rect height="204.12" width="1252.8" x="115.2" y="30.24"/>
  </clipPath>
 </defs>
</svg>
