<?xml version="1.0" encoding="utf-8" standalone="no"?>
<!DOCTYPE svg PUBLIC "-//W3C//DTD SVG 1.1//EN"
  "http://www.w3.org/Graphics/SVG/1.1/DTD/svg11.dtd">
<!-- Created with matplotlib (http://matplotlib.org/) -->
<svg height="432pt" version="1.1" viewBox="0 0 1080 432" width="1080pt" xmlns="http://www.w3.org/2000/svg" xmlns:xlink="http://www.w3.org/1999/xlink">
 <defs>
  <style type="text/css">
*{stroke-linecap:butt;stroke-linejoin:round;}
  </style>
 </defs>
 <g id="figure_1">
  <g id="patch_1">
   <path d="M 0 432 
L 1080 432 
L 1080 0 
L 0 0 
z
" style="fill:#f0f0f0;"/>
  </g>
  <g id="axes_1">
   <g id="patch_2">
    <path d="M 86.4 388.8 
L 399.6 388.8 
L 399.6 64.8 
L 86.4 64.8 
z
" style="fill:#f0f0f0;"/>
   </g>
   <g id="matplotlib.axis_1"/>
   <g id="matplotlib.axis_2">
    <g id="ytick_1">
     <g id="line2d_1"/>
     <g id="text_1">
      <!-- 500 -->
      <defs>
       <path d="M 21.296875 5.796875 
Q 28.203125 5.796875 32.703125 9.796875 
Q 37.203125 13.796875 37.203125 21.40625 
Q 37.203125 28.703125 32.75 32.296875 
Q 28.296875 35.90625 20.5 35.90625 
L 12.09375 35.40625 
L 12.09375 70 
L 43.296875 70 
L 43.296875 62.59375 
L 19.59375 62.59375 
L 19.59375 42.703125 
L 23.90625 42.90625 
Q 33.796875 42.796875 39.5 37.390625 
Q 45.203125 32 45.203125 21.90625 
Q 45.203125 16.296875 43.296875 11.9375 
Q 41.40625 7.59375 38.15625 4.6875 
Q 34.90625 1.796875 30.5 0.296875 
Q 26.09375 -1.203125 21.09375 -1.203125 
Q 16.59375 -1.203125 13.5 -0.703125 
Q 10.40625 -0.203125 7.703125 0.796875 
L 9.796875 7.59375 
Q 12.09375 6.703125 14.75 6.25 
Q 17.40625 5.796875 21.296875 5.796875 
z
" id="PTSans-Regular-35"/>
       <path d="M 4.296875 35 
Q 4.296875 53 10.140625 62.09375 
Q 16 71.203125 27.203125 71.203125 
Q 39.296875 71.203125 44.75 62.25 
Q 50.203125 53.296875 50.203125 35 
Q 50.203125 17 44.34375 7.890625 
Q 38.5 -1.203125 27.203125 -1.203125 
Q 15.296875 -1.203125 9.796875 8.296875 
Q 4.296875 17.796875 4.296875 35 
z
M 12.59375 35 
Q 12.59375 28.5 13.4375 23.140625 
Q 14.296875 17.796875 16.09375 13.9375 
Q 17.90625 10.09375 20.65625 7.9375 
Q 23.40625 5.796875 27.203125 5.796875 
Q 34.796875 5.796875 38.34375 12.84375 
Q 41.90625 19.90625 41.90625 35 
Q 41.90625 41.40625 41.15625 46.796875 
Q 40.40625 52.203125 38.65625 56.09375 
Q 36.90625 60 34.09375 62.09375 
Q 31.296875 64.203125 27.203125 64.203125 
Q 19.703125 64.203125 16.140625 57.09375 
Q 12.59375 50 12.59375 35 
z
" id="PTSans-Regular-30"/>
      </defs>
      <g transform="translate(60.01 354.82)scale(0.14 -0.14)">
       <use xlink:href="#PTSans-Regular-35"/>
       <use x="54.499985" xlink:href="#PTSans-Regular-30"/>
       <use x="108.999969" xlink:href="#PTSans-Regular-30"/>
      </g>
     </g>
    </g>
    <g id="ytick_2">
     <g id="line2d_2"/>
     <g id="text_2">
      <!-- 1000 -->
      <defs>
       <path d="M 10.796875 7.40625 
L 24.796875 7.40625 
L 24.796875 55.796875 
L 25.796875 61.703125 
L 21.796875 57 
L 10.796875 49.09375 
L 7 54.203125 
L 29 71.203125 
L 32.59375 71.203125 
L 32.59375 7.40625 
L 46.296875 7.40625 
L 46.296875 0 
L 10.796875 0 
z
" id="PTSans-Regular-31"/>
      </defs>
      <g transform="translate(52.38 290.02)scale(0.14 -0.14)">
       <use xlink:href="#PTSans-Regular-31"/>
       <use x="54.499985" xlink:href="#PTSans-Regular-30"/>
       <use x="108.999969" xlink:href="#PTSans-Regular-30"/>
       <use x="163.499954" xlink:href="#PTSans-Regular-30"/>
      </g>
     </g>
    </g>
    <g id="ytick_3">
     <g id="line2d_3"/>
     <g id="text_3">
      <!-- 1500 -->
      <g transform="translate(52.38 225.22)scale(0.14 -0.14)">
       <use xlink:href="#PTSans-Regular-31"/>
       <use x="54.499985" xlink:href="#PTSans-Regular-35"/>
       <use x="108.999969" xlink:href="#PTSans-Regular-30"/>
       <use x="163.499954" xlink:href="#PTSans-Regular-30"/>
      </g>
     </g>
    </g>
    <g id="ytick_4">
     <g id="line2d_4"/>
     <g id="text_4">
      <!-- 2000 -->
      <defs>
       <path d="M 44.59375 54.09375 
Q 44.59375 48.796875 42.640625 43.25 
Q 40.703125 37.703125 37.546875 32.09375 
Q 34.40625 26.5 30.5 21.140625 
Q 26.59375 15.796875 22.703125 11 
L 17.796875 6.703125 
L 17.796875 6.296875 
L 24.203125 7.40625 
L 46 7.40625 
L 46 0 
L 6.203125 0 
L 6.203125 2.90625 
Q 8.40625 5.203125 11.5 8.59375 
Q 14.59375 12 17.9375 16.140625 
Q 21.296875 20.296875 24.546875 24.9375 
Q 27.796875 29.59375 30.4375 34.390625 
Q 33.09375 39.203125 34.6875 43.890625 
Q 36.296875 48.59375 36.296875 52.796875 
Q 36.296875 57.703125 33.5 60.953125 
Q 30.703125 64.203125 25 64.203125 
Q 21.203125 64.203125 17.59375 62.640625 
Q 14 61.09375 11.40625 59.09375 
L 8.09375 64.796875 
Q 11.59375 67.796875 16.390625 69.5 
Q 21.203125 71.203125 26.703125 71.203125 
Q 31 71.203125 34.296875 69.953125 
Q 37.59375 68.703125 39.890625 66.390625 
Q 42.203125 64.09375 43.390625 60.9375 
Q 44.59375 57.796875 44.59375 54.09375 
z
" id="PTSans-Regular-32"/>
      </defs>
      <g transform="translate(52.38 160.42)scale(0.14 -0.14)">
       <use xlink:href="#PTSans-Regular-32"/>
       <use x="54.499985" xlink:href="#PTSans-Regular-30"/>
       <use x="108.999969" xlink:href="#PTSans-Regular-30"/>
       <use x="163.499954" xlink:href="#PTSans-Regular-30"/>
      </g>
     </g>
    </g>
    <g id="ytick_5">
     <g id="line2d_5"/>
     <g id="text_5">
      <!-- 2500 -->
      <g transform="translate(52.38 95.62)scale(0.14 -0.14)">
       <use xlink:href="#PTSans-Regular-32"/>
       <use x="54.499985" xlink:href="#PTSans-Regular-35"/>
       <use x="108.999969" xlink:href="#PTSans-Regular-30"/>
       <use x="163.499954" xlink:href="#PTSans-Regular-30"/>
      </g>
     </g>
    </g>
    <g id="text_6">
     <!-- ккал/людина/день -->
     <defs>
      <path d="M 20.296875 22.5 
L 15.703125 22.5 
L 15.703125 0 
L 7.703125 0 
L 7.703125 50 
L 15.703125 50 
L 15.703125 27.40625 
L 20 28.796875 
L 36 50 
L 44.703125 50 
L 29.203125 29.90625 
L 25 26.59375 
L 30.203125 22.59375 
L 46.90625 0 
L 37 0 
z
" id="PTSans-Regular-43a"/>
      <path d="M 6.90625 46.296875 
Q 10.703125 48.59375 15.75 49.6875 
Q 20.796875 50.796875 26.296875 50.796875 
Q 31.5 50.796875 34.640625 49.390625 
Q 37.796875 48 39.4375 45.75 
Q 41.09375 43.5 41.640625 40.796875 
Q 42.203125 38.09375 42.203125 35.40625 
Q 42.203125 29.40625 41.890625 23.703125 
Q 41.59375 18 41.59375 12.90625 
Q 41.59375 9.203125 41.890625 5.890625 
Q 42.203125 2.59375 43 -0.203125 
L 37.09375 -0.203125 
L 35 6.796875 
L 34.5 6.796875 
Q 33.59375 5.40625 32.25 4.046875 
Q 30.90625 2.703125 29 1.640625 
Q 27.09375 0.59375 24.59375 -0.09375 
Q 22.09375 -0.796875 18.90625 -0.796875 
Q 15.703125 -0.796875 12.953125 0.203125 
Q 10.203125 1.203125 8.203125 3.046875 
Q 6.203125 4.90625 5.046875 7.5 
Q 3.90625 10.09375 3.90625 13.40625 
Q 3.90625 17.796875 5.703125 20.75 
Q 7.5 23.703125 10.75 25.453125 
Q 14 27.203125 18.546875 27.953125 
Q 23.09375 28.703125 28.59375 28.703125 
Q 30 28.703125 31.34375 28.703125 
Q 32.703125 28.703125 34.09375 28.5 
Q 34.40625 31.5 34.40625 33.90625 
Q 34.40625 39.40625 32.203125 41.59375 
Q 30 43.796875 24.203125 43.796875 
Q 22.5 43.796875 20.546875 43.546875 
Q 18.59375 43.296875 16.546875 42.84375 
Q 14.5 42.40625 12.640625 41.75 
Q 10.796875 41.09375 9.40625 40.296875 
z
M 21.09375 6.203125 
Q 23.90625 6.203125 26.09375 6.953125 
Q 28.296875 7.703125 29.890625 8.84375 
Q 31.5 10 32.546875 11.390625 
Q 33.59375 12.796875 34.09375 14.09375 
L 34.09375 22.40625 
Q 32.703125 22.5 31.25 22.546875 
Q 29.796875 22.59375 28.40625 22.59375 
Q 25.296875 22.59375 22.34375 22.25 
Q 19.40625 21.90625 17.15625 20.953125 
Q 14.90625 20 13.546875 18.34375 
Q 12.203125 16.703125 12.203125 14.203125 
Q 12.203125 10.703125 14.703125 8.453125 
Q 17.203125 6.203125 21.09375 6.203125 
z
" id="PTSans-Regular-430"/>
      <path d="M 34.59375 43 
L 20.09375 43 
Q 19.796875 38.796875 19.5 33.9375 
Q 19.203125 29.09375 18.59375 24.25 
Q 18 19.40625 17 14.953125 
Q 16 10.5 14.453125 7.09375 
Q 12.90625 3.703125 10.65625 1.640625 
Q 8.40625 -0.40625 5.296875 -0.40625 
Q 3.40625 -0.40625 2 -0.203125 
Q 0.59375 0 -0.5 0.5 
L 0.703125 7.203125 
Q 1.90625 6.796875 3.296875 6.796875 
Q 5.296875 6.796875 6.890625 8.5 
Q 8.5 10.203125 9.703125 14.953125 
Q 10.90625 19.703125 11.703125 28.09375 
Q 12.5 36.5 12.796875 50 
L 42.59375 50 
L 42.59375 0 
L 34.59375 0 
z
" id="PTSans-Regular-43b"/>
      <path d="M 32.796875 71.203125 
L 39.09375 68.40625 
L 2.59375 -14 
L -3.703125 -11.203125 
z
" id="PTSans-Regular-2f"/>
      <path d="M 46.5 -1.203125 
Q 41.09375 -1.203125 37.25 0.4375 
Q 33.40625 2.09375 30.953125 5.140625 
Q 28.5 8.203125 27.25 12.546875 
Q 26 16.90625 25.703125 22.09375 
L 15.703125 22.09375 
L 15.703125 0 
L 7.703125 0 
L 7.703125 50 
L 15.703125 50 
L 15.703125 29.09375 
L 25.796875 29.09375 
Q 26.59375 39.796875 31.640625 45.5 
Q 36.703125 51.203125 46.703125 51.203125 
Q 52.203125 51.203125 56.046875 49.34375 
Q 59.90625 47.5 62.34375 44.046875 
Q 64.796875 40.59375 65.890625 35.75 
Q 67 30.90625 67 25 
Q 67 12.296875 61.953125 5.546875 
Q 56.90625 -1.203125 46.5 -1.203125 
z
M 33.59375 25 
Q 33.59375 21.09375 34.1875 17.59375 
Q 34.796875 14.09375 36.296875 11.4375 
Q 37.796875 8.796875 40.34375 7.296875 
Q 42.90625 5.796875 46.703125 5.796875 
Q 53.09375 5.796875 55.890625 10.4375 
Q 58.703125 15.09375 58.703125 25 
Q 58.703125 28.90625 58.140625 32.40625 
Q 57.59375 35.90625 56.1875 38.546875 
Q 54.796875 41.203125 52.5 42.703125 
Q 50.203125 44.203125 46.59375 44.203125 
Q 39.703125 44.203125 36.640625 39.546875 
Q 33.59375 34.90625 33.59375 25 
z
" id="PTSans-Regular-44e"/>
      <path d="M 51.90625 -12.703125 
L 46.5 -12.703125 
L 45 0 
L 7.40625 0 
L 5.90625 -12.703125 
L 0.5 -12.703125 
L 0.5 7 
L 6.40625 7 
Q 7.203125 8.09375 8.5 10.9375 
Q 9.796875 13.796875 11.046875 18.9375 
Q 12.296875 24.09375 13.25 31.75 
Q 14.203125 39.40625 14.40625 50 
L 44.59375 50 
L 44.59375 7 
L 51.90625 7 
z
M 36.59375 7 
L 36.59375 43 
L 21.59375 43 
Q 21.40625 38.796875 20.90625 33.84375 
Q 20.40625 28.90625 19.546875 23.953125 
Q 18.703125 19 17.390625 14.59375 
Q 16.09375 10.203125 14.40625 7 
z
" id="PTSans-Regular-434"/>
      <path d="M 38.90625 29.59375 
L 39.203125 35.796875 
L 38.90625 35.796875 
L 34.796875 29.40625 
L 12.296875 0 
L 7.703125 0 
L 7.703125 50 
L 15.703125 50 
L 15.703125 19.5 
L 15.40625 13.59375 
L 15.796875 13.59375 
L 19.703125 19.796875 
L 42.203125 50 
L 46.90625 50 
L 46.90625 0 
L 38.90625 0 
z
" id="PTSans-Regular-438"/>
      <path d="M 38.296875 22.09375 
L 15.703125 22.09375 
L 15.703125 0 
L 7.703125 0 
L 7.703125 50 
L 15.703125 50 
L 15.703125 29.09375 
L 38.296875 29.09375 
L 38.296875 50 
L 46.296875 50 
L 46.296875 0 
L 38.296875 0 
z
" id="PTSans-Regular-43d"/>
      <path d="M 44.203125 4 
Q 41.203125 1.59375 36.640625 0.1875 
Q 32.09375 -1.203125 27 -1.203125 
Q 21.296875 -1.203125 17.09375 0.640625 
Q 12.90625 2.5 10.203125 5.953125 
Q 7.5 9.40625 6.203125 14.203125 
Q 4.90625 19 4.90625 25 
Q 4.90625 37.796875 10.59375 44.5 
Q 16.296875 51.203125 26.90625 51.203125 
Q 30.296875 51.203125 33.6875 50.453125 
Q 37.09375 49.703125 39.796875 47.59375 
Q 42.5 45.5 44.203125 41.640625 
Q 45.90625 37.796875 45.90625 31.5 
Q 45.90625 28.203125 45.296875 24.203125 
L 13.203125 24.203125 
Q 13.203125 19.796875 14.09375 16.390625 
Q 15 13 16.890625 10.640625 
Q 18.796875 8.296875 21.84375 7.046875 
Q 24.90625 5.796875 29.296875 5.796875 
Q 32.703125 5.796875 36.09375 7 
Q 39.5 8.203125 41.203125 9.796875 
z
M 27 44.203125 
Q 21.09375 44.203125 17.546875 41.09375 
Q 14 38 13.296875 30.5 
L 38.09375 30.5 
Q 38.09375 38.09375 35.1875 41.140625 
Q 32.296875 44.203125 27 44.203125 
z
" id="PTSans-Regular-435"/>
      <path d="M 15.703125 7 
Q 19.40625 6.40625 22.796875 6.40625 
Q 29.09375 6.40625 32.09375 8.84375 
Q 35.09375 11.296875 35.09375 15.796875 
Q 35.09375 19.796875 32.1875 22.390625 
Q 29.296875 25 23.09375 25 
Q 21.40625 25 19.40625 24.890625 
Q 17.40625 24.796875 15.703125 24.296875 
z
M 15.703125 30.90625 
Q 18.09375 31.296875 20.296875 31.4375 
Q 22.5 31.59375 24.5 31.59375 
Q 29.703125 31.59375 33.296875 30.4375 
Q 36.90625 29.296875 39.15625 27.296875 
Q 41.40625 25.296875 42.40625 22.546875 
Q 43.40625 19.796875 43.40625 16.703125 
Q 43.40625 7.59375 37.953125 3.5 
Q 32.5 -0.59375 21 -0.59375 
Q 14.59375 -0.59375 7.703125 0 
L 7.703125 50 
L 15.703125 50 
z
" id="PTSans-Regular-44c"/>
     </defs>
     <g transform="translate(29.58 283.225469)rotate(-90)scale(0.14 -0.14)">
      <use xlink:href="#PTSans-Regular-43a"/>
      <use x="47.799988" xlink:href="#PTSans-Regular-43a"/>
      <use x="95.599976" xlink:href="#PTSans-Regular-430"/>
      <use x="145.199966" xlink:href="#PTSans-Regular-43b"/>
      <use x="195.499954" xlink:href="#PTSans-Regular-2f"/>
      <use x="230.899948" xlink:href="#PTSans-Regular-43b"/>
      <use x="281.199936" xlink:href="#PTSans-Regular-44e"/>
      <use x="353.09993" xlink:href="#PTSans-Regular-434"/>
      <use x="407.199921" xlink:href="#PTSans-Regular-438"/>
      <use x="461.799911" xlink:href="#PTSans-Regular-43d"/>
      <use x="515.799896" xlink:href="#PTSans-Regular-430"/>
      <use x="565.399887" xlink:href="#PTSans-Regular-2f"/>
      <use x="600.799881" xlink:href="#PTSans-Regular-434"/>
      <use x="654.899872" xlink:href="#PTSans-Regular-435"/>
      <use x="705.69986" xlink:href="#PTSans-Regular-43d"/>
      <use x="759.699844" xlink:href="#PTSans-Regular-44c"/>
     </g>
    </g>
   </g>
   <g id="PolyCollection_1">
    <defs>
     <path d="M 103.020397 -121.608 
L 103.020397 -47.088 
L 385.363636 -47.088 
L 385.363636 -121.608 
L 385.363636 -121.608 
L 103.020397 -121.608 
z
" id="md436fbd5a6" style="stroke:#ffffff;stroke-width:0.5;"/>
    </defs>
    <g clip-path="url(#p0f08fff83e)">
     <use style="fill:#ffffff;stroke:#ffffff;stroke-width:0.5;" x="0" xlink:href="#md436fbd5a6" y="432"/>
    </g>
   </g>
   <g id="PathCollection_1">
    <defs>
     <path d="M 0 2.12132 
C 0.562581 2.12132 1.102195 1.897805 1.5 1.5 
C 1.897805 1.102195 2.12132 0.562581 2.12132 0 
C 2.12132 -0.562581 1.897805 -1.102195 1.5 -1.5 
C 1.102195 -1.897805 0.562581 -2.12132 0 -2.12132 
C -0.562581 -2.12132 -1.102195 -1.897805 -1.5 -1.5 
C -1.897805 -1.102195 -2.12132 -0.562581 -2.12132 0 
C -2.12132 0.562581 -1.897805 1.102195 -1.5 1.5 
C -1.102195 1.897805 -0.562581 2.12132 0 2.12132 
z
" id="m4d94fde6a9" style="stroke:#ff2445;stroke-width:0.5;"/>
    </defs>
    <g clip-path="url(#p0f08fff83e)">
     <use style="fill:#ff2445;stroke:#ff2445;stroke-width:0.5;" x="125.705076" xlink:href="#m4d94fde6a9" y="367.047936"/>
     <use style="fill:#ff2445;stroke:#ff2445;stroke-width:0.5;" x="261.813151" xlink:href="#m4d94fde6a9" y="361.511424"/>
     <use style="fill:#ff2445;stroke:#ff2445;stroke-width:0.5;" x="371.995879" xlink:href="#m4d94fde6a9" y="359.624448"/>
     <use style="fill:#ff2445;stroke:#ff2445;stroke-width:0.5;" x="359.033205" xlink:href="#m4d94fde6a9" y="359.660736"/>
     <use style="fill:#ff2445;stroke:#ff2445;stroke-width:0.5;" x="167.833766" xlink:href="#m4d94fde6a9" y="366.43104"/>
     <use style="fill:#ff2445;stroke:#ff2445;stroke-width:0.5;" x="177.555771" xlink:href="#m4d94fde6a9" y="366.083712"/>
     <use style="fill:#ff2445;stroke:#ff2445;stroke-width:0.5;" x="333.107857" xlink:href="#m4d94fde6a9" y="363.092544"/>
     <use style="fill:#ff2445;stroke:#ff2445;stroke-width:0.5;" x="122.464407" xlink:href="#m4d94fde6a9" y="380.500416"/>
     <use style="fill:#ff2445;stroke:#ff2445;stroke-width:0.5;" x="184.037108" xlink:href="#m4d94fde6a9" y="367.213824"/>
     <use style="fill:#ff2445;stroke:#ff2445;stroke-width:0.5;" x="232.647135" xlink:href="#m4d94fde6a9" y="365.477184"/>
     <use style="fill:#ff2445;stroke:#ff2445;stroke-width:0.5;" x="206.721787" xlink:href="#m4d94fde6a9" y="371.418048"/>
     <use style="fill:#ff2445;stroke:#ff2445;stroke-width:0.5;" x="109.501733" xlink:href="#m4d94fde6a9" y="378.452736"/>
     <use style="fill:#ff2445;stroke:#ff2445;stroke-width:0.5;" x="362.273874" xlink:href="#m4d94fde6a9" y="360.31392"/>
     <use style="fill:#ff2445;stroke:#ff2445;stroke-width:0.5;" x="268.294488" xlink:href="#m4d94fde6a9" y="369.432576"/>
     <use style="fill:#ff2445;stroke:#ff2445;stroke-width:0.5;" x="145.149087" xlink:href="#m4d94fde6a9" y="363.896064"/>
     <use style="fill:#ff2445;stroke:#ff2445;stroke-width:0.5;" x="200.24045" xlink:href="#m4d94fde6a9" y="381.345408"/>
     <use style="fill:#ff2445;stroke:#ff2445;stroke-width:0.5;" x="235.887804" xlink:href="#m4d94fde6a9" y="375.803712"/>
     <use style="fill:#ff2445;stroke:#ff2445;stroke-width:0.5;" x="258.572483" xlink:href="#m4d94fde6a9" y="370.99296"/>
     <use style="fill:#ff2445;stroke:#ff2445;stroke-width:0.5;" x="274.775825" xlink:href="#m4d94fde6a9" y="369.375552"/>
     <use style="fill:#ff2445;stroke:#ff2445;stroke-width:0.5;" x="365.514542" xlink:href="#m4d94fde6a9" y="358.276608"/>
     <use style="fill:#ff2445;stroke:#ff2445;stroke-width:0.5;" x="203.481119" xlink:href="#m4d94fde6a9" y="384.54912"/>
     <use style="fill:#ff2445;stroke:#ff2445;stroke-width:0.5;" x="171.074434" xlink:href="#m4d94fde6a9" y="382.910976"/>
     <use style="fill:#ff2445;stroke:#ff2445;stroke-width:0.5;" x="148.389755" xlink:href="#m4d94fde6a9" y="361.200384"/>
     <use style="fill:#ff2445;stroke:#ff2445;stroke-width:0.5;" x="278.016494" xlink:href="#m4d94fde6a9" y="360.85824"/>
     <use style="fill:#ff2445;stroke:#ff2445;stroke-width:0.5;" x="346.070531" xlink:href="#m4d94fde6a9" y="353.693952"/>
     <use style="fill:#ff2445;stroke:#ff2445;stroke-width:0.5;" x="336.348526" xlink:href="#m4d94fde6a9" y="357.426432"/>
     <use style="fill:#ff2445;stroke:#ff2445;stroke-width:0.5;" x="161.352429" xlink:href="#m4d94fde6a9" y="372.973248"/>
     <use style="fill:#ff2445;stroke:#ff2445;stroke-width:0.5;" x="342.829863" xlink:href="#m4d94fde6a9" y="362.055744"/>
     <use style="fill:#ff2445;stroke:#ff2445;stroke-width:0.5;" x="303.941841" xlink:href="#m4d94fde6a9" y="358.31808"/>
     <use style="fill:#ff2445;stroke:#ff2445;stroke-width:0.5;" x="154.871092" xlink:href="#m4d94fde6a9" y="381.682368"/>
     <use style="fill:#ff2445;stroke:#ff2445;stroke-width:0.5;" x="355.792537" xlink:href="#m4d94fde6a9" y="347.753088"/>
     <use style="fill:#ff2445;stroke:#ff2445;stroke-width:0.5;" x="229.406467" xlink:href="#m4d94fde6a9" y="373.84416"/>
     <use style="fill:#ff2445;stroke:#ff2445;stroke-width:0.5;" x="103.020397" xlink:href="#m4d94fde6a9" y="383.4864"/>
     <use style="fill:#ff2445;stroke:#ff2445;stroke-width:0.5;" x="132.186413" xlink:href="#m4d94fde6a9" y="382.485888"/>
     <use style="fill:#ff2445;stroke:#ff2445;stroke-width:0.5;" x="141.908418" xlink:href="#m4d94fde6a9" y="369.474048"/>
     <use style="fill:#ff2445;stroke:#ff2445;stroke-width:0.5;" x="323.385852" xlink:href="#m4d94fde6a9" y="357.685632"/>
     <use style="fill:#ff2445;stroke:#ff2445;stroke-width:0.5;" x="313.663847" xlink:href="#m4d94fde6a9" y="348.292224"/>
     <use style="fill:#ff2445;stroke:#ff2445;stroke-width:0.5;" x="320.145184" xlink:href="#m4d94fde6a9" y="358.468416"/>
     <use style="fill:#ff2445;stroke:#ff2445;stroke-width:0.5;" x="329.867189" xlink:href="#m4d94fde6a9" y="369.240768"/>
     <use style="fill:#ff2445;stroke:#ff2445;stroke-width:0.5;" x="193.759113" xlink:href="#m4d94fde6a9" y="373.460544"/>
     <use style="fill:#ff2445;stroke:#ff2445;stroke-width:0.5;" x="216.443793" xlink:href="#m4d94fde6a9" y="364.741056"/>
     <use style="fill:#ff2445;stroke:#ff2445;stroke-width:0.5;" x="115.98307" xlink:href="#m4d94fde6a9" y="382.662144"/>
     <use style="fill:#ff2445;stroke:#ff2445;stroke-width:0.5;" x="252.091146" xlink:href="#m4d94fde6a9" y="358.608384"/>
     <use style="fill:#ff2445;stroke:#ff2445;stroke-width:0.5;" x="255.331814" xlink:href="#m4d94fde6a9" y="367.343424"/>
     <use style="fill:#ff2445;stroke:#ff2445;stroke-width:0.5;" x="265.05382" xlink:href="#m4d94fde6a9" y="350.184384"/>
     <use style="fill:#ff2445;stroke:#ff2445;stroke-width:0.5;" x="180.79644" xlink:href="#m4d94fde6a9" y="374.020416"/>
     <use style="fill:#ff2445;stroke:#ff2445;stroke-width:0.5;" x="213.203124" xlink:href="#m4d94fde6a9" y="372.428928"/>
     <use style="fill:#ff2445;stroke:#ff2445;stroke-width:0.5;" x="219.684461" xlink:href="#m4d94fde6a9" y="369.292608"/>
     <use style="fill:#ff2445;stroke:#ff2445;stroke-width:0.5;" x="226.165798" xlink:href="#m4d94fde6a9" y="356.622912"/>
     <use style="fill:#ff2445;stroke:#ff2445;stroke-width:0.5;" x="138.66775" xlink:href="#m4d94fde6a9" y="363.953088"/>
     <use style="fill:#ff2445;stroke:#ff2445;stroke-width:0.5;" x="326.62652" xlink:href="#m4d94fde6a9" y="356.804352"/>
     <use style="fill:#ff2445;stroke:#ff2445;stroke-width:0.5;" x="339.589194" xlink:href="#m4d94fde6a9" y="366.747264"/>
     <use style="fill:#ff2445;stroke:#ff2445;stroke-width:0.5;" x="135.427081" xlink:href="#m4d94fde6a9" y="381.666816"/>
     <use style="fill:#ff2445;stroke:#ff2445;stroke-width:0.5;" x="375.236547" xlink:href="#m4d94fde6a9" y="357.22944"/>
     <use style="fill:#ff2445;stroke:#ff2445;stroke-width:0.5;" x="106.261065" xlink:href="#m4d94fde6a9" y="380.769984"/>
     <use style="fill:#ff2445;stroke:#ff2445;stroke-width:0.5;" x="187.277777" xlink:href="#m4d94fde6a9" y="375.881472"/>
     <use style="fill:#ff2445;stroke:#ff2445;stroke-width:0.5;" x="128.945744" xlink:href="#m4d94fde6a9" y="383.652288"/>
     <use style="fill:#ff2445;stroke:#ff2445;stroke-width:0.5;" x="248.850477" xlink:href="#m4d94fde6a9" y="362.117952"/>
     <use style="fill:#ff2445;stroke:#ff2445;stroke-width:0.5;" x="300.701173" xlink:href="#m4d94fde6a9" y="357.239808"/>
     <use style="fill:#ff2445;stroke:#ff2445;stroke-width:0.5;" x="209.962456" xlink:href="#m4d94fde6a9" y="361.314432"/>
     <use style="fill:#ff2445;stroke:#ff2445;stroke-width:0.5;" x="242.36914" xlink:href="#m4d94fde6a9" y="361.407744"/>
     <use style="fill:#ff2445;stroke:#ff2445;stroke-width:0.5;" x="222.92513" xlink:href="#m4d94fde6a9" y="367.219008"/>
     <use style="fill:#ff2445;stroke:#ff2445;stroke-width:0.5;" x="196.999782" xlink:href="#m4d94fde6a9" y="372.097152"/>
     <use style="fill:#ff2445;stroke:#ff2445;stroke-width:0.5;" x="271.535157" xlink:href="#m4d94fde6a9" y="377.130816"/>
     <use style="fill:#ff2445;stroke:#ff2445;stroke-width:0.5;" x="297.460504" xlink:href="#m4d94fde6a9" y="364.855104"/>
     <use style="fill:#ff2445;stroke:#ff2445;stroke-width:0.5;" x="190.518445" xlink:href="#m4d94fde6a9" y="370.484928"/>
     <use style="fill:#ff2445;stroke:#ff2445;stroke-width:0.5;" x="290.979167" xlink:href="#m4d94fde6a9" y="364.84992"/>
     <use style="fill:#ff2445;stroke:#ff2445;stroke-width:0.5;" x="307.18251" xlink:href="#m4d94fde6a9" y="360.350208"/>
     <use style="fill:#ff2445;stroke:#ff2445;stroke-width:0.5;" x="352.551868" xlink:href="#m4d94fde6a9" y="358.877952"/>
     <use style="fill:#ff2445;stroke:#ff2445;stroke-width:0.5;" x="378.477216" xlink:href="#m4d94fde6a9" y="366.467328"/>
     <use style="fill:#ff2445;stroke:#ff2445;stroke-width:0.5;" x="287.738499" xlink:href="#m4d94fde6a9" y="368.198784"/>
     <use style="fill:#ff2445;stroke:#ff2445;stroke-width:0.5;" x="174.315103" xlink:href="#m4d94fde6a9" y="383.159808"/>
     <use style="fill:#ff2445;stroke:#ff2445;stroke-width:0.5;" x="158.11176" xlink:href="#m4d94fde6a9" y="363.610944"/>
     <use style="fill:#ff2445;stroke:#ff2445;stroke-width:0.5;" x="245.609809" xlink:href="#m4d94fde6a9" y="358.670592"/>
     <use style="fill:#ff2445;stroke:#ff2445;stroke-width:0.5;" x="164.593097" xlink:href="#m4d94fde6a9" y="367.809984"/>
     <use style="fill:#ff2445;stroke:#ff2445;stroke-width:0.5;" x="151.630423" xlink:href="#m4d94fde6a9" y="368.779392"/>
     <use style="fill:#ff2445;stroke:#ff2445;stroke-width:0.5;" x="310.423178" xlink:href="#m4d94fde6a9" y="360.484992"/>
     <use style="fill:#ff2445;stroke:#ff2445;stroke-width:0.5;" x="349.3112" xlink:href="#m4d94fde6a9" y="361.215936"/>
     <use style="fill:#ff2445;stroke:#ff2445;stroke-width:0.5;" x="368.75521" xlink:href="#m4d94fde6a9" y="357.90336"/>
     <use style="fill:#ff2445;stroke:#ff2445;stroke-width:0.5;" x="284.49783" xlink:href="#m4d94fde6a9" y="366.799104"/>
     <use style="fill:#ff2445;stroke:#ff2445;stroke-width:0.5;" x="112.742402" xlink:href="#m4d94fde6a9" y="371.469888"/>
     <use style="fill:#ff2445;stroke:#ff2445;stroke-width:0.5;" x="239.128472" xlink:href="#m4d94fde6a9" y="376.871616"/>
    </g>
   </g>
   <g id="patch_3">
    <path d="M 86.4 388.8 
L 86.4 64.8 
" style="fill:none;stroke:#f0f0f0;stroke-linecap:square;stroke-linejoin:miter;stroke-width:3;"/>
   </g>
   <g id="patch_4">
    <path d="M 399.6 388.8 
L 399.6 64.8 
" style="fill:none;stroke:#f0f0f0;stroke-linecap:square;stroke-linejoin:miter;stroke-width:3;"/>
   </g>
   <g id="patch_5">
    <path d="M 86.4 388.8 
L 399.6 388.8 
" style="fill:none;stroke:#f0f0f0;stroke-linecap:square;stroke-linejoin:miter;stroke-width:3;"/>
   </g>
   <g id="patch_6">
    <path d="M 86.4 64.8 
L 399.6 64.8 
" style="fill:none;stroke:#f0f0f0;stroke-linecap:square;stroke-linejoin:miter;stroke-width:3;"/>
   </g>
   <g id="text_7">
    <!-- Україна -->
    <defs>
     <path d="M 28.203125 33.09375 
L 30.796875 24.203125 
L 31.296875 24.203125 
L 33.296875 33.40625 
L 46.703125 70 
L 55.203125 70 
L 37.5 24.5 
Q 34.796875 17.40625 32.75 12.65625 
Q 30.703125 7.90625 28.59375 4.953125 
Q 26.5 2 24.09375 0.75 
Q 21.703125 -0.5 18.203125 -0.5 
Q 14.90625 -0.5 12.953125 0.046875 
Q 11 0.59375 9.296875 1.703125 
L 11.796875 8.59375 
Q 13.796875 7.5 15.5 7.203125 
Q 17.203125 6.90625 18.59375 6.90625 
Q 21.40625 6.90625 23.296875 9.75 
Q 25.203125 12.59375 26.59375 18.203125 
L 0.703125 70 
L 10.296875 70 
z
" id="PTSans-Regular-423"/>
     <path d="M 7.703125 50 
L 13.203125 50 
L 14.703125 44 
L 15.09375 44 
Q 17.40625 47.5 21.046875 49.34375 
Q 24.703125 51.203125 29.40625 51.203125 
Q 39.40625 51.203125 44.296875 45.296875 
Q 49.203125 39.40625 49.203125 26 
Q 49.203125 19.703125 47.546875 14.640625 
Q 45.90625 9.59375 42.90625 6.09375 
Q 39.90625 2.59375 35.65625 0.6875 
Q 31.40625 -1.203125 26.203125 -1.203125 
Q 22.5 -1.203125 20.34375 -0.75 
Q 18.203125 -0.296875 15.703125 0.796875 
L 15.703125 -20 
L 7.703125 -20 
z
M 27.90625 44.203125 
Q 22.796875 44.203125 19.84375 41.546875 
Q 16.90625 38.90625 15.703125 33.5 
L 15.703125 8.703125 
Q 17.5 7.296875 19.796875 6.546875 
Q 22.09375 5.796875 25.90625 5.796875 
Q 32.796875 5.796875 36.84375 10.9375 
Q 40.90625 16.09375 40.90625 26.09375 
Q 40.90625 30.203125 40.203125 33.546875 
Q 39.5 36.90625 37.953125 39.25 
Q 36.40625 41.59375 33.953125 42.890625 
Q 31.5 44.203125 27.90625 44.203125 
z
" id="PTSans-Regular-440"/>
     <path d="M 2.90625 65.296875 
Q 2.90625 67.59375 4.15625 68.9375 
Q 5.40625 70.296875 7.703125 70.296875 
Q 9.90625 70.296875 11.203125 68.9375 
Q 12.5 67.59375 12.5 65.296875 
Q 12.5 63.203125 11.203125 61.796875 
Q 9.90625 60.40625 7.703125 60.40625 
Q 5.40625 60.40625 4.15625 61.796875 
Q 2.90625 63.203125 2.90625 65.296875 
z
M 15.40625 65.296875 
Q 15.40625 67.59375 16.65625 68.9375 
Q 17.90625 70.296875 20.09375 70.296875 
Q 22.40625 70.296875 23.703125 68.9375 
Q 25 67.59375 25 65.296875 
Q 25 63.203125 23.703125 61.796875 
Q 22.40625 60.40625 20.09375 60.40625 
Q 17.90625 60.40625 16.65625 61.796875 
Q 15.40625 63.203125 15.40625 65.296875 
z
M 9.796875 50 
L 17.796875 50 
L 17.796875 0 
L 9.796875 0 
z
" id="PTSans-Regular-457"/>
    </defs>
    <g transform="translate(151.630423 368.779392)scale(0.14 -0.14)">
     <use xlink:href="#PTSans-Regular-423"/>
     <use x="55.299988" xlink:href="#PTSans-Regular-43a"/>
     <use x="103.099976" xlink:href="#PTSans-Regular-440"/>
     <use x="157.199966" xlink:href="#PTSans-Regular-430"/>
     <use x="206.799957" xlink:href="#PTSans-Regular-457"/>
     <use x="234.599945" xlink:href="#PTSans-Regular-43d"/>
     <use x="288.59993" xlink:href="#PTSans-Regular-430"/>
    </g>
   </g>
   <g id="text_8">
    <!-- Німеччина -->
    <defs>
     <path d="M 50.40625 32.09375 
L 16.796875 32.09375 
L 16.796875 0 
L 8.5 0 
L 8.5 70 
L 16.796875 70 
L 16.796875 39.5 
L 50.40625 39.5 
L 50.40625 70 
L 58.703125 70 
L 58.703125 0 
L 50.40625 0 
z
" id="PTSans-Regular-41d"/>
     <path d="M 9.40625 50 
L 17.40625 50 
L 17.40625 0 
L 9.40625 0 
z
M 7.703125 65.203125 
Q 7.703125 67.5 9.25 69.140625 
Q 10.796875 70.796875 13.203125 70.796875 
Q 15.59375 70.796875 17.296875 69.140625 
Q 19 67.5 19 65.203125 
Q 19 62.90625 17.296875 61.40625 
Q 15.59375 59.90625 13.203125 59.90625 
Q 10.796875 59.90625 9.25 61.40625 
Q 7.703125 62.90625 7.703125 65.203125 
z
" id="PTSans-Regular-456"/>
     <path d="M 49 29.703125 
L 49.59375 39.203125 
L 49.09375 39.203125 
L 45.5 31.5 
L 33.40625 11.90625 
L 30.59375 11.90625 
L 18 31.5 
L 14.703125 39.203125 
L 14.296875 39.203125 
L 15.09375 29.796875 
L 15.09375 0 
L 7.703125 0 
L 7.703125 50 
L 15.59375 50 
L 29.59375 27.59375 
L 32.5 21.796875 
L 32.703125 21.796875 
L 35.703125 27.796875 
L 48.796875 50 
L 56.796875 50 
L 56.796875 0 
L 49 0 
z
" id="PTSans-Regular-43c"/>
     <path d="M 12.90625 50 
L 12.90625 36.40625 
Q 12.90625 33.703125 13.203125 31.546875 
Q 13.5 29.40625 14.390625 27.84375 
Q 15.296875 26.296875 17 25.4375 
Q 18.703125 24.59375 21.5 24.59375 
Q 26 24.59375 28.890625 25.59375 
Q 31.796875 26.59375 33.296875 27.796875 
L 33.296875 50 
L 41.296875 50 
L 41.296875 0 
L 33.296875 0 
L 33.296875 21 
Q 31.703125 20 28.546875 18.796875 
Q 25.40625 17.59375 19.90625 17.59375 
Q 16.203125 17.59375 13.390625 18.390625 
Q 10.59375 19.203125 8.6875 21.203125 
Q 6.796875 23.203125 5.84375 26.5 
Q 4.90625 29.796875 4.90625 34.796875 
L 4.90625 50 
z
" id="PTSans-Regular-447"/>
    </defs>
    <g transform="translate(342.829863 362.055744)scale(0.14 -0.14)">
     <use xlink:href="#PTSans-Regular-41d"/>
     <use x="67.199997" xlink:href="#PTSans-Regular-456"/>
     <use x="93.999985" xlink:href="#PTSans-Regular-43c"/>
     <use x="158.499969" xlink:href="#PTSans-Regular-435"/>
     <use x="209.299957" xlink:href="#PTSans-Regular-447"/>
     <use x="258.299942" xlink:href="#PTSans-Regular-447"/>
     <use x="307.299927" xlink:href="#PTSans-Regular-438"/>
     <use x="361.899918" xlink:href="#PTSans-Regular-43d"/>
     <use x="415.899902" xlink:href="#PTSans-Regular-430"/>
    </g>
   </g>
   <g id="text_9">
    <!-- США -->
    <defs>
     <path d="M 53.296875 2.90625 
Q 50.296875 0.59375 45.6875 -0.296875 
Q 41.09375 -1.203125 35.90625 -1.203125 
Q 29.59375 -1.203125 24.09375 0.9375 
Q 18.59375 3.09375 14.5 7.5 
Q 10.40625 11.90625 8 18.75 
Q 5.59375 25.59375 5.59375 35 
Q 5.59375 44.796875 8.25 51.640625 
Q 10.90625 58.5 15.25 62.84375 
Q 19.59375 67.203125 25 69.203125 
Q 30.40625 71.203125 36 71.203125 
Q 42 71.203125 45.796875 70.546875 
Q 49.59375 69.90625 52.296875 68.796875 
L 50.296875 61.5 
Q 45.5 63.796875 36.59375 63.796875 
Q 32.5 63.796875 28.5 62.296875 
Q 24.5 60.796875 21.34375 57.390625 
Q 18.203125 54 16.296875 48.5 
Q 14.40625 43 14.40625 35 
Q 14.40625 27.796875 16.203125 22.390625 
Q 18 17 21.140625 13.390625 
Q 24.296875 9.796875 28.546875 8 
Q 32.796875 6.203125 37.796875 6.203125 
Q 42.296875 6.203125 45.640625 7.09375 
Q 49 8 51.296875 9.40625 
z
" id="PTSans-Regular-421"/>
     <path d="M 8.5 0 
L 8.5 70 
L 16.796875 70 
L 16.796875 7.40625 
L 39.703125 7.40625 
L 39.703125 70 
L 48 70 
L 48 7.40625 
L 70.90625 7.40625 
L 70.90625 70 
L 79.203125 70 
L 79.203125 0 
z
" id="PTSans-Regular-428"/>
     <path d="M 41.796875 19.40625 
L 16 19.40625 
L 9 0 
L 0.796875 0 
L 27.296875 71.09375 
L 31.09375 71.09375 
L 57.703125 0 
L 49 0 
z
M 18.703125 26.59375 
L 39.296875 26.59375 
L 31.5 47.90625 
L 29 58.5 
L 28.90625 58.5 
L 26.40625 47.703125 
z
" id="PTSans-Regular-410"/>
    </defs>
    <g transform="translate(368.75521 357.90336)scale(0.14 -0.14)">
     <use xlink:href="#PTSans-Regular-421"/>
     <use x="57.099991" xlink:href="#PTSans-Regular-428"/>
     <use x="144.799973" xlink:href="#PTSans-Regular-410"/>
    </g>
   </g>
   <g id="text_10">
    <!-- Білки -->
    <defs>
     <path d="M 8.5 70 
L 46.5 70 
L 46.5 62.59375 
L 16.796875 62.59375 
L 16.796875 41.59375 
Q 18.5 41.90625 21 42.203125 
Q 23.5 42.5 25.796875 42.5 
Q 30.90625 42.5 35.5 41.546875 
Q 40.09375 40.59375 43.59375 38.296875 
Q 47.09375 36 49.140625 32.046875 
Q 51.203125 28.09375 51.203125 22.09375 
Q 51.203125 16.09375 49.09375 11.75 
Q 47 7.40625 43.5 4.65625 
Q 40 1.90625 35.34375 0.546875 
Q 30.703125 -0.796875 25.59375 -0.796875 
Q 23.90625 -0.796875 21.75 -0.75 
Q 19.59375 -0.703125 17.25 -0.5 
Q 14.90625 -0.296875 12.65625 -0.046875 
Q 10.40625 0.203125 8.5 0.703125 
z
M 26.59375 6.40625 
Q 29.796875 6.40625 32.6875 7.296875 
Q 35.59375 8.203125 37.75 9.953125 
Q 39.90625 11.703125 41.15625 14.390625 
Q 42.40625 17.09375 42.40625 20.703125 
Q 42.40625 25.296875 40.953125 28.140625 
Q 39.5 31 37.09375 32.59375 
Q 34.703125 34.203125 31.546875 34.75 
Q 28.40625 35.296875 25 35.296875 
Q 24.09375 35.296875 22.890625 35.1875 
Q 21.703125 35.09375 20.5 35 
Q 19.296875 34.90625 18.296875 34.75 
Q 17.296875 34.59375 16.796875 34.5 
L 16.796875 7 
Q 17.5 6.796875 18.640625 6.6875 
Q 19.796875 6.59375 21.140625 6.5 
Q 22.5 6.40625 23.890625 6.40625 
Q 25.296875 6.40625 26.59375 6.40625 
z
" id="PTSans-Regular-411"/>
    </defs>
    <g transform="translate(224.24125 58.8)scale(0.16 -0.16)">
     <use xlink:href="#PTSans-Regular-411"/>
     <use x="54.999985" xlink:href="#PTSans-Regular-456"/>
     <use x="81.799973" xlink:href="#PTSans-Regular-43b"/>
     <use x="132.09996" xlink:href="#PTSans-Regular-43a"/>
     <use x="179.899948" xlink:href="#PTSans-Regular-438"/>
    </g>
   </g>
  </g>
  <g id="axes_2">
   <g id="patch_7">
    <path d="M 399.6 388.8 
L 712.8 388.8 
L 712.8 64.8 
L 399.6 64.8 
z
" style="fill:#f0f0f0;"/>
   </g>
   <g id="matplotlib.axis_3"/>
   <g id="matplotlib.axis_4"/>
   <g id="PolyCollection_2">
    <defs>
     <path d="M 416.220397 -121.608 
L 416.220397 -76.896 
L 698.563636 -76.896 
L 698.563636 -121.608 
L 698.563636 -121.608 
L 416.220397 -121.608 
z
" id="m4e98ece16c" style="stroke:#ffffff;stroke-width:0.5;"/>
    </defs>
    <g clip-path="url(#pacda265f7d)">
     <use style="fill:#ffffff;stroke:#ffffff;stroke-width:0.5;" x="0" xlink:href="#m4e98ece16c" y="432"/>
    </g>
   </g>
   <g id="PathCollection_2">
    <defs>
     <path d="M 0 2.12132 
C 0.562581 2.12132 1.102195 1.897805 1.5 1.5 
C 1.897805 1.102195 2.12132 0.562581 2.12132 0 
C 2.12132 -0.562581 1.897805 -1.102195 1.5 -1.5 
C 1.102195 -1.897805 0.562581 -2.12132 0 -2.12132 
C -0.562581 -2.12132 -1.102195 -1.897805 -1.5 -1.5 
C -1.897805 -1.102195 -2.12132 -0.562581 -2.12132 0 
C -2.12132 0.562581 -1.897805 1.102195 -1.5 1.5 
C -1.102195 1.897805 -0.562581 2.12132 0 2.12132 
z
" id="m2ac59e5e8c" style="stroke:#7500b4;stroke-width:0.5;"/>
    </defs>
    <g clip-path="url(#pacda265f7d)">
     <use style="fill:#7500b4;stroke:#7500b4;stroke-width:0.5;" x="438.905076" xlink:href="#m2ac59e5e8c" y="327.416256"/>
     <use style="fill:#7500b4;stroke:#7500b4;stroke-width:0.5;" x="575.013151" xlink:href="#m2ac59e5e8c" y="281.899699"/>
     <use style="fill:#7500b4;stroke:#7500b4;stroke-width:0.5;" x="685.195879" xlink:href="#m2ac59e5e8c" y="242.678592"/>
     <use style="fill:#7500b4;stroke:#7500b4;stroke-width:0.5;" x="672.233205" xlink:href="#m2ac59e5e8c" y="220.336589"/>
     <use style="fill:#7500b4;stroke:#7500b4;stroke-width:0.5;" x="481.033766" xlink:href="#m2ac59e5e8c" y="347.12375"/>
     <use style="fill:#7500b4;stroke:#7500b4;stroke-width:0.5;" x="490.755771" xlink:href="#m2ac59e5e8c" y="266.640077"/>
     <use style="fill:#7500b4;stroke:#7500b4;stroke-width:0.5;" x="646.307857" xlink:href="#m2ac59e5e8c" y="229.597286"/>
     <use style="fill:#7500b4;stroke:#7500b4;stroke-width:0.5;" x="435.664407" xlink:href="#m2ac59e5e8c" y="354.114893"/>
     <use style="fill:#7500b4;stroke:#7500b4;stroke-width:0.5;" x="497.237108" xlink:href="#m2ac59e5e8c" y="332.924774"/>
     <use style="fill:#7500b4;stroke:#7500b4;stroke-width:0.5;" x="545.847135" xlink:href="#m2ac59e5e8c" y="280.42848"/>
     <use style="fill:#7500b4;stroke:#7500b4;stroke-width:0.5;" x="519.921787" xlink:href="#m2ac59e5e8c" y="307.343808"/>
     <use style="fill:#7500b4;stroke:#7500b4;stroke-width:0.5;" x="422.701733" xlink:href="#m2ac59e5e8c" y="349.621402"/>
     <use style="fill:#7500b4;stroke:#7500b4;stroke-width:0.5;" x="675.473874" xlink:href="#m2ac59e5e8c" y="247.012416"/>
     <use style="fill:#7500b4;stroke:#7500b4;stroke-width:0.5;" x="581.494488" xlink:href="#m2ac59e5e8c" y="312.806707"/>
     <use style="fill:#7500b4;stroke:#7500b4;stroke-width:0.5;" x="458.349087" xlink:href="#m2ac59e5e8c" y="305.382182"/>
     <use style="fill:#7500b4;stroke:#7500b4;stroke-width:0.5;" x="513.44045" xlink:href="#m2ac59e5e8c" y="321.029568"/>
     <use style="fill:#7500b4;stroke:#7500b4;stroke-width:0.5;" x="549.087804" xlink:href="#m2ac59e5e8c" y="311.552179"/>
     <use style="fill:#7500b4;stroke:#7500b4;stroke-width:0.5;" x="571.772483" xlink:href="#m2ac59e5e8c" y="279.630144"/>
     <use style="fill:#7500b4;stroke:#7500b4;stroke-width:0.5;" x="587.975825" xlink:href="#m2ac59e5e8c" y="258.417216"/>
     <use style="fill:#7500b4;stroke:#7500b4;stroke-width:0.5;" x="678.714542" xlink:href="#m2ac59e5e8c" y="261.279821"/>
     <use style="fill:#7500b4;stroke:#7500b4;stroke-width:0.5;" x="516.681119" xlink:href="#m2ac59e5e8c" y="312.920755"/>
     <use style="fill:#7500b4;stroke:#7500b4;stroke-width:0.5;" x="484.274434" xlink:href="#m2ac59e5e8c" y="306.693734"/>
     <use style="fill:#7500b4;stroke:#7500b4;stroke-width:0.5;" x="461.589755" xlink:href="#m2ac59e5e8c" y="342.721498"/>
     <use style="fill:#7500b4;stroke:#7500b4;stroke-width:0.5;" x="591.216494" xlink:href="#m2ac59e5e8c" y="311.267059"/>
     <use style="fill:#7500b4;stroke:#7500b4;stroke-width:0.5;" x="659.270531" xlink:href="#m2ac59e5e8c" y="254.756275"/>
     <use style="fill:#7500b4;stroke:#7500b4;stroke-width:0.5;" x="649.548526" xlink:href="#m2ac59e5e8c" y="233.155584"/>
     <use style="fill:#7500b4;stroke:#7500b4;stroke-width:0.5;" x="474.552429" xlink:href="#m2ac59e5e8c" y="341.056397"/>
     <use style="fill:#7500b4;stroke:#7500b4;stroke-width:0.5;" x="656.029863" xlink:href="#m2ac59e5e8c" y="252.920102"/>
     <use style="fill:#7500b4;stroke:#7500b4;stroke-width:0.5;" x="617.141841" xlink:href="#m2ac59e5e8c" y="247.457203"/>
     <use style="fill:#7500b4;stroke:#7500b4;stroke-width:0.5;" x="468.071092" xlink:href="#m2ac59e5e8c" y="351.16105"/>
     <use style="fill:#7500b4;stroke:#7500b4;stroke-width:0.5;" x="668.992537" xlink:href="#m2ac59e5e8c" y="255.144038"/>
     <use style="fill:#7500b4;stroke:#7500b4;stroke-width:0.5;" x="542.606467" xlink:href="#m2ac59e5e8c" y="257.732928"/>
     <use style="fill:#7500b4;stroke:#7500b4;stroke-width:0.5;" x="416.220397" xlink:href="#m2ac59e5e8c" y="355.12992"/>
     <use style="fill:#7500b4;stroke:#7500b4;stroke-width:0.5;" x="445.386413" xlink:href="#m2ac59e5e8c" y="348.914304"/>
     <use style="fill:#7500b4;stroke:#7500b4;stroke-width:0.5;" x="455.108418" xlink:href="#m2ac59e5e8c" y="328.853261"/>
     <use style="fill:#7500b4;stroke:#7500b4;stroke-width:0.5;" x="636.585852" xlink:href="#m2ac59e5e8c" y="271.201997"/>
     <use style="fill:#7500b4;stroke:#7500b4;stroke-width:0.5;" x="626.863847" xlink:href="#m2ac59e5e8c" y="241.846042"/>
     <use style="fill:#7500b4;stroke:#7500b4;stroke-width:0.5;" x="633.345184" xlink:href="#m2ac59e5e8c" y="238.242125"/>
     <use style="fill:#7500b4;stroke:#7500b4;stroke-width:0.5;" x="643.067189" xlink:href="#m2ac59e5e8c" y="315.954432"/>
     <use style="fill:#7500b4;stroke:#7500b4;stroke-width:0.5;" x="506.959113" xlink:href="#m2ac59e5e8c" y="300.569357"/>
     <use style="fill:#7500b4;stroke:#7500b4;stroke-width:0.5;" x="529.643793" xlink:href="#m2ac59e5e8c" y="261.30263"/>
     <use style="fill:#7500b4;stroke:#7500b4;stroke-width:0.5;" x="429.18307" xlink:href="#m2ac59e5e8c" y="359.99977"/>
     <use style="fill:#7500b4;stroke:#7500b4;stroke-width:0.5;" x="565.291146" xlink:href="#m2ac59e5e8c" y="281.30665"/>
     <use style="fill:#7500b4;stroke:#7500b4;stroke-width:0.5;" x="568.531814" xlink:href="#m2ac59e5e8c" y="278.466854"/>
     <use style="fill:#7500b4;stroke:#7500b4;stroke-width:0.5;" x="578.25382" xlink:href="#m2ac59e5e8c" y="306.853402"/>
     <use style="fill:#7500b4;stroke:#7500b4;stroke-width:0.5;" x="493.99644" xlink:href="#m2ac59e5e8c" y="297.672538"/>
     <use style="fill:#7500b4;stroke:#7500b4;stroke-width:0.5;" x="526.403124" xlink:href="#m2ac59e5e8c" y="312.373325"/>
     <use style="fill:#7500b4;stroke:#7500b4;stroke-width:0.5;" x="532.884461" xlink:href="#m2ac59e5e8c" y="308.028096"/>
     <use style="fill:#7500b4;stroke:#7500b4;stroke-width:0.5;" x="539.365798" xlink:href="#m2ac59e5e8c" y="264.336307"/>
     <use style="fill:#7500b4;stroke:#7500b4;stroke-width:0.5;" x="451.86775" xlink:href="#m2ac59e5e8c" y="335.604902"/>
     <use style="fill:#7500b4;stroke:#7500b4;stroke-width:0.5;" x="639.82652" xlink:href="#m2ac59e5e8c" y="271.441498"/>
     <use style="fill:#7500b4;stroke:#7500b4;stroke-width:0.5;" x="652.789194" xlink:href="#m2ac59e5e8c" y="282.367296"/>
     <use style="fill:#7500b4;stroke:#7500b4;stroke-width:0.5;" x="448.627081" xlink:href="#m2ac59e5e8c" y="350.362714"/>
     <use style="fill:#7500b4;stroke:#7500b4;stroke-width:0.5;" x="688.436547" xlink:href="#m2ac59e5e8c" y="244.617408"/>
     <use style="fill:#7500b4;stroke:#7500b4;stroke-width:0.5;" x="419.461065" xlink:href="#m2ac59e5e8c" y="329.275238"/>
     <use style="fill:#7500b4;stroke:#7500b4;stroke-width:0.5;" x="500.477777" xlink:href="#m2ac59e5e8c" y="356.384448"/>
     <use style="fill:#7500b4;stroke:#7500b4;stroke-width:0.5;" x="442.145744" xlink:href="#m2ac59e5e8c" y="356.350234"/>
     <use style="fill:#7500b4;stroke:#7500b4;stroke-width:0.5;" x="562.050477" xlink:href="#m2ac59e5e8c" y="278.352806"/>
     <use style="fill:#7500b4;stroke:#7500b4;stroke-width:0.5;" x="613.901173" xlink:href="#m2ac59e5e8c" y="254.687846"/>
     <use style="fill:#7500b4;stroke:#7500b4;stroke-width:0.5;" x="523.162456" xlink:href="#m2ac59e5e8c" y="297.216346"/>
     <use style="fill:#7500b4;stroke:#7500b4;stroke-width:0.5;" x="555.56914" xlink:href="#m2ac59e5e8c" y="294.251098"/>
     <use style="fill:#7500b4;stroke:#7500b4;stroke-width:0.5;" x="536.12513" xlink:href="#m2ac59e5e8c" y="291.696422"/>
     <use style="fill:#7500b4;stroke:#7500b4;stroke-width:0.5;" x="510.199782" xlink:href="#m2ac59e5e8c" y="324.519437"/>
     <use style="fill:#7500b4;stroke:#7500b4;stroke-width:0.5;" x="584.735157" xlink:href="#m2ac59e5e8c" y="285.879974"/>
     <use style="fill:#7500b4;stroke:#7500b4;stroke-width:0.5;" x="610.660504" xlink:href="#m2ac59e5e8c" y="278.40983"/>
     <use style="fill:#7500b4;stroke:#7500b4;stroke-width:0.5;" x="503.718445" xlink:href="#m2ac59e5e8c" y="319.353062"/>
     <use style="fill:#7500b4;stroke:#7500b4;stroke-width:0.5;" x="604.179167" xlink:href="#m2ac59e5e8c" y="298.037491"/>
     <use style="fill:#7500b4;stroke:#7500b4;stroke-width:0.5;" x="620.38251" xlink:href="#m2ac59e5e8c" y="250.821619"/>
     <use style="fill:#7500b4;stroke:#7500b4;stroke-width:0.5;" x="665.751868" xlink:href="#m2ac59e5e8c" y="266.240909"/>
     <use style="fill:#7500b4;stroke:#7500b4;stroke-width:0.5;" x="691.677216" xlink:href="#m2ac59e5e8c" y="239.553677"/>
     <use style="fill:#7500b4;stroke:#7500b4;stroke-width:0.5;" x="600.938499" xlink:href="#m2ac59e5e8c" y="270.506304"/>
     <use style="fill:#7500b4;stroke:#7500b4;stroke-width:0.5;" x="487.515103" xlink:href="#m2ac59e5e8c" y="347.876467"/>
     <use style="fill:#7500b4;stroke:#7500b4;stroke-width:0.5;" x="471.31176" xlink:href="#m2ac59e5e8c" y="310.160794"/>
     <use style="fill:#7500b4;stroke:#7500b4;stroke-width:0.5;" x="558.809809" xlink:href="#m2ac59e5e8c" y="278.238758"/>
     <use style="fill:#7500b4;stroke:#7500b4;stroke-width:0.5;" x="477.793097" xlink:href="#m2ac59e5e8c" y="318.748608"/>
     <use style="fill:#7500b4;stroke:#7500b4;stroke-width:0.5;" x="464.830423" xlink:href="#m2ac59e5e8c" y="309.100147"/>
     <use style="fill:#7500b4;stroke:#7500b4;stroke-width:0.5;" x="623.623178" xlink:href="#m2ac59e5e8c" y="315.156096"/>
     <use style="fill:#7500b4;stroke:#7500b4;stroke-width:0.5;" x="662.5112" xlink:href="#m2ac59e5e8c" y="256.854758"/>
     <use style="fill:#7500b4;stroke:#7500b4;stroke-width:0.5;" x="681.95521" xlink:href="#m2ac59e5e8c" y="230.486861"/>
     <use style="fill:#7500b4;stroke:#7500b4;stroke-width:0.5;" x="597.69783" xlink:href="#m2ac59e5e8c" y="293.82912"/>
     <use style="fill:#7500b4;stroke:#7500b4;stroke-width:0.5;" x="425.942402" xlink:href="#m2ac59e5e8c" y="331.214054"/>
     <use style="fill:#7500b4;stroke:#7500b4;stroke-width:0.5;" x="552.328472" xlink:href="#m2ac59e5e8c" y="320.641805"/>
    </g>
   </g>
   <g id="patch_8">
    <path d="M 399.6 388.8 
L 399.6 64.8 
" style="fill:none;stroke:#f0f0f0;stroke-linecap:square;stroke-linejoin:miter;stroke-width:3;"/>
   </g>
   <g id="patch_9">
    <path d="M 712.8 388.8 
L 712.8 64.8 
" style="fill:none;stroke:#f0f0f0;stroke-linecap:square;stroke-linejoin:miter;stroke-width:3;"/>
   </g>
   <g id="patch_10">
    <path d="M 399.6 388.8 
L 712.8 388.8 
" style="fill:none;stroke:#f0f0f0;stroke-linecap:square;stroke-linejoin:miter;stroke-width:3;"/>
   </g>
   <g id="patch_11">
    <path d="M 399.6 64.8 
L 712.8 64.8 
" style="fill:none;stroke:#f0f0f0;stroke-linecap:square;stroke-linejoin:miter;stroke-width:3;"/>
   </g>
   <g id="text_11">
    <!-- Україна -->
    <g transform="translate(464.830423 309.100147)scale(0.14 -0.14)">
     <use xlink:href="#PTSans-Regular-423"/>
     <use x="55.299988" xlink:href="#PTSans-Regular-43a"/>
     <use x="103.099976" xlink:href="#PTSans-Regular-440"/>
     <use x="157.199966" xlink:href="#PTSans-Regular-430"/>
     <use x="206.799957" xlink:href="#PTSans-Regular-457"/>
     <use x="234.599945" xlink:href="#PTSans-Regular-43d"/>
     <use x="288.59993" xlink:href="#PTSans-Regular-430"/>
    </g>
   </g>
   <g id="text_12">
    <!-- Німеччина -->
    <g transform="translate(656.029863 252.920102)scale(0.14 -0.14)">
     <use xlink:href="#PTSans-Regular-41d"/>
     <use x="67.199997" xlink:href="#PTSans-Regular-456"/>
     <use x="93.999985" xlink:href="#PTSans-Regular-43c"/>
     <use x="158.499969" xlink:href="#PTSans-Regular-435"/>
     <use x="209.299957" xlink:href="#PTSans-Regular-447"/>
     <use x="258.299942" xlink:href="#PTSans-Regular-447"/>
     <use x="307.299927" xlink:href="#PTSans-Regular-438"/>
     <use x="361.899918" xlink:href="#PTSans-Regular-43d"/>
     <use x="415.899902" xlink:href="#PTSans-Regular-430"/>
    </g>
   </g>
   <g id="text_13">
    <!-- США -->
    <g transform="translate(681.95521 230.486861)scale(0.14 -0.14)">
     <use xlink:href="#PTSans-Regular-421"/>
     <use x="57.099991" xlink:href="#PTSans-Regular-428"/>
     <use x="144.799973" xlink:href="#PTSans-Regular-410"/>
    </g>
   </g>
   <g id="text_14">
    <!-- Жири -->
    <defs>
     <path d="M 35.796875 70 
L 43.796875 70 
L 43.796875 37.40625 
L 48.09375 38.796875 
L 68.40625 70 
L 77.59375 70 
L 57.40625 39.59375 
L 53.40625 36.40625 
L 58.40625 32.296875 
L 80.703125 0 
L 70.5 0 
L 48.40625 32.40625 
L 43.796875 32.40625 
L 43.796875 0 
L 35.796875 0 
L 35.796875 33.59375 
L 31.59375 32.203125 
L 9.5 0 
L -0.09375 0 
L 22 31.296875 
L 26.796875 35.09375 
L 22.203125 38.59375 
L 1.296875 70 
L 11 70 
L 31.296875 38.59375 
L 35.796875 38.59375 
z
" id="PTSans-Regular-416"/>
    </defs>
    <g transform="translate(536.69 58.8)scale(0.16 -0.16)">
     <use xlink:href="#PTSans-Regular-416"/>
     <use x="80.599991" xlink:href="#PTSans-Regular-438"/>
     <use x="135.199982" xlink:href="#PTSans-Regular-440"/>
     <use x="189.299973" xlink:href="#PTSans-Regular-438"/>
    </g>
   </g>
  </g>
  <g id="axes_3">
   <g id="patch_12">
    <path d="M 712.8 388.8 
L 1026 388.8 
L 1026 64.8 
L 712.8 64.8 
z
" style="fill:#f0f0f0;"/>
   </g>
   <g id="matplotlib.axis_5"/>
   <g id="matplotlib.axis_6"/>
   <g id="PolyCollection_3">
    <defs>
     <path d="M 729.420397 -211.032 
L 729.420397 -151.416 
L 1011.763636 -151.416 
L 1011.763636 -211.032 
L 1011.763636 -211.032 
L 729.420397 -211.032 
z
" id="m22874ff3dd" style="stroke:#ffffff;stroke-width:0.5;"/>
    </defs>
    <g clip-path="url(#p765d5f1b4f)">
     <use style="fill:#ffffff;stroke:#ffffff;stroke-width:0.5;" x="0" xlink:href="#m22874ff3dd" y="432"/>
    </g>
   </g>
   <g id="PathCollection_3">
    <defs>
     <path d="M 0 2.12132 
C 0.562581 2.12132 1.102195 1.897805 1.5 1.5 
C 1.897805 1.102195 2.12132 0.562581 2.12132 0 
C 2.12132 -0.562581 1.897805 -1.102195 1.5 -1.5 
C 1.102195 -1.897805 0.562581 -2.12132 0 -2.12132 
C -0.562581 -2.12132 -1.102195 -1.897805 -1.5 -1.5 
C -1.897805 -1.102195 -2.12132 -0.562581 -2.12132 0 
C -2.12132 0.562581 -1.897805 1.102195 -1.5 1.5 
C -1.102195 1.897805 -0.562581 2.12132 0 2.12132 
z
" id="mee42363098" style="stroke:#0064a4;stroke-width:0.5;"/>
    </defs>
    <g clip-path="url(#p765d5f1b4f)">
     <use style="fill:#0064a4;stroke:#0064a4;stroke-width:0.5;" x="752.105076" xlink:href="#mee42363098" y="123.441408"/>
     <use style="fill:#0064a4;stroke:#0064a4;stroke-width:0.5;" x="888.213151" xlink:href="#mee42363098" y="195.878477"/>
     <use style="fill:#0064a4;stroke:#0064a4;stroke-width:0.5;" x="998.395879" xlink:href="#mee42363098" y="234.91296"/>
     <use style="fill:#0064a4;stroke:#0064a4;stroke-width:0.5;" x="985.433205" xlink:href="#mee42363098" y="207.322675"/>
     <use style="fill:#0064a4;stroke:#0064a4;stroke-width:0.5;" x="794.233766" xlink:href="#mee42363098" y="146.47081"/>
     <use style="fill:#0064a4;stroke:#0064a4;stroke-width:0.5;" x="803.955771" xlink:href="#mee42363098" y="217.970611"/>
     <use style="fill:#0064a4;stroke:#0064a4;stroke-width:0.5;" x="959.507857" xlink:href="#mee42363098" y="189.83497"/>
     <use style="fill:#0064a4;stroke:#0064a4;stroke-width:0.5;" x="748.864407" xlink:href="#mee42363098" y="222.480691"/>
     <use style="fill:#0064a4;stroke:#0064a4;stroke-width:0.5;" x="810.437108" xlink:href="#mee42363098" y="165.330202"/>
     <use style="fill:#0064a4;stroke:#0064a4;stroke-width:0.5;" x="859.047135" xlink:href="#mee42363098" y="188.070336"/>
     <use style="fill:#0064a4;stroke:#0064a4;stroke-width:0.5;" x="833.121787" xlink:href="#mee42363098" y="223.513344"/>
     <use style="fill:#0064a4;stroke:#0064a4;stroke-width:0.5;" x="735.901733" xlink:href="#mee42363098" y="181.329062"/>
     <use style="fill:#0064a4;stroke:#0064a4;stroke-width:0.5;" x="988.673874" xlink:href="#mee42363098" y="197.748864"/>
     <use style="fill:#0064a4;stroke:#0064a4;stroke-width:0.5;" x="894.694488" xlink:href="#mee42363098" y="188.154317"/>
     <use style="fill:#0064a4;stroke:#0064a4;stroke-width:0.5;" x="771.549087" xlink:href="#mee42363098" y="184.396954"/>
     <use style="fill:#0064a4;stroke:#0064a4;stroke-width:0.5;" x="826.64045" xlink:href="#mee42363098" y="186.162624"/>
     <use style="fill:#0064a4;stroke:#0064a4;stroke-width:0.5;" x="862.287804" xlink:href="#mee42363098" y="198.330509"/>
     <use style="fill:#0064a4;stroke:#0064a4;stroke-width:0.5;" x="884.972483" xlink:href="#mee42363098" y="217.696896"/>
     <use style="fill:#0064a4;stroke:#0064a4;stroke-width:0.5;" x="901.175825" xlink:href="#mee42363098" y="227.178432"/>
     <use style="fill:#0064a4;stroke:#0064a4;stroke-width:0.5;" x="991.914542" xlink:href="#mee42363098" y="209.494771"/>
     <use style="fill:#0064a4;stroke:#0064a4;stroke-width:0.5;" x="829.881119" xlink:href="#mee42363098" y="219.061325"/>
     <use style="fill:#0064a4;stroke:#0064a4;stroke-width:0.5;" x="797.474434" xlink:href="#mee42363098" y="257.25289"/>
     <use style="fill:#0064a4;stroke:#0064a4;stroke-width:0.5;" x="774.789755" xlink:href="#mee42363098" y="84.046118"/>
     <use style="fill:#0064a4;stroke:#0064a4;stroke-width:0.5;" x="904.416494" xlink:href="#mee42363098" y="201.767501"/>
     <use style="fill:#0064a4;stroke:#0064a4;stroke-width:0.5;" x="972.470531" xlink:href="#mee42363098" y="220.471373"/>
     <use style="fill:#0064a4;stroke:#0064a4;stroke-width:0.5;" x="962.748526" xlink:href="#mee42363098" y="219.158784"/>
     <use style="fill:#0064a4;stroke:#0064a4;stroke-width:0.5;" x="787.752429" xlink:href="#mee42363098" y="162.195955"/>
     <use style="fill:#0064a4;stroke:#0064a4;stroke-width:0.5;" x="969.229863" xlink:href="#mee42363098" y="208.761754"/>
     <use style="fill:#0064a4;stroke:#0064a4;stroke-width:0.5;" x="930.341841" xlink:href="#mee42363098" y="210.704717"/>
     <use style="fill:#0064a4;stroke:#0064a4;stroke-width:0.5;" x="781.271092" xlink:href="#mee42363098" y="201.054182"/>
     <use style="fill:#0064a4;stroke:#0064a4;stroke-width:0.5;" x="982.192537" xlink:href="#mee42363098" y="221.358874"/>
     <use style="fill:#0064a4;stroke:#0064a4;stroke-width:0.5;" x="855.806467" xlink:href="#mee42363098" y="242.704512"/>
     <use style="fill:#0064a4;stroke:#0064a4;stroke-width:0.5;" x="729.420397" xlink:href="#mee42363098" y="188.67168"/>
     <use style="fill:#0064a4;stroke:#0064a4;stroke-width:0.5;" x="758.586413" xlink:href="#mee42363098" y="153.119808"/>
     <use style="fill:#0064a4;stroke:#0064a4;stroke-width:0.5;" x="768.308418" xlink:href="#mee42363098" y="144.850291"/>
     <use style="fill:#0064a4;stroke:#0064a4;stroke-width:0.5;" x="949.785852" xlink:href="#mee42363098" y="188.240371"/>
     <use style="fill:#0064a4;stroke:#0064a4;stroke-width:0.5;" x="940.063847" xlink:href="#mee42363098" y="191.608934"/>
     <use style="fill:#0064a4;stroke:#0064a4;stroke-width:0.5;" x="946.545184" xlink:href="#mee42363098" y="196.700659"/>
     <use style="fill:#0064a4;stroke:#0064a4;stroke-width:0.5;" x="956.267189" xlink:href="#mee42363098" y="222.6528"/>
     <use style="fill:#0064a4;stroke:#0064a4;stroke-width:0.5;" x="820.159113" xlink:href="#mee42363098" y="168.629299"/>
     <use style="fill:#0064a4;stroke:#0064a4;stroke-width:0.5;" x="842.843793" xlink:href="#mee42363098" y="207.802714"/>
     <use style="fill:#0064a4;stroke:#0064a4;stroke-width:0.5;" x="742.38307" xlink:href="#mee42363098" y="218.970086"/>
     <use style="fill:#0064a4;stroke:#0064a4;stroke-width:0.5;" x="878.491146" xlink:href="#mee42363098" y="150.515366"/>
     <use style="fill:#0064a4;stroke:#0064a4;stroke-width:0.5;" x="881.731814" xlink:href="#mee42363098" y="210.845722"/>
     <use style="fill:#0064a4;stroke:#0064a4;stroke-width:0.5;" x="891.45382" xlink:href="#mee42363098" y="181.474214"/>
     <use style="fill:#0064a4;stroke:#0064a4;stroke-width:0.5;" x="807.19644" xlink:href="#mee42363098" y="197.145446"/>
     <use style="fill:#0064a4;stroke:#0064a4;stroke-width:0.5;" x="839.603124" xlink:href="#mee42363098" y="182.869747"/>
     <use style="fill:#0064a4;stroke:#0064a4;stroke-width:0.5;" x="846.084461" xlink:href="#mee42363098" y="175.965696"/>
     <use style="fill:#0064a4;stroke:#0064a4;stroke-width:0.5;" x="852.565798" xlink:href="#mee42363098" y="181.523981"/>
     <use style="fill:#0064a4;stroke:#0064a4;stroke-width:0.5;" x="765.06775" xlink:href="#mee42363098" y="104.48041"/>
     <use style="fill:#0064a4;stroke:#0064a4;stroke-width:0.5;" x="953.02652" xlink:href="#mee42363098" y="214.80215"/>
     <use style="fill:#0064a4;stroke:#0064a4;stroke-width:0.5;" x="965.989194" xlink:href="#mee42363098" y="202.61664"/>
     <use style="fill:#0064a4;stroke:#0064a4;stroke-width:0.5;" x="761.827081" xlink:href="#mee42363098" y="172.18967"/>
     <use style="fill:#0064a4;stroke:#0064a4;stroke-width:0.5;" x="1001.636547" xlink:href="#mee42363098" y="206.079552"/>
     <use style="fill:#0064a4;stroke:#0064a4;stroke-width:0.5;" x="732.661065" xlink:href="#mee42363098" y="217.890778"/>
     <use style="fill:#0064a4;stroke:#0064a4;stroke-width:0.5;" x="813.677777" xlink:href="#mee42363098" y="171.69408"/>
     <use style="fill:#0064a4;stroke:#0064a4;stroke-width:0.5;" x="755.345744" xlink:href="#mee42363098" y="177.176678"/>
     <use style="fill:#0064a4;stroke:#0064a4;stroke-width:0.5;" x="875.250477" xlink:href="#mee42363098" y="180.286042"/>
     <use style="fill:#0064a4;stroke:#0064a4;stroke-width:0.5;" x="927.101173" xlink:href="#mee42363098" y="209.347546"/>
     <use style="fill:#0064a4;stroke:#0064a4;stroke-width:0.5;" x="836.362456" xlink:href="#mee42363098" y="171.038822"/>
     <use style="fill:#0064a4;stroke:#0064a4;stroke-width:0.5;" x="868.76914" xlink:href="#mee42363098" y="174.299558"/>
     <use style="fill:#0064a4;stroke:#0064a4;stroke-width:0.5;" x="849.32513" xlink:href="#mee42363098" y="163.39657"/>
     <use style="fill:#0064a4;stroke:#0064a4;stroke-width:0.5;" x="823.399782" xlink:href="#mee42363098" y="215.249011"/>
     <use style="fill:#0064a4;stroke:#0064a4;stroke-width:0.5;" x="897.935157" xlink:href="#mee42363098" y="219.17641"/>
     <use style="fill:#0064a4;stroke:#0064a4;stroke-width:0.5;" x="923.860504" xlink:href="#mee42363098" y="207.559066"/>
     <use style="fill:#0064a4;stroke:#0064a4;stroke-width:0.5;" x="816.918445" xlink:href="#mee42363098" y="181.85161"/>
     <use style="fill:#0064a4;stroke:#0064a4;stroke-width:0.5;" x="917.379167" xlink:href="#mee42363098" y="166.682189"/>
     <use style="fill:#0064a4;stroke:#0064a4;stroke-width:0.5;" x="933.58251" xlink:href="#mee42363098" y="242.114573"/>
     <use style="fill:#0064a4;stroke:#0064a4;stroke-width:0.5;" x="978.951868" xlink:href="#mee42363098" y="225.186739"/>
     <use style="fill:#0064a4;stroke:#0064a4;stroke-width:0.5;" x="1004.877216" xlink:href="#mee42363098" y="220.826995"/>
     <use style="fill:#0064a4;stroke:#0064a4;stroke-width:0.5;" x="914.138499" xlink:href="#mee42363098" y="227.541312"/>
     <use style="fill:#0064a4;stroke:#0064a4;stroke-width:0.5;" x="800.715103" xlink:href="#mee42363098" y="168.387725"/>
     <use style="fill:#0064a4;stroke:#0064a4;stroke-width:0.5;" x="784.51176" xlink:href="#mee42363098" y="138.690662"/>
     <use style="fill:#0064a4;stroke:#0064a4;stroke-width:0.5;" x="872.009809" xlink:href="#mee42363098" y="130.45225"/>
     <use style="fill:#0064a4;stroke:#0064a4;stroke-width:0.5;" x="790.993097" xlink:href="#mee42363098" y="191.481408"/>
     <use style="fill:#0064a4;stroke:#0064a4;stroke-width:0.5;" x="778.030423" xlink:href="#mee42363098" y="180.590861"/>
     <use style="fill:#0064a4;stroke:#0064a4;stroke-width:0.5;" x="975.7112" xlink:href="#mee42363098" y="202.167706"/>
     <use style="fill:#0064a4;stroke:#0064a4;stroke-width:0.5;" x="995.15521" xlink:href="#mee42363098" y="199.188979"/>
     <use style="fill:#0064a4;stroke:#0064a4;stroke-width:0.5;" x="910.89783" xlink:href="#mee42363098" y="199.138176"/>
     <use style="fill:#0064a4;stroke:#0064a4;stroke-width:0.5;" x="739.142402" xlink:href="#mee42363098" y="188.704858"/>
     <use style="fill:#0064a4;stroke:#0064a4;stroke-width:0.5;" x="865.528472" xlink:href="#mee42363098" y="217.462579"/>
    </g>
   </g>
   <g id="patch_13">
    <path d="M 712.8 388.8 
L 712.8 64.8 
" style="fill:none;stroke:#f0f0f0;stroke-linecap:square;stroke-linejoin:miter;stroke-width:3;"/>
   </g>
   <g id="patch_14">
    <path d="M 1026 388.8 
L 1026 64.8 
" style="fill:none;stroke:#f0f0f0;stroke-linecap:square;stroke-linejoin:miter;stroke-width:3;"/>
   </g>
   <g id="patch_15">
    <path d="M 712.8 388.8 
L 1026 388.8 
" style="fill:none;stroke:#f0f0f0;stroke-linecap:square;stroke-linejoin:miter;stroke-width:3;"/>
   </g>
   <g id="patch_16">
    <path d="M 712.8 64.8 
L 1026 64.8 
" style="fill:none;stroke:#f0f0f0;stroke-linecap:square;stroke-linejoin:miter;stroke-width:3;"/>
   </g>
   <g id="text_15">
    <!-- Україна -->
    <g transform="translate(778.030423 180.590861)scale(0.14 -0.14)">
     <use xlink:href="#PTSans-Regular-423"/>
     <use x="55.299988" xlink:href="#PTSans-Regular-43a"/>
     <use x="103.099976" xlink:href="#PTSans-Regular-440"/>
     <use x="157.199966" xlink:href="#PTSans-Regular-430"/>
     <use x="206.799957" xlink:href="#PTSans-Regular-457"/>
     <use x="234.599945" xlink:href="#PTSans-Regular-43d"/>
     <use x="288.59993" xlink:href="#PTSans-Regular-430"/>
    </g>
   </g>
   <g id="text_16">
    <!-- Німеччина -->
    <g transform="translate(969.229863 208.761754)scale(0.14 -0.14)">
     <use xlink:href="#PTSans-Regular-41d"/>
     <use x="67.199997" xlink:href="#PTSans-Regular-456"/>
     <use x="93.999985" xlink:href="#PTSans-Regular-43c"/>
     <use x="158.499969" xlink:href="#PTSans-Regular-435"/>
     <use x="209.299957" xlink:href="#PTSans-Regular-447"/>
     <use x="258.299942" xlink:href="#PTSans-Regular-447"/>
     <use x="307.299927" xlink:href="#PTSans-Regular-438"/>
     <use x="361.899918" xlink:href="#PTSans-Regular-43d"/>
     <use x="415.899902" xlink:href="#PTSans-Regular-430"/>
    </g>
   </g>
   <g id="text_17">
    <!-- США -->
    <g transform="translate(995.15521 199.188979)scale(0.14 -0.14)">
     <use xlink:href="#PTSans-Regular-421"/>
     <use x="57.099991" xlink:href="#PTSans-Regular-428"/>
     <use x="144.799973" xlink:href="#PTSans-Regular-410"/>
    </g>
   </g>
   <g id="text_18">
    <!-- Вуглеводи -->
    <defs>
     <path d="M 50.703125 54 
Q 50.703125 51.5 49.890625 48.890625 
Q 49.09375 46.296875 47.5 44.046875 
Q 45.90625 41.796875 43.40625 40.09375 
Q 40.90625 38.40625 37.5 37.5 
L 37.5 37.09375 
Q 40.5 36.59375 43.25 35.390625 
Q 46 34.203125 48.09375 32.09375 
Q 50.203125 30 51.5 27 
Q 52.796875 24 52.796875 19.90625 
Q 52.796875 14.5 50.546875 10.546875 
Q 48.296875 6.59375 44.640625 4.09375 
Q 41 1.59375 36.296875 0.390625 
Q 31.59375 -0.796875 26.703125 -0.796875 
Q 25 -0.796875 22.703125 -0.796875 
Q 20.40625 -0.796875 17.90625 -0.640625 
Q 15.40625 -0.5 12.90625 -0.25 
Q 10.40625 0 8.5 0.5 
L 8.5 69.40625 
Q 12.203125 70 17.09375 70.390625 
Q 22 70.796875 27.796875 70.796875 
Q 31.703125 70.796875 35.75 70.140625 
Q 39.796875 69.5 43.09375 67.640625 
Q 46.40625 65.796875 48.546875 62.5 
Q 50.703125 59.203125 50.703125 54 
z
M 27.5 6.40625 
Q 30.703125 6.40625 33.703125 7.15625 
Q 36.703125 7.90625 39 9.546875 
Q 41.296875 11.203125 42.640625 13.59375 
Q 44 16 44 19.296875 
Q 44 23.40625 42.34375 25.90625 
Q 40.703125 28.40625 38.046875 29.796875 
Q 35.40625 31.203125 32.09375 31.703125 
Q 28.796875 32.203125 25.5 32.203125 
L 16.796875 32.203125 
L 16.796875 7.09375 
Q 17.5 6.90625 18.796875 6.796875 
Q 20.09375 6.703125 21.59375 6.59375 
Q 23.09375 6.5 24.6875 6.453125 
Q 26.296875 6.40625 27.5 6.40625 
z
M 22 39.203125 
Q 23.703125 39.203125 26.09375 39.296875 
Q 28.5 39.40625 30.09375 39.59375 
Q 32.5 40.40625 34.59375 41.546875 
Q 36.703125 42.703125 38.34375 44.25 
Q 40 45.796875 40.953125 47.84375 
Q 41.90625 49.90625 41.90625 52.296875 
Q 41.90625 55.59375 40.65625 57.75 
Q 39.40625 59.90625 37.296875 61.203125 
Q 35.203125 62.5 32.5 63.046875 
Q 29.796875 63.59375 27 63.59375 
Q 23.703125 63.59375 20.953125 63.4375 
Q 18.203125 63.296875 16.796875 63 
L 16.796875 39.203125 
z
" id="PTSans-Regular-412"/>
     <path d="M 22.40625 17.59375 
L 25.203125 8 
L 25.703125 8 
L 27.90625 17.703125 
L 37.59375 50 
L 45.703125 50 
L 30.90625 5.09375 
Q 29.203125 0.203125 27.546875 -4.390625 
Q 25.90625 -9 23.90625 -12.59375 
Q 21.90625 -16.203125 19.40625 -18.34375 
Q 16.90625 -20.5 13.59375 -20.5 
Q 10 -20.5 7.703125 -19.5 
L 9.09375 -12.59375 
Q 10.40625 -13.09375 11.59375 -13.09375 
Q 14.40625 -13.09375 17 -10.140625 
Q 19.59375 -7.203125 21.296875 0 
L 1.203125 50 
L 10.40625 50 
z
" id="PTSans-Regular-443"/>
     <path d="M 36.90625 43 
L 15.703125 43 
L 15.703125 0 
L 7.703125 0 
L 7.703125 50 
L 36.90625 50 
z
" id="PTSans-Regular-433"/>
     <path d="M 7.703125 49.90625 
Q 11.203125 50.09375 15.046875 50.390625 
Q 18.90625 50.703125 24.59375 50.703125 
Q 34.5 50.703125 38.796875 47.640625 
Q 43.09375 44.59375 43.09375 38.40625 
Q 43.09375 34.90625 41.046875 31.546875 
Q 39 28.203125 34.296875 26.59375 
L 34.296875 26.203125 
Q 40.203125 25.09375 42.59375 22.09375 
Q 45 19.09375 45 14.09375 
Q 45 6.296875 39.390625 2.796875 
Q 33.796875 -0.703125 22.59375 -0.703125 
Q 18.40625 -0.703125 14.796875 -0.453125 
Q 11.203125 -0.203125 7.703125 0.09375 
z
M 15.703125 6.703125 
Q 17.59375 6.5 19.4375 6.390625 
Q 21.296875 6.296875 23.796875 6.296875 
Q 30.5 6.296875 33.75 8.1875 
Q 37 10.09375 37 14.703125 
Q 37 18.296875 34.25 20.546875 
Q 31.5 22.796875 24.5 22.796875 
L 15.703125 22.796875 
z
M 25.5 28.90625 
Q 27.296875 28.90625 29 29.5 
Q 30.703125 30.09375 32.046875 31.140625 
Q 33.40625 32.203125 34.25 33.59375 
Q 35.09375 35 35.09375 36.59375 
Q 35.09375 40.59375 32.6875 42.140625 
Q 30.296875 43.703125 24.296875 43.703125 
Q 21.09375 43.703125 19.25 43.59375 
Q 17.40625 43.5 15.703125 43.40625 
L 15.703125 28.90625 
z
" id="PTSans-Regular-432"/>
     <path d="M 4.90625 25 
Q 4.90625 37.703125 10.546875 44.453125 
Q 16.203125 51.203125 26.796875 51.203125 
Q 32.40625 51.203125 36.546875 49.34375 
Q 40.703125 47.5 43.390625 44.046875 
Q 46.09375 40.59375 47.390625 35.75 
Q 48.703125 30.90625 48.703125 25 
Q 48.703125 12.296875 43.046875 5.546875 
Q 37.40625 -1.203125 26.796875 -1.203125 
Q 21.203125 -1.203125 17.046875 0.640625 
Q 12.90625 2.5 10.203125 5.953125 
Q 7.5 9.40625 6.203125 14.25 
Q 4.90625 19.09375 4.90625 25 
z
M 13.203125 25 
Q 13.203125 21.203125 13.953125 17.703125 
Q 14.703125 14.203125 16.296875 11.59375 
Q 17.90625 9 20.5 7.390625 
Q 23.09375 5.796875 26.796875 5.796875 
Q 40.40625 5.703125 40.40625 25 
Q 40.40625 28.90625 39.65625 32.40625 
Q 38.90625 35.90625 37.296875 38.5 
Q 35.703125 41.09375 33.09375 42.640625 
Q 30.5 44.203125 26.796875 44.203125 
Q 13.203125 44.296875 13.203125 25 
z
" id="PTSans-Regular-43e"/>
    </defs>
    <g transform="translate(832.985 58.8)scale(0.16 -0.16)">
     <use xlink:href="#PTSans-Regular-412"/>
     <use x="58.399994" xlink:href="#PTSans-Regular-443"/>
     <use x="104.999985" xlink:href="#PTSans-Regular-433"/>
     <use x="141.899979" xlink:href="#PTSans-Regular-43b"/>
     <use x="192.199966" xlink:href="#PTSans-Regular-435"/>
     <use x="242.999954" xlink:href="#PTSans-Regular-432"/>
     <use x="292.899948" xlink:href="#PTSans-Regular-43e"/>
     <use x="346.499939" xlink:href="#PTSans-Regular-434"/>
     <use x="400.59993" xlink:href="#PTSans-Regular-438"/>
    </g>
   </g>
  </g>
  <g id="text_19">
   <!-- Заможніші країни їдять більше жирів і білків, але менше вуглеводів -->
   <defs>
    <path d="M 13.90625 33.09375 
L 13.90625 40.09375 
L 15.5 40.09375 
Q 16.40625 40.09375 17.703125 40.09375 
Q 19 40.09375 20.34375 40.1875 
Q 21.703125 40.296875 22.953125 40.34375 
Q 24.203125 40.40625 25 40.59375 
Q 27.59375 41 29.890625 41.953125 
Q 32.203125 42.90625 33.890625 44.40625 
Q 35.59375 45.90625 36.59375 47.90625 
Q 37.59375 49.90625 37.59375 52.296875 
Q 37.59375 55.59375 36.5 57.796875 
Q 35.40625 60 33.453125 61.34375 
Q 31.5 62.703125 28.953125 63.25 
Q 26.40625 63.796875 23.5 63.796875 
Q 18.09375 63.796875 14.296875 63.046875 
Q 10.5 62.296875 8.203125 61.203125 
L 6 67.796875 
Q 8 68.90625 13.203125 70.046875 
Q 18.40625 71.203125 24.90625 71.203125 
Q 28.90625 71.203125 32.75 70.34375 
Q 36.59375 69.5 39.640625 67.546875 
Q 42.703125 65.59375 44.546875 62.25 
Q 46.40625 58.90625 46.40625 54 
Q 46.40625 49 43.09375 44.453125 
Q 39.796875 39.90625 33.203125 37.90625 
L 33.203125 37.5 
Q 40.296875 36.5 44.390625 32.203125 
Q 48.5 27.90625 48.5 20.703125 
Q 48.5 15 46.25 10.84375 
Q 44 6.703125 40.34375 4 
Q 36.703125 1.296875 31.953125 0.046875 
Q 27.203125 -1.203125 22.296875 -1.203125 
Q 15.703125 -1.203125 11.453125 -0.453125 
Q 7.203125 0.296875 4.40625 1.40625 
L 6.5 8.90625 
Q 8.796875 7.796875 12.9375 7 
Q 17.09375 6.203125 23 6.203125 
Q 26.09375 6.203125 29.09375 7.046875 
Q 32.09375 7.90625 34.4375 9.65625 
Q 36.796875 11.40625 38.25 14 
Q 39.703125 16.59375 39.703125 20.203125 
Q 39.703125 26.5 35.296875 29.453125 
Q 30.90625 32.40625 23.796875 32.90625 
Q 22.59375 33 21.546875 33.046875 
Q 20.5 33.09375 19.40625 33.09375 
z
" id="PTSans-Regular-417"/>
    <path d="M 24 22.09375 
L 9.296875 0 
L 0.09375 0 
L 15.90625 22.90625 
L 19.296875 25.90625 
L 14.203125 29.703125 
L 1.203125 50 
L 9.703125 50 
L 23.5 28.40625 
L 28.703125 28.40625 
L 28.703125 50 
L 36.5 50 
L 36.5 27.40625 
L 41.203125 28.796875 
L 55.09375 50 
L 63.5 50 
L 49.90625 29.703125 
L 46 26.5 
L 51.09375 22.5 
L 65.90625 0 
L 56.40625 0 
L 41.703125 22.5 
L 36.5 22.5 
L 36.5 0 
L 28.703125 0 
L 28.703125 23.5 
z
" id="PTSans-Regular-436"/>
    <path d="M 7.703125 0 
L 7.703125 50 
L 15.703125 50 
L 15.703125 7 
L 32.796875 7 
L 32.796875 50 
L 40.796875 50 
L 40.796875 7 
L 57.90625 7 
L 57.90625 50 
L 65.90625 50 
L 65.90625 0 
z
" id="PTSans-Regular-448"/>
    <path id="PTSans-Regular-20"/>
    <path d="M 32.59375 20.703125 
L 24.90625 19.5 
L 11.703125 0 
L 2 0 
L 14 17.09375 
L 18 20.796875 
Q 12.796875 21.59375 9.140625 25 
Q 5.5 28.40625 5.5 34.203125 
Q 5.5 38.703125 7.046875 41.890625 
Q 8.59375 45.09375 11.5 47.1875 
Q 14.40625 49.296875 18.40625 50.25 
Q 22.40625 51.203125 27.40625 51.203125 
Q 31.09375 51.203125 34.296875 50.703125 
Q 37.5 50.203125 40.59375 49.59375 
L 40.59375 0 
L 32.59375 0 
z
M 32.59375 43.203125 
Q 31.296875 43.703125 29.6875 43.953125 
Q 28.09375 44.203125 26.90625 44.203125 
Q 20.5 44.203125 17.140625 41.890625 
Q 13.796875 39.59375 13.796875 34.59375 
Q 13.796875 30.09375 17.34375 27.640625 
Q 20.90625 25.203125 26.703125 25.203125 
Q 26.796875 25.203125 27 25.203125 
Q 27.203125 25.203125 27.796875 25.203125 
Q 28.40625 25.203125 29.5 25.25 
Q 30.59375 25.296875 32.59375 25.40625 
z
" id="PTSans-Regular-44f"/>
    <path d="M 39.59375 43 
L 23.90625 43 
L 23.90625 0 
L 15.90625 0 
L 15.90625 43 
L 0.203125 43 
L 0.203125 50 
L 39.59375 50 
z
" id="PTSans-Regular-442"/>
    <path d="M 12.296875 41.09375 
Q 15.59375 45.90625 19.59375 47.84375 
Q 23.59375 49.796875 29.59375 49.796875 
Q 38.796875 49.796875 43.75 43.796875 
Q 48.703125 37.796875 48.703125 26.09375 
Q 48.703125 12.59375 42.953125 5.6875 
Q 37.203125 -1.203125 26.90625 -1.203125 
Q 15.90625 -1.203125 10.40625 6.390625 
Q 4.90625 14 4.90625 30.296875 
Q 4.90625 38.90625 5.75 45 
Q 6.59375 51.09375 8.25 55.296875 
Q 9.90625 59.5 12.25 62 
Q 14.59375 64.5 17.546875 65.953125 
Q 20.5 67.40625 24 68 
Q 27.5 68.59375 31.5 69 
Q 36.703125 69.5 39.640625 70.140625 
Q 42.59375 70.796875 44.40625 72.5 
L 45.296875 65.296875 
Q 44.296875 64.40625 43.09375 63.796875 
Q 41.90625 63.203125 40.203125 62.796875 
Q 38.5 62.40625 36.140625 62.09375 
Q 33.796875 61.796875 30.703125 61.59375 
Q 26.40625 61.296875 23.15625 60.546875 
Q 19.90625 59.796875 17.546875 57.640625 
Q 15.203125 55.5 13.84375 51.546875 
Q 12.5 47.59375 12 41.09375 
z
M 13.203125 24.90625 
Q 13.203125 21.09375 14 17.59375 
Q 14.796875 14.09375 16.4375 11.4375 
Q 18.09375 8.796875 20.6875 7.296875 
Q 23.296875 5.796875 26.796875 5.796875 
Q 33.703125 5.796875 37.046875 10.75 
Q 40.40625 15.703125 40.40625 25.40625 
Q 40.40625 29.203125 39.703125 32.390625 
Q 39 35.59375 37.5 37.9375 
Q 36 40.296875 33.703125 41.546875 
Q 31.40625 42.796875 28.203125 42.796875 
Q 20.40625 42.90625 16.796875 38.25 
Q 13.203125 33.59375 13.203125 24.90625 
z
" id="PTSans-Regular-431"/>
    <path d="M 4.90625 4.296875 
Q 4.90625 6.703125 6.5 8.203125 
Q 8.09375 9.703125 10.59375 9.703125 
Q 13.703125 9.703125 15.640625 7.5 
Q 17.59375 5.296875 17.59375 1.09375 
Q 17.59375 -2.5 16.59375 -5.203125 
Q 15.59375 -7.90625 14 -9.84375 
Q 12.40625 -11.796875 10.5 -13.046875 
Q 8.59375 -14.296875 6.703125 -14.90625 
L 4.203125 -11 
Q 7.796875 -9.59375 9.546875 -6.640625 
Q 11.296875 -3.703125 11.296875 -0.703125 
Q 10.40625 -1 9.59375 -1 
Q 7.59375 -1 6.25 0.34375 
Q 4.90625 1.703125 4.90625 4.296875 
z
" id="PTSans-Regular-2c"/>
   </defs>
   <g transform="translate(241.7 23.14)scale(0.2 -0.2)">
    <use xlink:href="#PTSans-Regular-417"/>
    <use x="54.099991" xlink:href="#PTSans-Regular-430"/>
    <use x="103.699982" xlink:href="#PTSans-Regular-43c"/>
    <use x="168.199966" xlink:href="#PTSans-Regular-43e"/>
    <use x="221.799957" xlink:href="#PTSans-Regular-436"/>
    <use x="287.699951" xlink:href="#PTSans-Regular-43d"/>
    <use x="341.699936" xlink:href="#PTSans-Regular-456"/>
    <use x="368.499924" xlink:href="#PTSans-Regular-448"/>
    <use x="442.099915" xlink:href="#PTSans-Regular-456"/>
    <use x="468.899902" xlink:href="#PTSans-Regular-20"/>
    <use x="495.599899" xlink:href="#PTSans-Regular-43a"/>
    <use x="543.399887" xlink:href="#PTSans-Regular-440"/>
    <use x="597.499878" xlink:href="#PTSans-Regular-430"/>
    <use x="647.099869" xlink:href="#PTSans-Regular-457"/>
    <use x="674.899857" xlink:href="#PTSans-Regular-43d"/>
    <use x="728.899841" xlink:href="#PTSans-Regular-438"/>
    <use x="783.499832" xlink:href="#PTSans-Regular-20"/>
    <use x="810.199829" xlink:href="#PTSans-Regular-457"/>
    <use x="837.999817" xlink:href="#PTSans-Regular-434"/>
    <use x="892.099808" xlink:href="#PTSans-Regular-44f"/>
    <use x="939.599792" xlink:href="#PTSans-Regular-442"/>
    <use x="979.39978" xlink:href="#PTSans-Regular-44c"/>
    <use x="1025.799774" xlink:href="#PTSans-Regular-20"/>
    <use x="1052.499771" xlink:href="#PTSans-Regular-431"/>
    <use x="1106.099762" xlink:href="#PTSans-Regular-456"/>
    <use x="1132.89975" xlink:href="#PTSans-Regular-43b"/>
    <use x="1183.199738" xlink:href="#PTSans-Regular-44c"/>
    <use x="1229.599731" xlink:href="#PTSans-Regular-448"/>
    <use x="1303.199722" xlink:href="#PTSans-Regular-435"/>
    <use x="1353.99971" xlink:href="#PTSans-Regular-20"/>
    <use x="1380.699707" xlink:href="#PTSans-Regular-436"/>
    <use x="1446.599701" xlink:href="#PTSans-Regular-438"/>
    <use x="1501.199692" xlink:href="#PTSans-Regular-440"/>
    <use x="1555.299683" xlink:href="#PTSans-Regular-456"/>
    <use x="1582.09967" xlink:href="#PTSans-Regular-432"/>
    <use x="1631.999664" xlink:href="#PTSans-Regular-20"/>
    <use x="1658.699661" xlink:href="#PTSans-Regular-456"/>
    <use x="1685.499649" xlink:href="#PTSans-Regular-20"/>
    <use x="1712.199646" xlink:href="#PTSans-Regular-431"/>
    <use x="1765.799637" xlink:href="#PTSans-Regular-456"/>
    <use x="1792.599625" xlink:href="#PTSans-Regular-43b"/>
    <use x="1842.899612" xlink:href="#PTSans-Regular-43a"/>
    <use x="1890.6996" xlink:href="#PTSans-Regular-456"/>
    <use x="1917.499588" xlink:href="#PTSans-Regular-432"/>
    <use x="1967.399582" xlink:href="#PTSans-Regular-2c"/>
    <use x="1989.790192" xlink:href="#PTSans-Regular-20"/>
    <use x="2016.490189" xlink:href="#PTSans-Regular-430"/>
    <use x="2066.090179" xlink:href="#PTSans-Regular-43b"/>
    <use x="2116.390167" xlink:href="#PTSans-Regular-435"/>
    <use x="2167.190155" xlink:href="#PTSans-Regular-20"/>
    <use x="2193.890152" xlink:href="#PTSans-Regular-43c"/>
    <use x="2258.390137" xlink:href="#PTSans-Regular-435"/>
    <use x="2309.190125" xlink:href="#PTSans-Regular-43d"/>
    <use x="2363.190109" xlink:href="#PTSans-Regular-448"/>
    <use x="2436.7901" xlink:href="#PTSans-Regular-435"/>
    <use x="2487.590088" xlink:href="#PTSans-Regular-20"/>
    <use x="2514.290085" xlink:href="#PTSans-Regular-432"/>
    <use x="2564.190079" xlink:href="#PTSans-Regular-443"/>
    <use x="2610.79007" xlink:href="#PTSans-Regular-433"/>
    <use x="2647.690063" xlink:href="#PTSans-Regular-43b"/>
    <use x="2697.990051" xlink:href="#PTSans-Regular-435"/>
    <use x="2748.790039" xlink:href="#PTSans-Regular-432"/>
    <use x="2798.690033" xlink:href="#PTSans-Regular-43e"/>
    <use x="2852.290024" xlink:href="#PTSans-Regular-434"/>
    <use x="2906.390015" xlink:href="#PTSans-Regular-456"/>
    <use x="2933.190002" xlink:href="#PTSans-Regular-432"/>
   </g>
  </g>
 </g>
 <defs>
  <clipPath id="p0f08fff83e">
   <rect height="324" width="313.2" x="86.4" y="64.8"/>
  </clipPath>
  <clipPath id="pacda265f7d">
   <rect height="324" width="313.2" x="399.6" y="64.8"/>
  </clipPath>
  <clipPath id="p765d5f1b4f">
   <rect height="324" width="313.2" x="712.8" y="64.8"/>
  </clipPath>
 </defs>
</svg>
