<?xml version="1.0" encoding="utf-8" standalone="no"?>
<!DOCTYPE svg PUBLIC "-//W3C//DTD SVG 1.1//EN"
  "http://www.w3.org/Graphics/SVG/1.1/DTD/svg11.dtd">
<!-- Created with matplotlib (http://matplotlib.org/) -->
<svg height="864pt" version="1.1" viewBox="0 0 864 864" width="864pt" xmlns="http://www.w3.org/2000/svg" xmlns:xlink="http://www.w3.org/1999/xlink">
 <defs>
  <style type="text/css">
*{stroke-linecap:butt;stroke-linejoin:round;}
  </style>
 </defs>
 <g id="figure_1">
  <g id="patch_1">
   <path d="M 0 864 
L 864 864 
L 864 0 
L 0 0 
z
" style="fill:#f0f0f0;"/>
  </g>
  <g id="axes_1">
   <g id="patch_2">
    <path d="M 69.12 421.789091 
L 410.792727 421.789091 
L 410.792727 103.68 
L 69.12 103.68 
z
" style="fill:#f0f0f0;"/>
   </g>
   <g id="matplotlib.axis_1"/>
   <g id="matplotlib.axis_2"/>
   <g id="patch_3">
    <path clip-path="url(#pee38a196c7)" d="M 94.176 419.668364 
L 135.176727 419.668364 
L 135.176727 381.495273 
L 94.176 381.495273 
z
" style="fill:none;stroke:#0064a4;stroke-linejoin:miter;stroke-width:2;"/>
   </g>
   <g id="patch_4">
    <path clip-path="url(#pee38a196c7)" d="M 94.176 377.253818 
L 135.176727 377.253818 
L 135.176727 339.080727 
L 94.176 339.080727 
z
" style="fill:none;stroke:#0064a4;stroke-linejoin:miter;stroke-width:2;"/>
   </g>
   <g id="patch_5">
    <path clip-path="url(#pee38a196c7)" d="M 94.176 334.839273 
L 135.176727 334.839273 
L 135.176727 296.666182 
L 94.176 296.666182 
z
" style="fill:none;stroke:#0064a4;stroke-linejoin:miter;stroke-width:2;"/>
   </g>
   <g id="patch_6">
    <path clip-path="url(#pee38a196c7)" d="M 94.176 292.424727 
L 135.176727 292.424727 
L 135.176727 254.251636 
L 94.176 254.251636 
z
" style="fill:none;stroke:#0064a4;stroke-linejoin:miter;stroke-width:2;"/>
   </g>
   <g id="patch_7">
    <path clip-path="url(#pee38a196c7)" d="M 94.176 250.010182 
L 135.176727 250.010182 
L 135.176727 211.837091 
L 94.176 211.837091 
z
" style="fill:none;stroke:#0064a4;stroke-linejoin:miter;stroke-width:2;"/>
   </g>
   <g id="patch_8">
    <path clip-path="url(#pee38a196c7)" d="M 139.732364 419.668364 
L 180.733091 419.668364 
L 180.733091 381.495273 
L 139.732364 381.495273 
z
" style="fill:none;stroke:#56ba00;stroke-linejoin:miter;stroke-width:2;"/>
   </g>
   <g id="patch_9">
    <path clip-path="url(#pee38a196c7)" d="M 139.732364 377.253818 
L 180.733091 377.253818 
L 180.733091 339.080727 
L 139.732364 339.080727 
z
" style="fill:none;stroke:#56ba00;stroke-linejoin:miter;stroke-width:2;"/>
   </g>
   <g id="patch_10">
    <path clip-path="url(#pee38a196c7)" d="M 139.732364 334.839273 
L 180.733091 334.839273 
L 180.733091 296.666182 
L 139.732364 296.666182 
z
" style="fill:none;stroke:#56ba00;stroke-linejoin:miter;stroke-width:2;"/>
   </g>
   <g id="patch_11">
    <path clip-path="url(#pee38a196c7)" d="M 139.732364 292.424727 
L 180.733091 292.424727 
L 180.733091 254.251636 
L 139.732364 254.251636 
z
" style="fill:none;stroke:#56ba00;stroke-linejoin:miter;stroke-width:2;"/>
   </g>
   <g id="patch_12">
    <path clip-path="url(#pee38a196c7)" d="M 139.732364 250.010182 
L 180.733091 250.010182 
L 180.733091 211.837091 
L 139.732364 211.837091 
z
" style="fill:none;stroke:#56ba00;stroke-linejoin:miter;stroke-width:2;"/>
   </g>
   <g id="patch_13">
    <path clip-path="url(#pee38a196c7)" d="M 185.288727 419.668364 
L 226.289455 419.668364 
L 226.289455 381.495273 
L 185.288727 381.495273 
z
" style="fill:none;stroke:#ffa103;stroke-linejoin:miter;stroke-width:2;"/>
   </g>
   <g id="patch_14">
    <path clip-path="url(#pee38a196c7)" d="M 185.288727 377.253818 
L 226.289455 377.253818 
L 226.289455 339.080727 
L 185.288727 339.080727 
z
" style="fill:none;stroke:#ffa103;stroke-linejoin:miter;stroke-width:2;"/>
   </g>
   <g id="patch_15">
    <path clip-path="url(#pee38a196c7)" d="M 185.288727 334.839273 
L 226.289455 334.839273 
L 226.289455 296.666182 
L 185.288727 296.666182 
z
" style="fill:none;stroke:#ffa103;stroke-linejoin:miter;stroke-width:2;"/>
   </g>
   <g id="patch_16">
    <path clip-path="url(#pee38a196c7)" d="M 230.845091 419.668364 
L 271.845818 419.668364 
L 271.845818 381.495273 
L 230.845091 381.495273 
z
" style="fill:none;stroke:#ff2445;stroke-linejoin:miter;stroke-width:2;"/>
   </g>
   <g id="patch_17">
    <path clip-path="url(#pee38a196c7)" d="M 230.845091 377.253818 
L 271.845818 377.253818 
L 271.845818 339.080727 
L 230.845091 339.080727 
z
" style="fill:none;stroke:#ff2445;stroke-linejoin:miter;stroke-width:2;"/>
   </g>
   <g id="patch_18">
    <path clip-path="url(#pee38a196c7)" d="M 230.845091 334.839273 
L 271.845818 334.839273 
L 271.845818 296.666182 
L 230.845091 296.666182 
z
" style="fill:none;stroke:#ff2445;stroke-linejoin:miter;stroke-width:2;"/>
   </g>
   <g id="patch_19">
    <path clip-path="url(#pee38a196c7)" d="M 276.401455 419.668364 
L 317.402182 419.668364 
L 317.402182 381.495273 
L 276.401455 381.495273 
z
" style="fill:none;stroke:#7500b4;stroke-linejoin:miter;stroke-width:2;"/>
   </g>
   <g id="patch_20">
    <path clip-path="url(#pee38a196c7)" d="M 276.401455 377.253818 
L 317.402182 377.253818 
L 317.402182 339.080727 
L 276.401455 339.080727 
z
" style="fill:none;stroke:#7500b4;stroke-linejoin:miter;stroke-width:2;"/>
   </g>
   <g id="patch_21">
    <path clip-path="url(#pee38a196c7)" d="M 94.176 419.668364 
L 135.176727 419.668364 
L 135.176727 381.495273 
L 94.176 381.495273 
z
" style="fill:#0064a4;opacity:0.7;"/>
   </g>
   <g id="patch_22">
    <path clip-path="url(#pee38a196c7)" d="M 94.176 377.253818 
L 135.176727 377.253818 
L 135.176727 339.080727 
L 94.176 339.080727 
z
" style="fill:#0064a4;opacity:0.7;"/>
   </g>
   <g id="patch_23">
    <path clip-path="url(#pee38a196c7)" d="M 94.176 334.839273 
L 135.176727 334.839273 
L 135.176727 296.666182 
L 94.176 296.666182 
z
" style="fill:#0064a4;opacity:0.7;"/>
   </g>
   <g id="patch_24">
    <path clip-path="url(#pee38a196c7)" d="M 94.176 292.424727 
L 135.176727 292.424727 
L 135.176727 254.251636 
L 94.176 254.251636 
z
" style="fill:#0064a4;opacity:0.7;"/>
   </g>
   <g id="patch_25">
    <path clip-path="url(#pee38a196c7)" d="M 94.176 250.010182 
L 135.176727 250.010182 
L 135.176727 211.837091 
L 94.176 211.837091 
z
" style="fill:#0064a4;opacity:0.7;"/>
   </g>
   <g id="patch_26">
    <path clip-path="url(#pee38a196c7)" d="M 139.732364 419.668364 
L 180.733091 419.668364 
L 180.733091 381.495273 
L 139.732364 381.495273 
z
" style="fill:#56ba00;opacity:0.7;"/>
   </g>
   <g id="patch_27">
    <path clip-path="url(#pee38a196c7)" d="M 139.732364 377.253818 
L 180.733091 377.253818 
L 180.733091 339.080727 
L 139.732364 339.080727 
z
" style="fill:#56ba00;opacity:0.7;"/>
   </g>
   <g id="patch_28">
    <path clip-path="url(#pee38a196c7)" d="M 139.732364 334.839273 
L 180.733091 334.839273 
L 180.733091 296.666182 
L 139.732364 296.666182 
z
" style="fill:#56ba00;opacity:0.7;"/>
   </g>
   <g id="patch_29">
    <path clip-path="url(#pee38a196c7)" d="M 139.732364 292.424727 
L 180.733091 292.424727 
L 180.733091 254.251636 
L 139.732364 254.251636 
z
" style="fill:#56ba00;opacity:0.7;"/>
   </g>
   <g id="patch_30">
    <path clip-path="url(#pee38a196c7)" d="M 139.732364 250.010182 
L 180.733091 250.010182 
L 180.733091 211.837091 
L 139.732364 211.837091 
z
" style="fill:#56ba00;opacity:0.7;"/>
   </g>
   <g id="patch_31">
    <path clip-path="url(#pee38a196c7)" d="M 185.288727 419.668364 
L 226.289455 419.668364 
L 226.289455 381.495273 
L 185.288727 381.495273 
z
" style="fill:#ffa103;opacity:0.7;"/>
   </g>
   <g id="patch_32">
    <path clip-path="url(#pee38a196c7)" d="M 185.288727 377.253818 
L 226.289455 377.253818 
L 226.289455 339.080727 
L 185.288727 339.080727 
z
" style="fill:#ffa103;opacity:0.7;"/>
   </g>
   <g id="patch_33">
    <path clip-path="url(#pee38a196c7)" d="M 230.845091 419.668364 
L 271.845818 419.668364 
L 271.845818 381.495273 
L 230.845091 381.495273 
z
" style="fill:#ff2445;opacity:0.7;"/>
   </g>
   <g id="patch_34">
    <path clip-path="url(#pee38a196c7)" d="M 230.845091 377.253818 
L 271.845818 377.253818 
L 271.845818 339.080727 
L 230.845091 339.080727 
z
" style="fill:#ff2445;opacity:0.7;"/>
   </g>
   <g id="patch_35">
    <path clip-path="url(#pee38a196c7)" d="M 230.845091 334.839273 
L 271.845818 334.839273 
L 271.845818 296.666182 
L 230.845091 296.666182 
z
" style="fill:#ff2445;opacity:0.7;"/>
   </g>
   <g id="patch_36">
    <path clip-path="url(#pee38a196c7)" d="M 276.401455 419.668364 
L 317.402182 419.668364 
L 317.402182 381.495273 
L 276.401455 381.495273 
z
" style="fill:#7500b4;opacity:0.7;"/>
   </g>
   <g id="patch_37">
    <path clip-path="url(#pee38a196c7)" d="M 344.736 419.668364 
L 385.736727 419.668364 
L 385.736727 381.495273 
L 344.736 381.495273 
z
" style="fill:#0064a4;opacity:0.7;"/>
   </g>
   <g id="patch_38">
    <path clip-path="url(#pee38a196c7)" d="M 344.736 377.253818 
L 385.736727 377.253818 
L 385.736727 339.080727 
L 344.736 339.080727 
z
" style="fill:#0064a4;opacity:0.7;"/>
   </g>
   <g id="patch_39">
    <path clip-path="url(#pee38a196c7)" d="M 344.736 334.839273 
L 385.736727 334.839273 
L 385.736727 296.666182 
L 344.736 296.666182 
z
" style="fill:#0064a4;opacity:0.7;"/>
   </g>
   <g id="patch_40">
    <path clip-path="url(#pee38a196c7)" d="M 344.736 292.424727 
L 385.736727 292.424727 
L 385.736727 254.251636 
L 344.736 254.251636 
z
" style="fill:#0064a4;opacity:0.7;"/>
   </g>
   <g id="patch_41">
    <path clip-path="url(#pee38a196c7)" d="M 344.736 250.010182 
L 385.736727 250.010182 
L 385.736727 211.837091 
L 344.736 211.837091 
z
" style="fill:#56ba00;opacity:0.7;"/>
   </g>
   <g id="patch_42">
    <path clip-path="url(#pee38a196c7)" d="M 344.736 207.595636 
L 385.736727 207.595636 
L 385.736727 169.422545 
L 344.736 169.422545 
z
" style="fill:#56ba00;opacity:0.7;"/>
   </g>
   <g id="patch_43">
    <path clip-path="url(#pee38a196c7)" d="M 91.898182 146.094545 
L 388.014545 146.094545 
L 388.014545 129.128727 
L 91.898182 129.128727 
z
" style="fill:none;stroke:#808080;stroke-linejoin:miter;"/>
   </g>
   <g id="patch_44">
    <path clip-path="url(#pee38a196c7)" d="M 91.898182 146.094545 
L 292.922585 146.094545 
L 292.922585 129.128727 
L 91.898182 129.128727 
z
" style="fill:#808080;opacity:0.5;stroke:#808080;stroke-linejoin:miter;"/>
   </g>
   <g id="patch_45">
    <path d="M 69.12 421.789091 
L 69.12 103.68 
" style="fill:none;stroke:#f0f0f0;stroke-linecap:square;stroke-linejoin:miter;stroke-width:3;"/>
   </g>
   <g id="patch_46">
    <path d="M 410.792727 421.789091 
L 410.792727 103.68 
" style="fill:none;stroke:#f0f0f0;stroke-linecap:square;stroke-linejoin:miter;stroke-width:3;"/>
   </g>
   <g id="patch_47">
    <path d="M 69.12 421.789091 
L 410.792727 421.789091 
" style="fill:none;stroke:#f0f0f0;stroke-linecap:square;stroke-linejoin:miter;stroke-width:3;"/>
   </g>
   <g id="patch_48">
    <path d="M 69.12 103.68 
L 410.792727 103.68 
" style="fill:none;stroke:#f0f0f0;stroke-linecap:square;stroke-linejoin:miter;stroke-width:3;"/>
   </g>
   <g id="text_1">
    <!-- 67.9% -->
    <defs>
     <path d="M 49.203125 21.09375 
Q 49.203125 16.5 47.796875 12.453125 
Q 46.40625 8.40625 43.703125 5.34375 
Q 41 2.296875 37 0.546875 
Q 33 -1.203125 27.90625 -1.203125 
Q 22.90625 -1.203125 18.90625 0.390625 
Q 14.90625 2 12 5.140625 
Q 9.09375 8.296875 7.546875 12.890625 
Q 6 17.5 6 23.5 
Q 6 33.40625 8.546875 41.75 
Q 11.09375 50.09375 15.59375 56.296875 
Q 20.09375 62.5 26.25 66.34375 
Q 32.40625 70.203125 39.59375 71.203125 
L 41.296875 64.796875 
Q 35.703125 63.796875 31.09375 61 
Q 26.5 58.203125 23.046875 54.09375 
Q 19.59375 50 17.390625 44.890625 
Q 15.203125 39.796875 14.40625 34.40625 
Q 16 37.09375 19.796875 39.34375 
Q 23.59375 41.59375 29.09375 41.59375 
Q 38.5 41.59375 43.84375 36.1875 
Q 49.203125 30.796875 49.203125 21.09375 
z
M 40.90625 20.296875 
Q 40.90625 27.40625 37.59375 31 
Q 34.296875 34.59375 27.40625 34.59375 
Q 22.5 34.59375 18.953125 32.1875 
Q 15.40625 29.796875 14 26.796875 
Q 13.796875 25.40625 13.796875 24.5 
Q 13.796875 23.59375 13.796875 22.5 
Q 13.796875 19.40625 14.640625 16.40625 
Q 15.5 13.40625 17.296875 11.046875 
Q 19.09375 8.703125 21.75 7.25 
Q 24.40625 5.796875 28 5.796875 
Q 30.90625 5.796875 33.25 6.890625 
Q 35.59375 8 37.296875 9.890625 
Q 39 11.796875 39.953125 14.5 
Q 40.90625 17.203125 40.90625 20.296875 
z
" id="PTSans-Regular-36"/>
     <path d="M 11 0 
L 36.09375 58.59375 
L 40.5 63.5 
L 34.59375 62.59375 
L 6.09375 62.59375 
L 6.09375 70 
L 47.90625 70 
L 47.90625 67.296875 
L 19.09375 0 
z
" id="PTSans-Regular-37"/>
     <path d="M 4.90625 4.59375 
Q 4.90625 7.296875 6.453125 8.84375 
Q 8 10.40625 10.59375 10.40625 
Q 13.296875 10.40625 14.890625 8.84375 
Q 16.5 7.296875 16.5 4.59375 
Q 16.5 2 14.890625 0.390625 
Q 13.296875 -1.203125 10.59375 -1.203125 
Q 8 -1.203125 6.453125 0.390625 
Q 4.90625 2 4.90625 4.59375 
z
" id="PTSans-Regular-2e"/>
     <path d="M 5.203125 48.796875 
Q 5.203125 53.59375 6.59375 57.6875 
Q 8 61.796875 10.703125 64.796875 
Q 13.40625 67.796875 17.453125 69.5 
Q 21.5 71.203125 26.90625 71.203125 
Q 37.09375 71.203125 42.796875 64.59375 
Q 48.5 58 48.5 46 
Q 48.5 34.703125 45.953125 26.25 
Q 43.40625 17.796875 38.90625 12 
Q 34.40625 6.203125 28.25 2.953125 
Q 22.09375 -0.296875 14.90625 -1.203125 
L 13.09375 5.203125 
Q 18.90625 6.09375 23.546875 8.59375 
Q 28.203125 11.09375 31.546875 14.890625 
Q 34.90625 18.703125 37 23.546875 
Q 39.09375 28.40625 39.90625 34.09375 
Q 37.203125 30.90625 33.953125 29.65625 
Q 30.703125 28.40625 25.40625 28.40625 
Q 21.296875 28.40625 17.640625 29.75 
Q 14 31.09375 11.203125 33.6875 
Q 8.40625 36.296875 6.796875 40.09375 
Q 5.203125 43.90625 5.203125 48.796875 
z
M 13.5 49.59375 
Q 13.5 42.5 17.25 38.953125 
Q 21 35.40625 27.09375 35.40625 
Q 32 35.40625 35.5 37 
Q 39 38.59375 40.5 41.203125 
Q 40.703125 42.5 40.703125 43.5 
Q 40.703125 44.5 40.703125 45.59375 
Q 40.703125 49.203125 39.84375 52.546875 
Q 39 55.90625 37.296875 58.546875 
Q 35.59375 61.203125 32.84375 62.703125 
Q 30.09375 64.203125 26.40625 64.203125 
Q 20.296875 64.203125 16.890625 60.34375 
Q 13.5 56.5 13.5 49.59375 
z
" id="PTSans-Regular-39"/>
     <path d="M 7.03125 54.203125 
Q 7.03125 58.703125 8.21875 61.890625 
Q 9.421875 65.09375 11.46875 67.1875 
Q 13.53125 69.296875 16.375 70.25 
Q 19.21875 71.203125 22.53125 71.203125 
Q 25.828125 71.203125 28.671875 70.296875 
Q 31.53125 69.40625 33.578125 67.40625 
Q 35.625 65.40625 36.828125 62.15625 
Q 38.03125 58.90625 38.03125 54.203125 
Q 38.03125 49.5 36.828125 46.25 
Q 35.625 43 33.578125 41 
Q 31.53125 39 28.671875 38.09375 
Q 25.828125 37.203125 22.53125 37.203125 
Q 19.21875 37.203125 16.375 38.09375 
Q 13.53125 39 11.46875 41 
Q 9.421875 43 8.21875 46.25 
Q 7.03125 49.5 7.03125 54.203125 
z
M 14.421875 54.203125 
Q 14.421875 48.203125 16.5625 45.59375 
Q 18.71875 43 22.53125 43 
Q 24.421875 43 25.921875 43.546875 
Q 27.421875 44.09375 28.46875 45.34375 
Q 29.53125 46.59375 30.078125 48.75 
Q 30.625 50.90625 30.625 54.203125 
Q 30.625 57.5 30.078125 59.640625 
Q 29.53125 61.796875 28.46875 63.046875 
Q 27.421875 64.296875 25.921875 64.84375 
Q 24.421875 65.40625 22.53125 65.40625 
Q 18.71875 65.40625 16.5625 63.046875 
Q 14.421875 60.703125 14.421875 54.203125 
z
M 42.65625 17.203125 
Q 42.65625 21.703125 43.84375 24.890625 
Q 45.046875 28.09375 47.09375 30.1875 
Q 49.15625 32.296875 52 33.25 
Q 54.84375 34.203125 58.15625 34.203125 
Q 61.453125 34.203125 64.296875 33.296875 
Q 67.15625 32.40625 69.203125 30.40625 
Q 71.25 28.40625 72.453125 25.15625 
Q 73.65625 21.90625 73.65625 17.203125 
Q 73.65625 12.5 72.453125 9.25 
Q 71.25 6 69.203125 4 
Q 67.15625 2 64.296875 1.09375 
Q 61.453125 0.203125 58.15625 0.203125 
Q 54.84375 0.203125 52 1.09375 
Q 49.15625 2 47.09375 4 
Q 45.046875 6 43.84375 9.25 
Q 42.65625 12.5 42.65625 17.203125 
z
M 50.046875 17.203125 
Q 50.046875 11.203125 52.1875 8.59375 
Q 54.34375 6 58.15625 6 
Q 60.046875 6 61.546875 6.546875 
Q 63.046875 7.09375 64.09375 8.34375 
Q 65.15625 9.59375 65.703125 11.75 
Q 66.25 13.90625 66.25 17.203125 
Q 66.25 20.5 65.703125 22.640625 
Q 65.15625 24.796875 64.09375 26.046875 
Q 63.046875 27.296875 61.546875 27.84375 
Q 60.046875 28.40625 58.15625 28.40625 
Q 54.34375 28.40625 52.1875 26.046875 
Q 50.046875 23.703125 50.046875 17.203125 
z
M 63.65625 71.296875 
L 68.546875 67.5 
L 17.25 -1.203125 
L 12.25 2.703125 
z
" id="PTSans-Regular-25"/>
    </defs>
    <g style="fill:#ffffff;" transform="translate(242.810585 143.125527)scale(0.14 -0.14)">
     <use xlink:href="#PTSans-Regular-36"/>
     <use x="54.499985" xlink:href="#PTSans-Regular-37"/>
     <use x="108.828094" xlink:href="#PTSans-Regular-2e"/>
     <use x="130.228088" xlink:href="#PTSans-Regular-39"/>
     <use x="184.728073" xlink:href="#PTSans-Regular-25"/>
    </g>
   </g>
   <g id="text_2">
    <!-- Україна -->
    <defs>
     <path d="M 28.203125 33.09375 
L 30.796875 24.203125 
L 31.296875 24.203125 
L 33.296875 33.40625 
L 46.703125 70 
L 55.203125 70 
L 37.5 24.5 
Q 34.796875 17.40625 32.75 12.65625 
Q 30.703125 7.90625 28.59375 4.953125 
Q 26.5 2 24.09375 0.75 
Q 21.703125 -0.5 18.203125 -0.5 
Q 14.90625 -0.5 12.953125 0.046875 
Q 11 0.59375 9.296875 1.703125 
L 11.796875 8.59375 
Q 13.796875 7.5 15.5 7.203125 
Q 17.203125 6.90625 18.59375 6.90625 
Q 21.40625 6.90625 23.296875 9.75 
Q 25.203125 12.59375 26.59375 18.203125 
L 0.703125 70 
L 10.296875 70 
z
" id="PTSans-Regular-423"/>
     <path d="M 20.296875 22.5 
L 15.703125 22.5 
L 15.703125 0 
L 7.703125 0 
L 7.703125 50 
L 15.703125 50 
L 15.703125 27.40625 
L 20 28.796875 
L 36 50 
L 44.703125 50 
L 29.203125 29.90625 
L 25 26.59375 
L 30.203125 22.59375 
L 46.90625 0 
L 37 0 
z
" id="PTSans-Regular-43a"/>
     <path d="M 7.703125 50 
L 13.203125 50 
L 14.703125 44 
L 15.09375 44 
Q 17.40625 47.5 21.046875 49.34375 
Q 24.703125 51.203125 29.40625 51.203125 
Q 39.40625 51.203125 44.296875 45.296875 
Q 49.203125 39.40625 49.203125 26 
Q 49.203125 19.703125 47.546875 14.640625 
Q 45.90625 9.59375 42.90625 6.09375 
Q 39.90625 2.59375 35.65625 0.6875 
Q 31.40625 -1.203125 26.203125 -1.203125 
Q 22.5 -1.203125 20.34375 -0.75 
Q 18.203125 -0.296875 15.703125 0.796875 
L 15.703125 -20 
L 7.703125 -20 
z
M 27.90625 44.203125 
Q 22.796875 44.203125 19.84375 41.546875 
Q 16.90625 38.90625 15.703125 33.5 
L 15.703125 8.703125 
Q 17.5 7.296875 19.796875 6.546875 
Q 22.09375 5.796875 25.90625 5.796875 
Q 32.796875 5.796875 36.84375 10.9375 
Q 40.90625 16.09375 40.90625 26.09375 
Q 40.90625 30.203125 40.203125 33.546875 
Q 39.5 36.90625 37.953125 39.25 
Q 36.40625 41.59375 33.953125 42.890625 
Q 31.5 44.203125 27.90625 44.203125 
z
" id="PTSans-Regular-440"/>
     <path d="M 6.90625 46.296875 
Q 10.703125 48.59375 15.75 49.6875 
Q 20.796875 50.796875 26.296875 50.796875 
Q 31.5 50.796875 34.640625 49.390625 
Q 37.796875 48 39.4375 45.75 
Q 41.09375 43.5 41.640625 40.796875 
Q 42.203125 38.09375 42.203125 35.40625 
Q 42.203125 29.40625 41.890625 23.703125 
Q 41.59375 18 41.59375 12.90625 
Q 41.59375 9.203125 41.890625 5.890625 
Q 42.203125 2.59375 43 -0.203125 
L 37.09375 -0.203125 
L 35 6.796875 
L 34.5 6.796875 
Q 33.59375 5.40625 32.25 4.046875 
Q 30.90625 2.703125 29 1.640625 
Q 27.09375 0.59375 24.59375 -0.09375 
Q 22.09375 -0.796875 18.90625 -0.796875 
Q 15.703125 -0.796875 12.953125 0.203125 
Q 10.203125 1.203125 8.203125 3.046875 
Q 6.203125 4.90625 5.046875 7.5 
Q 3.90625 10.09375 3.90625 13.40625 
Q 3.90625 17.796875 5.703125 20.75 
Q 7.5 23.703125 10.75 25.453125 
Q 14 27.203125 18.546875 27.953125 
Q 23.09375 28.703125 28.59375 28.703125 
Q 30 28.703125 31.34375 28.703125 
Q 32.703125 28.703125 34.09375 28.5 
Q 34.40625 31.5 34.40625 33.90625 
Q 34.40625 39.40625 32.203125 41.59375 
Q 30 43.796875 24.203125 43.796875 
Q 22.5 43.796875 20.546875 43.546875 
Q 18.59375 43.296875 16.546875 42.84375 
Q 14.5 42.40625 12.640625 41.75 
Q 10.796875 41.09375 9.40625 40.296875 
z
M 21.09375 6.203125 
Q 23.90625 6.203125 26.09375 6.953125 
Q 28.296875 7.703125 29.890625 8.84375 
Q 31.5 10 32.546875 11.390625 
Q 33.59375 12.796875 34.09375 14.09375 
L 34.09375 22.40625 
Q 32.703125 22.5 31.25 22.546875 
Q 29.796875 22.59375 28.40625 22.59375 
Q 25.296875 22.59375 22.34375 22.25 
Q 19.40625 21.90625 17.15625 20.953125 
Q 14.90625 20 13.546875 18.34375 
Q 12.203125 16.703125 12.203125 14.203125 
Q 12.203125 10.703125 14.703125 8.453125 
Q 17.203125 6.203125 21.09375 6.203125 
z
" id="PTSans-Regular-430"/>
     <path d="M 2.90625 65.296875 
Q 2.90625 67.59375 4.15625 68.9375 
Q 5.40625 70.296875 7.703125 70.296875 
Q 9.90625 70.296875 11.203125 68.9375 
Q 12.5 67.59375 12.5 65.296875 
Q 12.5 63.203125 11.203125 61.796875 
Q 9.90625 60.40625 7.703125 60.40625 
Q 5.40625 60.40625 4.15625 61.796875 
Q 2.90625 63.203125 2.90625 65.296875 
z
M 15.40625 65.296875 
Q 15.40625 67.59375 16.65625 68.9375 
Q 17.90625 70.296875 20.09375 70.296875 
Q 22.40625 70.296875 23.703125 68.9375 
Q 25 67.59375 25 65.296875 
Q 25 63.203125 23.703125 61.796875 
Q 22.40625 60.40625 20.09375 60.40625 
Q 17.90625 60.40625 16.65625 61.796875 
Q 15.40625 63.203125 15.40625 65.296875 
z
M 9.796875 50 
L 17.796875 50 
L 17.796875 0 
L 9.796875 0 
z
" id="PTSans-Regular-457"/>
     <path d="M 38.296875 22.09375 
L 15.703125 22.09375 
L 15.703125 0 
L 7.703125 0 
L 7.703125 50 
L 15.703125 50 
L 15.703125 29.09375 
L 38.296875 29.09375 
L 38.296875 50 
L 46.296875 50 
L 46.296875 0 
L 38.296875 0 
z
" id="PTSans-Regular-43d"/>
    </defs>
    <g transform="translate(205.868639 97.68)scale(0.2016 -0.2016)">
     <use xlink:href="#PTSans-Regular-423"/>
     <use x="55.299988" xlink:href="#PTSans-Regular-43a"/>
     <use x="103.099976" xlink:href="#PTSans-Regular-440"/>
     <use x="157.199966" xlink:href="#PTSans-Regular-430"/>
     <use x="206.799957" xlink:href="#PTSans-Regular-457"/>
     <use x="234.599945" xlink:href="#PTSans-Regular-43d"/>
     <use x="288.59993" xlink:href="#PTSans-Regular-430"/>
    </g>
   </g>
  </g>
  <g id="axes_2">
   <g id="patch_49">
    <path d="M 69.12 803.52 
L 410.792727 803.52 
L 410.792727 485.410909 
L 69.12 485.410909 
z
" style="fill:#f0f0f0;"/>
   </g>
   <g id="matplotlib.axis_3"/>
   <g id="matplotlib.axis_4"/>
   <g id="patch_50">
    <path clip-path="url(#p5e710f66fe)" d="M 94.176 801.399273 
L 135.176727 801.399273 
L 135.176727 763.226182 
L 94.176 763.226182 
z
" style="fill:none;stroke:#0064a4;stroke-linejoin:miter;stroke-width:2;"/>
   </g>
   <g id="patch_51">
    <path clip-path="url(#p5e710f66fe)" d="M 94.176 758.984727 
L 135.176727 758.984727 
L 135.176727 720.811636 
L 94.176 720.811636 
z
" style="fill:none;stroke:#0064a4;stroke-linejoin:miter;stroke-width:2;"/>
   </g>
   <g id="patch_52">
    <path clip-path="url(#p5e710f66fe)" d="M 94.176 716.570182 
L 135.176727 716.570182 
L 135.176727 678.397091 
L 94.176 678.397091 
z
" style="fill:none;stroke:#0064a4;stroke-linejoin:miter;stroke-width:2;"/>
   </g>
   <g id="patch_53">
    <path clip-path="url(#p5e710f66fe)" d="M 94.176 674.155636 
L 135.176727 674.155636 
L 135.176727 635.982545 
L 94.176 635.982545 
z
" style="fill:none;stroke:#0064a4;stroke-linejoin:miter;stroke-width:2;"/>
   </g>
   <g id="patch_54">
    <path clip-path="url(#p5e710f66fe)" d="M 94.176 631.741091 
L 135.176727 631.741091 
L 135.176727 593.568 
L 94.176 593.568 
z
" style="fill:none;stroke:#0064a4;stroke-linejoin:miter;stroke-width:2;"/>
   </g>
   <g id="patch_55">
    <path clip-path="url(#p5e710f66fe)" d="M 139.732364 801.399273 
L 180.733091 801.399273 
L 180.733091 763.226182 
L 139.732364 763.226182 
z
" style="fill:none;stroke:#56ba00;stroke-linejoin:miter;stroke-width:2;"/>
   </g>
   <g id="patch_56">
    <path clip-path="url(#p5e710f66fe)" d="M 139.732364 758.984727 
L 180.733091 758.984727 
L 180.733091 720.811636 
L 139.732364 720.811636 
z
" style="fill:none;stroke:#56ba00;stroke-linejoin:miter;stroke-width:2;"/>
   </g>
   <g id="patch_57">
    <path clip-path="url(#p5e710f66fe)" d="M 139.732364 716.570182 
L 180.733091 716.570182 
L 180.733091 678.397091 
L 139.732364 678.397091 
z
" style="fill:none;stroke:#56ba00;stroke-linejoin:miter;stroke-width:2;"/>
   </g>
   <g id="patch_58">
    <path clip-path="url(#p5e710f66fe)" d="M 139.732364 674.155636 
L 180.733091 674.155636 
L 180.733091 635.982545 
L 139.732364 635.982545 
z
" style="fill:none;stroke:#56ba00;stroke-linejoin:miter;stroke-width:2;"/>
   </g>
   <g id="patch_59">
    <path clip-path="url(#p5e710f66fe)" d="M 139.732364 631.741091 
L 180.733091 631.741091 
L 180.733091 593.568 
L 139.732364 593.568 
z
" style="fill:none;stroke:#56ba00;stroke-linejoin:miter;stroke-width:2;"/>
   </g>
   <g id="patch_60">
    <path clip-path="url(#p5e710f66fe)" d="M 185.288727 801.399273 
L 226.289455 801.399273 
L 226.289455 763.226182 
L 185.288727 763.226182 
z
" style="fill:none;stroke:#ffa103;stroke-linejoin:miter;stroke-width:2;"/>
   </g>
   <g id="patch_61">
    <path clip-path="url(#p5e710f66fe)" d="M 185.288727 758.984727 
L 226.289455 758.984727 
L 226.289455 720.811636 
L 185.288727 720.811636 
z
" style="fill:none;stroke:#ffa103;stroke-linejoin:miter;stroke-width:2;"/>
   </g>
   <g id="patch_62">
    <path clip-path="url(#p5e710f66fe)" d="M 185.288727 716.570182 
L 226.289455 716.570182 
L 226.289455 678.397091 
L 185.288727 678.397091 
z
" style="fill:none;stroke:#ffa103;stroke-linejoin:miter;stroke-width:2;"/>
   </g>
   <g id="patch_63">
    <path clip-path="url(#p5e710f66fe)" d="M 230.845091 801.399273 
L 271.845818 801.399273 
L 271.845818 763.226182 
L 230.845091 763.226182 
z
" style="fill:none;stroke:#ff2445;stroke-linejoin:miter;stroke-width:2;"/>
   </g>
   <g id="patch_64">
    <path clip-path="url(#p5e710f66fe)" d="M 230.845091 758.984727 
L 271.845818 758.984727 
L 271.845818 720.811636 
L 230.845091 720.811636 
z
" style="fill:none;stroke:#ff2445;stroke-linejoin:miter;stroke-width:2;"/>
   </g>
   <g id="patch_65">
    <path clip-path="url(#p5e710f66fe)" d="M 230.845091 716.570182 
L 271.845818 716.570182 
L 271.845818 678.397091 
L 230.845091 678.397091 
z
" style="fill:none;stroke:#ff2445;stroke-linejoin:miter;stroke-width:2;"/>
   </g>
   <g id="patch_66">
    <path clip-path="url(#p5e710f66fe)" d="M 276.401455 801.399273 
L 317.402182 801.399273 
L 317.402182 763.226182 
L 276.401455 763.226182 
z
" style="fill:none;stroke:#7500b4;stroke-linejoin:miter;stroke-width:2;"/>
   </g>
   <g id="patch_67">
    <path clip-path="url(#p5e710f66fe)" d="M 276.401455 758.984727 
L 317.402182 758.984727 
L 317.402182 720.811636 
L 276.401455 720.811636 
z
" style="fill:none;stroke:#7500b4;stroke-linejoin:miter;stroke-width:2;"/>
   </g>
   <g id="patch_68">
    <path clip-path="url(#p5e710f66fe)" d="M 94.176 801.399273 
L 135.176727 801.399273 
L 135.176727 763.226182 
L 94.176 763.226182 
z
" style="fill:#0064a4;opacity:0.7;"/>
   </g>
   <g id="patch_69">
    <path clip-path="url(#p5e710f66fe)" d="M 94.176 758.984727 
L 135.176727 758.984727 
L 135.176727 720.811636 
L 94.176 720.811636 
z
" style="fill:#0064a4;opacity:0.7;"/>
   </g>
   <g id="patch_70">
    <path clip-path="url(#p5e710f66fe)" d="M 94.176 716.570182 
L 135.176727 716.570182 
L 135.176727 678.397091 
L 94.176 678.397091 
z
" style="fill:#0064a4;opacity:0.7;"/>
   </g>
   <g id="patch_71">
    <path clip-path="url(#p5e710f66fe)" d="M 94.176 674.155636 
L 135.176727 674.155636 
L 135.176727 635.982545 
L 94.176 635.982545 
z
" style="fill:#0064a4;opacity:0.7;"/>
   </g>
   <g id="patch_72">
    <path clip-path="url(#p5e710f66fe)" d="M 94.176 631.741091 
L 135.176727 631.741091 
L 135.176727 593.568 
L 94.176 593.568 
z
" style="fill:#0064a4;opacity:0.7;"/>
   </g>
   <g id="patch_73">
    <path clip-path="url(#p5e710f66fe)" d="M 139.732364 801.399273 
L 180.733091 801.399273 
L 180.733091 763.226182 
L 139.732364 763.226182 
z
" style="fill:#56ba00;opacity:0.7;"/>
   </g>
   <g id="patch_74">
    <path clip-path="url(#p5e710f66fe)" d="M 139.732364 758.984727 
L 180.733091 758.984727 
L 180.733091 720.811636 
L 139.732364 720.811636 
z
" style="fill:#56ba00;opacity:0.7;"/>
   </g>
   <g id="patch_75">
    <path clip-path="url(#p5e710f66fe)" d="M 139.732364 716.570182 
L 180.733091 716.570182 
L 180.733091 678.397091 
L 139.732364 678.397091 
z
" style="fill:#56ba00;opacity:0.7;"/>
   </g>
   <g id="patch_76">
    <path clip-path="url(#p5e710f66fe)" d="M 185.288727 801.399273 
L 226.289455 801.399273 
L 226.289455 763.226182 
L 185.288727 763.226182 
z
" style="fill:#ffa103;opacity:0.7;"/>
   </g>
   <g id="patch_77">
    <path clip-path="url(#p5e710f66fe)" d="M 185.288727 758.984727 
L 226.289455 758.984727 
L 226.289455 720.811636 
L 185.288727 720.811636 
z
" style="fill:#ffa103;opacity:0.7;"/>
   </g>
   <g id="patch_78">
    <path clip-path="url(#p5e710f66fe)" d="M 185.288727 716.570182 
L 226.289455 716.570182 
L 226.289455 678.397091 
L 185.288727 678.397091 
z
" style="fill:#ffa103;opacity:0.7;"/>
   </g>
   <g id="patch_79">
    <path clip-path="url(#p5e710f66fe)" d="M 230.845091 801.399273 
L 271.845818 801.399273 
L 271.845818 763.226182 
L 230.845091 763.226182 
z
" style="fill:#ff2445;opacity:0.7;"/>
   </g>
   <g id="patch_80">
    <path clip-path="url(#p5e710f66fe)" d="M 230.845091 758.984727 
L 271.845818 758.984727 
L 271.845818 720.811636 
L 230.845091 720.811636 
z
" style="fill:#ff2445;opacity:0.7;"/>
   </g>
   <g id="patch_81">
    <path clip-path="url(#p5e710f66fe)" d="M 230.845091 716.570182 
L 271.845818 716.570182 
L 271.845818 678.397091 
L 230.845091 678.397091 
z
" style="fill:#ff2445;opacity:0.7;"/>
   </g>
   <g id="patch_82">
    <path clip-path="url(#p5e710f66fe)" d="M 276.401455 801.399273 
L 317.402182 801.399273 
L 317.402182 763.226182 
L 276.401455 763.226182 
z
" style="fill:#7500b4;opacity:0.7;"/>
   </g>
   <g id="patch_83">
    <path clip-path="url(#p5e710f66fe)" d="M 344.736 801.399273 
L 385.736727 801.399273 
L 385.736727 763.226182 
L 344.736 763.226182 
z
" style="fill:#0064a4;opacity:0.7;"/>
   </g>
   <g id="patch_84">
    <path clip-path="url(#p5e710f66fe)" d="M 344.736 758.984727 
L 385.736727 758.984727 
L 385.736727 720.811636 
L 344.736 720.811636 
z
" style="fill:#0064a4;opacity:0.7;"/>
   </g>
   <g id="patch_85">
    <path clip-path="url(#p5e710f66fe)" d="M 344.736 716.570182 
L 385.736727 716.570182 
L 385.736727 678.397091 
L 344.736 678.397091 
z
" style="fill:#ff2445;opacity:0.7;"/>
   </g>
   <g id="patch_86">
    <path clip-path="url(#p5e710f66fe)" d="M 91.898182 527.825455 
L 388.014545 527.825455 
L 388.014545 510.859636 
L 91.898182 510.859636 
z
" style="fill:none;stroke:#808080;stroke-linejoin:miter;"/>
   </g>
   <g id="patch_87">
    <path clip-path="url(#p5e710f66fe)" d="M 91.898182 527.825455 
L 263.661217 527.825455 
L 263.661217 510.859636 
L 91.898182 510.859636 
z
" style="fill:#808080;opacity:0.5;stroke:#808080;stroke-linejoin:miter;"/>
   </g>
   <g id="patch_88">
    <path d="M 69.12 803.52 
L 69.12 485.410909 
" style="fill:none;stroke:#f0f0f0;stroke-linecap:square;stroke-linejoin:miter;stroke-width:3;"/>
   </g>
   <g id="patch_89">
    <path d="M 410.792727 803.52 
L 410.792727 485.410909 
" style="fill:none;stroke:#f0f0f0;stroke-linecap:square;stroke-linejoin:miter;stroke-width:3;"/>
   </g>
   <g id="patch_90">
    <path d="M 69.12 803.52 
L 410.792727 803.52 
" style="fill:none;stroke:#f0f0f0;stroke-linecap:square;stroke-linejoin:miter;stroke-width:3;"/>
   </g>
   <g id="patch_91">
    <path d="M 69.12 485.410909 
L 410.792727 485.410909 
" style="fill:none;stroke:#f0f0f0;stroke-linecap:square;stroke-linejoin:miter;stroke-width:3;"/>
   </g>
   <g id="text_3">
    <!-- 58.0% -->
    <defs>
     <path d="M 21.296875 5.796875 
Q 28.203125 5.796875 32.703125 9.796875 
Q 37.203125 13.796875 37.203125 21.40625 
Q 37.203125 28.703125 32.75 32.296875 
Q 28.296875 35.90625 20.5 35.90625 
L 12.09375 35.40625 
L 12.09375 70 
L 43.296875 70 
L 43.296875 62.59375 
L 19.59375 62.59375 
L 19.59375 42.703125 
L 23.90625 42.90625 
Q 33.796875 42.796875 39.5 37.390625 
Q 45.203125 32 45.203125 21.90625 
Q 45.203125 16.296875 43.296875 11.9375 
Q 41.40625 7.59375 38.15625 4.6875 
Q 34.90625 1.796875 30.5 0.296875 
Q 26.09375 -1.203125 21.09375 -1.203125 
Q 16.59375 -1.203125 13.5 -0.703125 
Q 10.40625 -0.203125 7.703125 0.796875 
L 9.796875 7.59375 
Q 12.09375 6.703125 14.75 6.25 
Q 17.40625 5.796875 21.296875 5.796875 
z
" id="PTSans-Regular-35"/>
     <path d="M 6.796875 16.703125 
Q 6.796875 23 10.09375 27.640625 
Q 13.40625 32.296875 20.40625 36.09375 
Q 17.90625 37.59375 15.75 39.25 
Q 13.59375 40.90625 11.9375 43 
Q 10.296875 45.09375 9.34375 47.6875 
Q 8.40625 50.296875 8.40625 53.703125 
Q 8.40625 57.59375 9.75 60.796875 
Q 11.09375 64 13.640625 66.296875 
Q 16.203125 68.59375 19.75 69.890625 
Q 23.296875 71.203125 27.796875 71.203125 
Q 32 71.203125 35.390625 70 
Q 38.796875 68.796875 41.140625 66.6875 
Q 43.5 64.59375 44.796875 61.6875 
Q 46.09375 58.796875 46.09375 55.296875 
Q 46.09375 49.59375 43.5 45.25 
Q 40.90625 40.90625 34.90625 36.703125 
Q 37.5 35.203125 39.84375 33.390625 
Q 42.203125 31.59375 43.953125 29.390625 
Q 45.703125 27.203125 46.703125 24.453125 
Q 47.703125 21.703125 47.703125 18.203125 
Q 47.703125 13.90625 46.296875 10.34375 
Q 44.90625 6.796875 42.203125 4.25 
Q 39.5 1.703125 35.59375 0.25 
Q 31.703125 -1.203125 26.703125 -1.203125 
Q 21.90625 -1.203125 18.203125 0.1875 
Q 14.5 1.59375 11.953125 4 
Q 9.40625 6.40625 8.09375 9.65625 
Q 6.796875 12.90625 6.796875 16.703125 
z
M 39.90625 17.703125 
Q 39.90625 20.703125 38.703125 22.953125 
Q 37.5 25.203125 35.546875 27.046875 
Q 33.59375 28.90625 31.09375 30.40625 
Q 28.59375 31.90625 25.90625 33.296875 
Q 19.796875 29.90625 17.1875 25.703125 
Q 14.59375 21.5 14.59375 17.703125 
Q 14.59375 15.296875 15.390625 13.09375 
Q 16.203125 10.90625 17.796875 9.296875 
Q 19.40625 7.703125 21.75 6.75 
Q 24.09375 5.796875 27.203125 5.796875 
Q 29.703125 5.796875 32 6.546875 
Q 34.296875 7.296875 36.046875 8.75 
Q 37.796875 10.203125 38.84375 12.453125 
Q 39.90625 14.703125 39.90625 17.703125 
z
M 16.203125 53.90625 
Q 16.203125 51.09375 17.296875 48.9375 
Q 18.40625 46.796875 20.25 45.09375 
Q 22.09375 43.40625 24.5 41.953125 
Q 26.90625 40.5 29.5 39.203125 
Q 34 42.703125 36.140625 46.09375 
Q 38.296875 49.5 38.296875 53.59375 
Q 38.296875 58.703125 35.140625 61.453125 
Q 32 64.203125 27.59375 64.203125 
Q 24.90625 64.203125 22.796875 63.296875 
Q 20.703125 62.40625 19.203125 61 
Q 17.703125 59.59375 16.953125 57.75 
Q 16.203125 55.90625 16.203125 53.90625 
z
" id="PTSans-Regular-38"/>
     <path d="M 4.296875 35 
Q 4.296875 53 10.140625 62.09375 
Q 16 71.203125 27.203125 71.203125 
Q 39.296875 71.203125 44.75 62.25 
Q 50.203125 53.296875 50.203125 35 
Q 50.203125 17 44.34375 7.890625 
Q 38.5 -1.203125 27.203125 -1.203125 
Q 15.296875 -1.203125 9.796875 8.296875 
Q 4.296875 17.796875 4.296875 35 
z
M 12.59375 35 
Q 12.59375 28.5 13.4375 23.140625 
Q 14.296875 17.796875 16.09375 13.9375 
Q 17.90625 10.09375 20.65625 7.9375 
Q 23.40625 5.796875 27.203125 5.796875 
Q 34.796875 5.796875 38.34375 12.84375 
Q 41.90625 19.90625 41.90625 35 
Q 41.90625 41.40625 41.15625 46.796875 
Q 40.40625 52.203125 38.65625 56.09375 
Q 36.90625 60 34.09375 62.09375 
Q 31.296875 64.203125 27.203125 64.203125 
Q 19.703125 64.203125 16.140625 57.09375 
Q 12.59375 50 12.59375 35 
z
" id="PTSans-Regular-30"/>
    </defs>
    <g style="fill:#ffffff;" transform="translate(213.549217 524.856436)scale(0.14 -0.14)">
     <use xlink:href="#PTSans-Regular-35"/>
     <use x="54.499985" xlink:href="#PTSans-Regular-38"/>
     <use x="108.999969" xlink:href="#PTSans-Regular-2e"/>
     <use x="130.399963" xlink:href="#PTSans-Regular-30"/>
     <use x="184.899948" xlink:href="#PTSans-Regular-25"/>
    </g>
   </g>
   <g id="text_4">
    <!-- Німеччина -->
    <defs>
     <path d="M 50.40625 32.09375 
L 16.796875 32.09375 
L 16.796875 0 
L 8.5 0 
L 8.5 70 
L 16.796875 70 
L 16.796875 39.5 
L 50.40625 39.5 
L 50.40625 70 
L 58.703125 70 
L 58.703125 0 
L 50.40625 0 
z
" id="PTSans-Regular-41d"/>
     <path d="M 9.40625 50 
L 17.40625 50 
L 17.40625 0 
L 9.40625 0 
z
M 7.703125 65.203125 
Q 7.703125 67.5 9.25 69.140625 
Q 10.796875 70.796875 13.203125 70.796875 
Q 15.59375 70.796875 17.296875 69.140625 
Q 19 67.5 19 65.203125 
Q 19 62.90625 17.296875 61.40625 
Q 15.59375 59.90625 13.203125 59.90625 
Q 10.796875 59.90625 9.25 61.40625 
Q 7.703125 62.90625 7.703125 65.203125 
z
" id="PTSans-Regular-456"/>
     <path d="M 49 29.703125 
L 49.59375 39.203125 
L 49.09375 39.203125 
L 45.5 31.5 
L 33.40625 11.90625 
L 30.59375 11.90625 
L 18 31.5 
L 14.703125 39.203125 
L 14.296875 39.203125 
L 15.09375 29.796875 
L 15.09375 0 
L 7.703125 0 
L 7.703125 50 
L 15.59375 50 
L 29.59375 27.59375 
L 32.5 21.796875 
L 32.703125 21.796875 
L 35.703125 27.796875 
L 48.796875 50 
L 56.796875 50 
L 56.796875 0 
L 49 0 
z
" id="PTSans-Regular-43c"/>
     <path d="M 44.203125 4 
Q 41.203125 1.59375 36.640625 0.1875 
Q 32.09375 -1.203125 27 -1.203125 
Q 21.296875 -1.203125 17.09375 0.640625 
Q 12.90625 2.5 10.203125 5.953125 
Q 7.5 9.40625 6.203125 14.203125 
Q 4.90625 19 4.90625 25 
Q 4.90625 37.796875 10.59375 44.5 
Q 16.296875 51.203125 26.90625 51.203125 
Q 30.296875 51.203125 33.6875 50.453125 
Q 37.09375 49.703125 39.796875 47.59375 
Q 42.5 45.5 44.203125 41.640625 
Q 45.90625 37.796875 45.90625 31.5 
Q 45.90625 28.203125 45.296875 24.203125 
L 13.203125 24.203125 
Q 13.203125 19.796875 14.09375 16.390625 
Q 15 13 16.890625 10.640625 
Q 18.796875 8.296875 21.84375 7.046875 
Q 24.90625 5.796875 29.296875 5.796875 
Q 32.703125 5.796875 36.09375 7 
Q 39.5 8.203125 41.203125 9.796875 
z
M 27 44.203125 
Q 21.09375 44.203125 17.546875 41.09375 
Q 14 38 13.296875 30.5 
L 38.09375 30.5 
Q 38.09375 38.09375 35.1875 41.140625 
Q 32.296875 44.203125 27 44.203125 
z
" id="PTSans-Regular-435"/>
     <path d="M 12.90625 50 
L 12.90625 36.40625 
Q 12.90625 33.703125 13.203125 31.546875 
Q 13.5 29.40625 14.390625 27.84375 
Q 15.296875 26.296875 17 25.4375 
Q 18.703125 24.59375 21.5 24.59375 
Q 26 24.59375 28.890625 25.59375 
Q 31.796875 26.59375 33.296875 27.796875 
L 33.296875 50 
L 41.296875 50 
L 41.296875 0 
L 33.296875 0 
L 33.296875 21 
Q 31.703125 20 28.546875 18.796875 
Q 25.40625 17.59375 19.90625 17.59375 
Q 16.203125 17.59375 13.390625 18.390625 
Q 10.59375 19.203125 8.6875 21.203125 
Q 6.796875 23.203125 5.84375 26.5 
Q 4.90625 29.796875 4.90625 34.796875 
L 4.90625 50 
z
" id="PTSans-Regular-447"/>
     <path d="M 38.90625 29.59375 
L 39.203125 35.796875 
L 38.90625 35.796875 
L 34.796875 29.40625 
L 12.296875 0 
L 7.703125 0 
L 7.703125 50 
L 15.703125 50 
L 15.703125 19.5 
L 15.40625 13.59375 
L 15.796875 13.59375 
L 19.703125 19.796875 
L 42.203125 50 
L 46.90625 50 
L 46.90625 0 
L 38.90625 0 
z
" id="PTSans-Regular-438"/>
    </defs>
    <g transform="translate(193.035539 479.410909)scale(0.2016 -0.2016)">
     <use xlink:href="#PTSans-Regular-41d"/>
     <use x="67.199997" xlink:href="#PTSans-Regular-456"/>
     <use x="93.999985" xlink:href="#PTSans-Regular-43c"/>
     <use x="158.499969" xlink:href="#PTSans-Regular-435"/>
     <use x="209.299957" xlink:href="#PTSans-Regular-447"/>
     <use x="258.299942" xlink:href="#PTSans-Regular-447"/>
     <use x="307.299927" xlink:href="#PTSans-Regular-438"/>
     <use x="361.899918" xlink:href="#PTSans-Regular-43d"/>
     <use x="415.899902" xlink:href="#PTSans-Regular-430"/>
    </g>
   </g>
  </g>
  <g id="axes_3">
   <g id="patch_92">
    <path d="M 479.127273 803.52 
L 820.8 803.52 
L 820.8 485.410909 
L 479.127273 485.410909 
z
" style="fill:#f0f0f0;"/>
   </g>
   <g id="matplotlib.axis_5"/>
   <g id="matplotlib.axis_6"/>
   <g id="patch_93">
    <path clip-path="url(#paee1e518c7)" d="M 504.183273 801.399273 
L 545.184 801.399273 
L 545.184 763.226182 
L 504.183273 763.226182 
z
" style="fill:none;stroke:#0064a4;stroke-linejoin:miter;stroke-width:2;"/>
   </g>
   <g id="patch_94">
    <path clip-path="url(#paee1e518c7)" d="M 504.183273 758.984727 
L 545.184 758.984727 
L 545.184 720.811636 
L 504.183273 720.811636 
z
" style="fill:none;stroke:#0064a4;stroke-linejoin:miter;stroke-width:2;"/>
   </g>
   <g id="patch_95">
    <path clip-path="url(#paee1e518c7)" d="M 504.183273 716.570182 
L 545.184 716.570182 
L 545.184 678.397091 
L 504.183273 678.397091 
z
" style="fill:none;stroke:#0064a4;stroke-linejoin:miter;stroke-width:2;"/>
   </g>
   <g id="patch_96">
    <path clip-path="url(#paee1e518c7)" d="M 504.183273 674.155636 
L 545.184 674.155636 
L 545.184 635.982545 
L 504.183273 635.982545 
z
" style="fill:none;stroke:#0064a4;stroke-linejoin:miter;stroke-width:2;"/>
   </g>
   <g id="patch_97">
    <path clip-path="url(#paee1e518c7)" d="M 504.183273 631.741091 
L 545.184 631.741091 
L 545.184 593.568 
L 504.183273 593.568 
z
" style="fill:none;stroke:#0064a4;stroke-linejoin:miter;stroke-width:2;"/>
   </g>
   <g id="patch_98">
    <path clip-path="url(#paee1e518c7)" d="M 549.739636 801.399273 
L 590.740364 801.399273 
L 590.740364 763.226182 
L 549.739636 763.226182 
z
" style="fill:none;stroke:#56ba00;stroke-linejoin:miter;stroke-width:2;"/>
   </g>
   <g id="patch_99">
    <path clip-path="url(#paee1e518c7)" d="M 549.739636 758.984727 
L 590.740364 758.984727 
L 590.740364 720.811636 
L 549.739636 720.811636 
z
" style="fill:none;stroke:#56ba00;stroke-linejoin:miter;stroke-width:2;"/>
   </g>
   <g id="patch_100">
    <path clip-path="url(#paee1e518c7)" d="M 549.739636 716.570182 
L 590.740364 716.570182 
L 590.740364 678.397091 
L 549.739636 678.397091 
z
" style="fill:none;stroke:#56ba00;stroke-linejoin:miter;stroke-width:2;"/>
   </g>
   <g id="patch_101">
    <path clip-path="url(#paee1e518c7)" d="M 549.739636 674.155636 
L 590.740364 674.155636 
L 590.740364 635.982545 
L 549.739636 635.982545 
z
" style="fill:none;stroke:#56ba00;stroke-linejoin:miter;stroke-width:2;"/>
   </g>
   <g id="patch_102">
    <path clip-path="url(#paee1e518c7)" d="M 549.739636 631.741091 
L 590.740364 631.741091 
L 590.740364 593.568 
L 549.739636 593.568 
z
" style="fill:none;stroke:#56ba00;stroke-linejoin:miter;stroke-width:2;"/>
   </g>
   <g id="patch_103">
    <path clip-path="url(#paee1e518c7)" d="M 595.296 801.399273 
L 636.296727 801.399273 
L 636.296727 763.226182 
L 595.296 763.226182 
z
" style="fill:none;stroke:#ffa103;stroke-linejoin:miter;stroke-width:2;"/>
   </g>
   <g id="patch_104">
    <path clip-path="url(#paee1e518c7)" d="M 595.296 758.984727 
L 636.296727 758.984727 
L 636.296727 720.811636 
L 595.296 720.811636 
z
" style="fill:none;stroke:#ffa103;stroke-linejoin:miter;stroke-width:2;"/>
   </g>
   <g id="patch_105">
    <path clip-path="url(#paee1e518c7)" d="M 595.296 716.570182 
L 636.296727 716.570182 
L 636.296727 678.397091 
L 595.296 678.397091 
z
" style="fill:none;stroke:#ffa103;stroke-linejoin:miter;stroke-width:2;"/>
   </g>
   <g id="patch_106">
    <path clip-path="url(#paee1e518c7)" d="M 640.852364 801.399273 
L 681.853091 801.399273 
L 681.853091 763.226182 
L 640.852364 763.226182 
z
" style="fill:none;stroke:#ff2445;stroke-linejoin:miter;stroke-width:2;"/>
   </g>
   <g id="patch_107">
    <path clip-path="url(#paee1e518c7)" d="M 640.852364 758.984727 
L 681.853091 758.984727 
L 681.853091 720.811636 
L 640.852364 720.811636 
z
" style="fill:none;stroke:#ff2445;stroke-linejoin:miter;stroke-width:2;"/>
   </g>
   <g id="patch_108">
    <path clip-path="url(#paee1e518c7)" d="M 640.852364 716.570182 
L 681.853091 716.570182 
L 681.853091 678.397091 
L 640.852364 678.397091 
z
" style="fill:none;stroke:#ff2445;stroke-linejoin:miter;stroke-width:2;"/>
   </g>
   <g id="patch_109">
    <path clip-path="url(#paee1e518c7)" d="M 686.408727 801.399273 
L 727.409455 801.399273 
L 727.409455 763.226182 
L 686.408727 763.226182 
z
" style="fill:none;stroke:#7500b4;stroke-linejoin:miter;stroke-width:2;"/>
   </g>
   <g id="patch_110">
    <path clip-path="url(#paee1e518c7)" d="M 686.408727 758.984727 
L 727.409455 758.984727 
L 727.409455 720.811636 
L 686.408727 720.811636 
z
" style="fill:none;stroke:#7500b4;stroke-linejoin:miter;stroke-width:2;"/>
   </g>
   <g id="patch_111">
    <path clip-path="url(#paee1e518c7)" d="M 504.183273 801.399273 
L 545.184 801.399273 
L 545.184 763.226182 
L 504.183273 763.226182 
z
" style="fill:#0064a4;opacity:0.7;"/>
   </g>
   <g id="patch_112">
    <path clip-path="url(#paee1e518c7)" d="M 504.183273 758.984727 
L 545.184 758.984727 
L 545.184 720.811636 
L 504.183273 720.811636 
z
" style="fill:#0064a4;opacity:0.7;"/>
   </g>
   <g id="patch_113">
    <path clip-path="url(#paee1e518c7)" d="M 504.183273 716.570182 
L 545.184 716.570182 
L 545.184 678.397091 
L 504.183273 678.397091 
z
" style="fill:#0064a4;opacity:0.7;"/>
   </g>
   <g id="patch_114">
    <path clip-path="url(#paee1e518c7)" d="M 504.183273 674.155636 
L 545.184 674.155636 
L 545.184 635.982545 
L 504.183273 635.982545 
z
" style="fill:#0064a4;opacity:0.7;"/>
   </g>
   <g id="patch_115">
    <path clip-path="url(#paee1e518c7)" d="M 504.183273 631.741091 
L 545.184 631.741091 
L 545.184 593.568 
L 504.183273 593.568 
z
" style="fill:#0064a4;opacity:0.7;"/>
   </g>
   <g id="patch_116">
    <path clip-path="url(#paee1e518c7)" d="M 549.739636 801.399273 
L 590.740364 801.399273 
L 590.740364 763.226182 
L 549.739636 763.226182 
z
" style="fill:#56ba00;opacity:0.7;"/>
   </g>
   <g id="patch_117">
    <path clip-path="url(#paee1e518c7)" d="M 549.739636 758.984727 
L 590.740364 758.984727 
L 590.740364 720.811636 
L 549.739636 720.811636 
z
" style="fill:#56ba00;opacity:0.7;"/>
   </g>
   <g id="patch_118">
    <path clip-path="url(#paee1e518c7)" d="M 549.739636 716.570182 
L 590.740364 716.570182 
L 590.740364 678.397091 
L 549.739636 678.397091 
z
" style="fill:#56ba00;opacity:0.7;"/>
   </g>
   <g id="patch_119">
    <path clip-path="url(#paee1e518c7)" d="M 595.296 801.399273 
L 636.296727 801.399273 
L 636.296727 763.226182 
L 595.296 763.226182 
z
" style="fill:#ffa103;opacity:0.7;"/>
   </g>
   <g id="patch_120">
    <path clip-path="url(#paee1e518c7)" d="M 595.296 758.984727 
L 636.296727 758.984727 
L 636.296727 720.811636 
L 595.296 720.811636 
z
" style="fill:#ffa103;opacity:0.7;"/>
   </g>
   <g id="patch_121">
    <path clip-path="url(#paee1e518c7)" d="M 595.296 716.570182 
L 636.296727 716.570182 
L 636.296727 678.397091 
L 595.296 678.397091 
z
" style="fill:#ffa103;opacity:0.7;"/>
   </g>
   <g id="patch_122">
    <path clip-path="url(#paee1e518c7)" d="M 640.852364 801.399273 
L 681.853091 801.399273 
L 681.853091 763.226182 
L 640.852364 763.226182 
z
" style="fill:#ff2445;opacity:0.7;"/>
   </g>
   <g id="patch_123">
    <path clip-path="url(#paee1e518c7)" d="M 640.852364 758.984727 
L 681.853091 758.984727 
L 681.853091 720.811636 
L 640.852364 720.811636 
z
" style="fill:#ff2445;opacity:0.7;"/>
   </g>
   <g id="patch_124">
    <path clip-path="url(#paee1e518c7)" d="M 640.852364 716.570182 
L 681.853091 716.570182 
L 681.853091 678.397091 
L 640.852364 678.397091 
z
" style="fill:#ff2445;opacity:0.7;"/>
   </g>
   <g id="patch_125">
    <path clip-path="url(#paee1e518c7)" d="M 686.408727 801.399273 
L 727.409455 801.399273 
L 727.409455 763.226182 
L 686.408727 763.226182 
z
" style="fill:#7500b4;opacity:0.7;"/>
   </g>
   <g id="patch_126">
    <path clip-path="url(#paee1e518c7)" d="M 754.743273 801.399273 
L 795.744 801.399273 
L 795.744 763.226182 
L 754.743273 763.226182 
z
" style="fill:#0064a4;opacity:0.7;"/>
   </g>
   <g id="patch_127">
    <path clip-path="url(#paee1e518c7)" d="M 754.743273 758.984727 
L 795.744 758.984727 
L 795.744 720.811636 
L 754.743273 720.811636 
z
" style="fill:#0064a4;opacity:0.7;"/>
   </g>
   <g id="patch_128">
    <path clip-path="url(#paee1e518c7)" d="M 754.743273 716.570182 
L 795.744 716.570182 
L 795.744 678.397091 
L 754.743273 678.397091 
z
" style="fill:#ff2445;opacity:0.7;"/>
   </g>
   <g id="patch_129">
    <path clip-path="url(#paee1e518c7)" d="M 501.905455 527.825455 
L 798.021818 527.825455 
L 798.021818 510.859636 
L 501.905455 510.859636 
z
" style="fill:none;stroke:#808080;stroke-linejoin:miter;"/>
   </g>
   <g id="patch_130">
    <path clip-path="url(#paee1e518c7)" d="M 501.905455 527.825455 
L 670.14776 527.825455 
L 670.14776 510.859636 
L 501.905455 510.859636 
z
" style="fill:#808080;opacity:0.5;stroke:#808080;stroke-linejoin:miter;"/>
   </g>
   <g id="patch_131">
    <path d="M 479.127273 803.52 
L 479.127273 485.410909 
" style="fill:none;stroke:#f0f0f0;stroke-linecap:square;stroke-linejoin:miter;stroke-width:3;"/>
   </g>
   <g id="patch_132">
    <path d="M 820.8 803.52 
L 820.8 485.410909 
" style="fill:none;stroke:#f0f0f0;stroke-linecap:square;stroke-linejoin:miter;stroke-width:3;"/>
   </g>
   <g id="patch_133">
    <path d="M 479.127273 803.52 
L 820.8 803.52 
" style="fill:none;stroke:#f0f0f0;stroke-linecap:square;stroke-linejoin:miter;stroke-width:3;"/>
   </g>
   <g id="patch_134">
    <path d="M 479.127273 485.410909 
L 820.8 485.410909 
" style="fill:none;stroke:#f0f0f0;stroke-linecap:square;stroke-linejoin:miter;stroke-width:3;"/>
   </g>
   <g id="text_5">
    <!-- 56.8% -->
    <g style="fill:#ffffff;" transform="translate(620.03576 524.856436)scale(0.14 -0.14)">
     <use xlink:href="#PTSans-Regular-35"/>
     <use x="54.499985" xlink:href="#PTSans-Regular-36"/>
     <use x="108.999969" xlink:href="#PTSans-Regular-2e"/>
     <use x="130.399963" xlink:href="#PTSans-Regular-38"/>
     <use x="184.899948" xlink:href="#PTSans-Regular-25"/>
    </g>
   </g>
   <g id="text_6">
    <!-- Сполучені Штати -->
    <defs>
     <path d="M 53.296875 2.90625 
Q 50.296875 0.59375 45.6875 -0.296875 
Q 41.09375 -1.203125 35.90625 -1.203125 
Q 29.59375 -1.203125 24.09375 0.9375 
Q 18.59375 3.09375 14.5 7.5 
Q 10.40625 11.90625 8 18.75 
Q 5.59375 25.59375 5.59375 35 
Q 5.59375 44.796875 8.25 51.640625 
Q 10.90625 58.5 15.25 62.84375 
Q 19.59375 67.203125 25 69.203125 
Q 30.40625 71.203125 36 71.203125 
Q 42 71.203125 45.796875 70.546875 
Q 49.59375 69.90625 52.296875 68.796875 
L 50.296875 61.5 
Q 45.5 63.796875 36.59375 63.796875 
Q 32.5 63.796875 28.5 62.296875 
Q 24.5 60.796875 21.34375 57.390625 
Q 18.203125 54 16.296875 48.5 
Q 14.40625 43 14.40625 35 
Q 14.40625 27.796875 16.203125 22.390625 
Q 18 17 21.140625 13.390625 
Q 24.296875 9.796875 28.546875 8 
Q 32.796875 6.203125 37.796875 6.203125 
Q 42.296875 6.203125 45.640625 7.09375 
Q 49 8 51.296875 9.40625 
z
" id="PTSans-Regular-421"/>
     <path d="M 37.796875 43 
L 15.703125 43 
L 15.703125 0 
L 7.703125 0 
L 7.703125 50 
L 45.796875 50 
L 45.796875 0 
L 37.796875 0 
z
" id="PTSans-Regular-43f"/>
     <path d="M 4.90625 25 
Q 4.90625 37.703125 10.546875 44.453125 
Q 16.203125 51.203125 26.796875 51.203125 
Q 32.40625 51.203125 36.546875 49.34375 
Q 40.703125 47.5 43.390625 44.046875 
Q 46.09375 40.59375 47.390625 35.75 
Q 48.703125 30.90625 48.703125 25 
Q 48.703125 12.296875 43.046875 5.546875 
Q 37.40625 -1.203125 26.796875 -1.203125 
Q 21.203125 -1.203125 17.046875 0.640625 
Q 12.90625 2.5 10.203125 5.953125 
Q 7.5 9.40625 6.203125 14.25 
Q 4.90625 19.09375 4.90625 25 
z
M 13.203125 25 
Q 13.203125 21.203125 13.953125 17.703125 
Q 14.703125 14.203125 16.296875 11.59375 
Q 17.90625 9 20.5 7.390625 
Q 23.09375 5.796875 26.796875 5.796875 
Q 40.40625 5.703125 40.40625 25 
Q 40.40625 28.90625 39.65625 32.40625 
Q 38.90625 35.90625 37.296875 38.5 
Q 35.703125 41.09375 33.09375 42.640625 
Q 30.5 44.203125 26.796875 44.203125 
Q 13.203125 44.296875 13.203125 25 
z
" id="PTSans-Regular-43e"/>
     <path d="M 34.59375 43 
L 20.09375 43 
Q 19.796875 38.796875 19.5 33.9375 
Q 19.203125 29.09375 18.59375 24.25 
Q 18 19.40625 17 14.953125 
Q 16 10.5 14.453125 7.09375 
Q 12.90625 3.703125 10.65625 1.640625 
Q 8.40625 -0.40625 5.296875 -0.40625 
Q 3.40625 -0.40625 2 -0.203125 
Q 0.59375 0 -0.5 0.5 
L 0.703125 7.203125 
Q 1.90625 6.796875 3.296875 6.796875 
Q 5.296875 6.796875 6.890625 8.5 
Q 8.5 10.203125 9.703125 14.953125 
Q 10.90625 19.703125 11.703125 28.09375 
Q 12.5 36.5 12.796875 50 
L 42.59375 50 
L 42.59375 0 
L 34.59375 0 
z
" id="PTSans-Regular-43b"/>
     <path d="M 22.40625 17.59375 
L 25.203125 8 
L 25.703125 8 
L 27.90625 17.703125 
L 37.59375 50 
L 45.703125 50 
L 30.90625 5.09375 
Q 29.203125 0.203125 27.546875 -4.390625 
Q 25.90625 -9 23.90625 -12.59375 
Q 21.90625 -16.203125 19.40625 -18.34375 
Q 16.90625 -20.5 13.59375 -20.5 
Q 10 -20.5 7.703125 -19.5 
L 9.09375 -12.59375 
Q 10.40625 -13.09375 11.59375 -13.09375 
Q 14.40625 -13.09375 17 -10.140625 
Q 19.59375 -7.203125 21.296875 0 
L 1.203125 50 
L 10.40625 50 
z
" id="PTSans-Regular-443"/>
     <path id="PTSans-Regular-20"/>
     <path d="M 8.5 0 
L 8.5 70 
L 16.796875 70 
L 16.796875 7.40625 
L 39.703125 7.40625 
L 39.703125 70 
L 48 70 
L 48 7.40625 
L 70.90625 7.40625 
L 70.90625 70 
L 79.203125 70 
L 79.203125 0 
z
" id="PTSans-Regular-428"/>
     <path d="M 39.59375 43 
L 23.90625 43 
L 23.90625 0 
L 15.90625 0 
L 15.90625 43 
L 0.203125 43 
L 0.203125 50 
L 39.59375 50 
z
" id="PTSans-Regular-442"/>
    </defs>
    <g transform="translate(575.385811 479.410909)scale(0.2016 -0.2016)">
     <use xlink:href="#PTSans-Regular-421"/>
     <use x="57.099991" xlink:href="#PTSans-Regular-43f"/>
     <use x="110.599976" xlink:href="#PTSans-Regular-43e"/>
     <use x="164.199966" xlink:href="#PTSans-Regular-43b"/>
     <use x="214.499954" xlink:href="#PTSans-Regular-443"/>
     <use x="261.099945" xlink:href="#PTSans-Regular-447"/>
     <use x="310.09993" xlink:href="#PTSans-Regular-435"/>
     <use x="360.899918" xlink:href="#PTSans-Regular-43d"/>
     <use x="414.899902" xlink:href="#PTSans-Regular-456"/>
     <use x="441.69989" xlink:href="#PTSans-Regular-20"/>
     <use x="468.399887" xlink:href="#PTSans-Regular-428"/>
     <use x="556.099869" xlink:href="#PTSans-Regular-442"/>
     <use x="595.899857" xlink:href="#PTSans-Regular-430"/>
     <use x="645.499847" xlink:href="#PTSans-Regular-442"/>
     <use x="685.299835" xlink:href="#PTSans-Regular-438"/>
    </g>
   </g>
  </g>
 </g>
 <defs>
  <clipPath id="pee38a196c7">
   <rect height="318.109091" width="341.672727" x="69.12" y="103.68"/>
  </clipPath>
  <clipPath id="p5e710f66fe">
   <rect height="318.109091" width="341.672727" x="69.12" y="485.410909"/>
  </clipPath>
  <clipPath id="paee1e518c7">
   <rect height="318.109091" width="341.672727" x="479.127273" y="485.410909"/>
  </clipPath>
 </defs>
</svg>
