<?xml version="1.0" encoding="utf-8" standalone="no"?>
<!DOCTYPE svg PUBLIC "-//W3C//DTD SVG 1.1//EN"
  "http://www.w3.org/Graphics/SVG/1.1/DTD/svg11.dtd">
<!-- Created with matplotlib (http://matplotlib.org/) -->
<svg height="504pt" version="1.1" viewBox="0 0 1152 504" width="1152pt" xmlns="http://www.w3.org/2000/svg" xmlns:xlink="http://www.w3.org/1999/xlink">
 <defs>
  <style type="text/css">
*{stroke-linecap:butt;stroke-linejoin:round;}
  </style>
 </defs>
 <g id="figure_1">
  <g id="patch_1">
   <path d="M 0 504 
L 1152 504 
L 1152 0 
L 0 0 
z
" style="fill:#f0f0f0;"/>
  </g>
  <g id="axes_1">
   <g id="patch_2">
    <path d="M 92.16 468.72 
L 1094.4 468.72 
L 1094.4 60.48 
L 92.16 60.48 
z
" style="fill:#f0f0f0;"/>
   </g>
   <g id="matplotlib.axis_1">
    <g id="text_1">
     <!-- Місце країни в рейтингу — від найбідніших до найбагатших -->
     <defs>
      <path d="M 62.296875 47 
L 63.296875 57.5 
L 62.796875 57.5 
L 59 47.90625 
L 40.796875 16.296875 
L 38.296875 16.296875 
L 19 48 
L 15.40625 57.5 
L 14.90625 57.5 
L 16.296875 47.09375 
L 16.296875 0 
L 8.5 0 
L 8.5 70 
L 14.703125 70 
L 36.59375 34.203125 
L 39.90625 26.40625 
L 40.09375 26.40625 
L 43.203125 34.40625 
L 64.09375 70 
L 70.59375 70 
L 70.59375 0 
L 62.296875 0 
z
" id="PTSans-Regular-41c"/>
      <path d="M 9.40625 50 
L 17.40625 50 
L 17.40625 0 
L 9.40625 0 
z
M 7.703125 65.203125 
Q 7.703125 67.5 9.25 69.140625 
Q 10.796875 70.796875 13.203125 70.796875 
Q 15.59375 70.796875 17.296875 69.140625 
Q 19 67.5 19 65.203125 
Q 19 62.90625 17.296875 61.40625 
Q 15.59375 59.90625 13.203125 59.90625 
Q 10.796875 59.90625 9.25 61.40625 
Q 7.703125 62.90625 7.703125 65.203125 
z
" id="PTSans-Regular-456"/>
      <path d="M 41.796875 3.296875 
Q 38.796875 1.09375 34.6875 -0.046875 
Q 30.59375 -1.203125 26.09375 -1.203125 
Q 20.296875 -1.203125 16.296875 0.640625 
Q 12.296875 2.5 9.75 5.953125 
Q 7.203125 9.40625 6.046875 14.25 
Q 4.90625 19.09375 4.90625 25 
Q 4.90625 37.703125 10.5 44.453125 
Q 16.09375 51.203125 26.59375 51.203125 
Q 31.40625 51.203125 34.75 50.453125 
Q 38.09375 49.703125 40.796875 48.296875 
L 38.5 41.40625 
Q 36.203125 42.703125 33.390625 43.453125 
Q 30.59375 44.203125 27.40625 44.203125 
Q 13.203125 44.203125 13.203125 25 
Q 13.203125 21.203125 13.953125 17.75 
Q 14.703125 14.296875 16.453125 11.640625 
Q 18.203125 9 21.046875 7.390625 
Q 23.90625 5.796875 28.09375 5.796875 
Q 31.703125 5.796875 34.546875 6.890625 
Q 37.40625 8 39.203125 9.40625 
z
" id="PTSans-Regular-441"/>
      <path d="M 52.59375 -12.703125 
L 47.203125 -12.703125 
L 45.703125 0 
L 7.703125 0 
L 7.703125 50 
L 15.703125 50 
L 15.703125 7 
L 37.40625 7 
L 37.40625 50 
L 45.40625 50 
L 45.40625 7 
L 52.59375 7 
z
" id="PTSans-Regular-446"/>
      <path d="M 44.203125 4 
Q 41.203125 1.59375 36.640625 0.1875 
Q 32.09375 -1.203125 27 -1.203125 
Q 21.296875 -1.203125 17.09375 0.640625 
Q 12.90625 2.5 10.203125 5.953125 
Q 7.5 9.40625 6.203125 14.203125 
Q 4.90625 19 4.90625 25 
Q 4.90625 37.796875 10.59375 44.5 
Q 16.296875 51.203125 26.90625 51.203125 
Q 30.296875 51.203125 33.6875 50.453125 
Q 37.09375 49.703125 39.796875 47.59375 
Q 42.5 45.5 44.203125 41.640625 
Q 45.90625 37.796875 45.90625 31.5 
Q 45.90625 28.203125 45.296875 24.203125 
L 13.203125 24.203125 
Q 13.203125 19.796875 14.09375 16.390625 
Q 15 13 16.890625 10.640625 
Q 18.796875 8.296875 21.84375 7.046875 
Q 24.90625 5.796875 29.296875 5.796875 
Q 32.703125 5.796875 36.09375 7 
Q 39.5 8.203125 41.203125 9.796875 
z
M 27 44.203125 
Q 21.09375 44.203125 17.546875 41.09375 
Q 14 38 13.296875 30.5 
L 38.09375 30.5 
Q 38.09375 38.09375 35.1875 41.140625 
Q 32.296875 44.203125 27 44.203125 
z
" id="PTSans-Regular-435"/>
      <path id="PTSans-Regular-20"/>
      <path d="M 20.296875 22.5 
L 15.703125 22.5 
L 15.703125 0 
L 7.703125 0 
L 7.703125 50 
L 15.703125 50 
L 15.703125 27.40625 
L 20 28.796875 
L 36 50 
L 44.703125 50 
L 29.203125 29.90625 
L 25 26.59375 
L 30.203125 22.59375 
L 46.90625 0 
L 37 0 
z
" id="PTSans-Regular-43a"/>
      <path d="M 7.703125 50 
L 13.203125 50 
L 14.703125 44 
L 15.09375 44 
Q 17.40625 47.5 21.046875 49.34375 
Q 24.703125 51.203125 29.40625 51.203125 
Q 39.40625 51.203125 44.296875 45.296875 
Q 49.203125 39.40625 49.203125 26 
Q 49.203125 19.703125 47.546875 14.640625 
Q 45.90625 9.59375 42.90625 6.09375 
Q 39.90625 2.59375 35.65625 0.6875 
Q 31.40625 -1.203125 26.203125 -1.203125 
Q 22.5 -1.203125 20.34375 -0.75 
Q 18.203125 -0.296875 15.703125 0.796875 
L 15.703125 -20 
L 7.703125 -20 
z
M 27.90625 44.203125 
Q 22.796875 44.203125 19.84375 41.546875 
Q 16.90625 38.90625 15.703125 33.5 
L 15.703125 8.703125 
Q 17.5 7.296875 19.796875 6.546875 
Q 22.09375 5.796875 25.90625 5.796875 
Q 32.796875 5.796875 36.84375 10.9375 
Q 40.90625 16.09375 40.90625 26.09375 
Q 40.90625 30.203125 40.203125 33.546875 
Q 39.5 36.90625 37.953125 39.25 
Q 36.40625 41.59375 33.953125 42.890625 
Q 31.5 44.203125 27.90625 44.203125 
z
" id="PTSans-Regular-440"/>
      <path d="M 6.90625 46.296875 
Q 10.703125 48.59375 15.75 49.6875 
Q 20.796875 50.796875 26.296875 50.796875 
Q 31.5 50.796875 34.640625 49.390625 
Q 37.796875 48 39.4375 45.75 
Q 41.09375 43.5 41.640625 40.796875 
Q 42.203125 38.09375 42.203125 35.40625 
Q 42.203125 29.40625 41.890625 23.703125 
Q 41.59375 18 41.59375 12.90625 
Q 41.59375 9.203125 41.890625 5.890625 
Q 42.203125 2.59375 43 -0.203125 
L 37.09375 -0.203125 
L 35 6.796875 
L 34.5 6.796875 
Q 33.59375 5.40625 32.25 4.046875 
Q 30.90625 2.703125 29 1.640625 
Q 27.09375 0.59375 24.59375 -0.09375 
Q 22.09375 -0.796875 18.90625 -0.796875 
Q 15.703125 -0.796875 12.953125 0.203125 
Q 10.203125 1.203125 8.203125 3.046875 
Q 6.203125 4.90625 5.046875 7.5 
Q 3.90625 10.09375 3.90625 13.40625 
Q 3.90625 17.796875 5.703125 20.75 
Q 7.5 23.703125 10.75 25.453125 
Q 14 27.203125 18.546875 27.953125 
Q 23.09375 28.703125 28.59375 28.703125 
Q 30 28.703125 31.34375 28.703125 
Q 32.703125 28.703125 34.09375 28.5 
Q 34.40625 31.5 34.40625 33.90625 
Q 34.40625 39.40625 32.203125 41.59375 
Q 30 43.796875 24.203125 43.796875 
Q 22.5 43.796875 20.546875 43.546875 
Q 18.59375 43.296875 16.546875 42.84375 
Q 14.5 42.40625 12.640625 41.75 
Q 10.796875 41.09375 9.40625 40.296875 
z
M 21.09375 6.203125 
Q 23.90625 6.203125 26.09375 6.953125 
Q 28.296875 7.703125 29.890625 8.84375 
Q 31.5 10 32.546875 11.390625 
Q 33.59375 12.796875 34.09375 14.09375 
L 34.09375 22.40625 
Q 32.703125 22.5 31.25 22.546875 
Q 29.796875 22.59375 28.40625 22.59375 
Q 25.296875 22.59375 22.34375 22.25 
Q 19.40625 21.90625 17.15625 20.953125 
Q 14.90625 20 13.546875 18.34375 
Q 12.203125 16.703125 12.203125 14.203125 
Q 12.203125 10.703125 14.703125 8.453125 
Q 17.203125 6.203125 21.09375 6.203125 
z
" id="PTSans-Regular-430"/>
      <path d="M 2.90625 65.296875 
Q 2.90625 67.59375 4.15625 68.9375 
Q 5.40625 70.296875 7.703125 70.296875 
Q 9.90625 70.296875 11.203125 68.9375 
Q 12.5 67.59375 12.5 65.296875 
Q 12.5 63.203125 11.203125 61.796875 
Q 9.90625 60.40625 7.703125 60.40625 
Q 5.40625 60.40625 4.15625 61.796875 
Q 2.90625 63.203125 2.90625 65.296875 
z
M 15.40625 65.296875 
Q 15.40625 67.59375 16.65625 68.9375 
Q 17.90625 70.296875 20.09375 70.296875 
Q 22.40625 70.296875 23.703125 68.9375 
Q 25 67.59375 25 65.296875 
Q 25 63.203125 23.703125 61.796875 
Q 22.40625 60.40625 20.09375 60.40625 
Q 17.90625 60.40625 16.65625 61.796875 
Q 15.40625 63.203125 15.40625 65.296875 
z
M 9.796875 50 
L 17.796875 50 
L 17.796875 0 
L 9.796875 0 
z
" id="PTSans-Regular-457"/>
      <path d="M 38.296875 22.09375 
L 15.703125 22.09375 
L 15.703125 0 
L 7.703125 0 
L 7.703125 50 
L 15.703125 50 
L 15.703125 29.09375 
L 38.296875 29.09375 
L 38.296875 50 
L 46.296875 50 
L 46.296875 0 
L 38.296875 0 
z
" id="PTSans-Regular-43d"/>
      <path d="M 38.90625 29.59375 
L 39.203125 35.796875 
L 38.90625 35.796875 
L 34.796875 29.40625 
L 12.296875 0 
L 7.703125 0 
L 7.703125 50 
L 15.703125 50 
L 15.703125 19.5 
L 15.40625 13.59375 
L 15.796875 13.59375 
L 19.703125 19.796875 
L 42.203125 50 
L 46.90625 50 
L 46.90625 0 
L 38.90625 0 
z
" id="PTSans-Regular-438"/>
      <path d="M 7.703125 49.90625 
Q 11.203125 50.09375 15.046875 50.390625 
Q 18.90625 50.703125 24.59375 50.703125 
Q 34.5 50.703125 38.796875 47.640625 
Q 43.09375 44.59375 43.09375 38.40625 
Q 43.09375 34.90625 41.046875 31.546875 
Q 39 28.203125 34.296875 26.59375 
L 34.296875 26.203125 
Q 40.203125 25.09375 42.59375 22.09375 
Q 45 19.09375 45 14.09375 
Q 45 6.296875 39.390625 2.796875 
Q 33.796875 -0.703125 22.59375 -0.703125 
Q 18.40625 -0.703125 14.796875 -0.453125 
Q 11.203125 -0.203125 7.703125 0.09375 
z
M 15.703125 6.703125 
Q 17.59375 6.5 19.4375 6.390625 
Q 21.296875 6.296875 23.796875 6.296875 
Q 30.5 6.296875 33.75 8.1875 
Q 37 10.09375 37 14.703125 
Q 37 18.296875 34.25 20.546875 
Q 31.5 22.796875 24.5 22.796875 
L 15.703125 22.796875 
z
M 25.5 28.90625 
Q 27.296875 28.90625 29 29.5 
Q 30.703125 30.09375 32.046875 31.140625 
Q 33.40625 32.203125 34.25 33.59375 
Q 35.09375 35 35.09375 36.59375 
Q 35.09375 40.59375 32.6875 42.140625 
Q 30.296875 43.703125 24.296875 43.703125 
Q 21.09375 43.703125 19.25 43.59375 
Q 17.40625 43.5 15.703125 43.40625 
L 15.703125 28.90625 
z
" id="PTSans-Regular-432"/>
      <path d="M 38.90625 29.59375 
L 39.203125 35.796875 
L 38.90625 35.796875 
L 34.796875 29.40625 
L 12.296875 0 
L 7.703125 0 
L 7.703125 50 
L 15.703125 50 
L 15.703125 19.5 
L 15.40625 13.59375 
L 15.796875 13.59375 
L 19.703125 19.796875 
L 42.203125 50 
L 46.90625 50 
L 46.90625 0 
L 38.90625 0 
z
M 19.171875 70.203125 
Q 20.171875 65.59375 22.625 63.796875 
Q 25.078125 62 28.28125 62 
Q 31.46875 62 33.96875 63.890625 
Q 36.46875 65.796875 37.375 70.09375 
L 43.375 68.203125 
Q 42.46875 62.40625 38.21875 59.296875 
Q 33.96875 56.203125 28.078125 56.203125 
Q 25.375 56.203125 22.71875 56.890625 
Q 20.078125 57.59375 17.96875 59 
Q 15.875 60.40625 14.375 62.59375 
Q 12.875 64.796875 12.375 67.796875 
z
" id="PTSans-Regular-439"/>
      <path d="M 39.59375 43 
L 23.90625 43 
L 23.90625 0 
L 15.90625 0 
L 15.90625 43 
L 0.203125 43 
L 0.203125 50 
L 39.59375 50 
z
" id="PTSans-Regular-442"/>
      <path d="M 36.90625 43 
L 15.703125 43 
L 15.703125 0 
L 7.703125 0 
L 7.703125 50 
L 36.90625 50 
z
" id="PTSans-Regular-433"/>
      <path d="M 22.40625 17.59375 
L 25.203125 8 
L 25.703125 8 
L 27.90625 17.703125 
L 37.59375 50 
L 45.703125 50 
L 30.90625 5.09375 
Q 29.203125 0.203125 27.546875 -4.390625 
Q 25.90625 -9 23.90625 -12.59375 
Q 21.90625 -16.203125 19.40625 -18.34375 
Q 16.90625 -20.5 13.59375 -20.5 
Q 10 -20.5 7.703125 -19.5 
L 9.09375 -12.59375 
Q 10.40625 -13.09375 11.59375 -13.09375 
Q 14.40625 -13.09375 17 -10.140625 
Q 19.59375 -7.203125 21.296875 0 
L 1.203125 50 
L 10.40625 50 
z
" id="PTSans-Regular-443"/>
      <path d="M 11.796875 32.5 
L 70.203125 32.5 
L 70.203125 25.09375 
L 11.796875 25.09375 
z
" id="PTSans-Regular-2014"/>
      <path d="M 51.90625 -12.703125 
L 46.5 -12.703125 
L 45 0 
L 7.40625 0 
L 5.90625 -12.703125 
L 0.5 -12.703125 
L 0.5 7 
L 6.40625 7 
Q 7.203125 8.09375 8.5 10.9375 
Q 9.796875 13.796875 11.046875 18.9375 
Q 12.296875 24.09375 13.25 31.75 
Q 14.203125 39.40625 14.40625 50 
L 44.59375 50 
L 44.59375 7 
L 51.90625 7 
z
M 36.59375 7 
L 36.59375 43 
L 21.59375 43 
Q 21.40625 38.796875 20.90625 33.84375 
Q 20.40625 28.90625 19.546875 23.953125 
Q 18.703125 19 17.390625 14.59375 
Q 16.09375 10.203125 14.40625 7 
z
" id="PTSans-Regular-434"/>
      <path d="M 12.296875 41.09375 
Q 15.59375 45.90625 19.59375 47.84375 
Q 23.59375 49.796875 29.59375 49.796875 
Q 38.796875 49.796875 43.75 43.796875 
Q 48.703125 37.796875 48.703125 26.09375 
Q 48.703125 12.59375 42.953125 5.6875 
Q 37.203125 -1.203125 26.90625 -1.203125 
Q 15.90625 -1.203125 10.40625 6.390625 
Q 4.90625 14 4.90625 30.296875 
Q 4.90625 38.90625 5.75 45 
Q 6.59375 51.09375 8.25 55.296875 
Q 9.90625 59.5 12.25 62 
Q 14.59375 64.5 17.546875 65.953125 
Q 20.5 67.40625 24 68 
Q 27.5 68.59375 31.5 69 
Q 36.703125 69.5 39.640625 70.140625 
Q 42.59375 70.796875 44.40625 72.5 
L 45.296875 65.296875 
Q 44.296875 64.40625 43.09375 63.796875 
Q 41.90625 63.203125 40.203125 62.796875 
Q 38.5 62.40625 36.140625 62.09375 
Q 33.796875 61.796875 30.703125 61.59375 
Q 26.40625 61.296875 23.15625 60.546875 
Q 19.90625 59.796875 17.546875 57.640625 
Q 15.203125 55.5 13.84375 51.546875 
Q 12.5 47.59375 12 41.09375 
z
M 13.203125 24.90625 
Q 13.203125 21.09375 14 17.59375 
Q 14.796875 14.09375 16.4375 11.4375 
Q 18.09375 8.796875 20.6875 7.296875 
Q 23.296875 5.796875 26.796875 5.796875 
Q 33.703125 5.796875 37.046875 10.75 
Q 40.40625 15.703125 40.40625 25.40625 
Q 40.40625 29.203125 39.703125 32.390625 
Q 39 35.59375 37.5 37.9375 
Q 36 40.296875 33.703125 41.546875 
Q 31.40625 42.796875 28.203125 42.796875 
Q 20.40625 42.90625 16.796875 38.25 
Q 13.203125 33.59375 13.203125 24.90625 
z
" id="PTSans-Regular-431"/>
      <path d="M 7.703125 0 
L 7.703125 50 
L 15.703125 50 
L 15.703125 7 
L 32.796875 7 
L 32.796875 50 
L 40.796875 50 
L 40.796875 7 
L 57.90625 7 
L 57.90625 50 
L 65.90625 50 
L 65.90625 0 
z
" id="PTSans-Regular-448"/>
      <path d="M 20.796875 25.59375 
L 4 50 
L 13.796875 50 
L 23.296875 36.203125 
L 26.09375 30.5 
L 29 36.203125 
L 38.703125 50 
L 47.703125 50 
L 30.796875 26 
L 48.703125 0 
L 39.203125 0 
L 28.59375 15.203125 
L 25.59375 21.203125 
L 22.5 15.203125 
L 11.703125 0 
L 2.796875 0 
z
" id="PTSans-Regular-445"/>
      <path d="M 4.90625 25 
Q 4.90625 37.703125 10.546875 44.453125 
Q 16.203125 51.203125 26.796875 51.203125 
Q 32.40625 51.203125 36.546875 49.34375 
Q 40.703125 47.5 43.390625 44.046875 
Q 46.09375 40.59375 47.390625 35.75 
Q 48.703125 30.90625 48.703125 25 
Q 48.703125 12.296875 43.046875 5.546875 
Q 37.40625 -1.203125 26.796875 -1.203125 
Q 21.203125 -1.203125 17.046875 0.640625 
Q 12.90625 2.5 10.203125 5.953125 
Q 7.5 9.40625 6.203125 14.25 
Q 4.90625 19.09375 4.90625 25 
z
M 13.203125 25 
Q 13.203125 21.203125 13.953125 17.703125 
Q 14.703125 14.203125 16.296875 11.59375 
Q 17.90625 9 20.5 7.390625 
Q 23.09375 5.796875 26.796875 5.796875 
Q 40.40625 5.703125 40.40625 25 
Q 40.40625 28.90625 39.65625 32.40625 
Q 38.90625 35.90625 37.296875 38.5 
Q 35.703125 41.09375 33.09375 42.640625 
Q 30.5 44.203125 26.796875 44.203125 
Q 13.203125 44.296875 13.203125 25 
z
" id="PTSans-Regular-43e"/>
     </defs>
     <g transform="translate(593.28 500.9)scale(0.168 -0.168)">
      <use xlink:href="#PTSans-Regular-41c"/>
      <use x="79.099991" xlink:href="#PTSans-Regular-456"/>
      <use x="105.899979" xlink:href="#PTSans-Regular-441"/>
      <use x="150.999969" xlink:href="#PTSans-Regular-446"/>
      <use x="205.799957" xlink:href="#PTSans-Regular-435"/>
      <use x="256.599945" xlink:href="#PTSans-Regular-20"/>
      <use x="283.299942" xlink:href="#PTSans-Regular-43a"/>
      <use x="331.09993" xlink:href="#PTSans-Regular-440"/>
      <use x="385.199921" xlink:href="#PTSans-Regular-430"/>
      <use x="434.799911" xlink:href="#PTSans-Regular-457"/>
      <use x="462.599899" xlink:href="#PTSans-Regular-43d"/>
      <use x="516.599884" xlink:href="#PTSans-Regular-438"/>
      <use x="571.199875" xlink:href="#PTSans-Regular-20"/>
      <use x="597.899872" xlink:href="#PTSans-Regular-432"/>
      <use x="647.799866" xlink:href="#PTSans-Regular-20"/>
      <use x="674.499863" xlink:href="#PTSans-Regular-440"/>
      <use x="728.599854" xlink:href="#PTSans-Regular-435"/>
      <use x="779.399841" xlink:href="#PTSans-Regular-439"/>
      <use x="833.999832" xlink:href="#PTSans-Regular-442"/>
      <use x="873.79982" xlink:href="#PTSans-Regular-438"/>
      <use x="928.399811" xlink:href="#PTSans-Regular-43d"/>
      <use x="982.399796" xlink:href="#PTSans-Regular-433"/>
      <use x="1019.299789" xlink:href="#PTSans-Regular-443"/>
      <use x="1065.89978" xlink:href="#PTSans-Regular-20"/>
      <use x="1092.474777" xlink:href="#PTSans-Regular-2014"/>
      <use x="1174.474762" xlink:href="#PTSans-Regular-20"/>
      <use x="1201.174759" xlink:href="#PTSans-Regular-432"/>
      <use x="1251.074753" xlink:href="#PTSans-Regular-456"/>
      <use x="1277.874741" xlink:href="#PTSans-Regular-434"/>
      <use x="1331.974731" xlink:href="#PTSans-Regular-20"/>
      <use x="1358.674728" xlink:href="#PTSans-Regular-43d"/>
      <use x="1412.674713" xlink:href="#PTSans-Regular-430"/>
      <use x="1462.274704" xlink:href="#PTSans-Regular-439"/>
      <use x="1516.874695" xlink:href="#PTSans-Regular-431"/>
      <use x="1570.474686" xlink:href="#PTSans-Regular-456"/>
      <use x="1597.274673" xlink:href="#PTSans-Regular-434"/>
      <use x="1651.374664" xlink:href="#PTSans-Regular-43d"/>
      <use x="1705.374649" xlink:href="#PTSans-Regular-456"/>
      <use x="1732.174637" xlink:href="#PTSans-Regular-448"/>
      <use x="1805.774628" xlink:href="#PTSans-Regular-438"/>
      <use x="1860.374619" xlink:href="#PTSans-Regular-445"/>
      <use x="1911.874603" xlink:href="#PTSans-Regular-20"/>
      <use x="1938.5746" xlink:href="#PTSans-Regular-434"/>
      <use x="1992.674591" xlink:href="#PTSans-Regular-43e"/>
      <use x="2046.274582" xlink:href="#PTSans-Regular-20"/>
      <use x="2072.974579" xlink:href="#PTSans-Regular-43d"/>
      <use x="2126.974564" xlink:href="#PTSans-Regular-430"/>
      <use x="2176.574554" xlink:href="#PTSans-Regular-439"/>
      <use x="2231.174545" xlink:href="#PTSans-Regular-431"/>
      <use x="2284.774536" xlink:href="#PTSans-Regular-430"/>
      <use x="2334.374527" xlink:href="#PTSans-Regular-433"/>
      <use x="2371.274521" xlink:href="#PTSans-Regular-430"/>
      <use x="2420.874512" xlink:href="#PTSans-Regular-442"/>
      <use x="2460.6745" xlink:href="#PTSans-Regular-448"/>
      <use x="2534.27449" xlink:href="#PTSans-Regular-438"/>
      <use x="2588.874481" xlink:href="#PTSans-Regular-445"/>
     </g>
    </g>
   </g>
   <g id="matplotlib.axis_2">
    <g id="ytick_1">
     <g id="line2d_1"/>
     <g id="text_2">
      <!-- 0 -->
      <defs>
       <path d="M 4.296875 35 
Q 4.296875 53 10.140625 62.09375 
Q 16 71.203125 27.203125 71.203125 
Q 39.296875 71.203125 44.75 62.25 
Q 50.203125 53.296875 50.203125 35 
Q 50.203125 17 44.34375 7.890625 
Q 38.5 -1.203125 27.203125 -1.203125 
Q 15.296875 -1.203125 9.796875 8.296875 
Q 4.296875 17.796875 4.296875 35 
z
M 12.59375 35 
Q 12.59375 28.5 13.4375 23.140625 
Q 14.296875 17.796875 16.09375 13.9375 
Q 17.90625 10.09375 20.65625 7.9375 
Q 23.40625 5.796875 27.203125 5.796875 
Q 34.796875 5.796875 38.34375 12.84375 
Q 41.90625 19.90625 41.90625 35 
Q 41.90625 41.40625 41.15625 46.796875 
Q 40.40625 52.203125 38.65625 56.09375 
Q 36.90625 60 34.09375 62.09375 
Q 31.296875 64.203125 27.203125 64.203125 
Q 19.703125 64.203125 16.140625 57.09375 
Q 12.59375 50 12.59375 35 
z
" id="PTSans-Regular-30"/>
      </defs>
      <g transform="translate(81.03 473.62)scale(0.14 -0.14)">
       <use xlink:href="#PTSans-Regular-30"/>
      </g>
     </g>
    </g>
    <g id="ytick_2">
     <g id="line2d_2"/>
     <g id="text_3">
      <!-- 10000 -->
      <defs>
       <path d="M 10.796875 7.40625 
L 24.796875 7.40625 
L 24.796875 55.796875 
L 25.796875 61.703125 
L 21.796875 57 
L 10.796875 49.09375 
L 7 54.203125 
L 29 71.203125 
L 32.59375 71.203125 
L 32.59375 7.40625 
L 46.296875 7.40625 
L 46.296875 0 
L 10.796875 0 
z
" id="PTSans-Regular-31"/>
      </defs>
      <g transform="translate(50.51 387.955761)scale(0.14 -0.14)">
       <use xlink:href="#PTSans-Regular-31"/>
       <use x="54.499985" xlink:href="#PTSans-Regular-30"/>
       <use x="108.999969" xlink:href="#PTSans-Regular-30"/>
       <use x="163.499954" xlink:href="#PTSans-Regular-30"/>
       <use x="217.999939" xlink:href="#PTSans-Regular-30"/>
      </g>
     </g>
    </g>
    <g id="ytick_3">
     <g id="line2d_3"/>
     <g id="text_4">
      <!-- 20000 -->
      <defs>
       <path d="M 44.59375 54.09375 
Q 44.59375 48.796875 42.640625 43.25 
Q 40.703125 37.703125 37.546875 32.09375 
Q 34.40625 26.5 30.5 21.140625 
Q 26.59375 15.796875 22.703125 11 
L 17.796875 6.703125 
L 17.796875 6.296875 
L 24.203125 7.40625 
L 46 7.40625 
L 46 0 
L 6.203125 0 
L 6.203125 2.90625 
Q 8.40625 5.203125 11.5 8.59375 
Q 14.59375 12 17.9375 16.140625 
Q 21.296875 20.296875 24.546875 24.9375 
Q 27.796875 29.59375 30.4375 34.390625 
Q 33.09375 39.203125 34.6875 43.890625 
Q 36.296875 48.59375 36.296875 52.796875 
Q 36.296875 57.703125 33.5 60.953125 
Q 30.703125 64.203125 25 64.203125 
Q 21.203125 64.203125 17.59375 62.640625 
Q 14 61.09375 11.40625 59.09375 
L 8.09375 64.796875 
Q 11.59375 67.796875 16.390625 69.5 
Q 21.203125 71.203125 26.703125 71.203125 
Q 31 71.203125 34.296875 69.953125 
Q 37.59375 68.703125 39.890625 66.390625 
Q 42.203125 64.09375 43.390625 60.9375 
Q 44.59375 57.796875 44.59375 54.09375 
z
" id="PTSans-Regular-32"/>
      </defs>
      <g transform="translate(50.51 302.291521)scale(0.14 -0.14)">
       <use xlink:href="#PTSans-Regular-32"/>
       <use x="54.499985" xlink:href="#PTSans-Regular-30"/>
       <use x="108.999969" xlink:href="#PTSans-Regular-30"/>
       <use x="163.499954" xlink:href="#PTSans-Regular-30"/>
       <use x="217.999939" xlink:href="#PTSans-Regular-30"/>
      </g>
     </g>
    </g>
    <g id="ytick_4">
     <g id="line2d_4"/>
     <g id="text_5">
      <!-- 30000 -->
      <defs>
       <path d="M 23.40625 5.796875 
Q 26.796875 5.796875 29.6875 6.796875 
Q 32.59375 7.796875 34.6875 9.75 
Q 36.796875 11.703125 38 14.390625 
Q 39.203125 17.09375 39.203125 20.296875 
Q 39.203125 27.296875 35.046875 30.6875 
Q 30.90625 34.09375 23.59375 34.09375 
L 16.203125 34.09375 
L 16.203125 37 
L 30.59375 59.203125 
L 35.203125 63.59375 
L 28.703125 62.59375 
L 8.90625 62.59375 
L 8.90625 70 
L 44.59375 70 
L 44.59375 67.09375 
L 28.703125 43.203125 
L 25.203125 40.296875 
L 25.203125 40.09375 
L 28.59375 40.796875 
Q 32.59375 40.703125 36 39.34375 
Q 39.40625 38 41.90625 35.453125 
Q 44.40625 32.90625 45.796875 29.34375 
Q 47.203125 25.796875 47.203125 21.296875 
Q 47.203125 15.90625 45.296875 11.703125 
Q 43.40625 7.5 40.15625 4.640625 
Q 36.90625 1.796875 32.5 0.296875 
Q 28.09375 -1.203125 23.203125 -1.203125 
Q 18.703125 -1.203125 15.09375 -0.5 
Q 11.5 0.203125 8.796875 1.296875 
L 10.90625 8.40625 
Q 13.203125 7.296875 16.34375 6.546875 
Q 19.5 5.796875 23.40625 5.796875 
z
" id="PTSans-Regular-33"/>
      </defs>
      <g transform="translate(50.51 216.627282)scale(0.14 -0.14)">
       <use xlink:href="#PTSans-Regular-33"/>
       <use x="54.499985" xlink:href="#PTSans-Regular-30"/>
       <use x="108.999969" xlink:href="#PTSans-Regular-30"/>
       <use x="163.499954" xlink:href="#PTSans-Regular-30"/>
       <use x="217.999939" xlink:href="#PTSans-Regular-30"/>
      </g>
     </g>
    </g>
    <g id="ytick_5">
     <g id="line2d_5"/>
     <g id="text_6">
      <!-- 40000 -->
      <defs>
       <path d="M 52.40625 21.5 
L 40.59375 21.5 
L 40.59375 0 
L 32.796875 0 
L 32.796875 21.5 
L 2 21.5 
L 2 24.796875 
L 35.203125 71.09375 
L 40.59375 71.09375 
L 40.59375 28.5 
L 52.40625 28.5 
z
M 32.796875 50.296875 
L 33.796875 58.5 
L 33.5 58.5 
L 30 51.703125 
L 15.90625 32.59375 
L 11.09375 27.703125 
L 18.09375 28.5 
L 32.796875 28.5 
z
" id="PTSans-Regular-34"/>
      </defs>
      <g transform="translate(50.51 130.963043)scale(0.14 -0.14)">
       <use xlink:href="#PTSans-Regular-34"/>
       <use x="54.499985" xlink:href="#PTSans-Regular-30"/>
       <use x="108.999969" xlink:href="#PTSans-Regular-30"/>
       <use x="163.499954" xlink:href="#PTSans-Regular-30"/>
       <use x="217.999939" xlink:href="#PTSans-Regular-30"/>
      </g>
     </g>
    </g>
    <g id="text_7">
     <!-- Доларів США на людину на рік (2013) -->
     <defs>
      <path d="M 64.09375 -12.90625 
L 58.40625 -12.90625 
L 56.90625 0 
L 7.796875 0 
L 6.296875 -12.90625 
L 0.5 -12.90625 
L 0.5 7.40625 
L 7.59375 7.40625 
Q 8.40625 8.5 10.046875 12.546875 
Q 11.703125 16.59375 13.34375 24.140625 
Q 15 31.703125 16.296875 43.046875 
Q 17.59375 54.40625 17.59375 70 
L 55 70 
L 55 7.40625 
L 64.09375 7.40625 
z
M 46.703125 7.40625 
L 46.703125 62.59375 
L 25.40625 62.59375 
Q 25.09375 51.59375 24.25 42.796875 
Q 23.40625 34 22.203125 27.25 
Q 21 20.5 19.5 15.59375 
Q 18 10.703125 16.40625 7.40625 
z
" id="PTSans-Regular-414"/>
      <path d="M 34.59375 43 
L 20.09375 43 
Q 19.796875 38.796875 19.5 33.9375 
Q 19.203125 29.09375 18.59375 24.25 
Q 18 19.40625 17 14.953125 
Q 16 10.5 14.453125 7.09375 
Q 12.90625 3.703125 10.65625 1.640625 
Q 8.40625 -0.40625 5.296875 -0.40625 
Q 3.40625 -0.40625 2 -0.203125 
Q 0.59375 0 -0.5 0.5 
L 0.703125 7.203125 
Q 1.90625 6.796875 3.296875 6.796875 
Q 5.296875 6.796875 6.890625 8.5 
Q 8.5 10.203125 9.703125 14.953125 
Q 10.90625 19.703125 11.703125 28.09375 
Q 12.5 36.5 12.796875 50 
L 42.59375 50 
L 42.59375 0 
L 34.59375 0 
z
" id="PTSans-Regular-43b"/>
      <path d="M 53.296875 2.90625 
Q 50.296875 0.59375 45.6875 -0.296875 
Q 41.09375 -1.203125 35.90625 -1.203125 
Q 29.59375 -1.203125 24.09375 0.9375 
Q 18.59375 3.09375 14.5 7.5 
Q 10.40625 11.90625 8 18.75 
Q 5.59375 25.59375 5.59375 35 
Q 5.59375 44.796875 8.25 51.640625 
Q 10.90625 58.5 15.25 62.84375 
Q 19.59375 67.203125 25 69.203125 
Q 30.40625 71.203125 36 71.203125 
Q 42 71.203125 45.796875 70.546875 
Q 49.59375 69.90625 52.296875 68.796875 
L 50.296875 61.5 
Q 45.5 63.796875 36.59375 63.796875 
Q 32.5 63.796875 28.5 62.296875 
Q 24.5 60.796875 21.34375 57.390625 
Q 18.203125 54 16.296875 48.5 
Q 14.40625 43 14.40625 35 
Q 14.40625 27.796875 16.203125 22.390625 
Q 18 17 21.140625 13.390625 
Q 24.296875 9.796875 28.546875 8 
Q 32.796875 6.203125 37.796875 6.203125 
Q 42.296875 6.203125 45.640625 7.09375 
Q 49 8 51.296875 9.40625 
z
" id="PTSans-Regular-421"/>
      <path d="M 8.5 0 
L 8.5 70 
L 16.796875 70 
L 16.796875 7.40625 
L 39.703125 7.40625 
L 39.703125 70 
L 48 70 
L 48 7.40625 
L 70.90625 7.40625 
L 70.90625 70 
L 79.203125 70 
L 79.203125 0 
z
" id="PTSans-Regular-428"/>
      <path d="M 41.796875 19.40625 
L 16 19.40625 
L 9 0 
L 0.796875 0 
L 27.296875 71.09375 
L 31.09375 71.09375 
L 57.703125 0 
L 49 0 
z
M 18.703125 26.59375 
L 39.296875 26.59375 
L 31.5 47.90625 
L 29 58.5 
L 28.90625 58.5 
L 26.40625 47.703125 
z
" id="PTSans-Regular-410"/>
      <path d="M 46.5 -1.203125 
Q 41.09375 -1.203125 37.25 0.4375 
Q 33.40625 2.09375 30.953125 5.140625 
Q 28.5 8.203125 27.25 12.546875 
Q 26 16.90625 25.703125 22.09375 
L 15.703125 22.09375 
L 15.703125 0 
L 7.703125 0 
L 7.703125 50 
L 15.703125 50 
L 15.703125 29.09375 
L 25.796875 29.09375 
Q 26.59375 39.796875 31.640625 45.5 
Q 36.703125 51.203125 46.703125 51.203125 
Q 52.203125 51.203125 56.046875 49.34375 
Q 59.90625 47.5 62.34375 44.046875 
Q 64.796875 40.59375 65.890625 35.75 
Q 67 30.90625 67 25 
Q 67 12.296875 61.953125 5.546875 
Q 56.90625 -1.203125 46.5 -1.203125 
z
M 33.59375 25 
Q 33.59375 21.09375 34.1875 17.59375 
Q 34.796875 14.09375 36.296875 11.4375 
Q 37.796875 8.796875 40.34375 7.296875 
Q 42.90625 5.796875 46.703125 5.796875 
Q 53.09375 5.796875 55.890625 10.4375 
Q 58.703125 15.09375 58.703125 25 
Q 58.703125 28.90625 58.140625 32.40625 
Q 57.59375 35.90625 56.1875 38.546875 
Q 54.796875 41.203125 52.5 42.703125 
Q 50.203125 44.203125 46.59375 44.203125 
Q 39.703125 44.203125 36.640625 39.546875 
Q 33.59375 34.90625 33.59375 25 
z
" id="PTSans-Regular-44e"/>
      <path d="M 22.703125 -22 
Q 18.09375 -17.203125 14.890625 -11.453125 
Q 11.703125 -5.703125 9.75 0.34375 
Q 7.796875 6.40625 6.890625 12.546875 
Q 6 18.703125 6 24.296875 
Q 6 29.796875 6.890625 35.890625 
Q 7.796875 42 9.796875 48.140625 
Q 11.796875 54.296875 15.046875 60.1875 
Q 18.296875 66.09375 23 71.203125 
L 27.796875 67.703125 
Q 23.796875 62.59375 21.140625 57.140625 
Q 18.5 51.703125 16.890625 46.09375 
Q 15.296875 40.5 14.640625 34.953125 
Q 14 29.40625 14 24.296875 
Q 14 19.5 14.75 13.84375 
Q 15.5 8.203125 17.140625 2.546875 
Q 18.796875 -3.09375 21.4375 -8.5 
Q 24.09375 -13.90625 27.796875 -18.296875 
z
" id="PTSans-Regular-28"/>
      <path d="M 5.296875 71.203125 
Q 9.90625 66.40625 13.09375 60.65625 
Q 16.296875 54.90625 18.25 48.84375 
Q 20.203125 42.796875 21.09375 36.640625 
Q 22 30.5 22 24.90625 
Q 22 19.40625 21.09375 13.296875 
Q 20.203125 7.203125 18.203125 1.046875 
Q 16.203125 -5.09375 12.953125 -11 
Q 9.703125 -16.90625 5 -22 
L 0.203125 -18.5 
Q 4.203125 -13.40625 6.890625 -7.90625 
Q 9.59375 -2.40625 11.140625 3.1875 
Q 12.703125 8.796875 13.34375 14.296875 
Q 14 19.796875 14 24.90625 
Q 14 29.703125 13.203125 35.296875 
Q 12.40625 40.90625 10.75 46.59375 
Q 9.09375 52.296875 6.5 57.6875 
Q 3.90625 63.09375 0.203125 67.5 
z
" id="PTSans-Regular-29"/>
     </defs>
     <g transform="translate(26.814 403.70925)rotate(-90)scale(0.168 -0.168)">
      <use xlink:href="#PTSans-Regular-414"/>
      <use x="66.899994" xlink:href="#PTSans-Regular-43e"/>
      <use x="120.499985" xlink:href="#PTSans-Regular-43b"/>
      <use x="170.799973" xlink:href="#PTSans-Regular-430"/>
      <use x="220.399963" xlink:href="#PTSans-Regular-440"/>
      <use x="274.499954" xlink:href="#PTSans-Regular-456"/>
      <use x="301.299942" xlink:href="#PTSans-Regular-432"/>
      <use x="351.199936" xlink:href="#PTSans-Regular-20"/>
      <use x="377.899933" xlink:href="#PTSans-Regular-421"/>
      <use x="434.999924" xlink:href="#PTSans-Regular-428"/>
      <use x="522.699905" xlink:href="#PTSans-Regular-410"/>
      <use x="581.19989" xlink:href="#PTSans-Regular-20"/>
      <use x="607.899887" xlink:href="#PTSans-Regular-43d"/>
      <use x="661.899872" xlink:href="#PTSans-Regular-430"/>
      <use x="711.499863" xlink:href="#PTSans-Regular-20"/>
      <use x="738.19986" xlink:href="#PTSans-Regular-43b"/>
      <use x="788.499847" xlink:href="#PTSans-Regular-44e"/>
      <use x="860.399841" xlink:href="#PTSans-Regular-434"/>
      <use x="914.499832" xlink:href="#PTSans-Regular-438"/>
      <use x="969.099823" xlink:href="#PTSans-Regular-43d"/>
      <use x="1023.099808" xlink:href="#PTSans-Regular-443"/>
      <use x="1069.699799" xlink:href="#PTSans-Regular-20"/>
      <use x="1096.399796" xlink:href="#PTSans-Regular-43d"/>
      <use x="1150.39978" xlink:href="#PTSans-Regular-430"/>
      <use x="1199.999771" xlink:href="#PTSans-Regular-20"/>
      <use x="1226.699768" xlink:href="#PTSans-Regular-440"/>
      <use x="1280.799759" xlink:href="#PTSans-Regular-456"/>
      <use x="1307.599747" xlink:href="#PTSans-Regular-43a"/>
      <use x="1355.399734" xlink:href="#PTSans-Regular-20"/>
      <use x="1382.099731" xlink:href="#PTSans-Regular-28"/>
      <use x="1410.099716" xlink:href="#PTSans-Regular-32"/>
      <use x="1464.599701" xlink:href="#PTSans-Regular-30"/>
      <use x="1519.099686" xlink:href="#PTSans-Regular-31"/>
      <use x="1573.59967" xlink:href="#PTSans-Regular-33"/>
      <use x="1628.099655" xlink:href="#PTSans-Regular-29"/>
     </g>
    </g>
   </g>
   <g id="PolyCollection_1">
    <defs>
     <path d="M 92.16 -37.720574 
L 92.16 -35.28 
L 103.951059 -35.28 
L 115.742118 -35.28 
L 127.533176 -35.28 
L 139.324235 -35.28 
L 151.115294 -35.28 
L 162.906353 -35.28 
L 174.697412 -35.28 
L 186.488471 -35.28 
L 198.279529 -35.28 
L 210.070588 -35.28 
L 221.861647 -35.28 
L 233.652706 -35.28 
L 245.443765 -35.28 
L 257.234824 -35.28 
L 269.025882 -35.28 
L 280.816941 -35.28 
L 292.608 -35.28 
L 304.399059 -35.28 
L 316.190118 -35.28 
L 327.981176 -35.28 
L 339.772235 -35.28 
L 351.563294 -35.28 
L 363.354353 -35.28 
L 375.145412 -35.28 
L 386.936471 -35.28 
L 398.727529 -35.28 
L 410.518588 -35.28 
L 422.309647 -35.28 
L 434.100706 -35.28 
L 445.891765 -35.28 
L 457.682824 -35.28 
L 469.473882 -35.28 
L 481.264941 -35.28 
L 493.056 -35.28 
L 504.847059 -35.28 
L 516.638118 -35.28 
L 528.429176 -35.28 
L 540.220235 -35.28 
L 552.011294 -35.28 
L 563.802353 -35.28 
L 575.593412 -35.28 
L 587.384471 -35.28 
L 599.175529 -35.28 
L 610.966588 -35.28 
L 622.757647 -35.28 
L 634.548706 -35.28 
L 646.339765 -35.28 
L 658.130824 -35.28 
L 669.921882 -35.28 
L 681.712941 -35.28 
L 693.504 -35.28 
L 705.295059 -35.28 
L 717.086118 -35.28 
L 728.877176 -35.28 
L 740.668235 -35.28 
L 752.459294 -35.28 
L 764.250353 -35.28 
L 776.041412 -35.28 
L 787.832471 -35.28 
L 799.623529 -35.28 
L 811.414588 -35.28 
L 823.205647 -35.28 
L 834.996706 -35.28 
L 846.787765 -35.28 
L 858.578824 -35.28 
L 870.369882 -35.28 
L 882.160941 -35.28 
L 893.952 -35.28 
L 905.743059 -35.28 
L 917.534118 -35.28 
L 929.325176 -35.28 
L 941.116235 -35.28 
L 952.907294 -35.28 
L 964.698353 -35.28 
L 976.489412 -35.28 
L 988.280471 -35.28 
L 1000.071529 -35.28 
L 1011.862588 -35.28 
L 1023.653647 -35.28 
L 1035.444706 -35.28 
L 1047.235765 -35.28 
L 1059.026824 -35.28 
L 1070.817882 -35.28 
L 1082.608941 -35.28 
L 1094.4 -35.28 
L 1094.4 -70.165905 
L 1094.4 -70.165905 
L 1082.608941 -74.882578 
L 1070.817882 -65.97007 
L 1059.026824 -55.38711 
L 1047.235765 -62.991525 
L 1035.444706 -57.563839 
L 1023.653647 -58.668907 
L 1011.862588 -67.919788 
L 1000.071529 -64.333883 
L 988.280471 -55.435939 
L 976.489412 -63.596314 
L 964.698353 -56.500745 
L 952.907294 -66.585996 
L 941.116235 -62.606892 
L 929.325176 -61.208852 
L 917.534118 -63.220248 
L 905.743059 -57.938191 
L 893.952 -54.722356 
L 882.160941 -62.33705 
L 870.369882 -47.481158 
L 858.578824 -61.260251 
L 846.787765 -59.347368 
L 834.996706 -55.423946 
L 823.205647 -57.977597 
L 811.414588 -57.323122 
L 799.623529 -52.985085 
L 787.832471 -48.265842 
L 776.041412 -49.530246 
L 764.250353 -49.127624 
L 752.459294 -53.840871 
L 740.668235 -47.408343 
L 728.877176 -53.283197 
L 717.086118 -48.820946 
L 705.295059 -50.382605 
L 693.504 -48.516838 
L 681.712941 -55.341708 
L 669.921882 -52.340033 
L 658.130824 -60.841352 
L 646.339765 -51.045647 
L 634.548706 -48.936593 
L 622.757647 -48.018272 
L 610.966588 -50.546224 
L 599.175529 -55.491621 
L 587.384471 -48.599076 
L 575.593412 -47.86322 
L 563.802353 -45.006318 
L 552.011294 -46.297278 
L 540.220235 -47.784409 
L 528.429176 -50.428864 
L 516.638118 -49.072799 
L 504.847059 -60.658031 
L 493.056 -45.566562 
L 481.264941 -49.064233 
L 469.473882 -43.369274 
L 457.682824 -45.438922 
L 445.891765 -42.624852 
L 434.100706 -46.205617 
L 422.309647 -50.324354 
L 410.518588 -42.267632 
L 398.727529 -48.137346 
L 386.936471 -46.198764 
L 375.145412 -45.994883 
L 363.354353 -47.284987 
L 351.563294 -43.057456 
L 339.772235 -42.453523 
L 327.981176 -46.805267 
L 316.190118 -45.848397 
L 304.399059 -44.251616 
L 292.608 -41.249941 
L 280.816941 -45.73532 
L 269.025882 -44.618259 
L 257.234824 -44.287595 
L 245.443765 -40.879871 
L 233.652706 -40.523508 
L 221.861647 -41.908699 
L 210.070588 -45.629953 
L 198.279529 -41.16599 
L 186.488471 -42.800464 
L 174.697412 -42.064608 
L 162.906353 -39.631743 
L 151.115294 -38.859909 
L 139.324235 -39.62746 
L 127.533176 -38.115486 
L 115.742118 -39.238545 
L 103.951059 -38.873615 
L 92.16 -37.720574 
z
" id="m6f1cb3d3b4"/>
    </defs>
    <g clip-path="url(#p6060fb40ff)">
     <use style="fill:#ff2445;fill-opacity:0.2;" x="0" xlink:href="#m6f1cb3d3b4" y="504"/>
    </g>
   </g>
   <g id="PolyCollection_2">
    <defs>
     <path d="M 92.16 -43.274187 
L 92.16 -37.720574 
L 103.951059 -38.873615 
L 115.742118 -39.238545 
L 127.533176 -38.115486 
L 139.324235 -39.62746 
L 151.115294 -38.859909 
L 162.906353 -39.631743 
L 174.697412 -42.064608 
L 186.488471 -42.800464 
L 198.279529 -41.16599 
L 210.070588 -45.629953 
L 221.861647 -41.908699 
L 233.652706 -40.523508 
L 245.443765 -40.879871 
L 257.234824 -44.287595 
L 269.025882 -44.618259 
L 280.816941 -45.73532 
L 292.608 -41.249941 
L 304.399059 -44.251616 
L 316.190118 -45.848397 
L 327.981176 -46.805267 
L 339.772235 -42.453523 
L 351.563294 -43.057456 
L 363.354353 -47.284987 
L 375.145412 -45.994883 
L 386.936471 -46.198764 
L 398.727529 -48.137346 
L 410.518588 -42.267632 
L 422.309647 -50.324354 
L 434.100706 -46.205617 
L 445.891765 -42.624852 
L 457.682824 -45.438922 
L 469.473882 -43.369274 
L 481.264941 -49.064233 
L 493.056 -45.566562 
L 504.847059 -60.658031 
L 516.638118 -49.072799 
L 528.429176 -50.428864 
L 540.220235 -47.784409 
L 552.011294 -46.297278 
L 563.802353 -45.006318 
L 575.593412 -47.86322 
L 587.384471 -48.599076 
L 599.175529 -55.491621 
L 610.966588 -50.546224 
L 622.757647 -48.018272 
L 634.548706 -48.936593 
L 646.339765 -51.045647 
L 658.130824 -60.841352 
L 669.921882 -52.340033 
L 681.712941 -55.341708 
L 693.504 -48.516838 
L 705.295059 -50.382605 
L 717.086118 -48.820946 
L 728.877176 -53.283197 
L 740.668235 -47.408343 
L 752.459294 -53.840871 
L 764.250353 -49.127624 
L 776.041412 -49.530246 
L 787.832471 -48.265842 
L 799.623529 -52.985085 
L 811.414588 -57.323122 
L 823.205647 -57.977597 
L 834.996706 -55.423946 
L 846.787765 -59.347368 
L 858.578824 -61.260251 
L 870.369882 -47.481158 
L 882.160941 -62.33705 
L 893.952 -54.722356 
L 905.743059 -57.938191 
L 917.534118 -63.220248 
L 929.325176 -61.208852 
L 941.116235 -62.606892 
L 952.907294 -66.585996 
L 964.698353 -56.500745 
L 976.489412 -63.596314 
L 988.280471 -55.435939 
L 1000.071529 -64.333883 
L 1011.862588 -67.919788 
L 1023.653647 -58.668907 
L 1035.444706 -57.563839 
L 1047.235765 -62.991525 
L 1059.026824 -55.38711 
L 1070.817882 -65.97007 
L 1082.608941 -74.882578 
L 1094.4 -70.165905 
L 1094.4 -424.08 
L 1094.4 -424.08 
L 1082.608941 -358.20677 
L 1070.817882 -343.707241 
L 1059.026824 -336.480605 
L 1047.235765 -277.093015 
L 1035.444706 -275.083332 
L 1023.653647 -269.862096 
L 1011.862588 -269.476607 
L 1000.071529 -268.671364 
L 988.280471 -258.169784 
L 976.489412 -257.564138 
L 964.698353 -243.695098 
L 952.907294 -240.430434 
L 941.116235 -239.476134 
L 929.325176 -234.726909 
L 917.534118 -231.308906 
L 905.743059 -229.328348 
L 893.952 -225.022007 
L 882.160941 -223.812428 
L 870.369882 -216.066667 
L 858.578824 -206.425157 
L 846.787765 -205.984843 
L 834.996706 -185.212978 
L 823.205647 -172.288815 
L 811.414588 -158.740158 
L 799.623529 -151.116041 
L 787.832471 -143.545036 
L 776.041412 -141.670702 
L 764.250353 -136.924903 
L 752.459294 -135.933768 
L 740.668235 -126.592083 
L 728.877176 -123.798572 
L 717.086118 -121.75548 
L 705.295059 -121.455655 
L 693.504 -120.20153 
L 681.712941 -119.354311 
L 669.921882 -117.780659 
L 658.130824 -117.420013 
L 646.339765 -113.043427 
L 634.548706 -109.125144 
L 622.757647 -105.785952 
L 610.966588 -104.56695 
L 599.175529 -103.898769 
L 587.384471 -102.167495 
L 575.593412 -97.730087 
L 563.802353 -97.222098 
L 552.011294 -97.144144 
L 540.220235 -96.296068 
L 528.429176 -94.611909 
L 516.638118 -94.32836 
L 504.847059 -93.619917 
L 493.056 -85.342181 
L 481.264941 -84.060644 
L 469.473882 -78.900231 
L 457.682824 -77.411386 
L 445.891765 -76.900827 
L 434.100706 -75.618434 
L 422.309647 -75.368294 
L 410.518588 -71.617914 
L 398.727529 -70.547111 
L 386.936471 -70.189034 
L 375.145412 -67.950628 
L 363.354353 -67.464911 
L 351.563294 -66.747045 
L 339.772235 -66.305018 
L 327.981176 -63.075476 
L 316.190118 -62.540931 
L 304.399059 -62.283938 
L 292.608 -61.618327 
L 280.816941 -61.369044 
L 269.025882 -60.068661 
L 257.234824 -59.349938 
L 245.443765 -56.748315 
L 233.652706 -56.214627 
L 221.861647 -53.777479 
L 210.070588 -53.526483 
L 198.279529 -53.009071 
L 186.488471 -52.997935 
L 174.697412 -51.202412 
L 162.906353 -50.464843 
L 151.115294 -45.349831 
L 139.324235 -44.548014 
L 127.533176 -44.480339 
L 115.742118 -43.932088 
L 103.951059 -43.702508 
L 92.16 -43.274187 
z
" id="mac6f2a8cfa"/>
    </defs>
    <g clip-path="url(#p6060fb40ff)">
     <use style="fill:#0064a4;fill-opacity:0.2;" x="0" xlink:href="#mac6f2a8cfa" y="504"/>
    </g>
   </g>
   <g id="PathCollection_1">
    <defs>
     <path d="M 0 3.535534 
C 0.937635 3.535534 1.836992 3.163008 2.5 2.5 
C 3.163008 1.836992 3.535534 0.937635 3.535534 0 
C 3.535534 -0.937635 3.163008 -1.836992 2.5 -2.5 
C 1.836992 -3.163008 0.937635 -3.535534 0 -3.535534 
C -0.937635 -3.535534 -1.836992 -3.163008 -2.5 -2.5 
C -3.163008 -1.836992 -3.535534 -0.937635 -3.535534 0 
C -3.535534 0.937635 -3.163008 1.836992 -2.5 2.5 
C -1.836992 3.163008 -0.937635 3.535534 0 3.535534 
z
" id="mae07a29b25" style="stroke:#0064a4;stroke-width:0.5;"/>
    </defs>
    <g clip-path="url(#p6060fb40ff)">
     <use style="fill:#0064a4;stroke:#0064a4;stroke-width:0.5;" x="269.025882" xlink:href="#mae07a29b25" y="443.931339"/>
     <use style="fill:#0064a4;stroke:#0064a4;stroke-width:0.5;" x="964.698353" xlink:href="#mae07a29b25" y="260.304902"/>
     <use style="fill:#0064a4;stroke:#0064a4;stroke-width:0.5;" x="1059.026824" xlink:href="#mae07a29b25" y="167.519395"/>
    </g>
   </g>
   <g id="PathCollection_2">
    <defs>
     <path d="M 0 3.535534 
C 0.937635 3.535534 1.836992 3.163008 2.5 2.5 
C 3.163008 1.836992 3.535534 0.937635 3.535534 0 
C 3.535534 -0.937635 3.163008 -1.836992 2.5 -2.5 
C 1.836992 -3.163008 0.937635 -3.535534 0 -3.535534 
C -0.937635 -3.535534 -1.836992 -3.163008 -2.5 -2.5 
C -3.163008 -1.836992 -3.535534 -0.937635 -3.535534 0 
C -3.535534 0.937635 -3.163008 1.836992 -2.5 2.5 
C -1.836992 3.163008 -0.937635 3.535534 0 3.535534 
z
" id="m8c071f8ba9" style="stroke:#ff2445;stroke-width:0.5;"/>
    </defs>
    <g clip-path="url(#p6060fb40ff)">
     <use style="fill:#ff2445;stroke:#ff2445;stroke-width:0.5;" x="269.025882" xlink:href="#m8c071f8ba9" y="459.381741"/>
     <use style="fill:#ff2445;stroke:#ff2445;stroke-width:0.5;" x="964.698353" xlink:href="#m8c071f8ba9" y="447.499255"/>
     <use style="fill:#ff2445;stroke:#ff2445;stroke-width:0.5;" x="1059.026824" xlink:href="#m8c071f8ba9" y="448.61289"/>
    </g>
   </g>
   <g id="line2d_6">
    <path clip-path="url(#p6060fb40ff)" d="M 92.16 466.279426 
L 103.951059 465.126385 
L 115.742118 464.761455 
L 127.533176 465.884514 
L 139.324235 464.37254 
L 151.115294 465.140091 
L 162.906353 464.368257 
L 174.697412 461.935392 
L 186.488471 461.199536 
L 198.279529 462.83401 
L 210.070588 458.370047 
L 221.861647 462.091301 
L 233.652706 463.476492 
L 245.443765 463.120129 
L 257.234824 459.712405 
L 269.025882 459.381741 
L 280.816941 458.26468 
L 292.608 462.750059 
L 304.399059 459.748384 
L 316.190118 458.151603 
L 327.981176 457.194733 
L 339.772235 461.546477 
L 351.563294 460.942544 
L 363.354353 456.715013 
L 375.145412 458.005117 
L 386.936471 457.801236 
L 398.727529 455.862654 
L 410.518588 461.732368 
L 422.309647 453.675646 
L 434.100706 457.794383 
L 445.891765 461.375148 
L 457.682824 458.561078 
L 469.473882 460.630726 
L 481.264941 454.935767 
L 493.056 458.433438 
L 504.847059 443.341969 
L 516.638118 454.927201 
L 528.429176 453.571136 
L 540.220235 456.215591 
L 552.011294 457.702722 
L 563.802353 458.993682 
L 575.593412 456.13678 
L 587.384471 455.400924 
L 599.175529 448.508379 
L 610.966588 453.453776 
L 622.757647 455.981728 
L 634.548706 455.063407 
L 646.339765 452.954353 
L 658.130824 443.158648 
L 669.921882 451.659967 
L 681.712941 448.658292 
L 693.504 455.483162 
L 705.295059 453.617395 
L 717.086118 455.179054 
L 728.877176 450.716803 
L 740.668235 456.591657 
L 752.459294 450.159129 
L 764.250353 454.872376 
L 776.041412 454.469754 
L 787.832471 455.734158 
L 799.623529 451.014915 
L 811.414588 446.676878 
L 823.205647 446.022403 
L 834.996706 448.576054 
L 846.787765 444.652632 
L 858.578824 442.739749 
L 870.369882 456.518842 
L 882.160941 441.66295 
L 893.952 449.277644 
L 905.743059 446.061809 
L 917.534118 440.779752 
L 929.325176 442.791148 
L 941.116235 441.393108 
L 952.907294 437.414004 
L 964.698353 447.499255 
L 976.489412 440.403686 
L 988.280471 448.564061 
L 1000.071529 439.666117 
L 1011.862588 436.080212 
L 1023.653647 445.331093 
L 1035.444706 446.436161 
L 1047.235765 441.008475 
L 1059.026824 448.61289 
L 1070.817882 438.02993 
L 1082.608941 429.117422 
L 1094.4 433.834095 
" style="fill:none;opacity:0.2;"/>
   </g>
   <g id="line2d_7">
    <path clip-path="url(#p6060fb40ff)" d="M 92.16 460.725813 
L 103.951059 460.297492 
L 115.742118 460.067912 
L 127.533176 459.519661 
L 139.324235 459.451986 
L 151.115294 458.650169 
L 162.906353 453.535157 
L 174.697412 452.797588 
L 186.488471 451.002065 
L 198.279529 450.990929 
L 210.070588 450.473517 
L 221.861647 450.222521 
L 233.652706 447.785373 
L 245.443765 447.251685 
L 257.234824 444.650062 
L 269.025882 443.931339 
L 280.816941 442.630956 
L 292.608 442.381673 
L 304.399059 441.716062 
L 316.190118 441.459069 
L 327.981176 440.924524 
L 339.772235 437.694982 
L 351.563294 437.252955 
L 363.354353 436.535089 
L 375.145412 436.049372 
L 386.936471 433.810966 
L 398.727529 433.452889 
L 410.518588 432.382086 
L 422.309647 428.631706 
L 434.100706 428.381566 
L 445.891765 427.099173 
L 457.682824 426.588614 
L 469.473882 425.099769 
L 481.264941 419.939356 
L 493.056 418.657819 
L 504.847059 410.380083 
L 516.638118 409.67164 
L 528.429176 409.388091 
L 540.220235 407.703932 
L 552.011294 406.855856 
L 563.802353 406.777902 
L 575.593412 406.269913 
L 587.384471 401.832505 
L 599.175529 400.101231 
L 610.966588 399.43305 
L 622.757647 398.214048 
L 634.548706 394.874856 
L 646.339765 390.956573 
L 658.130824 386.579987 
L 669.921882 386.219341 
L 681.712941 384.645689 
L 693.504 383.79847 
L 705.295059 382.544345 
L 717.086118 382.24452 
L 728.877176 380.201428 
L 740.668235 377.407917 
L 752.459294 368.066232 
L 764.250353 367.075097 
L 776.041412 362.329298 
L 787.832471 360.454964 
L 799.623529 352.883959 
L 811.414588 345.259842 
L 823.205647 331.711185 
L 834.996706 318.787022 
L 846.787765 298.015157 
L 858.578824 297.574843 
L 870.369882 287.933333 
L 882.160941 280.187572 
L 893.952 278.977993 
L 905.743059 274.671652 
L 917.534118 272.691094 
L 929.325176 269.273091 
L 941.116235 264.523866 
L 952.907294 263.569566 
L 964.698353 260.304902 
L 976.489412 246.435862 
L 988.280471 245.830216 
L 1000.071529 235.328636 
L 1011.862588 234.523393 
L 1023.653647 234.137904 
L 1035.444706 228.916668 
L 1047.235765 226.906985 
L 1059.026824 167.519395 
L 1070.817882 160.292759 
L 1082.608941 145.79323 
L 1094.4 79.92 
" style="fill:none;opacity:0.2;"/>
   </g>
   <g id="line2d_8">
    <path clip-path="url(#p6060fb40ff)" d="M 92.16 460.725813 
L 103.951059 460.297492 
L 115.742118 460.067912 
L 127.533176 459.519661 
L 139.324235 459.451986 
L 151.115294 458.650169 
L 162.906353 453.535157 
L 174.697412 452.797588 
L 186.488471 451.002065 
L 198.279529 450.990929 
L 210.070588 450.473517 
L 221.861647 450.222521 
L 233.652706 447.785373 
L 245.443765 447.251685 
L 257.234824 444.650062 
L 269.025882 443.931339 
L 280.816941 442.630956 
L 292.608 442.381673 
L 304.399059 441.716062 
L 316.190118 441.459069 
L 327.981176 440.924524 
L 339.772235 437.694982 
L 351.563294 437.252955 
L 363.354353 436.535089 
L 375.145412 436.049372 
L 386.936471 433.810966 
L 398.727529 433.452889 
L 410.518588 432.382086 
L 422.309647 428.631706 
L 434.100706 428.381566 
L 445.891765 427.099173 
L 457.682824 426.588614 
L 469.473882 425.099769 
L 481.264941 419.939356 
L 493.056 418.657819 
L 504.847059 410.380083 
L 516.638118 409.67164 
L 528.429176 409.388091 
L 540.220235 407.703932 
L 552.011294 406.855856 
L 563.802353 406.777902 
L 575.593412 406.269913 
L 587.384471 401.832505 
L 599.175529 400.101231 
L 610.966588 399.43305 
L 622.757647 398.214048 
L 634.548706 394.874856 
L 646.339765 390.956573 
L 658.130824 386.579987 
L 669.921882 386.219341 
L 681.712941 384.645689 
L 693.504 383.79847 
L 705.295059 382.544345 
L 717.086118 382.24452 
L 728.877176 380.201428 
L 740.668235 377.407917 
L 752.459294 368.066232 
L 764.250353 367.075097 
L 776.041412 362.329298 
L 787.832471 360.454964 
L 799.623529 352.883959 
L 811.414588 345.259842 
L 823.205647 331.711185 
L 834.996706 318.787022 
L 846.787765 298.015157 
L 858.578824 297.574843 
L 870.369882 287.933333 
L 882.160941 280.187572 
L 893.952 278.977993 
L 905.743059 274.671652 
L 917.534118 272.691094 
L 929.325176 269.273091 
L 941.116235 264.523866 
L 952.907294 263.569566 
L 964.698353 260.304902 
L 976.489412 246.435862 
L 988.280471 245.830216 
L 1000.071529 235.328636 
L 1011.862588 234.523393 
L 1023.653647 234.137904 
L 1035.444706 228.916668 
L 1047.235765 226.906985 
L 1059.026824 167.519395 
L 1070.817882 160.292759 
L 1082.608941 145.79323 
L 1094.4 79.92 
" style="fill:none;stroke:#0064a4;stroke-width:3;"/>
   </g>
   <g id="line2d_9">
    <path clip-path="url(#p6060fb40ff)" d="M 92.16 466.279426 
L 103.951059 465.126385 
L 115.742118 464.761455 
L 127.533176 465.884514 
L 139.324235 464.37254 
L 151.115294 465.140091 
L 162.906353 464.368257 
L 174.697412 461.935392 
L 186.488471 461.199536 
L 198.279529 462.83401 
L 210.070588 458.370047 
L 221.861647 462.091301 
L 233.652706 463.476492 
L 245.443765 463.120129 
L 257.234824 459.712405 
L 269.025882 459.381741 
L 280.816941 458.26468 
L 292.608 462.750059 
L 304.399059 459.748384 
L 316.190118 458.151603 
L 327.981176 457.194733 
L 339.772235 461.546477 
L 351.563294 460.942544 
L 363.354353 456.715013 
L 375.145412 458.005117 
L 386.936471 457.801236 
L 398.727529 455.862654 
L 410.518588 461.732368 
L 422.309647 453.675646 
L 434.100706 457.794383 
L 445.891765 461.375148 
L 457.682824 458.561078 
L 469.473882 460.630726 
L 481.264941 454.935767 
L 493.056 458.433438 
L 504.847059 443.341969 
L 516.638118 454.927201 
L 528.429176 453.571136 
L 540.220235 456.215591 
L 552.011294 457.702722 
L 563.802353 458.993682 
L 575.593412 456.13678 
L 587.384471 455.400924 
L 599.175529 448.508379 
L 610.966588 453.453776 
L 622.757647 455.981728 
L 634.548706 455.063407 
L 646.339765 452.954353 
L 658.130824 443.158648 
L 669.921882 451.659967 
L 681.712941 448.658292 
L 693.504 455.483162 
L 705.295059 453.617395 
L 717.086118 455.179054 
L 728.877176 450.716803 
L 740.668235 456.591657 
L 752.459294 450.159129 
L 764.250353 454.872376 
L 776.041412 454.469754 
L 787.832471 455.734158 
L 799.623529 451.014915 
L 811.414588 446.676878 
L 823.205647 446.022403 
L 834.996706 448.576054 
L 846.787765 444.652632 
L 858.578824 442.739749 
L 870.369882 456.518842 
L 882.160941 441.66295 
L 893.952 449.277644 
L 905.743059 446.061809 
L 917.534118 440.779752 
L 929.325176 442.791148 
L 941.116235 441.393108 
L 952.907294 437.414004 
L 964.698353 447.499255 
L 976.489412 440.403686 
L 988.280471 448.564061 
L 1000.071529 439.666117 
L 1011.862588 436.080212 
L 1023.653647 445.331093 
L 1035.444706 446.436161 
L 1047.235765 441.008475 
L 1059.026824 448.61289 
L 1070.817882 438.02993 
L 1082.608941 429.117422 
L 1094.4 433.834095 
" style="fill:none;stroke:#ff2445;stroke-width:3;"/>
   </g>
   <g id="patch_3">
    <path d="M 92.16 468.72 
L 92.16 60.48 
" style="fill:none;stroke:#f0f0f0;stroke-linecap:square;stroke-linejoin:miter;stroke-width:3;"/>
   </g>
   <g id="patch_4">
    <path d="M 1094.4 468.72 
L 1094.4 60.48 
" style="fill:none;stroke:#f0f0f0;stroke-linecap:square;stroke-linejoin:miter;stroke-width:3;"/>
   </g>
   <g id="patch_5">
    <path d="M 92.16 468.72 
L 1094.4 468.72 
" style="fill:none;stroke:#f0f0f0;stroke-linecap:square;stroke-linejoin:miter;stroke-width:3;"/>
   </g>
   <g id="patch_6">
    <path d="M 92.16 60.48 
L 1094.4 60.48 
" style="fill:none;stroke:#f0f0f0;stroke-linecap:square;stroke-linejoin:miter;stroke-width:3;"/>
   </g>
   <g id="text_8">
    <!-- Україна -->
    <defs>
     <path d="M 28.203125 33.09375 
L 30.796875 24.203125 
L 31.296875 24.203125 
L 33.296875 33.40625 
L 46.703125 70 
L 55.203125 70 
L 37.5 24.5 
Q 34.796875 17.40625 32.75 12.65625 
Q 30.703125 7.90625 28.59375 4.953125 
Q 26.5 2 24.09375 0.75 
Q 21.703125 -0.5 18.203125 -0.5 
Q 14.90625 -0.5 12.953125 0.046875 
Q 11 0.59375 9.296875 1.703125 
L 11.796875 8.59375 
Q 13.796875 7.5 15.5 7.203125 
Q 17.203125 6.90625 18.59375 6.90625 
Q 21.40625 6.90625 23.296875 9.75 
Q 25.203125 12.59375 26.59375 18.203125 
L 0.703125 70 
L 10.296875 70 
z
" id="PTSans-Regular-423"/>
    </defs>
    <g transform="translate(261.951247 435.364915)scale(0.14 -0.14)">
     <use xlink:href="#PTSans-Regular-423"/>
     <use x="55.299988" xlink:href="#PTSans-Regular-43a"/>
     <use x="103.099976" xlink:href="#PTSans-Regular-440"/>
     <use x="157.199966" xlink:href="#PTSans-Regular-430"/>
     <use x="206.799957" xlink:href="#PTSans-Regular-457"/>
     <use x="234.599945" xlink:href="#PTSans-Regular-43d"/>
     <use x="288.59993" xlink:href="#PTSans-Regular-430"/>
    </g>
   </g>
   <g id="text_9">
    <!-- Німеччина -->
    <defs>
     <path d="M 50.40625 32.09375 
L 16.796875 32.09375 
L 16.796875 0 
L 8.5 0 
L 8.5 70 
L 16.796875 70 
L 16.796875 39.5 
L 50.40625 39.5 
L 50.40625 70 
L 58.703125 70 
L 58.703125 0 
L 50.40625 0 
z
" id="PTSans-Regular-41d"/>
     <path d="M 49 29.703125 
L 49.59375 39.203125 
L 49.09375 39.203125 
L 45.5 31.5 
L 33.40625 11.90625 
L 30.59375 11.90625 
L 18 31.5 
L 14.703125 39.203125 
L 14.296875 39.203125 
L 15.09375 29.796875 
L 15.09375 0 
L 7.703125 0 
L 7.703125 50 
L 15.59375 50 
L 29.59375 27.59375 
L 32.5 21.796875 
L 32.703125 21.796875 
L 35.703125 27.796875 
L 48.796875 50 
L 56.796875 50 
L 56.796875 0 
L 49 0 
z
" id="PTSans-Regular-43c"/>
     <path d="M 12.90625 50 
L 12.90625 36.40625 
Q 12.90625 33.703125 13.203125 31.546875 
Q 13.5 29.40625 14.390625 27.84375 
Q 15.296875 26.296875 17 25.4375 
Q 18.703125 24.59375 21.5 24.59375 
Q 26 24.59375 28.890625 25.59375 
Q 31.796875 26.59375 33.296875 27.796875 
L 33.296875 50 
L 41.296875 50 
L 41.296875 0 
L 33.296875 0 
L 33.296875 21 
Q 31.703125 20 28.546875 18.796875 
Q 25.40625 17.59375 19.90625 17.59375 
Q 16.203125 17.59375 13.390625 18.390625 
Q 10.59375 19.203125 8.6875 21.203125 
Q 6.796875 23.203125 5.84375 26.5 
Q 4.90625 29.796875 4.90625 34.796875 
L 4.90625 50 
z
" id="PTSans-Regular-447"/>
    </defs>
    <g transform="translate(957.623718 251.738478)scale(0.14 -0.14)">
     <use xlink:href="#PTSans-Regular-41d"/>
     <use x="67.199997" xlink:href="#PTSans-Regular-456"/>
     <use x="93.999985" xlink:href="#PTSans-Regular-43c"/>
     <use x="158.499969" xlink:href="#PTSans-Regular-435"/>
     <use x="209.299957" xlink:href="#PTSans-Regular-447"/>
     <use x="258.299942" xlink:href="#PTSans-Regular-447"/>
     <use x="307.299927" xlink:href="#PTSans-Regular-438"/>
     <use x="361.899918" xlink:href="#PTSans-Regular-43d"/>
     <use x="415.899902" xlink:href="#PTSans-Regular-430"/>
    </g>
   </g>
   <g id="text_10">
    <!-- США -->
    <g transform="translate(1051.952188 158.952971)scale(0.14 -0.14)">
     <use xlink:href="#PTSans-Regular-421"/>
     <use x="57.099991" xlink:href="#PTSans-Regular-428"/>
     <use x="144.799973" xlink:href="#PTSans-Regular-410"/>
    </g>
   </g>
   <g id="text_11">
    <!-- Зі збільшенням загальних витрат все менша частка їх припадає на їжу -->
    <defs>
     <path d="M 13.90625 33.09375 
L 13.90625 40.09375 
L 15.5 40.09375 
Q 16.40625 40.09375 17.703125 40.09375 
Q 19 40.09375 20.34375 40.1875 
Q 21.703125 40.296875 22.953125 40.34375 
Q 24.203125 40.40625 25 40.59375 
Q 27.59375 41 29.890625 41.953125 
Q 32.203125 42.90625 33.890625 44.40625 
Q 35.59375 45.90625 36.59375 47.90625 
Q 37.59375 49.90625 37.59375 52.296875 
Q 37.59375 55.59375 36.5 57.796875 
Q 35.40625 60 33.453125 61.34375 
Q 31.5 62.703125 28.953125 63.25 
Q 26.40625 63.796875 23.5 63.796875 
Q 18.09375 63.796875 14.296875 63.046875 
Q 10.5 62.296875 8.203125 61.203125 
L 6 67.796875 
Q 8 68.90625 13.203125 70.046875 
Q 18.40625 71.203125 24.90625 71.203125 
Q 28.90625 71.203125 32.75 70.34375 
Q 36.59375 69.5 39.640625 67.546875 
Q 42.703125 65.59375 44.546875 62.25 
Q 46.40625 58.90625 46.40625 54 
Q 46.40625 49 43.09375 44.453125 
Q 39.796875 39.90625 33.203125 37.90625 
L 33.203125 37.5 
Q 40.296875 36.5 44.390625 32.203125 
Q 48.5 27.90625 48.5 20.703125 
Q 48.5 15 46.25 10.84375 
Q 44 6.703125 40.34375 4 
Q 36.703125 1.296875 31.953125 0.046875 
Q 27.203125 -1.203125 22.296875 -1.203125 
Q 15.703125 -1.203125 11.453125 -0.453125 
Q 7.203125 0.296875 4.40625 1.40625 
L 6.5 8.90625 
Q 8.796875 7.796875 12.9375 7 
Q 17.09375 6.203125 23 6.203125 
Q 26.09375 6.203125 29.09375 7.046875 
Q 32.09375 7.90625 34.4375 9.65625 
Q 36.796875 11.40625 38.25 14 
Q 39.703125 16.59375 39.703125 20.203125 
Q 39.703125 26.5 35.296875 29.453125 
Q 30.90625 32.40625 23.796875 32.90625 
Q 22.59375 33 21.546875 33.046875 
Q 20.5 33.09375 19.40625 33.09375 
z
" id="PTSans-Regular-417"/>
     <path d="M 12.5 22.296875 
L 12.5 28.796875 
L 19.5 28.796875 
Q 21.296875 28.796875 23.046875 29.390625 
Q 24.796875 30 26.1875 31.046875 
Q 27.59375 32.09375 28.4375 33.546875 
Q 29.296875 35 29.296875 36.59375 
Q 29.296875 40.5 26.59375 42.09375 
Q 23.90625 43.703125 18.5 43.703125 
Q 14.59375 43.703125 11.34375 42.5 
Q 8.09375 41.296875 6.296875 40.203125 
L 4 46.40625 
Q 7 48.09375 11.046875 49.390625 
Q 15.09375 50.703125 20.703125 50.703125 
Q 37.296875 50.703125 37.296875 38.40625 
Q 37.296875 34.90625 35.046875 31.546875 
Q 32.796875 28.203125 28.59375 26.796875 
L 28.59375 26.40625 
Q 34.5 25.296875 36.84375 22.1875 
Q 39.203125 19.09375 39.203125 14 
Q 39.203125 10.796875 37.890625 8.09375 
Q 36.59375 5.40625 34 3.40625 
Q 31.40625 1.40625 27.453125 0.25 
Q 23.5 -0.90625 18.296875 -0.90625 
Q 13.203125 -0.90625 9.84375 0 
Q 6.5 0.90625 3.796875 2.203125 
L 6.09375 8.796875 
Q 8.40625 7.5 11.65625 6.796875 
Q 14.90625 6.09375 18.703125 6.09375 
Q 24.796875 6.09375 28 8.1875 
Q 31.203125 10.296875 31.203125 14.59375 
Q 31.203125 18.203125 28.203125 20.25 
Q 25.203125 22.296875 18.296875 22.296875 
z
" id="PTSans-Regular-437"/>
     <path d="M 15.703125 7 
Q 19.40625 6.40625 22.796875 6.40625 
Q 29.09375 6.40625 32.09375 8.84375 
Q 35.09375 11.296875 35.09375 15.796875 
Q 35.09375 19.796875 32.1875 22.390625 
Q 29.296875 25 23.09375 25 
Q 21.40625 25 19.40625 24.890625 
Q 17.40625 24.796875 15.703125 24.296875 
z
M 15.703125 30.90625 
Q 18.09375 31.296875 20.296875 31.4375 
Q 22.5 31.59375 24.5 31.59375 
Q 29.703125 31.59375 33.296875 30.4375 
Q 36.90625 29.296875 39.15625 27.296875 
Q 41.40625 25.296875 42.40625 22.546875 
Q 43.40625 19.796875 43.40625 16.703125 
Q 43.40625 7.59375 37.953125 3.5 
Q 32.5 -0.59375 21 -0.59375 
Q 14.59375 -0.59375 7.703125 0 
L 7.703125 50 
L 15.703125 50 
z
" id="PTSans-Regular-44c"/>
     <path d="M 32.59375 20.703125 
L 24.90625 19.5 
L 11.703125 0 
L 2 0 
L 14 17.09375 
L 18 20.796875 
Q 12.796875 21.59375 9.140625 25 
Q 5.5 28.40625 5.5 34.203125 
Q 5.5 38.703125 7.046875 41.890625 
Q 8.59375 45.09375 11.5 47.1875 
Q 14.40625 49.296875 18.40625 50.25 
Q 22.40625 51.203125 27.40625 51.203125 
Q 31.09375 51.203125 34.296875 50.703125 
Q 37.5 50.203125 40.59375 49.59375 
L 40.59375 0 
L 32.59375 0 
z
M 32.59375 43.203125 
Q 31.296875 43.703125 29.6875 43.953125 
Q 28.09375 44.203125 26.90625 44.203125 
Q 20.5 44.203125 17.140625 41.890625 
Q 13.796875 39.59375 13.796875 34.59375 
Q 13.796875 30.09375 17.34375 27.640625 
Q 20.90625 25.203125 26.703125 25.203125 
Q 26.796875 25.203125 27 25.203125 
Q 27.203125 25.203125 27.796875 25.203125 
Q 28.40625 25.203125 29.5 25.25 
Q 30.59375 25.296875 32.59375 25.40625 
z
" id="PTSans-Regular-44f"/>
     <path d="M 37.796875 43 
L 15.703125 43 
L 15.703125 0 
L 7.703125 0 
L 7.703125 50 
L 45.796875 50 
L 45.796875 0 
L 37.796875 0 
z
" id="PTSans-Regular-43f"/>
     <path d="M 43.796875 3.296875 
Q 40.796875 1.09375 36.5 -0.046875 
Q 32.203125 -1.203125 27.703125 -1.203125 
Q 21.90625 -1.203125 17.65625 0.640625 
Q 13.40625 2.5 10.546875 5.953125 
Q 7.703125 9.40625 6.296875 14.25 
Q 4.90625 19.09375 4.90625 25 
Q 4.90625 31.296875 6.59375 36.1875 
Q 8.296875 41.09375 11.34375 44.390625 
Q 14.40625 47.703125 18.703125 49.453125 
Q 23 51.203125 28.203125 51.203125 
Q 33 51.203125 36.59375 50.453125 
Q 40.203125 49.703125 42.90625 48.296875 
L 40.59375 41.40625 
Q 38.296875 42.703125 35.25 43.453125 
Q 32.203125 44.203125 29 44.203125 
Q 22.09375 44.296875 17.9375 40.34375 
Q 13.796875 36.40625 13 28.59375 
L 36.59375 28.59375 
L 36.59375 22 
L 12.90625 22 
Q 13.203125 18.703125 14.34375 15.703125 
Q 15.5 12.703125 17.546875 10.5 
Q 19.59375 8.296875 22.59375 7.046875 
Q 25.59375 5.796875 29.796875 5.796875 
Q 33.296875 5.796875 36.34375 6.890625 
Q 39.40625 8 41.203125 9.40625 
z
" id="PTSans-Regular-454"/>
     <path d="M 24 22.09375 
L 9.296875 0 
L 0.09375 0 
L 15.90625 22.90625 
L 19.296875 25.90625 
L 14.203125 29.703125 
L 1.203125 50 
L 9.703125 50 
L 23.5 28.40625 
L 28.703125 28.40625 
L 28.703125 50 
L 36.5 50 
L 36.5 27.40625 
L 41.203125 28.796875 
L 55.09375 50 
L 63.5 50 
L 49.90625 29.703125 
L 46 26.5 
L 51.09375 22.5 
L 65.90625 0 
L 56.40625 0 
L 41.703125 22.5 
L 36.5 22.5 
L 36.5 0 
L 28.703125 0 
L 28.703125 23.5 
z
" id="PTSans-Regular-436"/>
    </defs>
    <g transform="translate(92.16 54.48)scale(0.2016 -0.2016)">
     <use xlink:href="#PTSans-Regular-417"/>
     <use x="54.099991" xlink:href="#PTSans-Regular-456"/>
     <use x="80.899979" xlink:href="#PTSans-Regular-20"/>
     <use x="107.599976" xlink:href="#PTSans-Regular-437"/>
     <use x="151.699966" xlink:href="#PTSans-Regular-431"/>
     <use x="205.299957" xlink:href="#PTSans-Regular-456"/>
     <use x="232.099945" xlink:href="#PTSans-Regular-43b"/>
     <use x="282.399933" xlink:href="#PTSans-Regular-44c"/>
     <use x="328.799927" xlink:href="#PTSans-Regular-448"/>
     <use x="402.399918" xlink:href="#PTSans-Regular-435"/>
     <use x="453.199905" xlink:href="#PTSans-Regular-43d"/>
     <use x="507.19989" xlink:href="#PTSans-Regular-43d"/>
     <use x="561.199875" xlink:href="#PTSans-Regular-44f"/>
     <use x="608.69986" xlink:href="#PTSans-Regular-43c"/>
     <use x="673.199844" xlink:href="#PTSans-Regular-20"/>
     <use x="699.899841" xlink:href="#PTSans-Regular-437"/>
     <use x="743.999832" xlink:href="#PTSans-Regular-430"/>
     <use x="793.599823" xlink:href="#PTSans-Regular-433"/>
     <use x="830.499817" xlink:href="#PTSans-Regular-430"/>
     <use x="880.099808" xlink:href="#PTSans-Regular-43b"/>
     <use x="930.399796" xlink:href="#PTSans-Regular-44c"/>
     <use x="976.799789" xlink:href="#PTSans-Regular-43d"/>
     <use x="1030.799774" xlink:href="#PTSans-Regular-438"/>
     <use x="1085.399765" xlink:href="#PTSans-Regular-445"/>
     <use x="1136.89975" xlink:href="#PTSans-Regular-20"/>
     <use x="1163.599747" xlink:href="#PTSans-Regular-432"/>
     <use x="1213.499741" xlink:href="#PTSans-Regular-438"/>
     <use x="1268.099731" xlink:href="#PTSans-Regular-442"/>
     <use x="1307.899719" xlink:href="#PTSans-Regular-440"/>
     <use x="1361.99971" xlink:href="#PTSans-Regular-430"/>
     <use x="1411.599701" xlink:href="#PTSans-Regular-442"/>
     <use x="1451.399689" xlink:href="#PTSans-Regular-20"/>
     <use x="1478.099686" xlink:href="#PTSans-Regular-432"/>
     <use x="1527.99968" xlink:href="#PTSans-Regular-441"/>
     <use x="1573.09967" xlink:href="#PTSans-Regular-435"/>
     <use x="1623.899658" xlink:href="#PTSans-Regular-20"/>
     <use x="1650.599655" xlink:href="#PTSans-Regular-43c"/>
     <use x="1715.09964" xlink:href="#PTSans-Regular-435"/>
     <use x="1765.899628" xlink:href="#PTSans-Regular-43d"/>
     <use x="1819.899612" xlink:href="#PTSans-Regular-448"/>
     <use x="1893.499603" xlink:href="#PTSans-Regular-430"/>
     <use x="1943.099594" xlink:href="#PTSans-Regular-20"/>
     <use x="1969.799591" xlink:href="#PTSans-Regular-447"/>
     <use x="2018.799576" xlink:href="#PTSans-Regular-430"/>
     <use x="2068.399567" xlink:href="#PTSans-Regular-441"/>
     <use x="2113.499557" xlink:href="#PTSans-Regular-442"/>
     <use x="2153.299545" xlink:href="#PTSans-Regular-43a"/>
     <use x="2201.099533" xlink:href="#PTSans-Regular-430"/>
     <use x="2250.699524" xlink:href="#PTSans-Regular-20"/>
     <use x="2277.399521" xlink:href="#PTSans-Regular-457"/>
     <use x="2305.199509" xlink:href="#PTSans-Regular-445"/>
     <use x="2356.699493" xlink:href="#PTSans-Regular-20"/>
     <use x="2383.39949" xlink:href="#PTSans-Regular-43f"/>
     <use x="2436.899475" xlink:href="#PTSans-Regular-440"/>
     <use x="2490.999466" xlink:href="#PTSans-Regular-438"/>
     <use x="2545.599457" xlink:href="#PTSans-Regular-43f"/>
     <use x="2599.099442" xlink:href="#PTSans-Regular-430"/>
     <use x="2648.699432" xlink:href="#PTSans-Regular-434"/>
     <use x="2702.799423" xlink:href="#PTSans-Regular-430"/>
     <use x="2752.399414" xlink:href="#PTSans-Regular-454"/>
     <use x="2799.599411" xlink:href="#PTSans-Regular-20"/>
     <use x="2826.299408" xlink:href="#PTSans-Regular-43d"/>
     <use x="2880.299393" xlink:href="#PTSans-Regular-430"/>
     <use x="2929.899384" xlink:href="#PTSans-Regular-20"/>
     <use x="2956.59938" xlink:href="#PTSans-Regular-457"/>
     <use x="2984.399368" xlink:href="#PTSans-Regular-436"/>
     <use x="3050.299362" xlink:href="#PTSans-Regular-443"/>
    </g>
   </g>
   <g id="legend_1">
    <g id="patch_7">
     <path d="M 916.7968 121.716 
L 1064.743987 121.716 
Q 1067.543987 121.716 1067.543987 118.916 
L 1067.543987 80.766 
Q 1067.543987 77.966 1064.743987 77.966 
L 916.7968 77.966 
Q 913.9968 77.966 913.9968 80.766 
L 913.9968 118.916 
Q 913.9968 121.716 916.7968 121.716 
z
" style="fill:#ffffff;opacity:0.8;stroke:#cccccc;stroke-linejoin:miter;stroke-width:0.5;"/>
    </g>
    <g id="line2d_10">
     <path d="M 919.5968 88.634438 
L 947.5968 88.634438 
" style="fill:none;stroke:#0064a4;stroke-width:3;"/>
    </g>
    <g id="line2d_11"/>
    <g id="text_12">
     <!-- Загальні витрати -->
     <g transform="translate(958.7968 93.534438)scale(0.14 -0.14)">
      <use xlink:href="#PTSans-Regular-417"/>
      <use x="54.099991" xlink:href="#PTSans-Regular-430"/>
      <use x="103.699982" xlink:href="#PTSans-Regular-433"/>
      <use x="140.599976" xlink:href="#PTSans-Regular-430"/>
      <use x="190.199966" xlink:href="#PTSans-Regular-43b"/>
      <use x="240.499954" xlink:href="#PTSans-Regular-44c"/>
      <use x="286.899948" xlink:href="#PTSans-Regular-43d"/>
      <use x="340.899933" xlink:href="#PTSans-Regular-456"/>
      <use x="367.699921" xlink:href="#PTSans-Regular-20"/>
      <use x="394.399918" xlink:href="#PTSans-Regular-432"/>
      <use x="444.299911" xlink:href="#PTSans-Regular-438"/>
      <use x="498.899902" xlink:href="#PTSans-Regular-442"/>
      <use x="538.69989" xlink:href="#PTSans-Regular-440"/>
      <use x="592.799881" xlink:href="#PTSans-Regular-430"/>
      <use x="642.399872" xlink:href="#PTSans-Regular-442"/>
      <use x="682.19986" xlink:href="#PTSans-Regular-438"/>
     </g>
    </g>
    <g id="line2d_12">
     <path d="M 919.5968 108.346 
L 947.5968 108.346 
" style="fill:none;stroke:#ff2445;stroke-width:3;"/>
    </g>
    <g id="line2d_13"/>
    <g id="text_13">
     <!-- Витрати на їжу -->
     <defs>
      <path d="M 50.703125 54 
Q 50.703125 51.5 49.890625 48.890625 
Q 49.09375 46.296875 47.5 44.046875 
Q 45.90625 41.796875 43.40625 40.09375 
Q 40.90625 38.40625 37.5 37.5 
L 37.5 37.09375 
Q 40.5 36.59375 43.25 35.390625 
Q 46 34.203125 48.09375 32.09375 
Q 50.203125 30 51.5 27 
Q 52.796875 24 52.796875 19.90625 
Q 52.796875 14.5 50.546875 10.546875 
Q 48.296875 6.59375 44.640625 4.09375 
Q 41 1.59375 36.296875 0.390625 
Q 31.59375 -0.796875 26.703125 -0.796875 
Q 25 -0.796875 22.703125 -0.796875 
Q 20.40625 -0.796875 17.90625 -0.640625 
Q 15.40625 -0.5 12.90625 -0.25 
Q 10.40625 0 8.5 0.5 
L 8.5 69.40625 
Q 12.203125 70 17.09375 70.390625 
Q 22 70.796875 27.796875 70.796875 
Q 31.703125 70.796875 35.75 70.140625 
Q 39.796875 69.5 43.09375 67.640625 
Q 46.40625 65.796875 48.546875 62.5 
Q 50.703125 59.203125 50.703125 54 
z
M 27.5 6.40625 
Q 30.703125 6.40625 33.703125 7.15625 
Q 36.703125 7.90625 39 9.546875 
Q 41.296875 11.203125 42.640625 13.59375 
Q 44 16 44 19.296875 
Q 44 23.40625 42.34375 25.90625 
Q 40.703125 28.40625 38.046875 29.796875 
Q 35.40625 31.203125 32.09375 31.703125 
Q 28.796875 32.203125 25.5 32.203125 
L 16.796875 32.203125 
L 16.796875 7.09375 
Q 17.5 6.90625 18.796875 6.796875 
Q 20.09375 6.703125 21.59375 6.59375 
Q 23.09375 6.5 24.6875 6.453125 
Q 26.296875 6.40625 27.5 6.40625 
z
M 22 39.203125 
Q 23.703125 39.203125 26.09375 39.296875 
Q 28.5 39.40625 30.09375 39.59375 
Q 32.5 40.40625 34.59375 41.546875 
Q 36.703125 42.703125 38.34375 44.25 
Q 40 45.796875 40.953125 47.84375 
Q 41.90625 49.90625 41.90625 52.296875 
Q 41.90625 55.59375 40.65625 57.75 
Q 39.40625 59.90625 37.296875 61.203125 
Q 35.203125 62.5 32.5 63.046875 
Q 29.796875 63.59375 27 63.59375 
Q 23.703125 63.59375 20.953125 63.4375 
Q 18.203125 63.296875 16.796875 63 
L 16.796875 39.203125 
z
" id="PTSans-Regular-412"/>
     </defs>
     <g transform="translate(958.7968 113.246)scale(0.14 -0.14)">
      <use xlink:href="#PTSans-Regular-412"/>
      <use x="58.399994" xlink:href="#PTSans-Regular-438"/>
      <use x="112.999985" xlink:href="#PTSans-Regular-442"/>
      <use x="152.799973" xlink:href="#PTSans-Regular-440"/>
      <use x="206.899963" xlink:href="#PTSans-Regular-430"/>
      <use x="256.499954" xlink:href="#PTSans-Regular-442"/>
      <use x="296.299942" xlink:href="#PTSans-Regular-438"/>
      <use x="350.899933" xlink:href="#PTSans-Regular-20"/>
      <use x="377.59993" xlink:href="#PTSans-Regular-43d"/>
      <use x="431.599915" xlink:href="#PTSans-Regular-430"/>
      <use x="481.199905" xlink:href="#PTSans-Regular-20"/>
      <use x="507.899902" xlink:href="#PTSans-Regular-457"/>
      <use x="535.69989" xlink:href="#PTSans-Regular-436"/>
      <use x="601.599884" xlink:href="#PTSans-Regular-443"/>
     </g>
    </g>
   </g>
  </g>
 </g>
 <defs>
  <clipPath id="p6060fb40ff">
   <rect height="408.24" width="1002.24" x="92.16" y="60.48"/>
  </clipPath>
 </defs>
</svg>
